<svg width="3645" height="866" viewBox="0 0 3645 866" fill="none" xmlns="http://www.w3.org/2000/svg">
<path d="M3351.5 67.1C3300 72.4 3253.7 94.2 3218 129.9C3212.7 135.2 3205.9 142.6 3202.9 146.5C3194.6 156.9 3185.7 170 3186.8 170C3187.3 170 3189.6 169.3 3191.9 168.5C3200 165.7 3227.7 158 3242.5 154.6C3297.7 141.7 3356.5 136 3413 138.1C3455.3 139.6 3489.7 143.9 3529.4 152.6C3538.1 154.5 3545.5 155.8 3545.8 155.6C3547.7 153.6 3517 121.5 3503.2 111.1C3459.9 78.4 3402.8 61.8 3351.5 67.1Z" fill="black"/>
<path d="M3394.5 145C3360.8 146.6 3326.6 151.5 3294 159.2C3254.9 168.4 3209.9 184.8 3178.6 201.3C3169 206.3 3168.6 206.7 3166.8 211.5C3162.2 224 3156 252 3156 260.7V264.2L3159.4 261.7C3242.1 198.6 3348 160.7 3452 157.2C3476 156.3 3509 157.3 3527 159.4C3534.4 160.3 3543 161.3 3546 161.6C3561.2 163.4 3537.5 157.1 3512 152.6C3475.7 146.1 3430.6 143.2 3394.5 145Z" fill="#BC3025"/>
<path d="M3475 166.6C3406.5 171.6 3350.7 185.5 3291 212.5C3246.1 232.8 3197.8 264.6 3161.5 297.8L3155.7 303.1L3156.5 310.3C3157.8 323.8 3161.9 341.2 3167.7 357.8L3170.3 365.1L3176.4 359.3C3187.7 348.4 3185.2 348.6 3198.7 357.5C3205.2 361.8 3210.7 365.4 3210.8 365.5C3211 365.7 3205.6 372 3198.8 379.5C3192.1 387 3186.4 393.6 3186.2 394C3185.7 395.4 3190.7 403.5 3198.9 414.5C3211.9 432 3234.3 452.7 3253.9 465.4C3262.2 470.8 3276.4 478 3277 477.3C3277.4 476.8 3280.2 471.3 3283.1 465C3305.9 416.4 3334.3 372.4 3369.7 330.9C3382.2 316.2 3417.2 281.2 3431.9 268.7C3467.4 238.4 3505.4 212.9 3545.7 192.2L3564 182.9L3561.2 178.1C3555.7 168.5 3555.9 168.6 3548.4 167.8C3540.4 167 3483.1 166 3475 166.6ZM3555.7 176.7C3556.3 178.4 3546.6 179.9 3543.9 178.4C3541.7 177.3 3541.9 177.1 3546.5 176.5C3549.3 176.1 3552 175.7 3552.5 175.5C3554 175 3555.3 175.5 3555.7 176.7ZM3527.1 181.4C3530.8 183 3530.6 183.1 3523.3 185C3519.8 185.9 3518.5 185.8 3515.9 184.5C3512.3 182.6 3512.6 182 3517.7 181C3523.3 179.9 3523.5 179.9 3527.1 181.4ZM3494.8 189C3496.5 190.1 3498 191.2 3498 191.4C3498 191.7 3495 192.9 3491.3 194L3484.5 196.1L3479.8 193.9C3477.1 192.7 3475 191.4 3475 191C3475 190.2 3486.3 187.2 3489.5 187.1C3490.6 187 3493 187.9 3494.8 189ZM3464.4 202.1C3464.8 202.5 3461.4 204 3456.8 205.5L3448.5 208.3L3442 205L3435.5 201.7L3445 199L3454.5 196.3L3459 198.8C3461.5 200.2 3463.9 201.7 3464.4 202.1ZM3422.6 212.1C3425.5 213.7 3428.2 215.5 3428.5 216C3428.8 216.4 3424.6 218.7 3419.2 221L3409.3 225.2L3402.2 221.6C3398.2 219.6 3395 217.6 3395 217.2C3395 216.3 3412.7 209.2 3415.4 209.1C3416.4 209 3419.7 210.4 3422.6 212.1ZM3382.1 230C3385.9 232.3 3389 234.4 3389 234.8C3389 235.2 3384.4 237.8 3378.8 240.7L3368.6 245.9L3360.3 241.2C3355.8 238.6 3352 236.2 3352 235.9C3352 235.2 3372.1 226.1 3373.8 226C3374.6 226 3378.3 227.8 3382.1 230ZM3338.2 252.1C3342.5 255 3345.9 257.7 3345.8 258.2C3345.6 258.6 3339.9 262.6 3333.1 266.9L3320.7 274.7L3311.3 269.1C3306.2 266 3302 263.3 3302 263C3302 262.5 3305.2 260.6 3324 249.7C3326.5 248.3 3328.9 247.1 3329.4 247C3330 247 3333.9 249.3 3338.2 252.1ZM3292.3 282.3C3297.1 285.6 3300.7 288.6 3300.3 289C3298.2 290.8 3277.2 306 3276.7 306C3276.4 306 3271.4 303.2 3265.5 299.9C3256.7 294.8 3255.1 293.5 3256.2 292.4C3259.6 289.1 3281.4 275.1 3282.4 275.7C3283 276 3287.5 279 3292.3 282.3ZM3246.7 314.7C3252.3 318.5 3257 321.8 3257 322.1C3257 322.8 3229.5 348 3228.7 348C3228.2 348 3210.6 338.1 3206.1 335.3L3203.7 333.7L3207.1 330.8C3216.6 322.8 3235.1 308 3235.7 308C3236.1 308 3241 311 3246.7 314.7Z" fill="black"/>
<path d="M3561.2 196.2C3511 266.7 3475.8 342.3 3455.6 423.5C3451.2 441.2 3444.8 472.4 3443.4 482.7L3442.8 487.9L3448.1 485.9C3458.5 482.1 3481.6 470.1 3491.5 463.5C3539.6 431.3 3572.2 382.6 3583.8 325.5C3589.8 296.1 3589.2 264.1 3582 233C3578.4 217.4 3568.8 191.1 3566.5 190.4C3565.9 190.2 3563.5 192.8 3561.2 196.2Z" fill="black"/>
<path d="M3543 205.8C3541.1 207.4 3534.3 212.6 3528 217.5C3447.6 279.7 3378.7 366.5 3335.5 459.8C3326 480.4 3320.8 493.2 3321.7 494.1C3322.2 494.5 3328.4 495.8 3335.5 497C3350.7 499.5 3371.5 500.6 3385 499.6L3394.6 498.8L3396.8 485.2C3407.6 418.5 3435.3 349 3474.3 290.5C3493 262.6 3510.6 240.8 3534.9 215.8C3541.7 208.8 3547.1 203 3546.9 203C3546.7 203.1 3544.9 204.3 3543 205.8Z" fill="#BC3025"/>
<path d="M427 544.5V762H442H457V544.5V327H442H427V544.5Z" fill="#BC3025"/>
<path d="M69 553.5V762H84H99L99.2 667.7L99.5 573.5L217.8 573.2L336 573V559V545L217.8 544.8L99.5 544.5L99.2 459.2L99 374H230.5H362V359.5V345H215.5H69V553.5Z" fill="#BC3025"/>
<path d="M1394 553.5V762H1531.5H1669V748V734H1546.5H1424V539.5V345H1409H1394V553.5Z" fill="black"/>
<path d="M1195 409.5V458L1172.8 458.2L1150.5 458.5L1150.2 471.7L1149.9 485H1172.5H1195V590.9C1195 683.2 1195.2 697.8 1196.6 705.1C1202.8 737.8 1224.4 758.9 1258.8 765.6C1275.7 769 1301.2 767.2 1317.7 761.6C1329.9 757.4 1329 758.9 1329 743.4C1329 730.8 1328.9 729.8 1327.3 730.5C1308.6 738.2 1296.9 740.4 1280 739.7C1273.1 739.4 1264.8 738.4 1261.5 737.5C1247.6 733.7 1235.8 724.4 1230.1 712.8C1223.9 700.2 1224 702.7 1224 588.7V485H1277H1330V471.5V458H1277H1224L1223.8 409.7L1223.5 361.5L1209.3 361.2L1195 360.9V409.5Z" fill="#BC3025"/>
<path d="M2707.8 410.2L2707.5 458.5L2685.8 458.8L2664 459V472V485H2686H2707.9L2708.3 593.2L2708.6 701.5L2710.8 710C2714.6 724.3 2720.1 734.2 2730 744.1C2737.1 751.3 2740 753.5 2748 757.4C2764 765.2 2770.1 766.4 2794 766.4C2815.9 766.4 2821.2 765.5 2835.6 759.8L2841.5 757.5L2841.8 743.8L2842.1 730.2L2831.3 734C2816.9 739 2807.9 740.4 2792.8 739.8C2762 738.5 2743.6 724.2 2738.5 697.6C2737.2 691 2737 673.8 2737 587.4V485H2790H2843V472V459H2790H2737V410.5V362H2722.5H2708L2707.8 410.2Z" fill="black"/>
<path d="M651 452.1C634.8 453.9 616 459.4 602.1 466.4C592.8 471.2 578.8 481.3 570 489.7C538.5 519.6 521.1 562.3 521 609.5C521 631.7 523.4 647.4 530 667.1C537.8 690.6 549.3 709.4 566.5 726.5C583.5 743.6 601.1 754.5 623.9 762C641 767.7 652.4 769.4 672 769.2C708.8 769 738 759.7 765.9 739.2C774.9 732.6 792.6 716.7 794.1 713.7C795.4 711.4 796 712.1 781.3 699.3L776.1 694.8L765.8 704.1C753.3 715.3 744.7 721.4 733.1 727.4C702.6 743.1 664.9 746.4 633.8 736C599.6 724.5 572.8 697.5 560.2 661.9C556.9 652.6 553.6 638 552.5 628.2L551.8 622H677.8H803.8L804.4 619.7C805.3 616.3 805.1 603.7 804 591.6C797.7 525.5 762.9 476.2 710 458.6C691.9 452.6 669.1 450.1 651 452.1ZM682 479.5C697.5 481.8 712 487.6 724.5 496.5C736.4 504.9 750.2 521.5 757.5 535.9C764.8 550.4 771 572.3 772.6 588.7L773.3 596H662.6H551.9L552.5 590.2C556.3 557.7 570.7 527.7 592.2 507.4C617.1 483.8 647.9 474.3 682 479.5Z" fill="#BC3025"/>
<path d="M969.001 452.1C920.501 457.4 879.001 487.2 857.001 532.5C840.501 566.4 835.301 603.8 841.901 642.2C855.701 722 922.101 775 1001.2 769C1030.4 766.8 1054.5 758.9 1076.5 744.5C1085.7 738.4 1101 725.7 1108.8 717.7L1114.1 712.3L1104.8 704C1099.7 699.5 1095.1 695.6 1094.5 695.4C1094 695.2 1090.1 698.2 1086 702.1C1058.7 727.9 1031.2 740.1 996.801 741.7C968.501 743 947.101 737.3 924.901 722.5C894.101 702 875.501 669 870.701 626.3L870.201 622L996.301 621.8L1122.5 621.5L1122.4 607.5C1121.9 526.7 1076.3 465 1008.5 453.6C996.501 451.6 979.501 450.9 969.001 452.1ZM1008.5 480.9C1027.1 485.5 1040.5 493.1 1054.8 507.3C1074 526.2 1087.3 556.6 1090.6 589.2L1091.3 596H980.701H870.101L870.601 592.2C873.601 570.9 877.701 556.5 885.101 541.9C902.001 508.2 930.901 485.4 964.401 479.5C975.501 477.5 997.701 478.2 1008.5 480.9Z" fill="#BC3025"/>
<path d="M1827.7 454C1776.9 463.2 1734.9 496.5 1713.2 544.7C1696.8 581 1694.9 627.1 1708.2 664.9C1727.1 718.8 1772.4 757.6 1827.5 767C1843.5 769.7 1866.5 769.7 1882.5 767C1945.3 756.3 1994.1 708.1 2008.2 643C2010.1 633.9 2010.4 629.6 2010.5 610C2010.5 590.1 2010.2 586.2 2008.2 576.6C1994.9 514.6 1951.6 469.8 1891 455.3C1881.9 453.1 1877.6 452.7 1859.5 452.4C1841.8 452.1 1836.8 452.4 1827.7 454ZM1877.8 480.5C1922.1 489 1959.1 522.4 1973.4 567C1978.3 582.1 1980.2 595 1980.2 611.5C1980.2 649 1967.2 681.4 1942.1 706.7C1919.3 729.8 1889.6 742 1856.5 742C1831.2 742 1808.8 735.2 1787.5 721.2C1778.3 715.1 1760.6 697.4 1754.3 688C1743.3 671.6 1735.7 652.4 1732.5 633.2C1730.2 619.4 1730.9 591.6 1733.8 579C1746.8 523.8 1787.3 485.7 1840.1 479C1849.8 477.8 1867.4 478.5 1877.8 480.5Z" fill="black"/>
<path d="M2187 452.6C2171.3 455.5 2166.1 456.8 2157.5 459.7C2098 480.3 2056.9 534.4 2052.1 598.5C2046.1 677.8 2096.1 747.7 2172 765.7C2186.4 769.1 2214.3 770 2230.6 767.6C2264.5 762.6 2290.6 748.8 2318.3 721.3L2330.1 709.5L2324.3 704.2C2321.1 701.3 2316.6 697.3 2314.2 695.3L2310 691.7L2300.2 701.2C2272.4 728.1 2245.1 740.7 2212 741.8C2177.5 742.9 2148.3 731.8 2123.8 708.2C2104.7 689.9 2092.9 669.7 2086.5 644.2C2071.2 583.1 2098 519.2 2150.3 492C2168.9 482.3 2183.9 478.7 2205.5 478.7C2239.9 478.7 2265.5 490 2297.1 519L2306.7 527.9L2317.1 517.4L2327.5 506.8L2317.3 497.1C2294.3 475.1 2268.6 461.1 2240.2 454.9C2232.6 453.3 2226.1 452.7 2210 452.5C2198.7 452.3 2188.4 452.4 2187 452.6Z" fill="black"/>
<path d="M2990.5 453.6C2979.1 455.6 2965 460.2 2954.2 465.4C2912.9 485.6 2883.9 525.1 2873.8 575.2C2871.8 585.1 2871.5 589.4 2871.5 610.5C2871.5 631.6 2871.8 635.9 2873.8 645.8C2881.7 684.7 2902.3 718.3 2931.9 740.5C2947.1 752 2968.1 761.6 2987.9 766.1C2999.2 768.8 3028.7 769.8 3042.7 768C3070.2 764.6 3094.5 754.7 3116.7 738.1C3125.5 731.5 3145.9 712.5 3145 711.8C3144.7 711.6 3140.9 708.3 3136.5 704.4C3132.1 700.6 3127.7 696.9 3126.8 696.1C3125.2 694.9 3124 695.8 3115.9 703.3C3087.6 729.7 3057.8 742 3022 742C2988.9 742 2961.2 730.9 2938.9 708.7C2925.3 695.2 2915.2 679 2908.9 660.3C2905.9 651.3 2902.4 634.8 2901.8 627L2901.5 622.5L3027.9 622.2L3154.3 622L3153.7 605.2C3152.1 565.8 3143.5 536.8 3125.2 509C3118.3 498.5 3101 481 3091 474.3C3075.5 463.9 3057.1 456.6 3039.1 453.6C3027.4 451.6 3001.7 451.6 2990.5 453.6ZM3041.1 481.3C3070.3 489 3092.1 507 3106.7 535.6C3114.8 551.3 3120.5 570.8 3122.5 589.7L3123.2 596H3012.6H2902V592C2902 586 2905.5 569.3 2908.9 559.2C2922.9 517.2 2955.7 486.9 2994.8 479.5C3006.8 477.2 3029 478.1 3041.1 481.3Z" fill="black"/>
<path d="M2466.9 455C2454.5 456.4 2434.6 460.9 2422.2 465C2410.2 468.9 2386.3 478.7 2385.6 479.8C2385.3 480.4 2394.6 503.4 2395.7 504.9C2395.9 505.1 2400.8 503 2406.7 500.2C2424.3 491.9 2441.3 486.6 2462 482.9C2472.2 481 2508.1 481 2517.5 482.9C2566.2 492.5 2591 523.3 2591 574.1C2591 581.2 2590.8 587 2590.6 587C2590.3 587 2584.7 585.7 2578.1 584.1C2553.5 578.1 2531.8 575.3 2501.5 574.3C2422.4 571.8 2370.4 600.7 2359.6 653.3C2357.5 663.2 2357.5 682.7 2359.6 692.8C2364.9 719.2 2383.5 741.5 2411.4 755C2424.5 761.4 2434.7 764.6 2449.5 767.2C2465 769.8 2493.2 769.3 2507.6 766.1C2539.5 759.1 2566.1 742.6 2587.3 717L2591 712.5V737.2V762H2605.5H2620V665.7C2620 609.3 2619.6 564.7 2619 558C2614.1 502.7 2584 468.7 2529.5 457C2521.4 455.2 2515.3 454.8 2497 454.5C2484.6 454.3 2471.1 454.5 2466.9 455ZM2510.5 601C2534.6 602.5 2557 605.8 2581.5 611.3L2591.5 613.5L2591.8 632C2592 642.2 2591.6 654.2 2591 658.6C2587.7 684.1 2573.1 706.2 2549.3 721.7C2540.1 727.7 2533.3 730.9 2521.3 735.1C2505.4 740.5 2498.2 741.5 2477 741.4C2459.2 741.4 2456.6 741.1 2447.5 738.7C2442 737.2 2432.8 733.7 2427 730.9C2418 726.4 2415.3 724.5 2407.4 716.6C2397.2 706.4 2393.4 699.8 2390 686.6C2386.4 672.4 2388.1 657 2394.7 643C2397.5 637.1 2400.1 633.6 2407 626.8C2414.5 619.4 2417.2 617.4 2426.1 613.1C2448.5 602.2 2473.2 598.7 2510.5 601Z" fill="black"/>
<path d="M3272 631.5C3238.2 639.2 3217.4 671.6 3224.5 705.5C3228.3 723.6 3240.7 739.8 3257 747.7C3282.6 760.3 3311.1 755.9 3330.5 736.5C3345.5 721.6 3351.7 700.8 3347.6 680C3341.5 649.8 3316.6 629.8 3285.5 630.1C3281.1 630.2 3275 630.8 3272 631.5ZM3302.7 641.5C3340.3 654.2 3351.5 702 3323.5 730.3C3306 748 3277.7 751 3257.2 737.4C3233.8 721.9 3226.2 691.6 3239.3 666.5C3245.6 654.5 3258.7 644.2 3272.3 640.5C3281.1 638.2 3293.9 638.6 3302.7 641.5Z" fill="black"/>
<path d="M3263 693V729H3268H3273V713.5V698H3279.4H3285.8L3295.7 713.5L3305.5 728.9L3310.8 729C3314.8 729 3315.9 728.7 3315.4 727.7C3315 727.1 3310.4 720 3305.3 712L3295.9 697.5L3299.9 696.3C3302.1 695.7 3305.3 694.4 3306.9 693.4C3315.8 688.2 3317.3 670.4 3309.6 662.7C3304.8 657.8 3300.5 657 3280.6 657H3263V693ZM3295.5 666C3303.6 667.8 3307.4 676.1 3303.3 683C3300.8 687.3 3297.6 688.3 3284.8 688.8L3273 689.2V677.1V665H3282.3C3287.3 665 3293.3 665.5 3295.5 666Z" fill="black"/>
</svg>
