<svg width="3474" height="841" viewBox="0 0 3474 841" fill="none" xmlns="http://www.w3.org/2000/svg">
<g clip-path="url(#clip0_1802_1520)">
<path d="M3082 1.9C3079.1 3 3076 4.6 3075.3 5.6C3074.2 7 3074 37.6 3074 166.5C3074 306.4 3074.2 325.8 3075.5 327.7C3078.3 331.7 3083.1 332.5 3104.5 332.5C3122.5 332.5 3124.9 332.3 3128.5 330.5C3130.7 329.4 3133 327.4 3133.7 326C3135.5 322.3 3135.5 10.7 3133.7 7C3133 5.6 3130.7 3.6 3128.5 2.5C3125 0.799995 3122.2 0.499995 3106 0.199995C3089.8 -4.95464e-06 3086.8 0.199995 3082 1.9Z" fill="#50131D"/>
<path d="M2316 8C2296.3 10.1 2290 17.9 2290 40.1C2290 63.8 2297.5 70.5 2324 70.5C2350.1 70.5 2357.7 64.3 2358.8 42.5C2359.5 26.4 2356.7 17.4 2349.3 12.4C2343.9 8.8 2328.1 6.7 2316 8Z" fill="#50131D"/>
<path d="M2145.5 17.6C2110.9 21.2 2086.3 32.9 2070.8 53.1C2064.5 61.3 2059 72.3 2056.6 81.5C2051.4 101.7 2053 126.3 2060.5 142.9C2066.3 155.5 2079.1 170.5 2091.1 178.7C2098.1 183.5 2114.3 192 2129.5 198.9C2137.2 202.4 2147.8 207.4 2153 210C2177.8 222.4 2186.9 235.3 2184 253.7C2181.4 269.6 2170.6 280.3 2152.8 284.5C2144.5 286.5 2124.5 286.4 2114 284.4C2099.1 281.6 2090.3 278 2064 263.7C2054.5 258.6 2051 261 2048.9 274C2047.6 282.3 2048.2 300.1 2050.1 306.5C2051.7 312.3 2057.6 317.3 2069.3 323C2079.7 328 2090.5 331.5 2105.3 334.7C2117.3 337.3 2154 337.3 2166 334.6C2192.5 328.9 2210.3 319.7 2225.1 304.3C2237.4 291.6 2244.3 278.3 2247.9 260.3C2252.4 238.4 2249.7 215.1 2240.7 199C2228.5 177.1 2211.1 164.2 2168.5 145.5C2140 133 2127.4 124.7 2121.3 114.3C2119.2 110.7 2118.6 108 2118.2 102C2117.3 86.7 2122.3 77.9 2135.6 71.3C2142.8 67.8 2143.8 67.6 2155 67.2C2174.6 66.5 2185.7 69.3 2209.7 81.2C2223 87.8 2224 88.1 2226.6 86.8C2230.8 84.9 2231.8 79.9 2231.9 62.5C2232 44.8 2231.1 40.8 2226 35.9C2219.6 29.8 2200.7 22.8 2181.9 19.5C2173.2 18 2152.5 16.9 2145.5 17.6Z" fill="#50131D"/>
<path d="M2527 97.6C2507.2 101.5 2492.1 109.9 2473.3 127.4L2466 134.2V121.3C2466 111.5 2465.6 107.9 2464.5 106.3C2461.9 102.5 2456.6 101.5 2440.5 101.5C2423.4 101.5 2416.7 103.1 2414.9 107.7C2414.4 109.1 2414 153.6 2414 218.1V326.1L2416.6 328.5C2420.4 332 2429.7 333.3 2448.5 332.8C2466.3 332.3 2472.4 330.8 2474.1 326.3C2474.6 324.9 2475 293.6 2475 252.4V180.9L2487.3 168.6C2503 152.8 2507.3 150.5 2521 150.5C2529.5 150.5 2531 150.8 2535 153.2C2540.9 156.6 2544.3 160.3 2547.5 166.7C2552.8 177.4 2553 179.7 2553 254.5C2553 307.4 2553.3 324.1 2554.3 326C2556.8 331 2561.9 332.4 2579.5 332.8C2598.4 333.3 2608.1 332 2611.7 328.4L2614 326.1V253.5V181L2625.8 169.2C2634.1 160.8 2639.4 156.4 2644 154C2650.1 150.7 2651.1 150.5 2660 150.5C2667.8 150.5 2670.2 150.9 2673.6 152.7C2681.3 156.8 2687.3 165.3 2690.7 176.7C2692.2 181.9 2692.5 190.2 2692.8 254.7L2693.1 326.9L2695.6 328.9C2699.4 331.9 2706.7 333 2723 333C2739.3 333 2746.6 331.9 2750.5 328.9L2753 326.9V251.7C2753 159.9 2752.5 154.7 2742.4 134C2738.6 126.4 2736.2 123 2730.1 116.9C2721 107.9 2714.5 104 2702.5 100.5C2690.8 97.1 2673.7 96.1 2663.5 98.3C2646.1 102 2630.4 110.9 2613.1 126.8L2604.1 135.1L2602.4 132.3C2591.3 114.1 2580.2 105.2 2562 100C2554.6 97.9 2533 96.5 2527 97.6Z" fill="#50131D"/>
<path d="M2924.5 98.1998C2904.4 101.9 2887.7 111.4 2869.3 129.4L2863 135.4V121.7C2863 108.6 2862.9 107.8 2860.7 105.6C2857.3 102.2 2846.9 100.6 2832.8 101.2C2821.4 101.8 2817 102.8 2813.8 105.7C2812.1 107.2 2812 115.7 2812 259C2812 431.9 2810.9 413.9 2821.5 416.7C2825.6 417.7 2832 418.3 2841.5 418.3C2856.4 418.3 2865.1 416.9 2869.1 413.9L2871.5 412.1L2872 360.4L2872.5 308.7L2880 315.2C2898.9 331.6 2912.2 337 2933.8 337C2950.9 337 2966.2 333.2 2978.7 325.9C2986.1 321.5 3002.6 305.1 3006.8 297.8C3014.2 285.3 3020.3 267.9 3023.6 250.3C3026 236.9 3026.6 201.6 3024.6 186.5C3018 136.6 2995.4 106.5 2958.9 98.9998C2948.8 96.8998 2933.2 96.4998 2924.5 98.1998ZM2937.5 152.2C2950.8 159 2959.2 174.5 2962 197.3C2963.8 211.3 2962.8 236.2 2960.1 246.4C2955.5 263.8 2946.5 276.9 2935.3 282.5C2930.2 285.1 2928.4 285.4 2920.5 285.5C2912.9 285.5 2910.7 285.1 2906 282.9C2897.6 278.9 2888.5 271.6 2879.9 261.6L2872 252.6V217.7V182.8L2877.9 175.7C2888.2 163.1 2899 154.5 2909.3 150.8C2917.1 148 2930.7 148.7 2937.5 152.2Z" fill="#50131D"/>
<path d="M2309.5 101.6C2303.5 102.5 2297 105.2 2295.5 107.3C2294.2 109.2 2294 123.1 2294 217.8V326.1L2296.6 328.5C2300.4 332 2309.7 333.3 2328.5 332.8C2346.3 332.3 2352.4 330.8 2354.1 326.3C2354.6 324.9 2355 279.9 2355 217.2C2355 133.8 2354.7 110 2353.7 108C2351.6 103.7 2343.7 101.8 2327 101.4C2319 101.3 2311.2 101.4 2309.5 101.6Z" fill="#50131D"/>
<path d="M3181.8 102C3171.9 103.8 3168.5 107.3 3169.4 114.8C3170.1 119.8 3244 318.4 3247.6 324.6C3248.9 326.9 3251 329.4 3252.4 330.3L3254.8 331.9L3239.9 369.2C3231.7 389.7 3225 407.7 3225 409.1C3225 416.7 3239.8 420.1 3264.7 418C3277.6 417 3286.4 414.5 3289.5 410.9C3290.5 409.8 3294.8 398.7 3299.1 386.2C3381.7 143.5 3390.1 118.2 3390.2 113.8C3390.4 104.4 3385.4 102.1 3363.5 101.3C3346.2 100.7 3337.7 101.9 3334.3 105.3C3332.7 106.9 3325.7 127.6 3308.4 182.8C3295.3 224.2 3284.3 257.7 3283.9 257.3C3283.5 256.8 3271.7 223.7 3257.6 183.6C3243.5 143.5 3231.4 109.5 3230.7 108.1C3230.1 106.7 3227.7 104.6 3225.5 103.5C3222 101.8 3219.3 101.5 3204 101.3C3194.4 101.2 3184.4 101.5 3181.8 102Z" fill="#50131D"/>
<path d="M2816.8 496C2787.7 500.9 2769.2 518.7 2762.9 547.9C2760.8 558 2759.1 576.8 2759 591.2V600H2744.9C2737.2 600 2730 600.5 2729 601C2725.4 602.9 2723.7 611.8 2724.2 626.9C2724.6 641.2 2725.9 645.8 2729.9 648C2731 648.5 2738 649 2745.4 649H2759L2759.2 736.3C2759.5 808.9 2759.7 824 2760.9 825.4C2763.8 828.8 2772.6 830.4 2789.5 830.4C2807.3 830.4 2815.7 828.8 2818.5 824.8C2819.8 822.8 2820 812.5 2820 735.8V649H2839.8C2861.9 649 2863 648.7 2865.7 642.1C2867.8 637.2 2868.6 618.2 2867.1 610.8C2866.4 607.7 2865 604 2863.9 602.6L2861.9 600H2840.9H2820V585.2C2820 562.9 2822.1 554.6 2829.4 548.2C2836.1 542.3 2849.7 541.8 2863.9 546.8C2866.8 547.9 2870.1 548.5 2871.2 548.2C2875 547.3 2876.3 541.6 2876.4 527C2876.4 503.8 2874.4 501.1 2854.5 496.9C2845 494.9 2826 494.5 2816.8 496Z" fill="#50131D"/>
<path d="M3429.7 498.1C3420.7 499.3 3416.2 501.3 3415 504.5C3414.4 506.1 3414 529 3414 564.6V622.1L3407.3 616.4C3386.4 598.6 3366.6 592.1 3342.4 594.9C3312.2 598.4 3290.3 613.1 3276.6 639.2C3264.3 662.4 3259.2 689.2 3260.3 724.4C3261.2 752.7 3265 770.4 3274.7 790C3279.7 800.3 3281.2 802.3 3289.9 811C3304.7 825.7 3316.7 831.5 3337.5 834C3366.2 837.4 3391.4 827.9 3416.3 804.1L3423 797.7V810.4C3423 817.4 3423.4 824 3424 825C3426 828.7 3433.3 830.4 3447.9 830.4C3462.8 830.5 3470.2 829 3472.5 825.6C3473.8 823.8 3474 802.2 3474 664.5C3474 485.4 3474.8 502.2 3465.8 499.5C3459.4 497.6 3438.8 496.8 3429.7 498.1ZM3376.5 647.5C3385.6 650.1 3394.9 657.2 3407.8 671.3L3414 678.2V713.9V749.5L3406.6 758.1C3397.9 768.2 3388.5 776 3380.3 779.8C3375.1 782.2 3373.4 782.5 3363.5 782.5C3353.5 782.5 3352 782.3 3347.4 779.8C3337.2 774.5 3329 762.2 3325 746.7C3321.9 734.4 3320.6 714.9 3321.9 702C3326.4 659.4 3346.6 639.2 3376.5 647.5Z" fill="#50131D"/>
<path d="M2642.7 506.1C2628.7 509.4 2623.6 517.7 2623.6 537C2623.6 553.9 2627.6 561.9 2637.8 565.5C2644.1 567.7 2662.3 568.6 2670.9 567.1C2687.1 564.2 2692.4 556.6 2692.4 536C2692.5 511.7 2684.7 504.8 2657.2 505.1C2651.3 505.2 2644.8 505.6 2642.7 506.1Z" fill="#50131D"/>
<path d="M2920.7 506.1C2915.2 507.4 2909.5 510.6 2907.1 513.6C2903.7 517.9 2901.6 526.6 2901.6 536.5C2901.5 553.6 2905.8 562 2916.3 565.7C2922.6 567.9 2947 568.3 2953.6 566.3C2964.5 562.9 2969.7 555.2 2970.7 540.8C2972.2 519.8 2966.2 509.2 2951.2 506.1C2945 504.8 2926.2 504.8 2920.7 506.1Z" fill="#50131D"/>
<path d="M2061.3 520C2056 521.1 2051.4 523.5 2050.6 525.5C2049.5 528.4 2049.9 727.9 2051 737C2056.5 781.7 2079.1 811.9 2117.4 825.5C2144.3 835.1 2180.7 837.2 2212 831C2259.4 821.5 2289 792.8 2299.1 746.9C2302.6 730.7 2303.1 713.1 2302.8 617.7L2302.5 525.8L2299.8 523.5C2295.7 520 2286 518.7 2267 519.2C2252.9 519.5 2249.8 519.9 2245.8 521.7C2242.6 523.2 2240.9 524.6 2240.5 526.2C2240.2 527.5 2239.9 573.9 2239.7 629.5C2239.5 730.3 2239.5 730.5 2237.3 738.3C2230.9 760.8 2216.2 775.6 2195.4 780.6C2186.3 782.8 2167.8 782.8 2158.8 780.7C2137 775.4 2122 760 2115.8 736.9C2113.6 728.6 2113.6 727.9 2113 626.8C2112.5 526.6 2112.5 525.1 2110.5 523.6C2109.4 522.7 2106.9 521.5 2105 520.9C2100.7 519.5 2067.2 518.8 2061.3 520Z" fill="#50131D"/>
<path d="M2479.2 595.1C2475.8 595.6 2468.7 597.6 2463.5 599.4C2449.5 604.4 2438.7 611.5 2424.8 624.8L2417 632.3V618.9C2417 608.7 2416.6 604.9 2415.5 603.4C2413.1 599.9 2405.8 598.5 2391 598.5C2377.3 598.6 2371.3 599.7 2367.8 602.8C2366.1 604.2 2366 610.8 2366 714.1V823.9L2368.1 825.9C2371.3 828.8 2379.8 830.3 2394.5 830.4C2410.7 830.5 2418 829.5 2422.2 826.6L2425.5 824.4L2425.8 751.9L2426 679.3L2432.1 672.4C2440.4 662.9 2450.3 654.7 2458 650.8C2464 647.7 2465.2 647.5 2474 647.5C2482.3 647.6 2484.2 647.9 2488.6 650.2C2497.3 654.7 2503.2 662.8 2506.7 674.7C2508.2 679.8 2508.5 688.8 2508.9 752C2509.3 791.3 2509.9 824.1 2510.3 824.8C2512 827.4 2517.3 829.1 2527.2 830.1C2543.9 831.8 2562.5 829.8 2566.7 825.8L2569 823.7V749.1C2569 658 2568.5 652.7 2558.4 632C2554.5 624.2 2552.3 621.1 2545.6 614.4C2536.2 605.2 2527.6 600.3 2514.6 597C2505.3 594.7 2488.1 593.7 2479.2 595.1Z" fill="#50131D"/>
<path d="M3104.5 595.5C3080.4 598.8 3063.1 607 3047.2 622.4C3022.9 645.9 3010.9 685 3014.1 730.4C3017.4 777.8 3033.3 806.2 3065.5 822.3C3093.9 836.5 3139.4 838.5 3182.3 827.6C3200.4 822.9 3208.2 819 3210.8 813.2C3213.3 807.6 3213.2 781.5 3210.7 777.7C3207.9 773.4 3205.6 773.5 3189.4 778.9C3171 785 3156.3 787.9 3140 788.7C3110.1 790 3090.8 781.5 3081.7 762.8C3077.8 754.8 3076.5 749.4 3075.4 737.7L3074.7 730H3141.4C3213.3 730 3212.1 730.1 3217.8 724.8C3222.8 720 3224.4 703.4 3221.9 681.3C3219.6 660.6 3211.8 639.6 3201.6 626.8C3182 602.2 3144.1 589.9 3104.5 595.5ZM3131 638C3138.7 639.5 3146.2 643.2 3150.9 647.9C3158.8 655.8 3163.9 670 3164 684.2V691H3119.4H3074.9L3075.5 685.2C3076.4 677.1 3079.6 665.7 3082.6 659.8C3091.3 642.7 3110.4 634.1 3131 638Z" fill="#50131D"/>
<path d="M2644 598.9C2636.6 599.9 2631.6 601.7 2629.6 603.9C2628.1 605.5 2628 615.3 2628.2 715L2628.5 824.4L2631.8 826.6C2635.9 829.4 2643.1 830.4 2658 830.4C2672.9 830.4 2680.1 829.4 2684.2 826.6L2687.5 824.4L2687.8 715C2688 591.4 2688.9 603.2 2679.6 600.5C2673.7 598.7 2652.1 597.7 2644 598.9Z" fill="#50131D"/>
<path d="M2921.4 599C2913.8 600.1 2908.5 602.2 2907.1 604.9C2906.3 606.3 2906.1 638.9 2906.2 715.7L2906.5 824.4L2909.8 826.6C2914 829.5 2921.3 830.5 2937.5 830.4C2952.2 830.3 2960.7 828.8 2963.9 825.9L2966 823.9V714.6C2966 608.4 2965.9 605.3 2964.1 603.6C2963 602.6 2960 601.2 2957.3 600.4C2951.5 598.6 2929.9 597.8 2921.4 599Z" fill="#50131D"/>
<path d="M985 415C985 185.802 1170.8 0 1400 0H1931V357C1931 618.231 1719.23 830 1458 830H1400C1170.8 830 985 644.198 985 415V415Z" fill="#C098FF"/>
<path d="M512 420.5C512 188.264 700.264 0 932.5 0H1458V368C1458 629.231 1246.23 841 985 841H932.5C700.264 841 512 652.736 512 420.5V420.5Z" fill="#8FE0FF"/>
<path d="M0 420.5C0 188.264 188.264 0 420.5 0H946V368C946 629.231 734.231 841 473 841H420.5C188.264 841 0 652.736 0 420.5V420.5Z" fill="#9FE9E1"/>
<path d="M1007 415.502C1007 183.266 1195.26 -4.99805 1427.5 -4.99805H1947.06V365.972C1947.06 625.562 1736.62 836.002 1477.03 836.002H1427.5C1195.26 836.002 1007 647.738 1007 415.502V415.502Z" fill="#C098FF"/>
<path fill-rule="evenodd" clip-rule="evenodd" d="M946 0H932.5C700.264 0 512 188.264 512 420.5C512 571.051 591.118 703.123 710.045 777.405C851.124 695.544 946 542.852 946 368V0Z" fill="#63CDE5"/>
<path fill-rule="evenodd" clip-rule="evenodd" d="M1458 0H1400C1170.8 0 985 185.802 985 415C985 575.769 1076.42 715.185 1210.11 784.104C1357.75 704.064 1458 547.74 1458 368V0Z" fill="#7978FF"/>
</g>
<defs>
<clipPath id="clip0_1802_1520">
<rect width="3474" height="841" fill="white"/>
</clipPath>
</defs>
</svg>
