<svg width="319" height="108" viewBox="0 0 319 108" fill="none" xmlns="http://www.w3.org/2000/svg">
<g clip-path="url(#clip0_1802_769)">
<path d="M23.4 23.1C29.4 23.1 36.5 23.6 39.7 24H40.3C41 24 41.9 23.8 41.9 22.5V21.4C41.8 20.3 40.9 19.5 39.8 19.4H39.3C34 18.8 28.7 18.5 23.4 18.5C14.6 18.5 0 22.4 0 48.1V60.5C0 86.3 14.7 90.1 23.4 90.1C28.7 90.1 34 89.8 39.3 89.2H39.7C40.8 89.2 41.7 88.3 41.8 87.2V86.1C41.8 84.8 41 84.6 40.2 84.6H39.6C36.4 85 29.3 85.5 23.3 85.5C11.3 85.5 4.7 76.6 4.7 60.5V48C4.8 32 11.4 23.1 23.4 23.1Z" fill="white"/>
<path d="M68.3 37.8999C63.8 37.8999 59.3 38.1999 54.9 38.7999C53.8 38.8999 52.4 39.2999 52.4 40.7999V41.3999C52.4 42.5999 53.5 43.1999 54.5 43.1999L56.3 43.0999C60.3 42.5999 64.3 42.3999 68.3 42.3999C76.9 42.3999 79.8 45.7999 79.8 55.6999V58.6999H72.9001C56.4001 58.6999 49.3 63.0999 49.3 73.5999V74.7999C49.3 79.4999 50.7 90.2999 64.1 90.2999C68.9 90.2999 74.1 88.7999 79.8 85.6999V87.4999C79.8 88.6999 80.8 89.6999 82 89.6999H82.4001C83.6001 89.6999 84.6 88.6999 84.6 87.4999V55.6999C84.7 47.2999 82.8 37.8999 68.3 37.8999ZM54.1 73.4999C54.1 65.6999 58.8001 62.9999 72.9001 62.9999H79.8V81.1999C73.5 84.5999 69.1 85.8999 64 85.8999C57.4 85.8999 54.1 82.0999 54.1 74.7999V73.4999Z" fill="white"/>
<path d="M100.8 18.8999H99.8999C98.7999 18.8999 97.8999 19.7999 97.8999 20.8999V20.9999V87.3999C97.7999 88.4999 98.6999 89.4999 99.7999 89.4999H99.8999H100.8C101.9 89.4999 102.8 88.5999 102.8 87.4999V87.3999V20.9999C102.9 19.8999 102 18.8999 100.9 18.8999C100.9 18.8999 100.9 18.8999 100.8 18.8999Z" fill="white"/>
<path d="M100.8 18.8999H99.8999C98.7999 18.8999 97.8999 19.7999 97.8999 20.8999V20.9999V87.3999C97.7999 88.4999 98.6999 89.4999 99.7999 89.4999H99.8999H100.8C101.9 89.4999 102.8 88.5999 102.8 87.4999V87.3999V20.9999C102.9 19.8999 102 18.8999 100.9 18.8999C100.9 18.8999 100.9 18.8999 100.8 18.8999Z" fill="white"/>
<path d="M190.5 87.1001L171.2 23.2001C170.5 20.3001 167.8 18.3001 164.8 18.4001C161.8 18.3001 159.1 20.3001 158.3 23.3001L139 87.1001C138.9 87.4001 138.9 87.8001 138.9 88.1001C138.8 89.0001 139.5 89.9001 140.4 90.0001C140.5 90.0001 140.6 90.0001 140.6 90.0001H141.8C142.6 89.9001 143.4 89.3001 143.6 88.5001L151.2 63.2001H177.8L185.6 88.5001C185.8 89.3001 186.6 89.9001 187.4 90.0001H188.5C189.4 90.1001 190.2 89.5001 190.4 88.6001C190.4 88.5001 190.4 88.4001 190.4 88.3001C190.7 87.8001 190.7 87.5001 190.5 87.1001ZM164.9 22.9001C165.8 22.9001 166.4 23.4001 166.7 24.5001L176.8 58.2001H152.8L163 24.3001C163.3 23.5001 163.7 22.9001 164.9 22.9001Z" fill="white"/>
<path d="M242.9 37.8999C237.7 38.0999 232.5 39.3999 227.8 41.6999C223.3 36.5999 215.3 36.6999 204.8 41.7999V40.6999C204.9 39.5999 204 38.5999 202.9 38.4999H202.8H202C200.9 38.4999 200 39.4999 200 40.5999V40.6999V87.5999C200 88.8999 200.7 89.6999 201.8 89.6999H203.1C204.1 89.6999 204.9 88.7999 204.9 87.5999V46.1999C210.3 43.6999 214.7 42.3999 218 42.3999C223.7 42.3999 226.5 45.9999 226.5 53.4999V87.5999C226.5 88.8999 227.1 89.6999 228.2 89.6999H229.6C230.7 89.6999 231.4 88.8999 231.4 87.5999V53.4999C231.4 50.6999 231 47.9999 230.1 45.3999C233.9 43.4999 238.1 42.4999 242.4 42.3999C249.8 42.3999 253.1 45.8999 253.1 53.8999V87.5999C253 88.6999 253.9 89.6999 255 89.6999H255.1H256C257.1 89.6999 258 88.7999 258 87.6999V87.5999V53.7999C257.8 43.6999 252.4 37.8999 242.9 37.8999Z" fill="white"/>
<path d="M287.4 37.8999C282.1 37.9999 276.7 38.5999 271.5 39.6999C270.5 39.7999 269.7 40.5999 269.8 41.6999C269.8 41.7999 269.8 41.7999 269.8 41.8999V105.9C269.7 107 270.6 108 271.7 108H271.8H272.7C273.8 108 274.7 107.1 274.7 106V105.9V88.8999C278.9 89.6999 283.2 90.1999 287.4 90.1999C299.9 90.1999 306.2 82.4999 306.2 67.2999V61.0999C306.3 46.0999 299.6 37.8999 287.4 37.8999ZM287.4 85.7999C283.1 85.7999 278.9 85.3999 274.7 84.5999V43.2999C278.9 42.5999 283.2 42.1999 287.4 42.0999C297.1 42.0999 301.4 47.8999 301.4 60.9999V67.1999C301.4 80.0999 297.1 85.7999 287.4 85.7999Z" fill="white"/>
<path d="M140.8 0L111.9 108H117L145.9 0H140.8Z" fill="#02ABCA"/>
<path d="M313.8 47.3C311 47.3 308.8 45.1 308.8 42.3C308.8 39.5 311 37.3 313.8 37.3C316.6 37.3 318.8 39.5 318.8 42.3C318.8 45.1 316.5 47.3 313.8 47.3ZM313.8 38.1001C311.5 38.1001 309.6 40 309.7 42.3C309.7 44.6 311.6 46.5001 313.9 46.4001C316.2 46.4001 318 44.5 318 42.3C317.9 40 316.1 38.1001 313.8 38.1001ZM316 45.3H315.1C315 45.3 314.9 45.2001 314.9 45.2001L313.6 43.0001C313.6 42.9001 313.5 42.9001 313.4 42.9001H312.8V45.0001C312.8 45.1001 312.7 45.2001 312.6 45.2001H311.8C311.7 45.2001 311.6 45.1001 311.6 45.0001V39.6001C311.6 39.3001 311.7 39.1001 312 39.1001C312.3 39.1001 313.1 39.0001 313.5 39.0001C315 39.0001 316 39.5001 316 40.9001V41.0001C316.1 41.7001 315.6 42.4001 314.9 42.6001L316.2 44.8V44.9001C316.2 45.2001 316.1 45.3 316 45.3ZM314.8 41.0001C314.8 40.4001 314.5 40.2001 313.6 40.2001H312.8V42.0001H313.6C314.4 41.9001 314.8 41.7001 314.8 41.0001Z" fill="white"/>
</g>
<defs>
<clipPath id="clip0_1802_769">
<rect width="318.8" height="108" fill="white"/>
</clipPath>
</defs>
</svg>
