<svg width="576" height="82" viewBox="0 0 576 82" fill="none" xmlns="http://www.w3.org/2000/svg">
<path d="M52.0875 80.1421H0V76.3196L44.2387 10.4203H2.24252V5.62945H50.9153V9.45192L6.62561 75.3513H52.0875V80.1421ZM110.368 52.3655C110.368 56.6467 109.842 60.5541 108.788 64.0877C107.735 67.5874 106.172 70.6114 104.1 73.1597C102.027 75.708 99.4447 77.6787 96.3527 79.0718C93.2947 80.4649 89.7271 81.1614 85.6498 81.1614C81.7764 81.1614 78.3277 80.4819 75.3037 79.1228C72.2797 77.7297 69.7144 75.759 67.6078 73.2107C65.5351 70.6624 63.9552 67.6384 62.8679 64.1387C61.7806 60.605 61.237 56.6806 61.237 52.3655C61.237 46.4194 62.2223 41.3058 64.193 37.0247C66.1977 32.7095 69.0518 29.4137 72.7553 27.1372C76.4929 24.8267 80.9609 23.6715 86.1595 23.6715C91.5279 23.6715 95.996 24.8947 99.5636 27.3411C103.165 29.7535 105.866 33.1172 107.667 37.4324C109.468 41.7475 110.368 46.7252 110.368 52.3655ZM66.5375 52.3655C66.5375 57.2243 67.234 61.4715 68.6271 65.1071C70.0202 68.7427 72.1268 71.5798 74.9469 73.6184C77.801 75.6571 81.4026 76.6764 85.7517 76.6764C90.2028 76.6764 93.8554 75.6571 96.7095 73.6184C99.5636 71.5798 101.67 68.7257 103.029 65.0561C104.388 61.3865 105.068 57.1563 105.068 52.3655C105.068 47.7106 104.422 43.5653 103.131 39.9297C101.84 36.2941 99.8014 33.44 97.0153 31.3674C94.2291 29.2608 90.5935 28.2075 86.1085 28.2075C79.6868 28.2075 74.811 30.3481 71.4812 34.6292C68.1854 38.9104 66.5375 44.8225 66.5375 52.3655ZM149.027 23.6715C155.245 23.6715 160.019 25.3024 163.349 28.5643C166.679 31.8261 168.344 36.9397 168.344 43.9051V80.1421H163.247V44.2109C163.247 38.7065 161.99 34.6632 159.475 32.0809C156.961 29.4986 153.309 28.2075 148.518 28.2075C142.436 28.2075 137.781 29.9913 134.553 33.559C131.359 37.0926 129.762 42.4441 129.762 49.6133V80.1421H124.615V24.7418H128.794L129.558 34.8331H129.864C130.849 32.7605 132.192 30.8917 133.89 29.2268C135.623 27.528 137.747 26.1858 140.261 25.2005C142.775 24.1812 145.698 23.6715 149.027 23.6715ZM204.607 23.7734C210.689 23.7734 215.242 25.3024 218.266 28.3604C221.29 31.4184 222.802 36.2941 222.802 42.9877V80.1421H218.827L217.909 70.4585H217.603C216.414 72.5312 214.97 74.3829 213.271 76.0138C211.572 77.6108 209.483 78.868 207.002 79.7853C204.556 80.7027 201.566 81.1614 198.032 81.1614C194.465 81.1614 191.407 80.5668 188.859 79.3776C186.344 78.1884 184.39 76.4556 182.997 74.1791C181.638 71.9026 180.959 69.1334 180.959 65.8716C180.959 60.3672 183.235 56.188 187.788 53.3339C192.341 50.4458 198.882 48.8149 207.41 48.4411L217.705 47.9314V43.9051C217.705 38.2309 216.584 34.1875 214.342 31.7751C212.099 29.3627 208.786 28.1565 204.403 28.1565C201.549 28.1565 198.797 28.5303 196.147 29.2778C193.53 29.9913 190.863 31.0276 188.145 32.3867L186.514 28.1056C189.164 26.8484 192.001 25.8121 195.025 24.9966C198.083 24.1812 201.277 23.7734 204.607 23.7734ZM217.654 51.9578L207.971 52.3655C200.938 52.7053 195.586 53.9624 191.916 56.137C188.247 58.3116 186.412 61.5734 186.412 65.9225C186.412 69.4222 187.499 72.1064 189.674 73.9752C191.882 75.844 194.94 76.7783 198.848 76.7783C204.93 76.7783 209.568 75.0455 212.762 71.5798C215.99 68.1141 217.62 63.3912 217.654 57.4112V51.9578ZM261.614 23.7734C263.075 23.7734 264.451 23.8584 265.742 24.0283C267.033 24.1982 268.239 24.436 269.361 24.7418L268.545 29.4817C267.424 29.1759 266.286 28.955 265.131 28.8191C263.975 28.6492 262.735 28.5643 261.41 28.5643C258.794 28.5643 256.449 29.0569 254.377 30.0423C252.338 31.0276 250.605 32.4377 249.178 34.2725C247.751 36.1073 246.664 38.3158 245.916 40.8981C245.169 43.4804 244.795 46.3685 244.795 49.5624V80.1421H239.596V24.7418H244.03L244.54 35.1899H244.846C245.695 33.0493 246.885 31.1296 248.414 29.4307C249.977 27.6978 251.862 26.3217 254.071 25.3024C256.279 24.2831 258.794 23.7734 261.614 23.7734ZM338.218 9.29902C333.461 9.29902 329.214 10.1145 325.477 11.7454C321.739 13.3423 318.579 15.6188 315.997 18.5749C313.415 21.5309 311.444 25.0646 310.085 29.1759C308.726 33.2532 308.046 37.7552 308.046 42.6819C308.046 49.4774 309.116 55.4235 311.257 60.5201C313.398 65.5828 316.608 69.5072 320.89 72.2933C325.205 75.0795 330.573 76.4725 336.995 76.4725C340.732 76.4725 344.13 76.2007 347.188 75.6571C350.246 75.0795 353.083 74.3489 355.7 73.4655V78.0525C353.219 78.9699 350.416 79.7174 347.29 80.295C344.198 80.8726 340.597 81.1614 336.485 81.1614C329.044 81.1614 322.792 79.5645 317.73 76.3706C312.701 73.1767 308.913 68.6917 306.364 62.9155C303.816 57.1393 302.542 50.3948 302.542 42.6819C302.542 37.1436 303.34 32.0639 304.937 27.443C306.534 22.7881 308.862 18.7618 311.92 15.364C315.012 11.9323 318.766 9.28203 323.183 7.41327C327.6 5.51053 332.629 4.55916 338.269 4.55916C341.837 4.55916 345.235 4.91592 348.462 5.62945C351.724 6.309 354.782 7.31134 357.636 8.63646L355.598 13.2234C352.845 11.8643 350.025 10.879 347.137 10.2674C344.249 9.62181 341.276 9.29902 338.218 9.29902ZM415 52.3655C415 56.6467 414.473 60.5541 413.42 64.0877C412.367 67.5874 410.804 70.6114 408.731 73.1597C406.658 75.708 404.076 77.6787 400.984 79.0718C397.926 80.4649 394.359 81.1614 390.281 81.1614C386.408 81.1614 382.959 80.4819 379.935 79.1228C376.911 77.7297 374.346 75.759 372.239 73.2107C370.167 70.6624 368.587 67.6384 367.499 64.1387C366.412 60.605 365.868 56.6806 365.868 52.3655C365.868 46.4194 366.854 41.3058 368.824 37.0247C370.829 32.7095 373.683 29.4137 377.387 27.1372C381.124 24.8267 385.592 23.6715 390.791 23.6715C396.159 23.6715 400.627 24.8947 404.195 27.3411C407.797 29.7535 410.498 33.1172 412.299 37.4324C414.099 41.7475 415 46.7252 415 52.3655ZM371.169 52.3655C371.169 57.2243 371.865 61.4715 373.258 65.1071C374.652 68.7427 376.758 71.5798 379.578 73.6184C382.432 75.6571 386.034 76.6764 390.383 76.6764C394.834 76.6764 398.487 75.6571 401.341 73.6184C404.195 71.5798 406.302 68.7257 407.661 65.0561C409.02 61.3865 409.699 57.1563 409.699 52.3655C409.699 47.7106 409.054 43.5653 407.763 39.9297C406.471 36.2941 404.433 33.44 401.647 31.3674C398.861 29.2608 395.225 28.2075 390.74 28.2075C384.318 28.2075 379.442 30.3481 376.113 34.6292C372.817 38.9104 371.169 44.8225 371.169 52.3655ZM448.613 23.7734C454.695 23.7734 459.248 25.3024 462.272 28.3604C465.296 31.4184 466.808 36.2941 466.808 42.9877V80.1421H462.833L461.915 70.4585H461.609C460.42 72.5312 458.976 74.3829 457.277 76.0138C455.578 77.6108 453.489 78.868 451.009 79.7853C448.562 80.7027 445.572 81.1614 442.038 81.1614C438.471 81.1614 435.413 80.5668 432.865 79.3776C430.35 78.1884 428.396 76.4556 427.003 74.1791C425.644 71.9026 424.965 69.1334 424.965 65.8716C424.965 60.3672 427.241 56.188 431.794 53.3339C436.347 50.4458 442.888 48.8149 451.416 48.4411L461.711 47.9314V43.9051C461.711 38.2309 460.59 34.1875 458.348 31.7751C456.105 29.3627 452.792 28.1565 448.409 28.1565C445.555 28.1565 442.803 28.5303 440.153 29.2778C437.536 29.9913 434.869 31.0276 432.151 32.3867L430.52 28.1056C433.17 26.8484 436.007 25.8121 439.031 24.9966C442.089 24.1812 445.283 23.7734 448.613 23.7734ZM461.66 51.9578L451.977 52.3655C444.944 52.7053 439.592 53.9624 435.923 56.137C432.253 58.3116 430.418 61.5734 430.418 65.9225C430.418 69.4222 431.505 72.1064 433.68 73.9752C435.889 75.844 438.947 76.7783 442.854 76.7783C448.936 76.7783 453.574 75.0455 456.768 71.5798C459.996 68.1141 461.626 63.3912 461.66 57.4112V51.9578ZM505.773 81.1614C500.268 81.1614 495.614 80.0232 491.808 77.7467C488.037 75.4362 485.182 72.1574 483.246 67.9102C481.343 63.629 480.392 58.5664 480.392 52.7223C480.392 46.6403 481.496 41.4417 483.704 37.1266C485.913 32.7775 489.022 29.4477 493.031 27.1372C497.041 24.8267 501.746 23.6715 507.149 23.6715C509.799 23.6715 512.262 23.9093 514.539 24.385C516.815 24.8607 518.871 25.5233 520.706 26.3727L519.33 30.9087C517.427 30.0593 515.405 29.4137 513.265 28.972C511.124 28.5303 509.069 28.3094 507.098 28.3094C502.545 28.3094 498.671 29.3118 495.478 31.3164C492.318 33.2871 489.888 36.1073 488.189 39.7768C486.525 43.4124 485.692 47.7106 485.692 52.6713C485.692 57.3262 486.406 61.4545 487.833 65.0561C489.26 68.6237 491.451 71.4439 494.407 73.5165C497.363 75.5551 501.152 76.5745 505.773 76.5745C508.457 76.5745 511.005 76.3027 513.418 75.759C515.864 75.2154 518.09 74.5188 520.094 73.6694V78.3583C518.293 79.1738 516.204 79.8363 513.825 80.346C511.481 80.8896 508.797 81.1614 505.773 81.1614ZM537.296 0.838623V26.7295C537.296 28.2245 537.262 29.6176 537.194 30.9087C537.16 32.1999 537.093 33.508 536.991 34.8331H537.347C538.265 32.7265 539.573 30.8408 541.272 29.1759C543.005 27.511 545.128 26.1858 547.643 25.2005C550.191 24.2151 553.13 23.7225 556.46 23.7225C560.673 23.7225 564.207 24.453 567.061 25.914C569.949 27.3411 572.14 29.5326 573.635 32.4887C575.13 35.4447 575.878 39.2502 575.878 43.9051V80.1421H570.781V44.2109C570.781 38.7065 569.524 34.6632 567.01 32.0809C564.495 29.4986 560.843 28.2075 556.052 28.2075C551.975 28.2075 548.543 29.006 545.757 30.6029C542.971 32.1659 540.864 34.5443 539.437 37.7382C538.01 40.8981 537.296 44.8565 537.296 49.6133V80.1421H532.149V0.838623H537.296Z" fill="white"/>
</svg>
