<svg width="562" height="93" viewBox="0 0 562 93" fill="none" xmlns="http://www.w3.org/2000/svg">
<g clip-path="url(#clip0_1802_958)">
<path d="M52 87.6999V87.0999C51.8559 85.6146 52.024 84.1156 52.4937 82.6992C52.9633 81.2827 53.7241 79.9802 54.727 78.8752C55.73 77.7703 56.953 76.8873 58.3174 76.2831C59.6819 75.6788 61.1577 75.3667 62.65 75.3667C64.1422 75.3667 65.618 75.6788 66.9825 76.2831C68.3469 76.8873 69.5699 77.7703 70.5729 78.8752C71.5758 79.9802 72.3366 81.2827 72.8062 82.6992C73.2759 84.1156 73.444 85.6146 73.3 87.0999V87.6999H52Z" fill="url(#paint0_linear_1802_958)"/>
<path d="M50.5 89.3999C50.4995 90.0725 50.7597 90.7191 51.2258 91.2039C51.692 91.6887 52.3279 91.974 53 91.9999H71.9C72.5721 91.974 73.208 91.6887 73.6742 91.2039C74.1403 90.7191 74.4005 90.0725 74.4 89.3999V89.3999C74.4 88.7369 74.1366 88.101 73.6678 87.6321C73.1989 87.1633 72.563 86.8999 71.9 86.8999H53C52.337 86.8999 51.7011 87.1633 51.2322 87.6321C50.7634 88.101 50.5 88.7369 50.5 89.3999V89.3999Z" fill="#2A286B"/>
<path d="M57.8999 83.4C57.8999 83.5182 57.9232 83.6352 57.9684 83.7444C58.0136 83.8536 58.0799 83.9528 58.1635 84.0364C58.2471 84.12 58.3463 84.1863 58.4555 84.2315C58.5647 84.2767 58.6817 84.3 58.7999 84.3H65.7999C65.9181 84.3 66.0351 84.2767 66.1443 84.2315C66.2535 84.1863 66.3527 84.12 66.4363 84.0364C66.5199 83.9528 66.5862 83.8536 66.6314 83.7444C66.6766 83.6352 66.6999 83.5182 66.6999 83.4V83.4C66.6999 83.1613 66.6051 82.9324 66.4363 82.7636C66.2675 82.5948 66.0386 82.5 65.7999 82.5H58.7999C58.5612 82.5 58.3323 82.5948 58.1635 82.7636C57.9947 82.9324 57.8999 83.1613 57.8999 83.4Z" fill="#2A286B"/>
<path d="M59.2998 80.2001C59.2998 80.3592 59.363 80.5118 59.4755 80.6244C59.5881 80.7369 59.7407 80.8001 59.8998 80.8001H64.5998C64.7589 80.8001 64.9115 80.7369 65.0241 80.6244C65.1366 80.5118 65.1998 80.3592 65.1998 80.2001V80.2001C65.1998 80.041 65.1366 79.8884 65.0241 79.7758C64.9115 79.6633 64.7589 79.6001 64.5998 79.6001H59.8998C59.7407 79.6001 59.5881 79.6633 59.4755 79.7758C59.363 79.8884 59.2998 80.041 59.2998 80.2001V80.2001Z" fill="#2A286B"/>
<path d="M40.0001 87.8V87.2C40.0001 84.3622 38.8728 81.6406 36.8661 79.634C34.8595 77.6273 32.1379 76.5 29.3001 76.5C26.4623 76.5 23.7407 77.6273 21.7341 79.634C19.7274 81.6406 18.6001 84.3622 18.6001 87.2C18.6001 87.4 18.7001 87.6 18.7001 87.8H40.0001Z" fill="url(#paint1_linear_1802_958)"/>
<path d="M41.4 89.3999C41.4005 90.0725 41.1403 90.7191 40.6742 91.2039C40.208 91.6887 39.5721 91.974 38.9 91.9999H20C19.3279 91.974 18.692 91.6887 18.2258 91.2039C17.7597 90.7191 17.4995 90.0725 17.5 89.3999V89.3999C17.5247 88.7448 17.7961 88.1232 18.2597 87.6596C18.7233 87.196 19.3449 86.9247 20 86.8999H38.9C39.563 86.8999 40.1989 87.1633 40.6678 87.6321C41.1366 88.101 41.4 88.7369 41.4 89.3999Z" fill="#2A286B"/>
<path d="M33.9001 83.5997C33.9001 83.8384 33.8053 84.0673 33.6365 84.2361C33.4677 84.4049 33.2388 84.4997 33.0001 84.4997H26.0001C25.7614 84.4997 25.5325 84.4049 25.3637 84.2361C25.1949 84.0673 25.1001 83.8384 25.1001 83.5997V83.5997C25.1001 83.361 25.1949 83.1321 25.3637 82.9633C25.5325 82.7945 25.7614 82.6997 26.0001 82.6997H33.0001C33.2388 82.6997 33.4677 82.7945 33.6365 82.9633C33.8053 83.1321 33.9001 83.361 33.9001 83.5997V83.5997Z" fill="#2A286B"/>
<path d="M32.4 80.3998C32.4 80.559 32.3368 80.7116 32.2243 80.8241C32.1117 80.9366 31.9591 80.9998 31.8 80.9998H27.2C27.0304 81.0016 26.866 80.9417 26.7373 80.8314C26.6085 80.721 26.5242 80.5677 26.5 80.3998V80.3998C26.5242 80.232 26.6085 80.0787 26.7373 79.9683C26.866 79.858 27.0304 79.7981 27.2 79.7998H31.8C31.9591 79.7998 32.1117 79.8631 32.2243 79.9756C32.3368 80.0881 32.4 80.2407 32.4 80.3998V80.3998Z" fill="#2A286B"/>
<path d="M61.7 78.7997C61.9713 78.8 62.2398 78.7452 62.4892 78.6385C62.7386 78.5318 62.9637 78.3754 63.1508 78.179C63.3379 77.9826 63.4831 77.7501 63.5775 77.4958C63.6719 77.2415 63.7136 76.9706 63.7 76.6997C63.6782 75.137 63.3077 73.5988 62.6157 72.1975C61.9237 70.7962 60.9276 69.567 59.7 68.5997C59.2494 68.3653 58.729 68.3022 58.2354 68.4221C57.7418 68.542 57.3084 68.8368 57.0155 69.2518C56.7225 69.6667 56.59 70.1738 56.6423 70.6791C56.6946 71.1844 56.9283 71.6535 57.3 71.9997C58.0433 72.5375 58.6483 73.2439 59.0655 74.0609C59.4828 74.8779 59.7002 75.7823 59.7 76.6997C59.6865 76.9706 59.7282 77.2415 59.8226 77.4958C59.917 77.7501 60.0622 77.9826 60.2493 78.179C60.4363 78.3754 60.6614 78.5318 60.9108 78.6385C61.1603 78.7452 61.4288 78.8 61.7 78.7997Z" fill="#2A286B"/>
<path d="M29.5 78.5999C28.9696 78.5999 28.4609 78.3892 28.0858 78.0141C27.7107 77.6391 27.5 77.1304 27.5 76.5999C27.5219 75.0372 27.8923 73.4991 28.5844 72.0978C29.2764 70.6964 30.2725 69.4673 31.5 68.4999C31.9525 68.1866 32.5099 68.0635 33.0522 68.157C33.5946 68.2505 34.0786 68.5532 34.4 68.9999C34.5525 69.2161 34.6606 69.4604 34.718 69.7186C34.7754 69.9768 34.781 70.2439 34.7345 70.5043C34.688 70.7647 34.5903 71.0133 34.4471 71.2357C34.3038 71.4581 34.1179 71.6499 33.9 71.7999C33.149 72.3533 32.5399 73.0769 32.1227 73.9113C31.7055 74.7456 31.4921 75.6671 31.5 76.5999C31.5 77.1304 31.2893 77.6391 30.9142 78.0141C30.5391 78.3892 30.0304 78.5999 29.5 78.5999Z" fill="#2A286B"/>
<path d="M78.0999 65C77.8884 64.495 77.8193 63.9416 77.8999 63.4C77.9989 62.9867 78.206 62.6071 78.4999 62.3C79.4669 60.8036 80.6082 59.4273 81.8999 58.2C83.5491 58.1175 85.2013 58.2861 86.7999 58.7C87.0933 58.7713 87.3668 58.908 87.5999 59.1C87.698 59.1877 87.7757 59.2958 87.8276 59.4167C87.8794 59.5377 87.9041 59.6685 87.8999 59.8L90.8999 67.5C90.1875 68.2088 89.3797 68.8146 88.4999 69.3C87.7999 67.7 87.1999 66.2 86.5999 64.6C85.9999 63 85.0999 61.5 83.4999 61.3L81.1999 64.1C81.1036 64.1669 81.0257 64.2569 80.9733 64.3618C80.9209 64.4666 80.8956 64.5829 80.8999 64.7C80.7999 64.9 80.8999 65.2 80.8999 65.4C81.4132 66.9333 82.0141 68.4358 82.6999 69.9L80.4999 70.7C79.3971 68.9422 78.5866 67.0173 78.0999 65V65Z" fill="#2A286B"/>
<path d="M84.1998 57.7002V57.5002L82.9998 54.7002C81.5609 55.3196 80.1586 56.0207 78.7998 56.8002C79.1059 57.5944 79.4736 58.3634 79.8998 59.1002C79.98 59.2778 80.1222 59.42 80.2998 59.5002H80.5998L83.9998 58.0002L84.1998 57.7002Z" fill="#2A286B"/>
<path d="M83.1999 54.5002C83.0999 52.7002 80.0999 49.8002 79.1999 48.5002C77.9313 46.6679 76.4915 44.9602 74.9 43.4002C73.2618 41.8492 71.1473 40.8976 68.9 40.7002C67.6137 40.7457 66.3377 40.9471 65.0999 41.3002C61.4504 42.4673 58.0804 44.3735 55.2 46.9002C54.9774 47.1276 54.8068 47.4005 54.7 47.7002C54.7067 48.0236 54.8113 48.3374 55 48.6002C55.5736 49.7335 56.2079 50.8351 56.9 51.9002C58.3 53.7002 57.5999 53.4002 59.2999 53.0002C60.9999 52.6002 62.2 51.0002 63.5 50.4002L68.4 48.8002C69.3922 48.417 70.4851 48.3818 71.5 48.7002C71.9993 48.9808 72.4406 49.3541 72.8 49.8002C75.1359 52.3949 77.3068 55.1337 79.3 58.0002C79.7 58.5002 83.0999 55.7002 83.1999 54.8002V54.5002Z" fill="url(#paint2_linear_1802_958)"/>
<path d="M12.8 63.9002C13.0139 63.4311 13.0835 62.9089 13 62.4002C12.8947 62.0086 12.7258 61.637 12.5 61.3002C11.4776 59.8139 10.3408 58.4097 9.1 57.1002C7.44809 57.096 5.8021 57.2976 4.2 57.7002C3.87644 57.7725 3.57051 57.9085 3.3 58.1002L3 58.7002L0 66.4002C0.748054 67.1105 1.58906 67.716 2.5 68.2002L4.4 63.6002C5 62.1002 5.8 60.4002 7.4 60.2002C9 60.0002 9 62.1002 9.7 63.1002C9.88453 63.2185 10.0251 63.3942 10.1 63.6002C10.1162 63.8707 10.0823 64.1419 10 64.4002C9.50401 65.9073 8.90253 67.3776 8.2 68.8002L10.4 69.6002C11.6006 67.8949 12.4192 65.9507 12.8 63.9002V63.9002Z" fill="#2A286B"/>
<path d="M7.69995 58V57.8L8.89995 55C10.3388 55.6194 11.7411 56.3205 13.1 57.1C12.7939 57.8942 12.4261 58.6632 12 59.4C11.9198 59.5776 11.7775 59.7198 11.6 59.8H11.3L7.89995 58.3C7.79995 58.2 7.69995 58.1 7.69995 58Z" fill="#2A286B"/>
<path d="M9 54.4C9.2 52.6 12.1 49.8 13.1 48.4C14.3379 46.5445 15.7803 44.8337 17.4 43.3C19.0723 41.8168 21.1742 40.906 23.4 40.7C24.6934 40.6547 25.9835 40.8584 27.2 41.3C30.8467 42.4049 34.1967 44.3192 37 46.9C37.3 47.1 37.5 47.3 37.5 47.6C37.5413 47.7551 37.5447 47.9178 37.5099 48.0745C37.4751 48.2311 37.4031 48.3771 37.3 48.5C36.7306 49.6879 36.0616 50.8253 35.3 51.9C34 53.6 34.7 53.4 33 52.9C31.3 52.4 30.1 50.9 28.7 50.4C27.1536 49.7176 25.5466 49.182 23.9 48.8C22.9192 48.3839 21.8261 48.3134 20.8 48.6C20.3229 48.9116 19.8863 49.2811 19.5 49.7C17.1319 52.2937 14.9277 55.0324 12.9 57.9C12.6 58.4 9.1 55.6 9 54.7V54.4Z" fill="url(#paint3_linear_1802_958)"/>
<path d="M42.5999 13.2L41.7 12.3C42.2696 11.7129 42.9499 11.2443 43.7014 10.9213C44.453 10.5983 45.2611 10.4272 46.0791 10.4179C46.8971 10.4086 47.7089 10.5613 48.4676 10.8671C49.2264 11.173 49.9171 11.626 50.5 12.2L49.5999 13.1C48.6523 12.1971 47.3883 11.7018 46.0795 11.7205C44.7707 11.7392 43.5214 12.2704 42.5999 13.2V13.2Z" fill="#2A286B"/>
<path d="M39.9999 10.7L39.0999 9.80003C40.0059 8.86759 41.0868 8.12275 42.2808 7.60806C43.4747 7.09337 44.7584 6.8189 46.0584 6.80033C47.3585 6.78175 48.6494 7.01944 49.8576 7.49982C51.0658 7.98019 52.1675 8.69385 53.0999 9.60003L52.1999 10.5C50.5466 8.92633 48.3411 8.06537 46.0589 8.10279C43.7767 8.1402 41.6006 9.07299 39.9999 10.7Z" fill="#2A286B"/>
<path d="M36.8999 7.50001L35.8999 6.60001C37.2245 5.24435 38.8037 4.16352 40.5469 3.41951C42.2902 2.6755 44.1631 2.28294 46.0584 2.26436C47.9536 2.24578 49.8339 2.60154 51.5914 3.31123C53.3489 4.02092 54.949 5.07058 56.2999 6.40001L55.3999 7.30001C52.9179 4.87764 49.5765 3.53838 46.1086 3.57587C42.6406 3.61336 39.329 5.02455 36.8999 7.50001V7.50001Z" fill="#2A286B"/>
<path d="M62.1 6.00024C60.7632 5.98914 59.4519 6.36665 58.3256 7.08686C57.1993 7.80707 56.3064 8.83897 55.7556 10.0571C55.2048 11.2753 55.0197 12.6272 55.2229 13.9486C55.426 15.2699 56.0087 16.5038 56.9 17.5002L51.2 28.1002C50.3637 27.8148 49.4835 27.6794 48.6 27.7002H43.4C42.4771 27.7016 41.5622 27.871 40.7 28.2002L35 17.4002C36.1405 16.1774 36.7826 14.5723 36.8 12.9002C36.8 11.5355 36.3953 10.2015 35.6371 9.0668C34.879 7.9321 33.8013 7.04771 32.5405 6.52547C31.2797 6.00322 29.8923 5.86658 28.5539 6.13282C27.2154 6.39906 25.9859 7.05622 25.021 8.0212C24.056 8.98618 23.3988 10.2156 23.1326 11.5541C22.8663 12.8926 23.003 14.2799 23.5252 15.5408C24.0475 16.8016 24.9319 17.8792 26.0666 18.6374C27.2013 19.3956 28.5353 19.8002 29.9 19.8002L31.2 19.6002L37.2 30.9002C36.3268 32.1243 35.871 33.597 35.9 35.1002C35.8866 36.0889 36.0714 37.0702 36.4435 37.9862C36.8157 38.9022 37.3676 39.7344 38.0667 40.4335C38.7659 41.1326 39.598 41.6846 40.514 42.0567C41.4301 42.4289 42.4114 42.6137 43.4 42.6002H48.6C50.5811 42.5743 52.4737 41.7758 53.8747 40.3749C55.2756 38.9739 56.0741 37.0813 56.1 35.1002C56.0977 33.5704 55.6456 32.0751 54.8 30.8002L60.8 19.6002H62.1C63.0015 19.6003 63.894 19.4212 64.7256 19.0732C65.5572 18.7253 66.3113 18.2154 66.944 17.5733C67.5768 16.9313 68.0756 16.1698 68.4114 15.3332C68.7472 14.4966 68.9133 13.6016 68.9 12.7002C68.8737 10.9142 68.1457 9.21013 66.8733 7.95643C65.6009 6.70273 63.8863 6.00004 62.1 6.00024V6.00024Z" fill="url(#paint4_linear_1802_958)"/>
<path d="M21.2 51.7002C21.2045 55.2523 21.9752 58.7615 23.4593 61.9887C24.9434 65.2158 27.1062 68.0849 29.7999 70.4002L45.2999 85.9002C45.4869 86.0834 45.7382 86.1861 46 86.1861C46.2617 86.1861 46.513 86.0834 46.7 85.9002L62.4 70.2002L64.5 68.1002H64.5999C66.8752 65.5302 68.585 62.5108 69.6187 59.2377C70.6523 55.9646 70.9866 52.5108 70.5999 49.1002C69.812 42.8787 66.6963 37.1866 61.8801 33.1701C57.064 29.1535 50.9049 27.1108 44.643 27.453C38.3811 27.7953 32.4814 30.4971 28.1316 35.0146C23.7819 39.5322 21.3051 45.5299 21.2 51.8002V51.7002Z" fill="url(#paint5_linear_1802_958)"/>
<path d="M26 51.7002C26 47.7446 27.173 43.8778 29.3706 40.5888C31.5682 37.2998 34.6918 34.7364 38.3463 33.2226C42.0009 31.7089 46.0222 31.3128 49.9018 32.0845C53.7814 32.8562 57.3451 34.761 60.1421 37.5581C62.9392 40.3551 64.844 43.9188 65.6157 47.7984C66.3874 51.678 65.9913 55.6994 64.4776 59.3539C62.9638 63.0084 60.4004 66.132 57.1114 68.3296C53.8224 70.5272 49.9556 71.7002 46 71.7002C40.6957 71.7002 35.6086 69.5931 31.8579 65.8423C28.1071 62.0916 26 57.0045 26 51.7002V51.7002Z" fill="url(#paint6_linear_1802_958)"/>
<path d="M62.2001 51.2C62.2001 51.2 62 57.2 46 57.2C30 57.2 29.8 51.2 29.8 51.2C29.8 46.9035 31.5068 42.783 34.5449 39.7449C37.583 36.7068 41.7035 35 46 35C50.2966 35 54.4171 36.7068 57.4552 39.7449C60.4933 42.783 62.2001 46.9035 62.2001 51.2V51.2Z" fill="#2A286B"/>
<path d="M40.4 41.7001C40.1963 41.5103 39.9283 41.4048 39.65 41.4048C39.3716 41.4048 39.1036 41.5103 38.9 41.7001L36.5 44.1001C36.3167 44.287 36.2141 44.5384 36.2141 44.8001C36.2141 45.0619 36.3167 45.3132 36.5 45.5001C36.7036 45.6899 36.9716 45.7954 37.25 45.7954C37.5283 45.7954 37.7963 45.6899 38 45.5001L38.9 44.5001C39.1036 44.3103 39.3716 44.2048 39.65 44.2048C39.9283 44.2048 40.1963 44.3103 40.4 44.5001L41.3 45.5001C41.5036 45.6899 41.7716 45.7954 42.05 45.7954C42.3283 45.7954 42.5963 45.6899 42.8 45.5001C42.9465 45.2961 43.0253 45.0513 43.0253 44.8001C43.0253 44.5489 42.9465 44.3041 42.8 44.1001L40.4 41.7001ZM55.4 44.1001L53 41.7001C52.813 41.5169 52.5617 41.4143 52.3 41.4143C52.0382 41.4143 51.7869 41.5169 51.6 41.7001L49.2 44.1001C49.0555 44.2927 48.9854 44.5309 49.0025 44.771C49.0195 45.0111 49.1227 45.237 49.2929 45.4072C49.4631 45.5774 49.689 45.6805 49.9291 45.6976C50.1692 45.7147 50.4074 45.6445 50.6 45.5001L51.6 44.5001C51.7869 44.3169 52.0382 44.2143 52.3 44.2143C52.5617 44.2143 52.813 44.3169 53 44.5001L54 45.5001C54.1925 45.6445 54.4308 45.7147 54.6709 45.6976C54.911 45.6805 55.1369 45.5774 55.3071 45.4072C55.4773 45.237 55.5804 45.0111 55.5975 44.771C55.6145 44.5309 55.5444 44.2927 55.4 44.1001V44.1001Z" fill="#E6E51D"/>
<path d="M46.4002 52.6002C45.8002 52.6002 44.9002 52.7002 44.7002 52.0002C44.6238 51.7407 44.59 51.4705 44.6002 51.2002V50.2002C44.6112 49.9968 44.6842 49.8015 44.8093 49.6407C44.9344 49.4798 45.1057 49.361 45.3002 49.3002H46.2002C46.3865 49.2844 46.5739 49.3123 46.7476 49.3817C46.9212 49.4512 47.0762 49.5602 47.2002 49.7002C47.4002 50.0002 47.3002 50.3002 47.3002 50.6002V51.7002C47.3002 51.9389 47.2053 52.1678 47.0366 52.3366C46.8678 52.5054 46.6389 52.6002 46.4002 52.6002V52.6002Z" fill="#E6E51D"/>
<path d="M118.8 60.0998V37.1998L141.8 8.0998H145.8L122 38.2998V63.1998H106.8V2.2998H109.9V60.0998H118.8ZM130.8 36.6998L146.3 57.8998H142.4L126.8 36.6998L151.3 5.4998H140L115.8 36.4998V57.8998H112.7V35.3998L138.5 2.2998H157.7L130.8 36.6998ZM118.7 5.4998H115.8V26.1998L112.7 30.1998V2.2998H121.9V18.4998L118.7 22.4998V5.4998ZM134.5 37.0998L136.5 34.5998L157.8 63.1998H139L124.9 44.2998V39.0998L140.5 60.0998H151.6L134.5 37.0998Z" fill="white"/>
<path d="M187.8 31.1998L207.9 2.2998H218.8L197.1 33.3998V63.1998H181.7V33.3998L160.1 2.2998H163.9L185.1 32.4998V59.9998H194V32.4998L212.8 5.3998H209.4L190.9 32.2998V57.5998H187.7L187.8 31.1998ZM204.5 2.2998L186.1 29.1998L184.6 26.8998L167.3 2.2998H178.3L188.3 16.3998L186.4 19.0998L176.6 5.3998H173.2L186.1 23.5998L200.6 2.2998H204.5Z" fill="white"/>
<path d="M220.3 63.2999V4.8999L265 50.0999V54.6999L223.4 12.3999V63.2999H220.3ZM261.9 8.4999H265V46.1999L222 2.3999H226.3L261.9 38.4999V8.4999ZM255.9 28.1999V2.3999H271.1V63.2999H265.5L229.4 27.0999V60.1999H232.2V34.2999L235.4 37.5999V63.2999H226.2V19.4999L266.1 59.7999L266.4 60.1999H267.9V5.3999H259V31.5999L255.9 28.1999Z" fill="white"/>
<path d="M277.3 2.3999H280.4V59.9999H313.7V51.2999H289.2V42.9999H292.3V48.1999H316.9V63.1999H277.3V2.3999ZM283.2 2.3999H316.4V17.2999H295.5V14.1999H313.3V5.5999H286.3V30.6999H306.6V33.8999H283.2V2.3999ZM283.2 36.5999H309.6V27.8999H289.2V8.1999H310.2V11.2999H292.3V24.7999H312.8V39.7999H286.3V54.1999H310.7V57.3999H283.2V36.5999Z" fill="white"/>
<path d="M363.1 41.6L371.4 54.6L370.2 55.4C362.4 60.9 356.7 63.2 349.8 63.2C339 63.2 329.1 57 323.6 47.2C319.551 39.9836 318.446 31.4826 320.514 23.4707C322.582 15.4589 327.664 8.55511 334.7 4.2C339.24 1.41133 344.472 -0.0440968 349.8 -3.6186e-06C357.456 0.032596 364.816 2.96225 370.4 8.2L371.6 9.4L369.4 11.8L368.7 11.1L368.2 10.6C363.261 5.83577 356.662 3.18162 349.8 3.2C344.968 3.2423 340.235 4.57085 336.088 7.049C331.94 9.52715 328.527 13.0654 326.2 17.3C323.833 21.6585 322.596 26.5403 322.6 31.5C322.565 36.4207 323.81 41.266 326.211 45.5609C328.613 49.8559 332.09 53.4531 336.3 56C340.343 58.534 345.029 59.853 349.8 59.8C355.7 59.8 360.7 58 367.1 53.7L362.2 46.1C357.2 49.4 353.9 50.7 349.8 50.7C343.6 50.7 337.5 47 334.1 40.9C332.461 38.0384 331.599 34.7978 331.6 31.5C331.618 28.2084 332.46 24.9737 334.049 22.0914C335.639 19.2091 337.925 16.7711 340.7 15C343.428 13.3038 346.589 12.4354 349.8 12.5C353.618 12.4928 357.337 13.7205 360.4 16L361.1 16.3L363 14.1L362.3 13.4C358.667 10.7431 354.3 9.27601 349.8 9.2C346.956 9.20826 344.145 9.8082 341.545 10.9617C338.946 12.1151 336.614 13.7969 334.7 15.9C330.644 20.078 328.383 25.6769 328.4 31.5C328.362 37.3861 330.623 43.0547 334.7 47.3C336.635 49.3707 338.972 51.0243 341.568 52.1592C344.165 53.2941 346.966 53.8865 349.8 53.9C353.887 53.9508 357.883 52.689 361.2 50.3L363 53C359.108 55.6534 354.511 57.0813 349.8 57.1C346.558 57.0884 343.353 56.4175 340.379 55.1282C337.405 53.8388 334.724 51.958 332.5 49.6C327.863 44.7162 325.285 38.2345 325.3 31.5C325.335 24.7752 327.906 18.3113 332.5 13.4C334.743 11.0739 337.43 9.2207 340.401 7.94975C343.373 6.6788 346.568 6.01584 349.8 6C354.96 5.92523 359.984 7.65877 364 10.9C364.869 11.4015 365.675 12.0058 366.4 12.7L367.3 13.7L361.5 20.9L360.2 19.9C359.75 19.373 359.208 18.9325 358.6 18.6C356.07 16.6835 352.974 15.6632 349.8 15.7C347.136 15.7283 344.527 16.4659 342.242 17.8368C339.957 19.2076 338.079 21.1624 336.8 23.5C335.398 25.931 334.672 28.6936 334.7 31.5C334.751 34.2286 335.481 36.9014 336.826 39.2762C338.17 41.651 340.086 43.6527 342.4 45.1C344.602 46.5327 347.173 47.2969 349.8 47.3C353.6 47.3 356.3 46.2 361.8 42.5L363.1 41.6Z" fill="white"/>
<path d="M395.3 13.6002H416.1V5.3002H379.1V8.0002H413.1V11.1002H376V2.2002H419.2V16.7002H398.4V57.4002H395.3V13.6002ZM389.4 16.7002H376V13.6002H392.6V60.0002H401.3V19.4002H404.4V63.2002H389.4V16.7002Z" fill="white"/>
<path d="M426 2.2998H435.2V57.3998H432V5.3998H429.2V59.9998H437.9V2.2998H441.1V63.1998H426V2.2998Z" fill="white"/>
<path d="M461.1 59.0002C456.426 56.3483 452.532 52.5123 449.811 47.8779C447.09 43.2434 445.638 37.9742 445.6 32.6002C445.595 27.2462 447.047 21.9918 449.8 17.4002C453.158 11.5961 458.335 7.06035 464.53 4.49471C470.725 1.92907 477.594 1.47654 484.072 3.20711C490.55 4.93769 496.278 8.75492 500.368 14.0682C504.458 19.3815 506.684 25.8947 506.7 32.6002C506.714 37.8972 505.335 43.1047 502.7 47.7002C500.024 52.3756 496.169 56.2674 491.519 58.9872C486.869 61.707 481.587 63.1597 476.2 63.2002C470.879 63.1923 465.661 61.7407 461.1 59.0002V59.0002ZM462.5 8.80016C458.311 11.1952 454.834 14.6618 452.426 18.8443C450.019 23.0267 448.767 27.7744 448.8 32.6002C448.574 36.3443 449.116 40.0951 450.394 43.6219C451.671 47.1487 453.656 50.3769 456.227 53.108C458.798 55.8391 461.901 58.0153 465.344 59.5028C468.788 60.9904 472.499 61.7577 476.25 61.7577C480.001 61.7577 483.712 60.9904 487.156 59.5028C490.599 58.0153 493.702 55.8391 496.273 53.108C498.844 50.3769 500.829 47.1487 502.107 43.6219C503.384 40.0951 503.926 36.3443 503.7 32.6002C503.728 27.7514 502.45 22.9845 500 18.8002C497.566 14.6448 494.091 11.1957 489.917 8.79321C485.744 6.39073 481.016 5.11785 476.2 5.10016C471.384 5.08008 466.651 6.35822 462.5 8.80016V8.80016ZM463.8 54.0002C460.029 51.835 456.892 48.7202 454.699 44.9658C452.506 41.2113 451.334 36.9481 451.3 32.6002C451.3 29.3488 451.946 26.1299 453.203 23.1311C454.459 20.1322 456.299 17.4134 458.617 15.1331C460.934 12.8527 463.683 11.0565 466.701 9.84904C469.72 8.64159 472.949 8.04708 476.2 8.10016C480.631 8.00773 485.01 9.07646 488.9 11.2002C496.4 15.4002 500.7 23.2002 500.7 32.6002C500.769 36.9018 499.7 41.1452 497.6 44.9002C495.438 48.6657 492.321 51.7946 488.564 53.9716C484.807 56.1486 480.542 57.2967 476.2 57.3002C471.858 57.2367 467.599 56.1032 463.8 54.0002V54.0002ZM465.4 14.0002C462.097 15.8472 459.352 18.5484 457.452 21.8208C455.552 25.0931 454.567 28.8163 454.6 32.6002C454.575 36.3779 455.614 40.0863 457.6 43.3002C459.434 46.6214 462.13 49.3867 465.403 51.305C468.676 53.2232 472.406 54.2234 476.2 54.2002C480 54.2583 483.74 53.2539 487 51.3002C490.237 49.3623 492.922 46.6244 494.796 43.3496C496.67 40.0748 497.67 36.3731 497.7 32.6002C497.702 28.8204 496.707 25.107 494.816 21.8344C492.925 18.5617 490.205 15.8453 486.929 13.9591C483.654 12.0729 479.939 11.0836 476.159 11.0908C472.379 11.098 468.668 12.1015 465.4 14.0002V14.0002ZM466.7 49.1002C463.82 47.4034 461.424 44.9947 459.743 42.1052C458.062 39.2158 457.152 35.9427 457.1 32.6002C457.086 29.2422 458.022 25.9488 459.8 23.1002C461.441 20.215 463.831 17.8273 466.718 16.1901C469.606 14.5529 472.882 13.7271 476.2 13.8002C479.503 13.7602 482.754 14.6248 485.6 16.3002C488.452 17.9456 490.809 20.3259 492.428 23.193C494.046 26.06 494.865 29.3086 494.8 32.6002C494.835 35.9088 494.045 39.174 492.5 42.1002C490.885 45.0004 488.52 47.4127 485.652 49.0841C482.784 50.7556 479.519 51.6246 476.2 51.6002C472.872 51.5912 469.602 50.7305 466.7 49.1002V49.1002ZM468.4 19.0002C465.992 20.3672 463.985 22.3431 462.581 24.73C461.177 27.117 460.425 29.831 460.4 32.6002C460.4 34.6657 460.81 36.7107 461.606 38.6166C462.403 40.5224 463.57 42.2511 465.04 43.7023C466.51 45.1536 468.253 46.2985 470.169 47.0706C472.085 47.8427 474.135 48.2266 476.2 48.2002C478.976 48.2398 481.71 47.5132 484.1 46.1002C486.458 44.7269 488.412 42.7554 489.764 40.385C491.116 38.0145 491.819 35.3291 491.8 32.6002C491.805 29.8282 491.081 27.1037 489.7 24.7002C488.348 22.3163 486.383 20.3366 484.01 18.9655C481.637 17.5943 478.941 16.8813 476.2 16.9002C473.458 16.8838 470.763 17.6095 468.4 19.0002V19.0002Z" fill="white"/>
<path d="M510.8 63.1998V4.7998L555.5 49.9998V54.5998L513.8 12.2998V63.1998H510.8ZM552.4 8.3998H555.5V45.9998L512.4 2.2998H516.8L552.4 38.3998V8.3998ZM546.4 27.9998V2.2998H561.5V63.1998H555.9L519.8 26.9998V59.9998H522.6V34.1998L525.8 37.4998V63.1998H516.7V19.2998L556.5 59.6998L556.9 59.9998H558.4V5.2998H549.5V31.3998L546.4 27.9998Z" fill="white"/>
<path d="M117 81.4002L124.4 91.9002H118.9L114.1 84.6002L111 88.0002V91.9002H106.7V74.2002H111V82.0002L117.8 74.2002H123.1L117 81.4002Z" fill="white"/>
<path d="M151.3 91.9002H147L138 81.1002V91.9002H133.7V74.2002H138L147 85.0002V74.2002H151.3V91.9002Z" fill="white"/>
<path d="M179 83.0999C179 84.9195 178.46 86.6982 177.449 88.2111C176.438 89.7241 175.002 90.9033 173.321 91.5996C171.639 92.2959 169.79 92.4781 168.005 92.1231C166.22 91.7681 164.581 90.8919 163.294 89.6053C162.008 88.3186 161.132 86.6794 160.777 84.8947C160.422 83.1101 160.604 81.2603 161.3 79.5792C161.996 77.8981 163.176 76.4613 164.689 75.4504C166.202 74.4395 167.98 73.8999 169.8 73.8999C172.24 73.8999 174.58 74.8692 176.305 76.5945C178.031 78.3199 179 80.6599 179 83.0999V83.0999ZM164.6 83.0999C164.6 83.7828 164.734 84.459 164.996 85.0899C165.257 85.7207 165.64 86.294 166.123 86.7769C166.606 87.2597 167.179 87.6428 167.81 87.9041C168.441 88.1654 169.117 88.2999 169.8 88.2999C171.179 88.2999 172.502 87.752 173.477 86.7769C174.452 85.8017 175 84.479 175 83.0999C175 81.7208 174.452 80.3981 173.477 79.4229C172.502 78.4478 171.179 77.8999 169.8 77.8999C168.421 77.8999 167.098 78.4478 166.123 79.4229C165.148 80.3981 164.6 81.7208 164.6 83.0999V83.0999Z" fill="white"/>
<path d="M214.5 74.2002L207.9 91.9002H203.5L199.8 80.4002L195.6 91.9002H191.2L185.3 74.2002H189.9L193.6 85.7002L197.6 74.2002H202.3L205.8 85.7002L210 74.2002H214.5Z" fill="white"/>
<path d="M228.6 88.0002H237.9V91.9002H224.4V74.2002H228.6V88.0002Z" fill="white"/>
<path d="M261.4 74.2002V78.2002H252.1V81.2002H259.9V84.9002H252.1V88.0002H261.4V91.9002H247.8V74.2002H261.4Z" fill="white"/>
<path d="M288.9 83.1003C288.9 88.2003 285.1 91.9003 279.6 91.9003H271.7V74.3003H279.6C285.4 74.2003 288.9 78.0003 288.9 83.1003ZM276 88.0003H279.6C280.255 88.0278 280.91 87.9206 281.522 87.6854C282.134 87.4502 282.692 87.0919 283.161 86.6327C283.629 86.1735 283.999 85.6231 284.246 85.0156C284.494 84.408 284.614 83.7562 284.6 83.1003C284.6 79.9003 282.6 78.2003 279.6 78.2003H276V88.0003Z" fill="white"/>
<path d="M315.5 77.8001L311.8 79.7001C311.268 79.0922 310.604 78.614 309.858 78.302C309.113 77.99 308.306 77.8526 307.5 77.9001C306.81 77.8585 306.119 77.9603 305.47 78.1992C304.822 78.4382 304.23 78.8089 303.732 79.2882C303.234 79.7674 302.841 80.3447 302.577 80.9836C302.313 81.6225 302.185 82.3091 302.2 83.0001C302.186 83.6999 302.314 84.3951 302.576 85.0443C302.837 85.6935 303.227 86.2832 303.722 86.7781C304.217 87.2729 304.807 87.6628 305.456 87.9244C306.105 88.1859 306.8 88.3137 307.5 88.3001C309.101 88.3596 310.668 87.8254 311.9 86.8001V85.1001H306.5V81.8001H315.7V88.3001C314.742 89.5385 313.515 90.5424 312.112 91.2355C310.708 91.9286 309.165 92.2927 307.6 92.3001C306.354 92.3538 305.11 92.1563 303.941 91.7193C302.773 91.2823 301.705 90.6148 300.8 89.7564C299.895 88.8981 299.171 87.8665 298.673 86.7229C298.175 85.5794 297.912 84.3474 297.9 83.1001C297.926 81.8656 298.195 80.6483 298.691 79.5178C299.188 78.3872 299.902 77.3656 300.794 76.5113C301.685 75.6569 302.737 74.9866 303.887 74.5385C305.038 74.0905 306.265 73.8736 307.5 73.9001C309.044 73.8884 310.57 74.2344 311.958 74.9111C313.346 75.5877 314.558 76.5765 315.5 77.8001V77.8001Z" fill="white"/>
<path d="M339.3 74.2002V78.2002H330V81.2002H337.8V84.9002H330V88.0002H339.3V91.9002H325.8V74.2002H339.3Z" fill="white"/>
<path d="M367 91.9002H362.7V74.2002H367V91.9002Z" fill="white"/>
<path d="M395.1 91.9002H390.8L381.8 81.1002V91.9002H377.5V74.2002H381.8L390.8 85.0002V74.2002H395.1V91.9002Z" fill="white"/>
<path d="M440.5 91.9002H436.2V82.9002L432 91.9002H427.2L423 82.9002V91.9002H418.7V74.2002H423.5L429.6 87.2002L435.8 74.2002H440.5V91.9002Z" fill="white"/>
<path d="M468 83.0999C467.974 85.5318 466.996 87.8568 465.277 89.5765C463.557 91.2963 461.232 92.2739 458.8 92.2999C456.36 92.2999 454.02 91.3306 452.295 89.6053C450.569 87.88 449.6 85.5399 449.6 83.0999C449.6 80.6599 450.569 78.3199 452.295 76.5945C454.02 74.8692 456.36 73.8999 458.8 73.8999C461.232 73.9259 463.557 74.9035 465.277 76.6233C466.996 78.343 467.974 80.668 468 83.0999V83.0999ZM453.6 83.0999C453.6 84.1284 453.905 85.1337 454.476 85.9889C455.048 86.844 455.86 87.5105 456.81 87.9041C457.76 88.2977 458.806 88.4006 459.815 88.2C460.823 87.9993 461.75 87.5041 462.477 86.7769C463.204 86.0496 463.7 85.1231 463.9 84.1144C464.101 83.1057 463.998 82.0601 463.604 81.1099C463.211 80.1598 462.544 79.3476 461.689 78.7763C460.834 78.2049 459.829 77.8999 458.8 77.8999C457.421 77.8999 456.098 78.4478 455.123 79.4229C454.148 80.3981 453.6 81.7208 453.6 83.0999V83.0999Z" fill="white"/>
<path d="M492.6 78.2002H486.3V91.9002H482V78.2002H475.7V74.2002H492.6V78.2002Z" fill="white"/>
<path d="M506.6 91.9002H502.3V74.2002H506.6V91.9002Z" fill="white"/>
<path d="M534.6 83.0999C534.6 84.9195 534.06 86.6982 533.049 88.2111C532.039 89.7241 530.602 90.9033 528.921 91.5996C527.24 92.2959 525.39 92.4781 523.605 92.1231C521.82 91.7681 520.181 90.8919 518.895 89.6053C517.608 88.3186 516.732 86.6794 516.377 84.8947C516.022 83.1101 516.204 81.2603 516.9 79.5792C517.597 77.8981 518.776 76.4613 520.289 75.4504C521.802 74.4395 523.58 73.8999 525.4 73.8999C526.608 73.8999 527.804 74.1379 528.921 74.6002C530.037 75.0626 531.051 75.7402 531.905 76.5945C532.76 77.4488 533.437 78.463 533.9 79.5792C534.362 80.6954 534.6 81.8917 534.6 83.0999ZM520.2 83.0999C520.2 84.1284 520.505 85.1337 521.076 85.9889C521.648 86.844 522.46 87.5105 523.41 87.9041C524.36 88.2977 525.406 88.4006 526.414 88.2C527.423 87.9993 528.35 87.5041 529.077 86.7769C529.804 86.0496 530.299 85.1231 530.5 84.1144C530.701 83.1057 530.598 82.0601 530.204 81.1099C529.811 80.1598 529.144 79.3476 528.289 78.7763C527.434 78.2049 526.428 77.8999 525.4 77.8999C524.021 77.8999 522.698 78.4478 521.723 79.4229C520.748 80.3981 520.2 81.7208 520.2 83.0999V83.0999Z" fill="white"/>
<path d="M561.5 91.9002H557.2L548.3 81.1002V91.9002H544V74.2002H548.3L557.2 85.0002V74.2002H561.5V91.9002Z" fill="white"/>
</g>
<defs>
<linearGradient id="paint0_linear_1802_958" x1="51.95" y1="82.0199" x2="73.31" y2="82.0199" gradientUnits="userSpaceOnUse">
<stop offset="0.13" stop-color="#E6E51D"/>
<stop offset="0.36" stop-color="#EBDA1C"/>
<stop offset="0.78" stop-color="#F7BD18"/>
<stop offset="0.94" stop-color="#FCB017"/>
</linearGradient>
<linearGradient id="paint1_linear_1802_958" x1="-15205.4" y1="1005.36" x2="-15662.3" y2="1005.36" gradientUnits="userSpaceOnUse">
<stop offset="0.13" stop-color="#E6E51D"/>
<stop offset="0.36" stop-color="#EBDA1C"/>
<stop offset="0.78" stop-color="#F7BD18"/>
<stop offset="0.94" stop-color="#FCB017"/>
</linearGradient>
<linearGradient id="paint2_linear_1802_958" x1="1614.22" y1="898.25" x2="2427.04" y2="898.25" gradientUnits="userSpaceOnUse">
<stop offset="0.13" stop-color="#E6E51D"/>
<stop offset="0.36" stop-color="#EBDA1C"/>
<stop offset="0.78" stop-color="#F7BD18"/>
<stop offset="0.94" stop-color="#FCB017"/>
</linearGradient>
<linearGradient id="paint3_linear_1802_958" x1="266.659" y1="892.401" x2="1080.73" y2="892.401" gradientUnits="userSpaceOnUse">
<stop offset="0.13" stop-color="#E6E51D"/>
<stop offset="0.36" stop-color="#EBDA1C"/>
<stop offset="0.78" stop-color="#F7BD18"/>
<stop offset="0.94" stop-color="#FCB017"/>
</linearGradient>
<linearGradient id="paint4_linear_1802_958" x1="2245.97" y1="-585.471" x2="2084.16" y2="1819.18" gradientUnits="userSpaceOnUse">
<stop offset="0.13" stop-color="#E6E51D"/>
<stop offset="0.36" stop-color="#EBDA1C"/>
<stop offset="0.78" stop-color="#F7BD18"/>
<stop offset="0.94" stop-color="#FCB017"/>
</linearGradient>
<linearGradient id="paint5_linear_1802_958" x1="1433.05" y1="2037.35" x2="3459.39" y2="3746.49" gradientUnits="userSpaceOnUse">
<stop offset="0.13" stop-color="#E6E51D"/>
<stop offset="0.36" stop-color="#EBDA1C"/>
<stop offset="0.78" stop-color="#F7BD18"/>
<stop offset="0.94" stop-color="#FCB017"/>
</linearGradient>
<linearGradient id="paint6_linear_1802_958" x1="3760" y1="1384.1" x2="972.4" y2="2436.5" gradientUnits="userSpaceOnUse">
<stop offset="0.13" stop-color="#E6E51D"/>
<stop offset="0.36" stop-color="#EBDA1C"/>
<stop offset="0.78" stop-color="#F7BD18"/>
<stop offset="0.94" stop-color="#FCB017"/>
</linearGradient>
<clipPath id="clip0_1802_958">
<rect width="561.5" height="92.3" fill="white"/>
</clipPath>
</defs>
</svg>
