<svg width="64" height="79" viewBox="0 0 64 79" fill="none" xmlns="http://www.w3.org/2000/svg">
<path d="M64 32C64 49.6731 48 64.96 32 78.08C17.92 65.92 0 49.6731 0 32C0 14.3269 14.3269 0 32 0C49.6731 0 64 14.3269 64 32Z" fill="red"/>
<ellipse cx="32" cy="31.4894" rx="24" ry="23.4894" fill="white"/>
<path d="M42.24 26.24H38.4V21.12H20.48C19.072 21.12 17.92 22.272 17.92 23.68V37.76H20.48C20.48 39.8848 22.1952 41.6 24.32 41.6C26.4448 41.6 28.16 39.8848 28.16 37.76H35.84C35.84 39.8848 37.5552 41.6 39.68 41.6C41.8048 41.6 43.52 39.8848 43.52 37.76H46.08V31.36L42.24 26.24ZM24.32 39.68C23.2576 39.68 22.4 38.8224 22.4 37.76C22.4 36.6976 23.2576 35.84 24.32 35.84C25.3824 35.84 26.24 36.6976 26.24 37.76C26.24 38.8224 25.3824 39.68 24.32 39.68ZM41.6 28.16L44.1088 31.36H38.4V28.16H41.6ZM39.68 39.68C38.6176 39.68 37.76 38.8224 37.76 37.76C37.76 36.6976 38.6176 35.84 39.68 35.84C40.7424 35.84 41.6 36.6976 41.6 37.76C41.6 38.8224 40.7424 39.68 39.68 39.68Z" fill="red"/>
</svg>
