<svg width="512" height="512" viewBox="0 0 512 512" fill="none" xmlns="http://www.w3.org/2000/svg">
<path d="M370.38 438.027V457.027H84.895V257.5H241.5V243.354H38.578C24.872 243.354 13.76 254.466 13.76 268.172V446.356C13.76 460.061 24.872 471.174 38.578 471.174H398.422C412.128 471.174 423.24 460.061 423.24 446.356V438.028H370.38V438.027ZM46.633 372.199C38.385 372.199 31.697 365.511 31.697 357.263C31.697 349.015 38.385 342.327 46.633 342.327C54.88 342.327 61.568 349.015 61.568 357.263C61.568 365.511 54.88 372.199 46.633 372.199Z" fill="#535455"/>
<path d="M459.001 15.073H280.819C267.114 15.073 256.001 26.185 256.001 39.891V399.734C256.001 413.441 267.114 424.552 280.819 424.552H459.003C472.708 424.552 483.821 413.44 483.821 399.734L483.82 39.891C483.82 26.185 472.707 15.073 459.001 15.073ZM294.715 34.768H445.105C447.984 34.768 450.317 37.101 450.317 39.979C450.317 42.858 447.984 45.192 445.105 45.192H294.715C291.838 45.192 289.504 42.858 289.504 39.979C289.504 37.101 291.838 34.768 294.715 34.768ZM369.91 406.616C361.662 406.616 354.974 399.928 354.974 391.68C354.974 383.433 361.662 376.745 369.91 376.745C378.158 376.745 384.846 383.433 384.846 391.68C384.846 399.928 378.158 406.616 369.91 406.616ZM469.674 353.418H270.147V67.933H469.674V353.418Z" fill="#535455"/>
<g clip-path="url(#clip0)">
<path d="M62.436 213.303L59.572 203.446C57.865 197.574 57 191.548 57 185.539C57 140.793 103.971 103.357 166.719 97.6651V65.0381L219.341 117.66L166.719 170.282V137.81C116.705 142.548 75.247 169.249 65.3 203.445L62.436 213.303ZM172.686 79.4421V103.178L169.929 103.387C108.948 107.981 62.967 143.299 62.967 185.539C62.967 187.639 63.086 189.746 63.319 191.84C78.588 159.058 119.652 135.346 169.482 131.587L172.692 131.342V155.872L210.91 117.654L172.686 79.4421Z" fill="#535455"/>
</g>
<defs>
<clipPath id="clip0">
<rect width="162.341" height="162.341" fill="white" transform="translate(57 58)"/>
</clipPath>
</defs>
</svg>
