<svg xmlns="http://www.w3.org/2000/svg" width="16" height="24" viewBox="0 0 16 24">
    <path fill="#009245" fill-rule="evenodd" d="M7.55 11.284a2.73 2.73 0 0 0 2.003-.83 2.73 2.73 0 0 0 .83-2.004 2.73 2.73 0 0 0-.83-2.003 2.73 2.73 0 0 0-2.003-.83 2.73 2.73 0 0 0-2.004.83 2.73 2.73 0 0 0-.83 2.003c0 .783.277 1.45.83 2.004a2.73 2.73 0 0 0 2.004.83zm0-10.406a7.07 7.07 0 0 1 2.944.62 7.622 7.622 0 0 1 2.391 1.683 8.057 8.057 0 0 1 1.617 2.49 8.15 8.15 0 0 1 .62 3.067c0 1.343-.395 2.87-1.185 4.583a44.439 44.439 0 0 1-2.601 4.849c-.945 1.52-1.812 2.797-2.602 3.83L7.55 23.55 6.365 22c-.79-1.033-1.657-2.31-2.601-3.83a43.154 43.154 0 0 1-2.59-4.849C.39 11.61 0 10.081 0 8.738c0-1.077.2-2.096.598-3.055A8.023 8.023 0 0 1 2.214 3.18a7.587 7.587 0 0 1 2.402-1.683c.923-.413 1.9-.62 2.934-.62z"/>
</svg>
