<svg xmlns="http://www.w3.org/2000/svg" width="16" height="23" viewBox="0 0 16 23">
    <path fill="#FF0000" fill-rule="evenodd" d="M7.55 10.406a2.73 2.73 0 0 0 2.003-.83 2.73 2.73 0 0 0 .83-2.004 2.73 2.73 0 0 0-.83-2.004 2.73 2.73 0 0 0-2.003-.83 2.73 2.73 0 0 0-2.004.83 2.73 2.73 0 0 0-.83 2.004c0 .782.277 1.45.83 2.003a2.73 2.73 0 0 0 2.004.83zM7.55 0a7.07 7.07 0 0 1 2.944.62 7.622 7.622 0 0 1 2.391 1.683 8.057 8.057 0 0 1 1.617 2.49 8.15 8.15 0 0 1 .62 3.067c0 1.343-.395 2.87-1.185 4.583a44.439 44.439 0 0 1-2.601 4.848c-.945 1.52-1.812 2.797-2.602 3.83l-1.184 1.55-1.185-1.55c-.79-1.033-1.657-2.31-2.601-3.83a43.154 43.154 0 0 1-2.59-4.848C.39 10.73 0 9.203 0 7.86c0-1.078.2-2.096.598-3.056a8.023 8.023 0 0 1 1.616-2.501A7.587 7.587 0 0 1 4.616.62C5.54.207 6.516 0 7.55 0z"/>
</svg>
