<svg width="194" height="28" viewBox="0 0 194 28" fill="none" xmlns="http://www.w3.org/2000/svg">
<path d="M17.7646 27.5H0.298828V26.2183L15.1328 4.12109H1.05078V2.51465H17.3716V3.79639L2.52051 25.8936H17.7646V27.5ZM37.3072 18.186C37.3072 19.6216 37.1306 20.9318 36.7774 22.1167C36.4243 23.2902 35.9002 24.3042 35.2052 25.1587C34.5102 26.0132 33.6443 26.674 32.6075 27.1411C31.5821 27.6082 30.3858 27.8418 29.0187 27.8418C27.7198 27.8418 26.5634 27.6139 25.5494 27.1582C24.5354 26.6911 23.6752 26.0303 22.9688 25.1758C22.2739 24.3213 21.7441 23.3073 21.3795 22.1338C21.0149 20.9489 20.8326 19.633 20.8326 18.186C20.8326 16.1922 21.163 14.4775 21.8238 13.042C22.496 11.5951 23.4531 10.4899 24.6949 9.72656C25.9482 8.95182 27.4464 8.56445 29.1896 8.56445C30.9897 8.56445 32.4879 8.97461 33.6842 9.79492C34.8919 10.6038 35.7976 11.7318 36.4015 13.1787C37.0053 14.6257 37.3072 16.2948 37.3072 18.186ZM22.61 18.186C22.61 19.8153 22.8435 21.2394 23.3106 22.4585C23.7778 23.6776 24.4841 24.6289 25.4298 25.3125C26.3868 25.9961 27.5945 26.3379 29.0528 26.3379C30.5453 26.3379 31.7701 25.9961 32.7271 25.3125C33.6842 24.6289 34.3906 23.6719 34.8463 22.4414C35.302 21.2109 35.5299 19.7925 35.5299 18.186C35.5299 16.6252 35.3134 15.2352 34.8805 14.0161C34.4475 12.797 33.7639 11.84 32.8297 11.145C31.8954 10.4386 30.6764 10.0854 29.1725 10.0854C27.0191 10.0854 25.3842 10.8032 24.2677 12.2388C23.1625 13.6743 22.61 15.6567 22.61 18.186ZM50.2702 8.56445C52.3552 8.56445 53.9559 9.11133 55.0725 10.2051C56.189 11.2988 56.7473 13.0135 56.7473 15.3491V27.5H55.0383V15.4517C55.0383 13.606 54.6167 12.2502 53.7736 11.3843C52.9305 10.5184 51.7058 10.0854 50.0993 10.0854C48.0599 10.0854 46.4991 10.6836 45.4167 11.8799C44.3457 13.0648 43.8103 14.8592 43.8103 17.2632V27.5H42.0842V8.92334H43.4855L43.7419 12.3071H43.8444C44.1748 11.6121 44.6249 10.9855 45.1945 10.4272C45.7756 9.85758 46.4877 9.40755 47.3308 9.07715C48.1739 8.73535 49.1537 8.56445 50.2702 8.56445ZM68.907 8.59863C70.9464 8.59863 72.4731 9.11133 73.4871 10.1367C74.5011 11.1621 75.0081 12.797 75.0081 15.0415V27.5H73.6751L73.3675 24.2529H73.2649C72.8662 24.9479 72.382 25.5688 71.8123 26.1157C71.2426 26.6512 70.542 27.0728 69.7103 27.3804C68.8899 27.688 67.8873 27.8418 66.7024 27.8418C65.5062 27.8418 64.4808 27.6424 63.6263 27.2437C62.7832 26.8449 62.1281 26.2638 61.6609 25.5005C61.2052 24.7371 60.9773 23.8086 60.9773 22.7148C60.9773 20.8691 61.7407 19.4678 63.2674 18.5107C64.7941 17.5423 66.9873 16.9954 69.847 16.8701L73.2991 16.6992V15.3491C73.2991 13.4465 72.9231 12.0907 72.1712 11.2817C71.4192 10.4728 70.3084 10.0684 68.8387 10.0684C67.8816 10.0684 66.9588 10.1937 66.0701 10.4443C65.1928 10.6836 64.2985 11.0311 63.387 11.4868L62.8401 10.0513C63.7288 9.62972 64.6801 9.28223 65.6941 9.00879C66.7195 8.73535 67.7905 8.59863 68.907 8.59863ZM73.282 18.0493L70.035 18.186C67.6766 18.3 65.8821 18.7215 64.6517 19.4507C63.4212 20.1799 62.806 21.2736 62.806 22.7319C62.806 23.9054 63.1705 24.8055 63.8997 25.4321C64.6403 26.0588 65.6657 26.3721 66.9759 26.3721C69.0153 26.3721 70.5704 25.791 71.6414 24.6289C72.7238 23.4668 73.2706 21.8831 73.282 19.8779V18.0493ZM88.0224 8.59863C88.5123 8.59863 88.9737 8.62712 89.4066 8.68408C89.8396 8.74105 90.244 8.8208 90.62 8.92334L90.3466 10.5127C89.9706 10.4102 89.5889 10.3361 89.2016 10.2905C88.8142 10.2336 88.3983 10.2051 87.954 10.2051C87.0767 10.2051 86.2906 10.3703 85.5956 10.7007C84.912 11.0311 84.331 11.5039 83.8524 12.1191C83.3739 12.7344 83.0093 13.4749 82.7587 14.3408C82.508 15.2067 82.3827 16.1751 82.3827 17.2461V27.5H80.6395V8.92334H82.1264L82.2973 12.4268H82.3998C82.6846 11.709 83.0834 11.0653 83.5961 10.4956C84.1202 9.91455 84.7525 9.45312 85.4931 9.11133C86.2336 8.76953 87.0767 8.59863 88.0224 8.59863ZM113.709 3.74512C112.114 3.74512 110.69 4.01855 109.437 4.56543C108.183 5.10091 107.124 5.86426 106.258 6.85547C105.392 7.84668 104.731 9.03158 104.275 10.4102C103.82 11.7773 103.592 13.2869 103.592 14.939C103.592 17.2176 103.951 19.2114 104.669 20.9204C105.386 22.618 106.463 23.9339 107.899 24.8682C109.345 25.8024 111.146 26.2695 113.299 26.2695C114.552 26.2695 115.692 26.1784 116.717 25.9961C117.742 25.8024 118.694 25.5575 119.571 25.2612V26.7993C118.739 27.1069 117.799 27.3576 116.751 27.5513C115.714 27.745 114.507 27.8418 113.128 27.8418C110.633 27.8418 108.537 27.3063 106.839 26.2354C105.153 25.1644 103.882 23.6605 103.028 21.7236C102.173 19.7868 101.746 17.5252 101.746 14.939C101.746 13.0819 102.014 11.3786 102.549 9.8291C103.085 8.26823 103.865 6.91813 104.891 5.77881C105.928 4.62809 107.186 3.73942 108.668 3.11279C110.149 2.47477 111.835 2.15576 113.726 2.15576C114.922 2.15576 116.062 2.27539 117.144 2.51465C118.238 2.74251 119.263 3.07861 120.22 3.52295L119.537 5.06104C118.614 4.60531 117.668 4.2749 116.7 4.06982C115.731 3.85335 114.734 3.74512 113.709 3.74512ZM139.455 18.186C139.455 19.6216 139.279 20.9318 138.925 22.1167C138.572 23.2902 138.048 24.3042 137.353 25.1587C136.658 26.0132 135.792 26.674 134.756 27.1411C133.73 27.6082 132.534 27.8418 131.167 27.8418C129.868 27.8418 128.711 27.6139 127.697 27.1582C126.683 26.6911 125.823 26.0303 125.117 25.1758C124.422 24.3213 123.892 23.3073 123.528 22.1338C123.163 20.9489 122.981 19.633 122.981 18.186C122.981 16.1922 123.311 14.4775 123.972 13.042C124.644 11.5951 125.601 10.4899 126.843 9.72656C128.096 8.95182 129.594 8.56445 131.338 8.56445C133.138 8.56445 134.636 8.97461 135.832 9.79492C137.04 10.6038 137.946 11.7318 138.55 13.1787C139.153 14.6257 139.455 16.2948 139.455 18.186ZM124.758 18.186C124.758 19.8153 124.992 21.2394 125.459 22.4585C125.926 23.6776 126.632 24.6289 127.578 25.3125C128.535 25.9961 129.743 26.3379 131.201 26.3379C132.693 26.3379 133.918 25.9961 134.875 25.3125C135.832 24.6289 136.539 23.6719 136.994 22.4414C137.45 21.2109 137.678 19.7925 137.678 18.186C137.678 16.6252 137.461 15.2352 137.029 14.0161C136.596 12.797 135.912 11.84 134.978 11.145C134.043 10.4386 132.824 10.0854 131.321 10.0854C129.167 10.0854 127.532 10.8032 126.416 12.2388C125.311 13.6743 124.758 15.6567 124.758 18.186ZM150.726 8.59863C152.766 8.59863 154.292 9.11133 155.306 10.1367C156.32 11.1621 156.827 12.797 156.827 15.0415V27.5H155.494L155.187 24.2529H155.084C154.686 24.9479 154.201 25.5688 153.632 26.1157C153.062 26.6512 152.361 27.0728 151.53 27.3804C150.709 27.688 149.707 27.8418 148.522 27.8418C147.325 27.8418 146.3 27.6424 145.446 27.2437C144.603 26.8449 143.947 26.2638 143.48 25.5005C143.025 24.7371 142.797 23.8086 142.797 22.7148C142.797 20.8691 143.56 19.4678 145.087 18.5107C146.613 17.5423 148.807 16.9954 151.666 16.8701L155.118 16.6992V15.3491C155.118 13.4465 154.742 12.0907 153.991 11.2817C153.239 10.4728 152.128 10.0684 150.658 10.0684C149.701 10.0684 148.778 10.1937 147.889 10.4443C147.012 10.6836 146.118 11.0311 145.206 11.4868L144.659 10.0513C145.548 9.62972 146.499 9.28223 147.513 9.00879C148.539 8.73535 149.61 8.59863 150.726 8.59863ZM155.101 18.0493L151.854 18.186C149.496 18.3 147.701 18.7215 146.471 19.4507C145.241 20.1799 144.625 21.2736 144.625 22.7319C144.625 23.9054 144.99 24.8055 145.719 25.4321C146.46 26.0588 147.485 26.3721 148.795 26.3721C150.835 26.3721 152.39 25.791 153.461 24.6289C154.543 23.4668 155.09 21.8831 155.101 19.8779V18.0493ZM169.893 27.8418C168.047 27.8418 166.486 27.4601 165.21 26.6968C163.946 25.922 162.989 24.8226 162.339 23.3984C161.701 21.9629 161.382 20.2653 161.382 18.3057C161.382 16.2663 161.753 14.5231 162.493 13.0762C163.234 11.6178 164.276 10.5013 165.621 9.72656C166.965 8.95182 168.543 8.56445 170.354 8.56445C171.243 8.56445 172.069 8.64421 172.832 8.80371C173.596 8.96322 174.285 9.18538 174.9 9.47021L174.439 10.9912C173.801 10.7064 173.123 10.4899 172.405 10.3418C171.687 10.1937 170.998 10.1196 170.337 10.1196C168.811 10.1196 167.512 10.4557 166.441 11.1279C165.381 11.7887 164.567 12.7344 163.997 13.9648C163.439 15.1839 163.16 16.6252 163.16 18.2886C163.16 19.8494 163.399 21.2337 163.877 22.4414C164.356 23.6377 165.091 24.5833 166.082 25.2783C167.073 25.9619 168.343 26.3037 169.893 26.3037C170.793 26.3037 171.648 26.2126 172.456 26.0303C173.277 25.848 174.023 25.6144 174.695 25.3296V26.9019C174.091 27.1753 173.391 27.3975 172.593 27.5684C171.807 27.7507 170.907 27.8418 169.893 27.8418ZM180.463 0.908203V9.58984C180.463 10.0911 180.452 10.5583 180.429 10.9912C180.418 11.4242 180.395 11.8628 180.361 12.3071H180.48C180.788 11.6007 181.227 10.9684 181.796 10.4102C182.377 9.85189 183.09 9.40755 183.933 9.07715C184.787 8.74674 185.773 8.58154 186.889 8.58154C188.302 8.58154 189.487 8.8265 190.444 9.31641C191.412 9.79492 192.147 10.5298 192.648 11.521C193.15 12.5122 193.4 13.7882 193.4 15.3491V27.5H191.691V15.4517C191.691 13.606 191.27 12.2502 190.427 11.3843C189.584 10.5184 188.359 10.0854 186.752 10.0854C185.385 10.0854 184.235 10.3532 183.3 10.8887C182.366 11.4128 181.66 12.2103 181.181 13.2812C180.703 14.3408 180.463 15.6681 180.463 17.2632V27.5H178.737V0.908203H180.463Z" fill="#3E484D"/>
</svg>
