<svg width="168" height="48" viewBox="0 0 168 48" fill="none" xmlns="http://www.w3.org/2000/svg">
<g clip-path="url(#clip0_4_3421)">
<path d="M80.1616 37.8664V9.38879L99.7648 24.2325V10.1515H106.875V38.6112L87.2784 23.9589V37.8664H80.1616Z" fill="black"/>
<path d="M22.9235 37.8485H0L14.1016 17.5856H1.0024L5.91227 10.42H27.4675L13.0696 30.6811H27.5299L22.9235 37.8485Z" fill="black"/>
<path d="M108.781 37.8485H117.255L123.926 24.2659L131.495 37.8485H140.226L123.926 9.65759L108.781 37.8485Z" fill="black"/>
<path d="M167.482 37.8789L161.347 28.4723C163.261 26.5373 164.428 23.8533 164.428 20.9056C164.428 15.0528 159.72 10.1515 153.918 10.1515H141.856V37.8483H148.85V16.6136H153.355C155.646 16.6136 157.503 18.5461 157.503 20.8581C157.503 23.0251 155.896 24.8296 153.804 25.0435H151.7L160.245 37.8789H167.482Z" fill="black"/>
<path d="M166.747 13.276L166.293 12.5797C166.435 12.4363 166.521 12.2376 166.521 12.0195C166.521 11.5861 166.173 11.2232 165.743 11.2232H164.85V13.2739H165.367V11.7019H165.701C165.871 11.7019 166.009 11.8448 166.009 12.016C166.009 12.1763 165.889 12.3099 165.734 12.3259H165.579L166.211 13.276H166.747Z" fill="black"/>
<path fill-rule="evenodd" clip-rule="evenodd" d="M167.139 10.7635C166.733 10.3555 166.241 10.1515 165.664 10.1515C165.093 10.1515 164.604 10.3555 164.199 10.7635C163.793 11.1739 163.589 11.6675 163.589 12.2453C163.589 12.8288 163.791 13.3245 164.193 13.7349C164.597 14.1469 165.088 14.3525 165.664 14.3525C166.241 14.3525 166.733 14.1469 167.139 13.7349C167.546 13.3237 167.748 12.8269 167.748 12.2453C167.748 11.6656 167.546 11.1725 167.139 10.7635ZM166.932 13.5317C166.584 13.8864 166.161 14.064 165.664 14.064C165.167 14.064 164.745 13.8864 164.397 13.5317C164.051 13.1773 163.878 12.748 163.878 12.2453C163.878 11.7461 164.053 11.3197 164.401 10.9672C164.749 10.6128 165.171 10.4355 165.664 10.4355C166.16 10.4355 166.582 10.6128 166.932 10.9672C167.279 11.3197 167.453 11.7461 167.453 12.2453C167.453 12.748 167.279 13.1773 166.932 13.5317Z" fill="black"/>
<circle cx="52.5333" cy="24" r="24" fill="#009FDF"/>
<circle cx="52.5333" cy="24" r="20" fill="white" fill-opacity="0.15"/>
<circle cx="52.5333" cy="24.0001" r="15.7333" fill="white" fill-opacity="0.15"/>
<circle cx="52.5333" cy="24" r="11.4667" fill="white" fill-opacity="0.35"/>
<circle cx="52.5333" cy="24" r="7.2" fill="white" fill-opacity="0.35"/>
<circle cx="52.5333" cy="24" r="2.93333" fill="white"/>
<path d="M52.5333 24L69.7333 40.9333" stroke="white" stroke-width="1.86667"/>
</g>
<defs>
<clipPath id="clip0_4_3421">
<rect width="168" height="48" fill="white"/>
</clipPath>
</defs>
</svg>
