<svg width="664" height="179" viewBox="0 0 664 179" fill="none" xmlns="http://www.w3.org/2000/svg">
<path d="M74.832 149C73.9376 149 73.3413 148.652 73.0432 147.957L51.1302 101.746C51.0308 101.447 50.8321 101.298 50.534 101.298H25.1924C24.7949 101.298 24.5962 101.497 24.5962 101.895V147.509C24.5962 148.503 24.0993 149 23.1055 149H15.503C14.5093 149 14.0124 148.503 14.0124 147.509V46.1433C14.0124 45.1495 14.5093 44.6526 15.503 44.6526H54.1116C62.6581 44.6526 69.5649 47.3358 74.832 52.7023C80.099 57.9693 82.7326 64.8761 82.7326 73.4227C82.7326 80.3792 80.8444 86.2922 77.068 91.1617C73.2916 96.0313 68.1736 99.1617 61.714 100.553C61.3165 100.752 61.2171 101 61.4159 101.298L83.7761 147.211C83.8754 147.41 83.9251 147.658 83.9251 147.957C83.9251 148.652 83.5276 149 82.7326 149H74.832ZM25.1924 53.8948C24.7949 53.8948 24.5962 54.0936 24.5962 54.4911V92.2052C24.5962 92.6027 24.7949 92.8015 25.1924 92.8015H52.919C58.683 92.8015 63.3538 91.0127 66.9314 87.435C70.509 83.8574 72.2978 79.1866 72.2978 73.4227C72.2978 67.6587 70.509 62.9879 66.9314 59.4103C63.3538 55.7333 58.683 53.8948 52.919 53.8948H25.1924ZM106.778 149C105.784 149 105.287 148.503 105.287 147.509V46.1433C105.287 45.1495 105.784 44.6526 106.778 44.6526H114.38C115.374 44.6526 115.871 45.1495 115.871 46.1433V147.509C115.871 148.503 115.374 149 114.38 149H106.778ZM145.355 149C144.361 149 143.864 148.503 143.864 147.509V46.1433C143.864 45.1495 144.361 44.6526 145.355 44.6526H180.535C190.373 44.6526 198.175 47.2364 203.939 52.4041C209.802 57.5718 212.734 64.578 212.734 73.4227V120.23C212.734 129.075 209.802 136.081 203.939 141.248C198.175 146.416 190.373 149 180.535 149H145.355ZM154.448 139.162C154.448 139.559 154.647 139.758 155.044 139.758H180.982C187.442 139.758 192.56 137.87 196.336 134.093C200.212 130.317 202.15 125.249 202.15 118.888V74.9134C202.15 68.4537 200.262 63.3358 196.485 59.5594C192.709 55.783 187.541 53.8948 180.982 53.8948H155.044C154.647 53.8948 154.448 54.0936 154.448 54.4911V139.162ZM303.54 52.4041C303.54 53.3979 303.043 53.8948 302.05 53.8948H247.193C246.795 53.8948 246.596 54.0936 246.596 54.4911V91.3108C246.596 91.7083 246.795 91.9071 247.193 91.9071H285.652C286.646 91.9071 287.143 92.404 287.143 93.3977V99.6586C287.143 100.652 286.646 101.149 285.652 101.149H247.193C246.795 101.149 246.596 101.348 246.596 101.746V139.162C246.596 139.559 246.795 139.758 247.193 139.758H302.05C303.043 139.758 303.54 140.255 303.54 141.248V147.509C303.54 148.503 303.043 149 302.05 149H237.503C236.51 149 236.013 148.503 236.013 147.509V46.1433C236.013 45.1495 236.51 44.6526 237.503 44.6526H302.05C303.043 44.6526 303.54 45.1495 303.54 46.1433V52.4041ZM417.287 149C416.293 149 415.796 148.503 415.796 147.509V46.1433C415.796 45.1495 416.293 44.6526 417.287 44.6526H424.89C425.883 44.6526 426.38 45.1495 426.38 46.1433V147.509C426.38 148.503 425.883 149 424.89 149H417.287ZM521.901 52.4041C521.901 53.3979 521.404 53.8948 520.411 53.8948H465.554C465.156 53.8948 464.957 54.0936 464.957 54.4911V91.3108C464.957 91.7083 465.156 91.9071 465.554 91.9071H504.013C505.007 91.9071 505.504 92.404 505.504 93.3977V99.6586C505.504 100.652 505.007 101.149 504.013 101.149H465.554C465.156 101.149 464.957 101.348 464.957 101.746V139.162C464.957 139.559 465.156 139.758 465.554 139.758H520.411C521.404 139.758 521.901 140.255 521.901 141.248V147.509C521.901 148.503 521.404 149 520.411 149H455.864C454.87 149 454.374 148.503 454.374 147.509V46.1433C454.374 45.1495 454.87 44.6526 455.864 44.6526H520.411C521.404 44.6526 521.901 45.1495 521.901 46.1433V52.4041ZM567.09 149C566.295 149 565.748 148.602 565.45 147.807L536.829 46.2924L536.68 45.8451C536.68 45.0501 537.177 44.6526 538.171 44.6526H546.071C546.966 44.6526 547.512 45.0501 547.711 45.8451L570.369 127.534C570.469 127.733 570.568 127.832 570.667 127.832C570.866 127.832 571.015 127.733 571.114 127.534L592.133 45.9942C592.332 45.0998 592.878 44.6526 593.773 44.6526H601.822C602.717 44.6526 603.263 45.0998 603.462 45.9942L625.375 127.534C625.475 127.733 625.574 127.832 625.673 127.832C625.872 127.832 626.021 127.733 626.12 127.534L648.779 45.8451C648.978 45.0501 649.524 44.6526 650.419 44.6526H658.021C658.518 44.6526 658.866 44.8017 659.064 45.0998C659.363 45.3979 659.462 45.7955 659.363 46.2924L631.189 147.807C630.99 148.602 630.443 149 629.549 149H621.648C620.754 149 620.207 148.553 620.009 147.658L598.245 64.1805C598.145 63.9817 597.996 63.8823 597.798 63.8823C597.698 63.8823 597.599 63.9817 597.499 64.1805L576.183 147.658C576.083 148.553 575.537 149 574.543 149H567.09Z" fill="white"/>
<path d="M353.964 148.872L315.264 54.3723C312.664 47.9723 319.164 41.7723 325.464 44.5723L388.864 73.4723C392.464 75.1723 394.264 79.2723 392.864 83.0723L368.164 148.772C365.664 155.172 356.564 155.272 353.964 148.872Z" fill="url(#paint0_linear_336_16)"/>
<path d="M368.264 148.972L404.564 53.2725C406.964 46.7725 400.364 40.6725 394.064 43.6725L330.664 74.2725C326.964 76.0725 325.364 80.3725 326.964 84.0725L354.064 149.172C356.764 155.572 365.764 155.372 368.264 148.972Z" fill="url(#paint1_linear_336_16)"/>
<defs>
<linearGradient id="paint0_linear_336_16" x1="340.081" y1="134.434" x2="360.215" y2="39.5185" gradientUnits="userSpaceOnUse">
<stop stop-color="#9BDFFD"/>
<stop offset="0.486" stop-color="#A500CA"/>
</linearGradient>
<linearGradient id="paint1_linear_336_16" x1="367.573" y1="54.9464" x2="348.315" y2="166.034" gradientUnits="userSpaceOnUse">
<stop stop-color="#79D6FC"/>
<stop offset="1" stop-color="#75CE9E"/>
</linearGradient>
</defs>
</svg>
