<svg width="963" height="907" viewBox="0 0 963 907" fill="none" xmlns="http://www.w3.org/2000/svg">
<rect width="963" height="907" fill="white"/>
<path d="M0 453.5V907H481.5H963V453.5V-1.35154e-05H481.5H0V453.5ZM488.1 60C499.5 65.7 689.1 177.8 691.9 180.5C697.7 186.1 697.2 194.9 690.8 200.6C689.6 201.7 666.7 215 640 230.1C596.5 254.7 591 257.5 587 257.5C582.9 257.5 577.5 254.6 530.2 227.6L477.9 197.8L466.2 204.9C417.8 234.3 411.5 238.5 411.5 240.9C411.5 243 422.7 249.9 506.5 299C576.6 340.2 602 355.5 603.2 357.6C604.2 359.2 605 361.7 605 363.1C605 369.5 603 370.8 543 404.8C491.9 433.7 484.9 437.4 480.3 437.8C477.5 438 473.7 437.7 472 437.1C470.3 436.5 445.8 422.7 417.7 406.3C362.3 374.1 359.2 371.9 356.5 362.8C353.4 352.3 359.1 345 370.3 345C375.7 345 372.8 343.5 432.5 376.9C457.2 390.7 478.1 402 479 402C479.8 402 495.6 393.3 514 382.7C539.6 367.9 547.6 362.9 547.8 361.3C548.1 359.5 536 352.3 454.8 306C403 276.5 359.9 251.3 358 249.4C354.7 246.2 354.5 245.6 354.5 239.5C354.5 233.4 354.7 232.8 358 229.6C359.9 227.8 386.5 212.1 417 194.9C470.4 164.8 472.7 163.6 478.6 163.2C483.1 162.9 485.6 163.2 488.1 164.5C490 165.5 510.2 177.4 533 191C555.8 204.6 576 216.5 577.9 217.5C580.4 218.7 583 219.1 587.5 218.8C593.2 218.5 595.2 217.5 615.9 206C640 192.5 641.8 190.9 638.3 186.2C635.9 183.1 484.4 95.8 480.5 95.2C478 94.9 461.9 103.7 388.5 145.6C339.5 173.5 298.7 197 297.8 197.8C296.1 199.2 296 205.4 296 301.5C296 397.6 296.1 403.8 297.8 405.2C298.7 406.1 339.1 429.2 387.5 456.6C444.3 488.8 476.4 506.4 478 506.4C480.1 506.3 658.4 405.6 661.5 402.8C662.1 402.3 662.7 392.6 663 379.7C663.5 359 663.7 357.2 665.8 352.8C668.8 346.8 672.9 343.8 678.9 343.3C685 342.7 689.6 345.7 693 352.5C695.5 357.4 695.5 358 695.8 384.9C696.2 415.5 695.8 418 689.7 423.7C687.2 426.1 501.3 529.8 483.3 538.9C478.2 541.4 470.3 541.7 465.7 539.4C453.1 533.1 268 424.8 265.4 422.3C263.6 420.5 261.6 417.3 261.1 415.3C260.4 412.7 260 374.2 260 298.5C260 190.6 260.1 185.3 261.9 181.5C262.9 179.3 265 176.3 266.6 174.9C268.7 173 451.1 69.4 469 59.9C474.9 56.9 481.8 56.9 488.1 60ZM638 636.5V658H698H758.1L757.8 668.7L757.5 679.5L713.1 680L668.7 680.5L713.1 723L757.4 765.5L742.6 765.8C730.6 766 727.3 765.8 725.6 764.6C724.5 763.7 704.4 744.6 681 722.2L638.5 681.3L638.2 723.7L638 766.1L626.2 765.8L614.5 765.5L614.2 690.2L614 615H626H638V636.5ZM181 669V680H121.5H62V690.5V701H121.5H181V733.5V766H109.5H38V755V744H97.5H157V733.5V723H97.5H38V690.5V658H109.5H181V669ZM240 712V766H228.5H217V712V658H228.5H240V712ZM315.6 697.2C327.5 718.8 337.8 737.1 338.5 737.8C339.5 738.9 344 731.4 361.3 700.3C373.2 679 383.5 660.7 384.2 659.7C385.4 658.1 387 658 398.2 658.2L410.9 658.5L381.1 712L351.3 765.5L339.8 765.8C331.4 766 328 765.7 327.3 764.8C326.1 763.3 268 659.1 268 658.4C268 658.2 273.8 658 280.9 658H293.8L315.6 697.2ZM579 712V766H507.5H436V712V658H507.5H579V712ZM927 712V766H855.5H784V712V658H855.5H927V712ZM869.3 819.4C871.1 820.1 873.3 821.6 874.3 822.7C875.9 824.6 875.9 824.8 874.1 826.4C872.3 828 872 828 868.9 826.1C860.4 820.9 851 825.3 851 834.4C851 838 851.6 839.6 853.8 842.1C856.2 844.8 857.4 845.3 861.2 845.4C864.5 845.5 866.7 844.9 868.8 843.3L871.8 841.1L873.9 843.4L876.1 845.8L873.3 847.8C868.9 850.9 862.8 852.2 857.9 851.1C852.2 849.8 849 847.3 846.2 841.9C843.5 836.7 843.8 830.7 847 825.5C850.9 819.1 861.7 816.2 869.3 819.4ZM717 822C717 824.7 716.7 825 714 825H711V838V851H708H705V838V825H702C699.3 825 699 824.7 699 822V819H708H717V822ZM761.5 821.5C764.7 824.6 764.9 830.6 762 833.8C760.8 835 759.5 836 758.9 836C758.3 836 759.5 839 761.4 842.7C763.4 846.4 765 849.8 765 850.2C765 850.6 763.7 851 762.1 851C759.5 851 758.7 850.2 755.1 843.7L751 836.5V843.7V851H748H745V835V819H752C758.2 819 759.4 819.3 761.5 821.5ZM812.2 834.5C815.4 842.7 818 849.6 818 849.7C818 849.9 817.1 850 815.9 850C814.4 850 813.4 848.9 812.3 846L810.7 842H803.8H796.8L795.3 846C794.2 848.7 793.1 850 791.8 850C790.8 850 790 849.7 790 849.3C790 848.9 792.6 841.9 795.7 833.7C801 819.7 801.5 818.9 803.9 819.2C806.1 819.5 807 821 812.2 834.5ZM911.2 824.1L911.5 829.1L915.4 824.1C918.8 819.5 919.6 819 923.2 819H927.1L921.4 826L915.8 833L921.9 841.5C925.3 846.2 928 850.3 928 850.5C928 850.8 926.5 851 924.6 851C921.4 851 920.7 850.3 916.1 843.8L911 836.6V843.8V851H908H905V835V819H907.9C910.8 819 910.9 819.2 911.2 824.1Z" fill="black"/>
<path d="M460 712V744H507.5H555V712V680H507.5H460V712Z" fill="black"/>
<path d="M808 712V744H855.5H903V712V680H855.5H808V712Z" fill="black"/>
<path d="M751 828C751 830.9 751.2 831.1 754.3 830.8C757 830.6 757.5 830.1 757.5 828C757.5 825.9 757 825.4 754.3 825.2C751.2 824.9 751 825.1 751 828Z" fill="black"/>
<path d="M800.801 830.7L798.301 837.5L803.301 837.8C806.001 838 808.401 837.9 808.601 837.7C809.101 837.2 805.101 825.9 804.001 824.7C803.601 824.3 802.201 827 800.801 830.7Z" fill="black"/>
</svg>
