<svg width="380" height="100" viewBox="0 0 380 100" fill="none" xmlns="http://www.w3.org/2000/svg">
<path d="M36.7999 6.60013C10.8999 12.8001 -5.0001 38.5001 1.4999 63.5001C4.9999 76.7001 14.7999 88.9001 26.3999 94.4001C51.6999 106.4 81.8999 93.9001 90.8999 67.9001C100.1 41.0001 83.9999 12.3001 56.2999 6.50013C48.0999 4.70013 44.1999 4.70013 36.7999 6.60013ZM45.3999 8.20013C45.6999 8.90013 46.0999 10.7001 46.3999 12.2001L46.9999 14.8001L42.1999 11.7001C38.5999 9.30013 37.7999 8.30013 38.8999 7.80013C41.4999 6.70013 44.9999 6.90013 45.3999 8.20013ZM58.3999 8.60013C61.6999 9.50013 66.1999 11.1001 68.1999 12.2001L71.8999 14.3001L64.1999 16.9001C54.4999 20.3001 51.1999 19.9001 49.3999 15.0001C46.3999 6.60013 47.4999 5.80013 58.3999 8.60013ZM41.3999 13.1001C46.7999 16.7001 47.8999 18.4001 47.6999 22.5001C47.4999 26.4001 45.2999 28.1001 41.2999 27.4001C39.0999 27.0001 37.6999 27.3001 36.2999 28.7001C33.7999 31.2001 27.8999 30.2001 24.4999 26.7001C22.0999 24.3001 21.9999 23.8001 22.9999 20.1001C25.6999 9.90013 32.5999 7.30013 41.3999 13.1001ZM21.5999 19.2001C20.1999 25.0001 16.5999 28.6001 11.1999 29.8001L6.9999 30.8001L8.7999 27.8001C10.5999 24.7001 21.7999 13.5001 22.4999 14.1001C22.6999 14.3001 22.2999 16.6001 21.5999 19.2001ZM79.8999 21.5001C85.4999 27.4001 90.3999 36.7001 89.3999 39.4001C88.5999 41.4001 85.0999 41.4001 77.6999 39.5001C70.2999 37.6001 64.8999 34.8001 60.0999 30.5001C56.9999 27.7001 56.3999 26.6001 56.7999 24.1001C57.1999 21.5001 57.9999 20.8001 62.3999 19.1001C73.3999 15.0001 73.7999 15.1001 79.8999 21.5001ZM54.7999 23.3001C55.0999 25.6001 54.7999 26.0001 52.5999 26.0001C49.7999 26.0001 48.8999 24.3001 50.1999 21.7001C51.5999 19.0001 54.3999 20.0001 54.7999 23.3001ZM23.4999 30.0001C23.4999 31.8001 22.8999 32.6001 21.1999 32.8001C19.8999 33.0001 18.6999 32.5001 18.3999 31.6001C17.3999 29.0001 18.7999 26.8001 21.1999 27.2001C22.8999 27.4001 23.4999 28.2001 23.4999 30.0001ZM53.0999 28.0001C54.3999 28.0001 55.9999 30.0001 58.4999 35.0001C60.3999 38.8001 61.9999 42.2001 61.9999 42.4001C61.9999 42.7001 58.6999 41.2001 54.7999 39.0001C49.6999 36.3001 47.2999 34.3001 46.6999 32.5001C45.6999 29.5001 47.4999 26.6001 49.6999 27.5001C50.4999 27.8001 51.9999 28.0001 53.0999 28.0001ZM43.9999 31.0001C46.2999 35.3001 42.2999 39.3001 37.9999 37.0001C35.7999 35.8001 35.2999 32.1001 37.1999 30.2001C39.0999 28.3001 42.7999 28.8001 43.9999 31.0001ZM17.9999 33.0001C19.3999 34.4001 20.4999 37.6001 21.2999 42.4001C22.5999 49.6001 22.4999 49.8001 20.2999 52.0001C17.3999 54.8001 17.2999 59.3001 19.9999 62.0001C21.9999 64.0001 21.9999 64.3001 20.4999 71.5001C19.6999 75.6001 18.9999 80.5001 18.9999 82.5001C18.9999 86.8001 17.2999 87.0001 13.7999 83.2001C5.8999 74.7001 1.9999 64.4001 1.9999 52.1001C2.0999 41.6001 4.3999 34.1001 7.9999 32.3001C11.6999 30.4001 15.6999 30.7001 17.9999 33.0001ZM31.5999 31.6001C35.4999 32.6001 35.3999 37.1001 31.2999 43.9001C26.0999 52.7001 24.0999 51.9001 22.4999 40.2001C21.8999 35.5001 21.9999 34.8001 24.1999 33.0001C26.5999 31.0001 28.1999 30.7001 31.5999 31.6001ZM74.2999 40.4001C76.8999 41.3001 80.9999 42.0001 83.3999 42.0001C90.3999 42.0001 91.0999 43.9001 87.0999 51.6001C84.2999 57.0001 83.3999 58.0001 81.0999 58.0001C77.0999 58.0001 65.9999 47.0001 62.6999 39.6001C61.1999 36.4001 59.9999 33.6001 59.9999 33.4001C59.9999 33.2001 62.0999 34.3001 64.7999 35.9001C67.3999 37.5001 71.6999 39.5001 74.2999 40.4001ZM56.0999 41.6001C63.7999 46.2001 63.7999 46.3001 65.8999 52.9001C66.9999 56.5001 68.4999 62.2001 69.0999 65.4001C70.3999 72.4001 70.4999 72.1001 59.9999 77.4001C49.7999 82.6001 46.1999 83.5001 44.0999 81.6001C43.0999 80.7001 40.9999 80.0001 39.3999 80.0001C36.6999 80.0001 36.0999 79.3001 32.5999 72.1001L28.6999 64.3001L30.8999 62.1001C33.3999 59.6001 33.5999 55.3001 31.3999 52.2001C29.8999 50.0001 29.9999 49.6001 33.0999 44.4001C36.1999 39.4001 36.6999 39.0001 40.1999 39.0001C42.1999 39.0001 44.1999 38.5001 44.4999 38.0001C45.6999 36.1001 48.4999 37.0001 56.0999 41.6001ZM90.6999 42.2001C90.3999 43.0001 90.0999 42.7001 90.0999 41.6001C89.9999 40.5001 90.2999 39.9001 90.5999 40.3001C90.8999 40.6001 90.9999 41.5001 90.6999 42.2001ZM89.8999 66.2001C88.6999 70.0001 87.3999 73.0001 86.9999 73.0001C85.6999 73.0001 84.3999 67.8001 84.5999 63.5001C84.6999 61.3001 86.2999 56.3001 88.0999 52.5001L91.4999 45.5001L91.7999 52.5001C91.9999 57.6001 91.4999 61.3001 89.8999 66.2001ZM72.6999 54.4001C76.0999 58.2001 76.4999 59.3001 76.1999 62.8001C75.8999 66.2001 72.6999 71.3001 71.6999 69.9001C71.5999 69.7001 70.6999 65.9001 69.7999 61.5001C68.8999 57.1001 67.8999 52.7001 67.4999 51.7001C66.1999 48.6001 68.6999 49.9001 72.6999 54.4001ZM28.7999 52.6001C32.8999 55.4001 30.5999 63.0001 25.6999 63.0001C20.3999 63.0001 17.9999 55.5001 22.1999 52.6001C23.3999 51.7001 24.8999 51.0001 25.4999 51.0001C26.0999 51.0001 27.5999 51.7001 28.7999 52.6001ZM83.3999 61.6001C84.0999 63.5001 82.3999 66.0001 80.4999 66.0001C78.5999 66.0001 76.8999 63.5001 77.5999 61.6001C77.8999 60.7001 79.1999 60.0001 80.4999 60.0001C81.7999 60.0001 83.0999 60.7001 83.3999 61.6001ZM30.7999 72.6001C33.9999 79.3001 34.4999 80.9001 33.5999 83.2001C32.6999 85.8001 32.1999 86.0001 26.7999 86.0001H20.9999V81.5001C20.9999 75.1001 22.8999 66.7001 24.7999 65.3001C25.5999 64.6001 26.4999 64.2001 26.6999 64.4001C26.8999 64.6001 28.7999 68.3001 30.7999 72.6001ZM82.6999 68.4001C82.7999 68.5001 83.5999 70.2001 84.3999 72.2001C85.8999 75.7001 85.8999 75.9001 82.5999 80.2001C79.6999 83.9001 72.9999 90.0001 71.6999 90.0001C71.4999 90.0001 71.5999 86.1001 71.7999 81.2001C72.1999 73.6001 72.4999 72.2001 74.7999 69.8001C76.7999 67.7001 77.8999 67.2001 79.8999 67.7001C81.2999 68.0001 82.5999 68.4001 82.6999 68.4001ZM69.9999 80.9001C69.9999 91.1001 69.2999 92.4001 61.8999 94.9001C53.4999 97.7001 51.5999 97.6001 47.2999 93.7001C43.8999 90.5001 43.7999 90.2001 45.0999 87.6001C46.1999 85.5001 48.4999 84.1001 54.5999 81.6001C58.9999 79.9001 63.9999 77.4001 65.5999 76.2001C67.1999 75.0001 68.7999 74.0001 69.2999 74.0001C69.6999 74.0001 69.9999 77.1001 69.9999 80.9001ZM42.3999 83.1001C44.2999 85.8001 43.0999 89.4001 40.0999 89.8001C37.2999 90.2001 34.9999 88.4001 34.9999 85.6001C34.9999 81.0001 39.7999 79.4001 42.3999 83.1001ZM39.7999 91.7001C41.8999 91.3001 43.1999 91.8001 45.3999 94.1001C46.9999 95.7001 48.0999 97.2001 47.7999 97.5001C45.6999 99.6001 20.9999 91.8001 20.9999 89.0001C20.9999 88.5001 23.5999 88.0001 26.7999 87.8001C31.6999 87.5001 32.7999 87.8001 34.7999 89.9001C36.4999 91.6001 37.7999 92.1001 39.7999 91.7001Z" fill="white"/>
<path d="M22.8 53.1C20.7 54.3 20.4 59 22.2 60.8C22.9 61.5 24.3 62 25.5 62C26.7 62 28.1 61.5 28.8 60.8C30.7 58.9 30.3 54.2 28.1 53C25.7 51.8 25 51.8 22.8 53.1ZM27.9 55.4C29.5 57.4 28.2 60 25.5 60C24.2 60 22.9 59.3 22.6 58.4C21.9 56.5 23.6 54 25.5 54C26.2 54 27.3 54.6 27.9 55.4Z" fill="white"/>
<path d="M351 20.6001C338 26.2001 333.6 42.5001 341.7 54.3001C348.9 64.6001 365.5 67.1001 375 59.2001C378.4 56.3001 378.4 56.3001 376.7 53.6001L374.9 50.9001L371.9 53.4001C370.3 54.8001 367.1 56.4001 365 57.0001C354 60.0001 342.3 49.7001 344.4 38.8001C346.6 27.0001 359.9 21.5001 370.5 28.0001C373.7 30.0001 373.7 30.0001 375.5 28.0001C377.9 25.4001 377.1 23.9001 371.8 21.2001C366.4 18.6001 356.4 18.2001 351 20.6001Z" fill="#457AD1"/>
<path d="M119 41.5V63H122.5C125.8 63 126.3 62.5 131.2 55C134.1 50.6 136.8 47 137.1 47C137.5 47 139.7 49.9 142 53.5C147.1 61.4 149.2 63 154.3 63C158 63 158.1 62.9 157.8 59.8C157.6 57.2 156.9 56.5 154.4 55.8C152.1 55.2 150.2 53.3 146.7 48C144.1 44.2 142 40.6 142 40.2C142 39.7 144.2 36.2 146.8 32.4C149.5 28.6 152.5 24.3 153.4 22.7L155.2 20H151.2H147.2L136.9 35.2L126.5 50.5L126.2 35.2L125.9 20H122.5H119V41.5Z" fill="#457AD1"/>
<path d="M168 41.5V63H184.5H201V60V57H188H175V51.1C175 45.3 175.1 45.2 178.1 44.6C179.8 44.3 183.7 44 186.6 44H192V40.5V37H186.7C183.9 37 180 37.4 178.2 37.9L175 38.9V32.4V26H187H199V23V20H183.5H168V41.5Z" fill="#457AD1"/>
<path d="M208 20.5C208 22.8 218.4 39.4 221.4 41.9C222.7 43 223 45.3 223 53.1V63H226.5H230V53.9V44.8L234.9 38.6C239.3 33 246 22.2 246 20.7C246 20.3 244.3 20 242.3 20C238.7 20 238.4 20.3 235.2 26.3C233.4 29.7 230.8 33.8 229.4 35.5L226.9 38.5L223.5 34.7C221.7 32.6 218.9 28.4 217.3 25.4C214.8 20.6 214.2 20 211.3 20C209.5 20 208 20.2 208 20.5Z" fill="#457AD1"/>
<path d="M250 23V25.9L257.8 26.2L265.5 26.5L265.8 44.7L266 63H269H272V44.5V26H279.5H287V23V20H268.5H250V23Z" fill="#457AD1"/>
<path d="M296 41.5V63H312.5H329V60V57.1L316.3 56.8L303.5 56.5L303.2 50.9C302.9 45.3 302.9 45.3 306.1 44.6C307.8 44.3 311.7 44 314.6 44H320V40.5V37H314.7C311.9 37 308 37.4 306.2 37.9L302.9 38.9L303.2 32.7L303.5 26.5L315.3 26.2L327 25.9V23V20H311.5H296V41.5Z" fill="#457AD1"/>
<path d="M123.056 82.12C122.376 82.12 121.792 82.004 121.304 81.772C120.816 81.532 120.44 81.168 120.176 80.68C119.912 80.184 119.764 79.564 119.732 78.82C119.724 78.468 119.72 78.132 119.72 77.812C119.72 77.484 119.724 77.144 119.732 76.792C119.764 76.056 119.916 75.444 120.188 74.956C120.468 74.46 120.852 74.092 121.34 73.852C121.836 73.604 122.408 73.48 123.056 73.48C123.712 73.48 124.284 73.604 124.772 73.852C125.268 74.092 125.656 74.46 125.936 74.956C126.216 75.444 126.368 76.056 126.392 76.792C126.408 77.144 126.416 77.484 126.416 77.812C126.416 78.132 126.408 78.468 126.392 78.82C126.368 79.564 126.22 80.184 125.948 80.68C125.684 81.168 125.308 81.532 124.82 81.772C124.332 82.004 123.744 82.12 123.056 82.12ZM123.056 81.1C123.672 81.1 124.172 80.916 124.556 80.548C124.948 80.18 125.16 79.584 125.192 78.76C125.208 78.4 125.216 78.08 125.216 77.8C125.216 77.512 125.208 77.192 125.192 76.84C125.176 76.288 125.072 75.84 124.88 75.496C124.696 75.152 124.448 74.9 124.136 74.74C123.824 74.58 123.464 74.5 123.056 74.5C122.664 74.5 122.312 74.58 122 74.74C121.688 74.9 121.436 75.152 121.244 75.496C121.06 75.84 120.956 76.288 120.932 76.84C120.924 77.192 120.92 77.512 120.92 77.8C120.92 78.08 120.924 78.4 120.932 78.76C120.964 79.584 121.176 80.18 121.568 80.548C121.96 80.916 122.456 81.1 123.056 81.1ZM130.427 82C130.307 82 130.211 81.972 130.139 81.916C130.075 81.86 130.023 81.784 129.983 81.688L127.307 73.972C127.291 73.924 127.283 73.88 127.283 73.84C127.283 73.776 127.307 73.72 127.355 73.672C127.403 73.624 127.459 73.6 127.523 73.6H128.147C128.243 73.6 128.315 73.628 128.363 73.684C128.419 73.732 128.451 73.776 128.459 73.816L130.811 80.62L133.163 73.816C133.179 73.776 133.211 73.732 133.259 73.684C133.307 73.628 133.379 73.6 133.475 73.6H134.099C134.163 73.6 134.219 73.624 134.267 73.672C134.323 73.72 134.351 73.776 134.351 73.84C134.351 73.88 134.343 73.924 134.327 73.972L131.639 81.688C131.607 81.784 131.555 81.86 131.483 81.916C131.419 81.972 131.327 82 131.207 82H130.427ZM136.058 82C135.97 82 135.902 81.976 135.854 81.928C135.806 81.872 135.782 81.804 135.782 81.724V73.888C135.782 73.8 135.806 73.732 135.854 73.684C135.902 73.628 135.97 73.6 136.058 73.6H141.014C141.102 73.6 141.17 73.628 141.218 73.684C141.266 73.732 141.29 73.8 141.29 73.888V74.344C141.29 74.432 141.266 74.5 141.218 74.548C141.17 74.596 141.102 74.62 141.014 74.62H136.934V77.248H140.75C140.838 77.248 140.906 77.276 140.954 77.332C141.002 77.38 141.026 77.448 141.026 77.536V77.98C141.026 78.06 141.002 78.128 140.954 78.184C140.906 78.232 140.838 78.256 140.75 78.256H136.934V80.98H141.11C141.198 80.98 141.266 81.004 141.314 81.052C141.362 81.1 141.386 81.168 141.386 81.256V81.724C141.386 81.804 141.362 81.872 141.314 81.928C141.266 81.976 141.198 82 141.11 82H136.058ZM143.336 82C143.248 82 143.18 81.976 143.132 81.928C143.084 81.872 143.06 81.804 143.06 81.724V73.888C143.06 73.8 143.084 73.732 143.132 73.684C143.18 73.628 143.248 73.6 143.336 73.6H146.264C147.168 73.6 147.884 73.812 148.412 74.236C148.94 74.66 149.204 75.288 149.204 76.12C149.204 76.736 149.048 77.24 148.736 77.632C148.432 78.016 148.016 78.284 147.488 78.436L149.336 81.628C149.36 81.676 149.372 81.72 149.372 81.76C149.372 81.824 149.344 81.88 149.288 81.928C149.24 81.976 149.184 82 149.12 82H148.544C148.408 82 148.308 81.964 148.244 81.892C148.18 81.82 148.124 81.748 148.076 81.676L146.336 78.628H144.236V81.724C144.236 81.804 144.208 81.872 144.152 81.928C144.104 81.976 144.036 82 143.948 82H143.336ZM144.236 77.608H146.216C146.816 77.608 147.264 77.484 147.56 77.236C147.856 76.98 148.004 76.604 148.004 76.108C148.004 75.62 147.856 75.248 147.56 74.992C147.272 74.736 146.824 74.608 146.216 74.608H144.236V77.608ZM152.222 82C152.118 82 152.034 81.972 151.97 81.916C151.914 81.86 151.874 81.78 151.85 81.676L150.302 73.972C150.294 73.94 150.29 73.912 150.29 73.888C150.29 73.864 150.29 73.848 150.29 73.84C150.29 73.776 150.314 73.72 150.362 73.672C150.41 73.624 150.466 73.6 150.53 73.6H151.154C151.322 73.6 151.418 73.668 151.442 73.804L152.666 79.996L153.962 75.748C153.986 75.676 154.026 75.612 154.082 75.556C154.146 75.492 154.234 75.46 154.346 75.46H154.79C154.91 75.46 154.998 75.492 155.054 75.556C155.11 75.612 155.146 75.676 155.162 75.748L156.47 79.996L157.682 73.804C157.706 73.668 157.806 73.6 157.982 73.6H158.606C158.67 73.6 158.726 73.624 158.774 73.672C158.822 73.72 158.846 73.776 158.846 73.84C158.846 73.848 158.842 73.864 158.834 73.888C158.834 73.912 158.834 73.94 158.834 73.972L157.286 81.676C157.262 81.78 157.218 81.86 157.154 81.916C157.098 81.972 157.018 82 156.914 82H156.446C156.334 82 156.246 81.972 156.182 81.916C156.118 81.86 156.074 81.788 156.05 81.7L154.562 77.128L153.086 81.7C153.054 81.788 153.006 81.86 152.942 81.916C152.886 81.972 152.802 82 152.69 82H152.222ZM159.523 82C159.459 82 159.403 81.976 159.355 81.928C159.307 81.88 159.283 81.824 159.283 81.76C159.283 81.72 159.287 81.676 159.295 81.628L162.271 73.864C162.303 73.784 162.347 73.72 162.403 73.672C162.459 73.624 162.543 73.6 162.655 73.6H163.471C163.575 73.6 163.655 73.624 163.711 73.672C163.775 73.72 163.823 73.784 163.855 73.864L166.819 81.628C166.835 81.676 166.843 81.72 166.843 81.76C166.843 81.824 166.819 81.88 166.771 81.928C166.723 81.976 166.667 82 166.603 82H165.991C165.895 82 165.823 81.976 165.775 81.928C165.735 81.88 165.707 81.836 165.691 81.796L165.031 80.092H161.095L160.435 81.796C160.427 81.836 160.399 81.88 160.351 81.928C160.303 81.976 160.231 82 160.135 82H159.523ZM161.443 79.06H164.683L163.063 74.8L161.443 79.06ZM169.347 82C169.267 82 169.199 81.976 169.143 81.928C169.095 81.872 169.071 81.804 169.071 81.724V74.668H166.767C166.687 74.668 166.619 74.644 166.563 74.596C166.515 74.54 166.491 74.472 166.491 74.392V73.888C166.491 73.8 166.515 73.732 166.563 73.684C166.619 73.628 166.687 73.6 166.767 73.6H172.551C172.639 73.6 172.707 73.628 172.755 73.684C172.811 73.732 172.839 73.8 172.839 73.888V74.392C172.839 74.472 172.811 74.54 172.755 74.596C172.707 74.644 172.639 74.668 172.551 74.668H170.259V81.724C170.259 81.804 170.231 81.872 170.175 81.928C170.127 81.976 170.059 82 169.971 82H169.347ZM177.033 82.12C176.297 82.12 175.685 81.984 175.197 81.712C174.717 81.44 174.353 81.06 174.105 80.572C173.857 80.084 173.721 79.516 173.697 78.868C173.689 78.54 173.685 78.188 173.685 77.812C173.685 77.436 173.689 77.076 173.697 76.732C173.721 76.084 173.857 75.516 174.105 75.028C174.353 74.54 174.717 74.16 175.197 73.888C175.685 73.616 176.297 73.48 177.033 73.48C177.585 73.48 178.069 73.556 178.485 73.708C178.901 73.86 179.245 74.064 179.517 74.32C179.797 74.576 180.009 74.864 180.153 75.184C180.297 75.496 180.377 75.82 180.393 76.156C180.401 76.228 180.377 76.288 180.321 76.336C180.273 76.384 180.213 76.408 180.141 76.408H179.481C179.409 76.408 179.345 76.388 179.289 76.348C179.241 76.308 179.205 76.236 179.181 76.132C179.045 75.508 178.789 75.08 178.413 74.848C178.045 74.616 177.581 74.5 177.021 74.5C176.381 74.5 175.873 74.684 175.497 75.052C175.121 75.412 174.917 75.992 174.885 76.792C174.861 77.448 174.861 78.12 174.885 78.808C174.917 79.608 175.121 80.192 175.497 80.56C175.873 80.92 176.381 81.1 177.021 81.1C177.581 81.1 178.045 80.984 178.413 80.752C178.789 80.52 179.045 80.092 179.181 79.468C179.205 79.364 179.241 79.292 179.289 79.252C179.345 79.212 179.409 79.192 179.481 79.192H180.141C180.213 79.192 180.273 79.216 180.321 79.264C180.377 79.312 180.401 79.372 180.393 79.444C180.377 79.78 180.297 80.108 180.153 80.428C180.009 80.74 179.797 81.024 179.517 81.28C179.245 81.536 178.901 81.74 178.485 81.892C178.069 82.044 177.585 82.12 177.033 82.12ZM182.277 82C182.189 82 182.121 81.976 182.073 81.928C182.025 81.872 182.001 81.804 182.001 81.724V73.888C182.001 73.8 182.025 73.732 182.073 73.684C182.121 73.628 182.189 73.6 182.277 73.6H182.889C182.977 73.6 183.045 73.628 183.093 73.684C183.149 73.732 183.177 73.8 183.177 73.888V77.2H187.305V73.888C187.305 73.8 187.329 73.732 187.377 73.684C187.433 73.628 187.501 73.6 187.581 73.6H188.193C188.281 73.6 188.349 73.628 188.397 73.684C188.453 73.732 188.481 73.8 188.481 73.888V81.724C188.481 81.804 188.453 81.872 188.397 81.928C188.349 81.976 188.281 82 188.193 82H187.581C187.501 82 187.433 81.976 187.377 81.928C187.329 81.872 187.305 81.804 187.305 81.724V78.28H183.177V81.724C183.177 81.804 183.149 81.872 183.093 81.928C183.045 81.976 182.977 82 182.889 82H182.277ZM193.773 82C193.685 82 193.617 81.976 193.569 81.928C193.521 81.872 193.497 81.804 193.497 81.724V73.888C193.497 73.8 193.521 73.732 193.569 73.684C193.617 73.628 193.685 73.6 193.773 73.6H198.669C198.757 73.6 198.825 73.628 198.873 73.684C198.921 73.732 198.945 73.8 198.945 73.888V74.368C198.945 74.456 198.921 74.524 198.873 74.572C198.825 74.62 198.757 74.644 198.669 74.644H194.661V77.44H198.429C198.517 77.44 198.585 77.468 198.633 77.524C198.681 77.572 198.705 77.64 198.705 77.728V78.208C198.705 78.288 198.681 78.356 198.633 78.412C198.585 78.46 198.517 78.484 198.429 78.484H194.661V81.724C194.661 81.804 194.633 81.872 194.577 81.928C194.529 81.976 194.461 82 194.373 82H193.773ZM203.458 82.12C202.778 82.12 202.194 82.004 201.706 81.772C201.218 81.532 200.842 81.168 200.578 80.68C200.314 80.184 200.166 79.564 200.134 78.82C200.126 78.468 200.122 78.132 200.122 77.812C200.122 77.484 200.126 77.144 200.134 76.792C200.166 76.056 200.318 75.444 200.59 74.956C200.87 74.46 201.254 74.092 201.742 73.852C202.238 73.604 202.81 73.48 203.458 73.48C204.114 73.48 204.686 73.604 205.174 73.852C205.67 74.092 206.058 74.46 206.338 74.956C206.618 75.444 206.77 76.056 206.794 76.792C206.81 77.144 206.818 77.484 206.818 77.812C206.818 78.132 206.81 78.468 206.794 78.82C206.77 79.564 206.622 80.184 206.35 80.68C206.086 81.168 205.71 81.532 205.222 81.772C204.734 82.004 204.146 82.12 203.458 82.12ZM203.458 81.1C204.074 81.1 204.574 80.916 204.958 80.548C205.35 80.18 205.562 79.584 205.594 78.76C205.61 78.4 205.618 78.08 205.618 77.8C205.618 77.512 205.61 77.192 205.594 76.84C205.578 76.288 205.474 75.84 205.282 75.496C205.098 75.152 204.85 74.9 204.538 74.74C204.226 74.58 203.866 74.5 203.458 74.5C203.066 74.5 202.714 74.58 202.402 74.74C202.09 74.9 201.838 75.152 201.646 75.496C201.462 75.84 201.358 76.288 201.334 76.84C201.326 77.192 201.322 77.512 201.322 77.8C201.322 78.08 201.326 78.4 201.334 78.76C201.366 79.584 201.578 80.18 201.97 80.548C202.362 80.916 202.858 81.1 203.458 81.1ZM208.843 82C208.755 82 208.687 81.976 208.639 81.928C208.591 81.872 208.567 81.804 208.567 81.724V73.888C208.567 73.8 208.591 73.732 208.639 73.684C208.687 73.628 208.755 73.6 208.843 73.6H211.771C212.675 73.6 213.391 73.812 213.919 74.236C214.447 74.66 214.711 75.288 214.711 76.12C214.711 76.736 214.555 77.24 214.243 77.632C213.939 78.016 213.523 78.284 212.995 78.436L214.843 81.628C214.867 81.676 214.879 81.72 214.879 81.76C214.879 81.824 214.851 81.88 214.795 81.928C214.747 81.976 214.691 82 214.627 82H214.051C213.915 82 213.815 81.964 213.751 81.892C213.687 81.82 213.631 81.748 213.583 81.676L211.843 78.628H209.743V81.724C209.743 81.804 209.715 81.872 209.659 81.928C209.611 81.976 209.543 82 209.455 82H208.843ZM209.743 77.608H211.723C212.323 77.608 212.771 77.484 213.067 77.236C213.363 76.98 213.511 76.604 213.511 76.108C213.511 75.62 213.363 75.248 213.067 74.992C212.779 74.736 212.331 74.608 211.723 74.608H209.743V77.608ZM221.541 82C221.461 82 221.393 81.976 221.337 81.928C221.289 81.872 221.265 81.804 221.265 81.724V78.892L218.373 73.996C218.365 73.972 218.357 73.948 218.349 73.924C218.341 73.9 218.337 73.872 218.337 73.84C218.337 73.776 218.361 73.72 218.409 73.672C218.457 73.624 218.513 73.6 218.577 73.6H219.201C219.273 73.6 219.337 73.62 219.393 73.66C219.449 73.692 219.489 73.74 219.513 73.804L221.853 77.692L224.193 73.804C224.233 73.74 224.277 73.692 224.325 73.66C224.381 73.62 224.445 73.6 224.517 73.6H225.129C225.201 73.6 225.261 73.624 225.309 73.672C225.357 73.72 225.381 73.776 225.381 73.84C225.381 73.872 225.377 73.9 225.369 73.924C225.361 73.948 225.349 73.972 225.333 73.996L222.453 78.892V81.724C222.453 81.804 222.425 81.872 222.369 81.928C222.321 81.976 222.253 82 222.165 82H221.541ZM229.439 82.12C228.759 82.12 228.175 82.004 227.687 81.772C227.199 81.532 226.823 81.168 226.559 80.68C226.295 80.184 226.147 79.564 226.115 78.82C226.107 78.468 226.103 78.132 226.103 77.812C226.103 77.484 226.107 77.144 226.115 76.792C226.147 76.056 226.299 75.444 226.571 74.956C226.851 74.46 227.235 74.092 227.723 73.852C228.219 73.604 228.791 73.48 229.439 73.48C230.095 73.48 230.667 73.604 231.155 73.852C231.651 74.092 232.039 74.46 232.319 74.956C232.599 75.444 232.751 76.056 232.775 76.792C232.791 77.144 232.799 77.484 232.799 77.812C232.799 78.132 232.791 78.468 232.775 78.82C232.751 79.564 232.603 80.184 232.331 80.68C232.067 81.168 231.691 81.532 231.203 81.772C230.715 82.004 230.127 82.12 229.439 82.12ZM229.439 81.1C230.055 81.1 230.555 80.916 230.939 80.548C231.331 80.18 231.543 79.584 231.575 78.76C231.591 78.4 231.599 78.08 231.599 77.8C231.599 77.512 231.591 77.192 231.575 76.84C231.559 76.288 231.455 75.84 231.263 75.496C231.079 75.152 230.831 74.9 230.519 74.74C230.207 74.58 229.847 74.5 229.439 74.5C229.047 74.5 228.695 74.58 228.383 74.74C228.071 74.9 227.819 75.152 227.627 75.496C227.443 75.84 227.339 76.288 227.315 76.84C227.307 77.192 227.303 77.512 227.303 77.8C227.303 78.08 227.307 78.4 227.315 78.76C227.347 79.584 227.559 80.18 227.951 80.548C228.343 80.916 228.839 81.1 229.439 81.1ZM237.716 82.12C237.044 82.12 236.464 82 235.976 81.76C235.496 81.52 235.124 81.156 234.86 80.668C234.604 80.172 234.476 79.536 234.476 78.76V73.888C234.476 73.8 234.5 73.732 234.548 73.684C234.596 73.628 234.664 73.6 234.752 73.6H235.364C235.452 73.6 235.52 73.628 235.568 73.684C235.624 73.732 235.652 73.8 235.652 73.888V78.784C235.652 79.568 235.836 80.148 236.204 80.524C236.572 80.9 237.076 81.088 237.716 81.088C238.348 81.088 238.848 80.9 239.216 80.524C239.592 80.148 239.78 79.568 239.78 78.784V73.888C239.78 73.8 239.804 73.732 239.852 73.684C239.908 73.628 239.976 73.6 240.056 73.6H240.68C240.76 73.6 240.824 73.628 240.872 73.684C240.928 73.732 240.956 73.8 240.956 73.888V78.76C240.956 79.536 240.824 80.172 240.56 80.668C240.304 81.156 239.936 81.52 239.456 81.76C238.976 82 238.396 82.12 237.716 82.12ZM243.238 82C243.15 82 243.082 81.976 243.034 81.928C242.986 81.872 242.962 81.804 242.962 81.724V73.888C242.962 73.8 242.986 73.732 243.034 73.684C243.082 73.628 243.15 73.6 243.238 73.6H246.166C247.07 73.6 247.786 73.812 248.314 74.236C248.842 74.66 249.106 75.288 249.106 76.12C249.106 76.736 248.95 77.24 248.638 77.632C248.334 78.016 247.918 78.284 247.39 78.436L249.238 81.628C249.262 81.676 249.274 81.72 249.274 81.76C249.274 81.824 249.246 81.88 249.19 81.928C249.142 81.976 249.086 82 249.022 82H248.446C248.31 82 248.21 81.964 248.146 81.892C248.082 81.82 248.026 81.748 247.978 81.676L246.238 78.628H244.138V81.724C244.138 81.804 244.11 81.872 244.054 81.928C244.006 81.976 243.938 82 243.85 82H243.238ZM244.138 77.608H246.118C246.718 77.608 247.166 77.484 247.462 77.236C247.758 76.98 247.906 76.604 247.906 76.108C247.906 75.62 247.758 75.248 247.462 74.992C247.174 74.736 246.726 74.608 246.118 74.608H244.138V77.608ZM252.886 82C252.822 82 252.766 81.976 252.718 81.928C252.67 81.88 252.646 81.824 252.646 81.76C252.646 81.72 252.65 81.676 252.658 81.628L255.634 73.864C255.666 73.784 255.71 73.72 255.766 73.672C255.822 73.624 255.906 73.6 256.018 73.6H256.834C256.938 73.6 257.018 73.624 257.074 73.672C257.138 73.72 257.186 73.784 257.218 73.864L260.182 81.628C260.198 81.676 260.206 81.72 260.206 81.76C260.206 81.824 260.182 81.88 260.134 81.928C260.086 81.976 260.03 82 259.966 82H259.354C259.258 82 259.186 81.976 259.138 81.928C259.098 81.88 259.07 81.836 259.054 81.796L258.394 80.092H254.458L253.798 81.796C253.79 81.836 253.762 81.88 253.714 81.928C253.666 81.976 253.594 82 253.498 82H252.886ZM254.806 79.06H258.046L256.426 74.8L254.806 79.06ZM264.072 82.12C263.376 82.12 262.792 82.016 262.32 81.808C261.848 81.592 261.484 81.316 261.228 80.98C260.98 80.636 260.848 80.272 260.832 79.888C260.832 79.824 260.856 79.768 260.904 79.72C260.96 79.664 261.024 79.636 261.096 79.636H261.708C261.804 79.636 261.876 79.66 261.924 79.708C261.972 79.756 262.004 79.812 262.02 79.876C262.06 80.068 262.156 80.26 262.308 80.452C262.468 80.636 262.688 80.792 262.968 80.92C263.256 81.04 263.624 81.1 264.072 81.1C264.76 81.1 265.264 80.98 265.584 80.74C265.912 80.492 266.076 80.164 266.076 79.756C266.076 79.476 265.988 79.252 265.812 79.084C265.644 78.908 265.384 78.752 265.032 78.616C264.68 78.48 264.224 78.332 263.664 78.172C263.08 78.004 262.596 77.82 262.212 77.62C261.828 77.42 261.54 77.172 261.348 76.876C261.164 76.58 261.072 76.204 261.072 75.748C261.072 75.316 261.188 74.932 261.42 74.596C261.652 74.252 261.984 73.98 262.416 73.78C262.856 73.58 263.388 73.48 264.012 73.48C264.508 73.48 264.94 73.548 265.308 73.684C265.684 73.812 265.996 73.988 266.244 74.212C266.492 74.428 266.68 74.664 266.808 74.92C266.936 75.168 267.004 75.412 267.012 75.652C267.012 75.708 266.992 75.764 266.952 75.82C266.912 75.868 266.848 75.892 266.76 75.892H266.124C266.068 75.892 266.008 75.876 265.944 75.844C265.888 75.812 265.844 75.752 265.812 75.664C265.764 75.336 265.58 75.06 265.26 74.836C264.94 74.612 264.524 74.5 264.012 74.5C263.492 74.5 263.068 74.6 262.74 74.8C262.42 75 262.26 75.312 262.26 75.736C262.26 76.008 262.336 76.236 262.488 76.42C262.64 76.596 262.88 76.752 263.208 76.888C263.536 77.024 263.964 77.168 264.492 77.32C265.132 77.496 265.656 77.684 266.064 77.884C266.472 78.076 266.772 78.32 266.964 78.616C267.164 78.904 267.264 79.276 267.264 79.732C267.264 80.236 267.132 80.668 266.868 81.028C266.604 81.38 266.232 81.652 265.752 81.844C265.28 82.028 264.72 82.12 264.072 82.12ZM271.537 82.12C270.841 82.12 270.257 82.016 269.785 81.808C269.313 81.592 268.949 81.316 268.693 80.98C268.445 80.636 268.313 80.272 268.297 79.888C268.297 79.824 268.321 79.768 268.369 79.72C268.425 79.664 268.489 79.636 268.561 79.636H269.173C269.269 79.636 269.341 79.66 269.389 79.708C269.437 79.756 269.469 79.812 269.485 79.876C269.525 80.068 269.621 80.26 269.773 80.452C269.933 80.636 270.153 80.792 270.433 80.92C270.721 81.04 271.089 81.1 271.537 81.1C272.225 81.1 272.729 80.98 273.049 80.74C273.377 80.492 273.541 80.164 273.541 79.756C273.541 79.476 273.453 79.252 273.277 79.084C273.109 78.908 272.849 78.752 272.497 78.616C272.145 78.48 271.689 78.332 271.129 78.172C270.545 78.004 270.061 77.82 269.677 77.62C269.293 77.42 269.005 77.172 268.813 76.876C268.629 76.58 268.537 76.204 268.537 75.748C268.537 75.316 268.653 74.932 268.885 74.596C269.117 74.252 269.449 73.98 269.881 73.78C270.321 73.58 270.853 73.48 271.477 73.48C271.973 73.48 272.405 73.548 272.773 73.684C273.149 73.812 273.461 73.988 273.709 74.212C273.957 74.428 274.145 74.664 274.273 74.92C274.401 75.168 274.469 75.412 274.477 75.652C274.477 75.708 274.457 75.764 274.417 75.82C274.377 75.868 274.313 75.892 274.225 75.892H273.589C273.533 75.892 273.473 75.876 273.409 75.844C273.353 75.812 273.309 75.752 273.277 75.664C273.229 75.336 273.045 75.06 272.725 74.836C272.405 74.612 271.989 74.5 271.477 74.5C270.957 74.5 270.533 74.6 270.205 74.8C269.885 75 269.725 75.312 269.725 75.736C269.725 76.008 269.801 76.236 269.953 76.42C270.105 76.596 270.345 76.752 270.673 76.888C271.001 77.024 271.429 77.168 271.957 77.32C272.597 77.496 273.121 77.684 273.529 77.884C273.937 78.076 274.237 78.32 274.429 78.616C274.629 78.904 274.729 79.276 274.729 79.732C274.729 80.236 274.597 80.668 274.333 81.028C274.069 81.38 273.697 81.652 273.217 81.844C272.745 82.028 272.185 82.12 271.537 82.12ZM276.578 82C276.49 82 276.422 81.976 276.374 81.928C276.326 81.872 276.302 81.804 276.302 81.724V73.888C276.302 73.8 276.326 73.732 276.374 73.684C276.422 73.628 276.49 73.6 276.578 73.6H281.534C281.622 73.6 281.69 73.628 281.738 73.684C281.786 73.732 281.81 73.8 281.81 73.888V74.344C281.81 74.432 281.786 74.5 281.738 74.548C281.69 74.596 281.622 74.62 281.534 74.62H277.454V77.248H281.27C281.358 77.248 281.426 77.276 281.474 77.332C281.522 77.38 281.546 77.448 281.546 77.536V77.98C281.546 78.06 281.522 78.128 281.474 78.184C281.426 78.232 281.358 78.256 281.27 78.256H277.454V80.98H281.63C281.718 80.98 281.786 81.004 281.834 81.052C281.882 81.1 281.906 81.168 281.906 81.256V81.724C281.906 81.804 281.882 81.872 281.834 81.928C281.786 81.976 281.718 82 281.63 82H276.578ZM285.691 82C285.611 82 285.543 81.976 285.487 81.928C285.439 81.872 285.415 81.804 285.415 81.724V74.668H283.111C283.031 74.668 282.963 74.644 282.907 74.596C282.859 74.54 282.835 74.472 282.835 74.392V73.888C282.835 73.8 282.859 73.732 282.907 73.684C282.963 73.628 283.031 73.6 283.111 73.6H288.895C288.983 73.6 289.051 73.628 289.099 73.684C289.155 73.732 289.183 73.8 289.183 73.888V74.392C289.183 74.472 289.155 74.54 289.099 74.596C289.051 74.644 288.983 74.668 288.895 74.668H286.603V81.724C286.603 81.804 286.575 81.872 286.519 81.928C286.471 81.976 286.403 82 286.315 82H285.691ZM293.182 82.12C292.486 82.12 291.902 82.016 291.43 81.808C290.958 81.592 290.594 81.316 290.338 80.98C290.09 80.636 289.958 80.272 289.942 79.888C289.942 79.824 289.966 79.768 290.014 79.72C290.07 79.664 290.134 79.636 290.206 79.636H290.818C290.914 79.636 290.986 79.66 291.034 79.708C291.082 79.756 291.114 79.812 291.13 79.876C291.17 80.068 291.266 80.26 291.418 80.452C291.578 80.636 291.798 80.792 292.078 80.92C292.366 81.04 292.734 81.1 293.182 81.1C293.87 81.1 294.374 80.98 294.694 80.74C295.022 80.492 295.186 80.164 295.186 79.756C295.186 79.476 295.098 79.252 294.922 79.084C294.754 78.908 294.494 78.752 294.142 78.616C293.79 78.48 293.334 78.332 292.774 78.172C292.19 78.004 291.706 77.82 291.322 77.62C290.938 77.42 290.65 77.172 290.458 76.876C290.274 76.58 290.182 76.204 290.182 75.748C290.182 75.316 290.298 74.932 290.53 74.596C290.762 74.252 291.094 73.98 291.526 73.78C291.966 73.58 292.498 73.48 293.122 73.48C293.618 73.48 294.05 73.548 294.418 73.684C294.794 73.812 295.106 73.988 295.354 74.212C295.602 74.428 295.79 74.664 295.918 74.92C296.046 75.168 296.114 75.412 296.122 75.652C296.122 75.708 296.102 75.764 296.062 75.82C296.022 75.868 295.958 75.892 295.87 75.892H295.234C295.178 75.892 295.118 75.876 295.054 75.844C294.998 75.812 294.954 75.752 294.922 75.664C294.874 75.336 294.69 75.06 294.37 74.836C294.05 74.612 293.634 74.5 293.122 74.5C292.602 74.5 292.178 74.6 291.85 74.8C291.53 75 291.37 75.312 291.37 75.736C291.37 76.008 291.446 76.236 291.598 76.42C291.75 76.596 291.99 76.752 292.318 76.888C292.646 77.024 293.074 77.168 293.602 77.32C294.242 77.496 294.766 77.684 295.174 77.884C295.582 78.076 295.882 78.32 296.074 78.616C296.274 78.904 296.374 79.276 296.374 79.732C296.374 80.236 296.242 80.668 295.978 81.028C295.714 81.38 295.342 81.652 294.862 81.844C294.39 82.028 293.83 82.12 293.182 82.12Z" fill="white"/>
</svg>
