<?xml version="1.0" encoding="utf-8"?>
<!-- Generator: Adobe Illustrator 24.2.3, SVG Export Plug-In . SVG Version: 6.00 Build 0)  -->
<!DOCTYPE svg PUBLIC "-//W3C//DTD SVG 1.1//EN" "http://www.w3.org/Graphics/SVG/1.1/DTD/svg11.dtd" [
	<!ENTITY ns_extend "http://ns.adobe.com/Extensibility/1.0/">
	<!ENTITY ns_ai "http://ns.adobe.com/AdobeIllustrator/10.0/">
	<!ENTITY ns_graphs "http://ns.adobe.com/Graphs/1.0/">
	<!ENTITY ns_vars "http://ns.adobe.com/Variables/1.0/">
	<!ENTITY ns_imrep "http://ns.adobe.com/ImageReplacement/1.0/">
	<!ENTITY ns_sfw "http://ns.adobe.com/SaveForWeb/1.0/">
	<!ENTITY ns_custom "http://ns.adobe.com/GenericCustomNamespace/1.0/">
	<!ENTITY ns_adobe_xpath "http://ns.adobe.com/XPath/1.0/">
]>
<svg version="1.1" id="Layer_1" xmlns:x="&ns_extend;" xmlns:i="&ns_ai;" xmlns:graph="&ns_graphs;"
	 xmlns="http://www.w3.org/2000/svg" xmlns:xlink="http://www.w3.org/1999/xlink" x="0px" y="0px" width="340.4px" height="75px"
	 viewBox="0 0 340.4 75" style="enable-background:new 0 0 340.4 75;" xml:space="preserve">
<style type="text/css">
	.st0{fill-rule:evenodd;clip-rule:evenodd;fill:#0B7E7E;}
	.st1{fill-rule:evenodd;clip-rule:evenodd;fill:#1DABB2;}
</style>
<metadata>
	<sfw  xmlns="&ns_sfw;">
		<slices></slices>
		<sliceSourceBounds  bottomLeftOrigin="true" height="75" width="340.4" x="138.1" y="-263.4"></sliceSourceBounds>
	</sfw>
</metadata>
<g>
	<g>
		<path class="st0" d="M166.8,42.6c0-9.8,0-19.7,0-29.5c0-1.8,0-1.8,1.8-1.8c5.5,0,10.9,0,16.4,0c1.2,0,1.7,0.4,2.2,1.5
			c3.4,8.8,6.9,17.5,10.3,26.2c0.8,2,1.1,4.2,1.8,6.3c0.2,0.5,0.7,0.9,1,1.3c0.2-0.5,0.5-1,0.5-1.5c-1.1-10.7-0.3-21.4-0.5-32
			c0-1.8,0-1.8,1.9-1.8c4.5,0,8.9,0,13.4,0c1.1,0,1.6,0.3,1.6,1.5c0,19.9,0,39.7,0,59.6c0,1-0.3,1.4-1.4,1.4c-5.7,0-11.5,0-17.2,0
			c-0.9,0-1.2-0.3-1.6-1.1c-3.6-9.1-7.2-18.3-10.8-27.4c-0.7-1.7-0.9-3.6-1.5-5.4c-0.1-0.5-0.6-0.8-0.9-1.2c-0.2,0.5-0.6,1-0.6,1.5
			c0.2,3.5,0.6,7,0.6,10.6c0.1,7.2,0,14.3,0.1,21.5c0,1.2-0.3,1.6-1.6,1.6c-4.7-0.1-9.3-0.1-14,0c-1.2,0-1.5-0.4-1.5-1.5
			C166.8,62.3,166.8,52.4,166.8,42.6z"/>
		<path class="st0" d="M295.9,73.7c-3.2,0-6.4,0-9.5,0c-1.1,0-1.7-0.3-2-1.4c-3-11.3-6.1-22.7-9.1-34c-1.1-4.1-2.2-8.2-3.3-12.3
			c-0.3-1.1,0-1.4,1-1.4c4.6,0,9.1,0,13.7,0c0.9,0,1.4,0.3,1.6,1.2c2.1,9.7,4.1,19.5,6.2,29.2c0.1,0.6,0.1,1.3,0.4,1.8
			c0.2,0.5,0.8,0.9,1.2,1c0.3,0.1,0.9-0.6,1-1c0.7-3.4,1.1-6.8,1.8-10.1c1.5-7,3.2-13.9,4.7-20.9c0.2-1,0.7-1.3,1.7-1.3
			c3.4,0,6.8,0,10.2,0c1.2,0,1.7-0.3,1.4-1.6c-0.8-4.6-0.9-9.2,0.6-13.6c1.5-4.6,4.3-8,9.2-9.2c6.5-1.5,13.3,3.7,13.6,10.4
			c0.3,5.4-2.5,9-6.5,11.9c-3.8,2.8-8.2,4.3-12.8,5.2c-1.2,0.2-1.8,0.7-2.1,2c-3.8,14.2-7.6,28.3-11.4,42.5
			c-0.3,1.3-0.9,1.6-2.1,1.6C302.3,73.7,299.1,73.7,295.9,73.7z M321,11.5c0,4.4,3.6,8,8,8c4.5,0,8-3.5,8.1-7.9c0-4.3-3.5-7.8-7.6-8
			C324.8,3.4,320.9,7.2,321,11.5z"/>
		<path class="st0" d="M267.4,48.7c0,2.9,0,5.8,0,8.7c0,3.1,0.8,4,3.8,4.5c1.8,0.3,2.2,0.8,1.8,2.6c-0.5,2-0.9,4.1-1.5,6.1
			c-0.2,0.7-0.7,1.5-1.3,1.9c-4.5,3.5-14,3.5-17.9-2.5c-0.7-1.1-1.4-0.7-2.2,0c-2.4,2.5-5.2,4.1-8.6,4.6
			c-8.2,1.3-14.8-2.4-16.5-10.1c-0.8-3.7-0.7-7.5,0.4-11.1c1.6-5.4,5.8-7.7,11-8.4c4.1-0.6,8.2-1,12.3-1.5c1.8-0.2,1.9-0.3,1.6-2
			c-0.3-2.8-2.4-4.4-6-4.8c-4.7-0.5-9.3-0.1-13.9,0.3c-1.9,0.1-2.4-0.4-2.1-2.2c0.6-3.1,1.2-6.2,1.9-9.3c0.1-0.5,0.7-1.1,1.1-1.2
			c7.4-0.9,14.9-1.2,22.3,0.3c4.2,0.9,8,2.6,10.7,6.2c2,2.7,2.8,5.9,3,9.2C267.4,42.9,267.4,45.8,267.4,48.7
			C267.4,48.7,267.4,48.7,267.4,48.7z M250.3,50.5c-1.7,0.6-3.2,1.1-4.6,1.7c-3.5,1.3-4.7,3.6-4,7.3c0.5,2.3,2.2,3.7,4.5,3.6
			c1-0.1,2-0.5,2.9-0.8c1-0.4,1.5-1.2,1.4-2.3c-0.1-2.5,0-5.1,0-7.6C250.5,51.8,250.4,51.3,250.3,50.5z"/>
		<path class="st1" d="M73.5,49.2c-0.1,4.8-0.5,9.6-2.5,14c-3.3,7.2-9,11-16.8,11.6c-3.7,0.3-7.3,0.2-10.9-0.9
			c-7.2-2.3-11.4-7.5-13.2-14.7c-1.3-5.2-1.1-10.5-0.7-15.7c0.3-5.3,2.2-10.3,6-14.2c3.7-3.8,8.3-5.6,13.6-5.8
			c3.4-0.2,6.8-0.1,10.1,0.9c7.8,2.5,12,8.1,13.6,15.8C73.2,43.1,73.2,46.2,73.5,49.2z M55.9,49.1c0.1,0,0.2,0,0.2,0
			c0-2.5,0-5.1,0-7.6c0-0.9-0.1-1.9-0.4-2.8c-0.7-2.5-2.5-3.4-4.9-3.3c-2.4,0.1-4.1,1.7-4.2,4c-0.2,5.5-0.2,11-0.3,16.5
			c0,1,0.1,2,0.2,2.9c0.4,2.6,2,4,4.5,4c2.8,0,4.5-1.2,4.7-4C56.1,55.6,55.9,52.4,55.9,49.1z"/>
		<path class="st1" d="M159.5,49.3c-0.2,5.1-0.6,10-2.9,14.7c-3.4,6.8-9,10.4-16.6,10.9c-3.9,0.3-7.9,0.2-11.6-1.2
			c-6.5-2.4-10.3-7.2-12.1-13.7c-1.5-5.5-1.3-11-0.9-16.6c0.3-4.3,1.6-8.2,4-11.7c3.2-4.6,7.7-7.2,13.2-8c4.6-0.6,9.2-0.6,13.6,1.1
			c7.1,2.8,10.8,8.2,12.3,15.4C159.1,43.2,159.2,46.3,159.5,49.3z M142.1,49.3c0-2.8,0-5.6,0-8.5c0-2.8-1.3-4.6-3.4-5.2
			c-3.4-0.9-6.1,1-6.1,4.5c-0.1,5.5-0.1,11.1-0.1,16.6c0,1,0.2,2,0.4,2.9c0.5,2,2,3.1,4,3.2c2.4,0.1,3.9-0.7,4.7-2.7
			c0.3-0.9,0.5-2,0.6-3C142.1,54.5,142.1,51.9,142.1,49.3z"/>
		<path class="st1" d="M0,7.4c5.8,0,11.4,0,17.1,0c0,0.7,0.1,1.3,0.1,1.9c0,15.2,0,30.4,0,45.6c0,1,0,2.1,0.2,3.1
			c0.3,3,1.7,4.1,4.8,3.9c1.1-0.1,2.4-0.5,3.2,0.7c0.3,0.4,0.6,0.8,0.6,1.3c0.1,2.8,0.1,5.5,0,8.3c0,0.4-0.3,1-0.6,1.1
			c-5.5,1.8-11.1,2.5-16.8,0.9c-5-1.4-7.4-5.1-8.1-10C0.1,62.4,0,60.8,0,59.1C0,42.4,0,25.7,0,8.9C0,8.5,0,8,0,7.4z"/>
		<path class="st1" d="M77.3,49.9c0.2-4.7,0.6-9.4,2-13.9c2.2-6.8,7-10.7,13.9-12c5.6-1,11.3-0.8,16.9,0.4c1,0.2,1.3,0.6,1.1,1.6
			c-0.4,3.3-0.9,6.5-1.3,9.8c-0.1,1.1-0.8,1.3-1.7,1.2c-2.1-0.2-4.2-0.5-6.4-0.6c-3.2-0.1-5.2,1.5-6.1,4.5c-1,3.2-0.9,6.4-0.9,9.7
			c0,1.6,0.1,3.3,0.4,4.9c0.7,4.8,3.2,6.7,7.9,6.3c1.9-0.2,3.9-0.6,5.8-0.9c1.3-0.2,1.9,0,2.1,1.3c0.5,3,0.9,6,1.3,9
			c0.2,1.1-0.1,1.7-1.3,2.1c-5.4,1.7-10.9,1.9-16.5,1.3c-3.2-0.3-6.3-1.1-9.1-2.9c-4.2-2.7-6.2-6.7-6.9-11.4
			C77.9,56.9,77.7,53.4,77.3,49.9z"/>
	</g>
</g>
</svg>
