<svg width="1151" height="286" viewBox="0 0 1151 286" fill="none" xmlns="http://www.w3.org/2000/svg">
<path d="M76.5992 2.69997C75.3992 5.09998 43.0992 72 9.29922 142.2L0.699219 159.9L31.9992 190.7C49.1992 207.6 63.4992 221.6 63.8992 221.7C64.3992 221.9 76.7992 196.8 85.5992 177.8L87.2992 174.2L73.9992 161.3L60.6992 148.5L79.4992 109.5C89.7992 88 105.699 55.2 114.699 36.5C123.799 17.8 131.399 1.89998 131.699 1.19997C132.099 0.299973 126.399 -3.05176e-05 105.099 -3.05176e-05H78.0992L76.5992 2.69997Z" fill="white"/>
<path d="M399.1 32.2001C393.4 46.7001 335 200.3 335 200.6C335 200.9 344.8 200.9 356.7 200.8L378.5 200.5L384 185.5L389.5 170.5H419.4H449.4L455 185.5L460.6 200.5L482.8 200.8C495 200.9 505 200.7 505 200.3C505 199.8 490.5 161.5 472.7 115L440.4 30.5001L420.2 30.2001C400 30.0001 400 30.0001 399.1 32.2001ZM428.9 110.4C433.3 122.9 436.7 133.6 436.4 134.1C435.7 135.2 403.3 135.3 402.6 134.2C402.3 133.7 405.9 122.8 410.6 109.9C415.2 97.0001 419 86.3001 419 86.0001C419 83.5001 422.2 91.3001 428.9 110.4Z" fill="white"/>
<path d="M1051.5 31.6C1040.1 33.8 1025.7 41.5 1016 50.7C997.1 68.4 988.6 88.7 988.6 116C988.6 143.3 997.1 163.6 1016 181.3C1030.2 194.7 1047.6 201.4 1068 201.5C1082.1 201.5 1089.6 199.7 1103.7 192.9C1112.5 188.7 1115.3 186.7 1122.8 179.2C1136.4 165.9 1144.3 150.8 1147.6 131.8C1149.7 120 1149 102.9 1146 91.5C1141.6 74.3 1130.8 57.5 1117.5 46.8C1109.4 40.3 1095.3 33.5 1085.8 31.6C1076.5 29.7 1061.1 29.7 1051.5 31.6ZM1082.6 73.4C1114.6 88.1 1115.2 143.1 1083.5 157.6C1058.5 169.1 1032 149.7 1030.3 118.5C1029.2 100.2 1036.7 84.1 1050.3 75.4C1059.3 69.6 1072.5 68.8 1082.6 73.4Z" fill="white"/>
<path d="M506 80.2001C506 142.1 506.8 149.5 514.9 166.6C522.3 182.1 534.8 192.3 552.7 197.2C559.1 199 563.2 199.3 576 199.3C590 199.3 592.4 199 600.5 196.6C612.8 192.9 618.4 189.7 626.2 181.7C634.3 173.6 639.9 162.9 643.2 149.4C645.2 141 645.3 137.5 645.7 85.7001L646.1 31H625.1H604.1L603.8 83.7001L603.5 136.5L601.1 142.4C596.7 153.3 588.1 159 576 159C561.5 159 552.5 151 549.1 135.2C548.4 131.7 548 113.3 548 80.5V31H527H506V80.2001Z" fill="white"/>
<path d="M678 51V71L700.8 71.2L723.5 71.5L723.8 135.2L724 199H744.5H765V135V71H788H811V51V31H744.5H678V51Z" fill="white"/>
<path d="M836 114.9V199H856.5H877V173.5V148H886.8H896.5L911.8 173.5L927.1 199H950.7C969.5 199 974.1 198.7 973.7 197.7C973.4 197 965.5 183.8 956 168.5C946.2 152.6 939.2 140.4 939.9 140.2C943.1 139.1 953.4 131.3 957 127.3C961.9 121.7 966.4 112.7 968.6 104C970.9 94.9 970.1 75 967.1 66.6C962.6 53.9 954.7 44.7 943.2 38.7C929.5 31.5 930.4 31.6 880.8 31.2L836 30.9V114.9ZM916.7 72.4C931.9 78.8 933.1 101.6 918.7 109.2C914.8 111.3 913 111.5 895.8 111.8L877 112.2V91.7C877 80.5 877.3 71 877.8 70.6C878.2 70.1 886.2 70 895.5 70.2C908.8 70.6 913.4 71 916.7 72.4Z" fill="white"/>
<path d="M196.4 62.9C196.8 63.5 196.6 64 196 64C195.4 64 195.2 64.4 195.5 65C195.8 65.5 195.6 66 195.1 66C194.5 66 194.1 66.3 194.2 66.7C194.2 67.2 191.5 73.3 188 80.5C184.5 87.6 181.7 93.8 181.8 94.2C181.9 94.7 181.5 95 180.9 95C180.4 95 180.2 95.4 180.5 96C180.8 96.5 180.6 97 180.1 97C179.5 97 179.1 97.3 179.3 97.8C179.4 98.2 178.2 101.1 176.5 104.3L173.5 110.2L186.9 123.1L200.3 136.1L198 140.8C183.2 171.1 128 285.1 128 285.5C128 285.8 140.1 286 154.8 286H181.7L220.9 205.3L260 124.5L229.8 94.2C203.2 67.5 194 58.9 196.4 62.9Z" fill="white"/>
<path d="M949.498 235.4C939.498 239.9 933.498 253.2 935.998 265.4C938.598 277.9 948.298 285.8 959.898 284.7C965.998 284.2 970.998 282.2 974.798 278.7C976.798 276.8 976.998 275.7 976.998 266.8V257H967.398H957.898L958.198 260.2C958.498 263.5 958.598 263.5 964.298 263.8L969.998 264.1V269.1C969.998 274.1 969.998 274.1 965.398 276.2C957.698 279.6 950.798 277.6 945.598 270.6C943.898 268.3 943.498 266.4 943.498 259.6C943.498 252.1 943.798 251 946.298 247.7C951.698 240.6 958.398 239.2 966.298 243.4L970.898 245.9L972.498 243.4C974.698 240 973.898 238.3 968.798 236C963.698 233.7 953.998 233.4 949.498 235.4Z" fill="white"/>
<path d="M1084 236.2C1078.9 238.8 1073.6 245.3 1072 250.8C1070.6 255.8 1070.8 264.7 1072.4 269.2C1074.3 274.5 1079.4 280.5 1083.7 282.5C1092.2 286.6 1102.6 285.1 1108.4 279.1C1111.1 276.3 1111.1 276.3 1109.2 273.9L1107.2 271.6L1103.3 274.3C1098.4 277.7 1094.2 278.5 1089.6 277C1079.4 273.7 1075.3 258.3 1081.9 247.7C1086.7 239.9 1097.4 238.9 1105.1 245.6C1106.4 246.8 1106.9 246.6 1108.8 244.1L1110.9 241.2L1108.7 239.2C1102.8 233.7 1091.7 232.4 1084 236.2Z" fill="white"/>
<path d="M702 259.5V284H706H710V259.5V235H706H702V259.5Z" fill="white"/>
<path d="M719 259.5V284H722.5H726V267.1C726 257.7 726.3 249.9 726.8 249.7C727.2 249.4 732.9 257 739.5 266.5C750.8 282.9 751.7 283.9 754.8 283.9L758 284V259.5V235H754.5H751V252.2L750.9 269.5L748.6 266.7C747.3 265.1 741.8 257.4 736.4 249.4C726.7 235.3 726.4 235.1 722.8 235H719V259.5Z" fill="white"/>
<path d="M764 238.5V242H771H778V263V284H781.5H785L785.2 263.2L785.5 242.5L792.8 242.2L800 241.9V238.5V235H782H764V238.5Z" fill="white"/>
<path d="M806 259.5V284H822.5H839V280.5V277H826H813V270V263.1L824.3 262.8L835.5 262.5L835.8 259.3L836.1 256.1L824.8 255.8L813.5 255.5L813.2 248.8L812.9 242.1L825.7 241.8L838.5 241.5L838.8 238.2L839.1 235H822.6H806V259.5Z" fill="white"/>
<path d="M846 259.5V284H861.5H877V280.5V277.1L865.3 276.8L853.5 276.5L853.2 255.7L853 235H849.5H846V259.5Z" fill="white"/>
<path d="M883 259.5V284H898.5H914V280.5V277H902H890V256V235H886.5H883V259.5Z" fill="white"/>
<path d="M921 259.5V284H924H927V259.5V235H924H921V259.5Z" fill="white"/>
<path d="M985 259.5V284H1001.5H1018V280.5V277H1005H992V270V263H1003H1014V259.5V256.1L1003.3 255.8L992.5 255.5L992.2 248.7L991.9 242H1004.5H1017V238.5V235H1001H985V259.5Z" fill="white"/>
<path d="M1025 259.5V284H1028.5H1032V266.4C1032 256.8 1032.4 249.1 1032.8 249.4C1033.3 249.7 1039 257.6 1045.6 267C1056.8 283.1 1057.6 284 1060.7 284H1064V259.5V235H1060H1056L1055.8 252L1055.5 268.9L1043.7 252C1032.3 235.6 1031.7 235 1028.4 235H1025V259.5Z" fill="white"/>
<path d="M1117 259.5V284H1134H1151V280.5V277H1138H1125V270V263H1136H1147V259.5V256H1136H1125V249V242H1137.5H1150V238.5V235H1133.5H1117V259.5Z" fill="white"/>
<path d="M234 0L175.408 0L24 286H83.7077L234 0Z" fill="#929125"/>
</svg>
