<svg width="500" height="99" viewBox="0 0 500 99" fill="none" xmlns="http://www.w3.org/2000/svg">
<path d="M46.8 2.60021C39.6 4.80021 30.7 10.4002 25.9 15.7002C23.6 18.4002 20.1 23.9002 18.1 28.0002C14.9 34.6002 14.5 36.5002 14.2 45.0002C13.9 52.4002 14.3 55.9002 15.8 60.6002C19.4 72.0002 28 82.3002 38 87.5002C48.2 92.7002 50.9 93.0002 86.6 93.0002C117.2 93.0002 120.1 93.1002 124.1 94.9002C131.9 98.4002 141 99.5002 149 98.1002C168.3 94.6002 183.6 80.0002 187.5 61.5002C191.6 41.6002 181.7 20.5002 163.8 11.4002C154.4 6.60021 148.9 6.00021 114.8 6.00021C83.6 6.00021 82.9 6.00021 75.6 3.50021C66.9 0.600212 54.6 0.200212 46.8 2.60021ZM76.3 10.3002C83.9 13.8002 89.1 18.0002 92.7 23.4002C94.3 25.8002 99.6 37.3002 104.5 49.0002C114.7 73.3002 117.3 77.1002 127.7 82.2002C144.8 90.6002 164.6 83.1002 172.7 65.2002C175.7 58.9002 176.3 49.3002 174.2 42.3002C172.4 36.3002 167.1 29.1002 161.6 25.3002C153.3 19.6002 149.5 19.0002 122.1 19.0002H97.6L94.8 16.3002C93.3 14.8002 92 13.2002 92 12.7002C92 12.2002 104.8 12.0002 121.8 12.2002L151.5 12.5002L158.2 15.7002C173.6 23.0002 182.1 35.9002 182.1 52.1002C182.2 85.3002 144.9 104 117.7 84.3002C110.7 79.2002 107.5 73.8002 97.9 50.7002C93.1 39.2002 87.9 28.1002 86.3 26.1002C75 12.0002 54.2 9.70021 39.3 21.0002C35.8 23.6002 33.5 26.6002 30.7 32.0002C27 39.2002 26.8 39.8002 27.2 48.0002C27.4 54.4002 28.1 57.7002 29.9 61.3002C32.8 67.4002 39.5 74.1002 45.7 77.1002C50.3 79.4002 51.4 79.5002 77.6 79.8002L104.7 80.1002L108.1 83.6002L111.5 87.1002L81 86.8002C51.4 86.5002 50.3 86.4002 44.6 84.0002C36.4 80.7002 27.9 72.6002 23.8 64.2002C20.7 57.9002 20.5 56.9002 20.5 47.0002C20.5 37.8002 20.9 35.8002 23.1 31.0002C26 24.8002 33.4 16.1002 38.5 13.0002C45.9 8.50021 51.9 6.90021 61.5 7.30021C68.7 7.50021 71.7 8.10021 76.3 10.3002ZM71.5 22.4002C80.9 26.8002 82.5 29.3002 94.4 58.2002L100.9 74.0002H78.1C52.5 74.0002 49.1 73.4002 42.2 67.4002C39.9 65.5002 36.9 61.5002 35.4 58.4002C33.1 53.6002 32.8 52.1002 33.2 45.7002C33.7 37.9002 35.3 34.0002 40.3 28.4002C47.5 20.1002 61.2 17.5002 71.5 22.4002ZM154.3 28.0002C170.8 36.4002 174.4 58.0002 161.5 71.3002C154 79.0002 141.1 81.7002 131.5 77.5002C126.8 75.5002 120.5 69.8002 118.3 65.5002C116.2 61.6002 102 26.9002 102 25.7002C102 25.3002 112.6 25.0002 125.8 25.2002C148.7 25.5002 149.7 25.6002 154.3 28.0002Z" fill="white"/>
<path d="M54.0999 27.5C47.1999 29.7 41.5999 36.2 39.5999 44.3C38.4999 48.7 41.3999 57 45.1999 60.7C51.4999 66.6 53.1999 67 72.4999 67C82.0999 67 89.9999 66.7 89.9999 66.2C89.9999 64.5 77.8999 36.7 75.9999 34C71.6999 28 61.7999 25 54.0999 27.5ZM69.4999 36.2C71.8999 38.5 74.0999 42.5 76.9999 49.8C79.1999 55.4 80.9999 60.3 80.9999 60.5C80.9999 60.8 75.5999 61 68.8999 61C55.0999 61 51.2999 59.8 47.9999 54.5C46.7999 52.6 45.9999 49.5 45.9999 47.1C45.9999 38.3 51.5999 33 60.7999 33C65.2999 33 66.4999 33.4 69.4999 36.2Z" fill="white"/>
<path d="M112 32.5C112 32.8 114.8 39.9 118.2 48.2C125.1 65.1 128.5 69.6 135.6 71.8C142.9 73.9 148.6 72.9 154.9 68.2C158.5 65.5 163 57.1 163 52.9C163 48.8 160.2 41.8 157.2 38.6C151.8 32.9 148.3 32 129.3 32C119.8 32 112 32.2 112 32.5ZM148.7 39.6C152.5 41.5 154.6 44.1 156 49.1C158.9 59.2 147.9 69.4 137.7 66.1C132.8 64.5 130.5 61.6 126.1 51.4C119.7 36.5 118.9 38 133 38C142.3 38 146 38.4 148.7 39.6Z" fill="white"/>
<path d="M208.7 19.6C208.3 20 208 34.9 208 52.7V85H216.5H225V53C225 35.4 225.1 20.7 225.3 20.2C225.6 19.3 209.6 18.7 208.7 19.6Z" fill="white"/>
<path d="M384.3 19.9C374.6 22.4 376.6 35 386.7 35C391.3 35 393.5 33.7 394.9 30.1C395.9 27.7 395.9 26.7 394.6 24.1C393.7 22.4 392.8 21 392.7 21C392.6 21 391.1 20.6 389.5 20.2C387.8 19.7 385.5 19.6 384.3 19.9Z" fill="white"/>
<path d="M238.9 21.9C237.2 23.2 236.6 24.8 236.6 27.5C236.6 32.4 239.6 35 245.5 35C249 35 250.3 34.5 251.9 32.4C256.5 26.6 252.9 20 245.3 20C242.8 20 240.3 20.7 238.9 21.9Z" fill="white"/>
<path d="M287.5 40.6C285.9 41.5 283.5 43.2 282.3 44.3L280 46.3V43.2V40H272.5H265V62.5V85H273.5H282V71.9C282 56.1 283.1 53.1 289.1 53C294.4 53 295.2 55.4 295.1 70.9L294.9 85H304H313V71.2C312.9 51.2 311.7 46.8 304.7 41.6C301.1 38.9 291.6 38.4 287.5 40.6Z" fill="white"/>
<path d="M422 39.9004C410.3 43.7004 404 51.6004 404 62.4004C404 76.1004 412.9 84.8004 427.6 85.8004C437.2 86.4004 443.9 84.2004 449.6 78.5004C454.2 73.8004 456 69.3004 456 61.7004C456 53.1004 451.5 45.9004 443.5 41.7004C439.1 39.5004 426.5 38.4004 422 39.9004ZM435 53.0004C437.6 55.6004 438.4 59.0004 437.8 65.1004C437.2 71.0004 434.8 74.0004 430.8 74.0004C426.6 74.0004 424.4 72.5004 423.1 68.9004C421 62.9004 422 56.1004 425.5 52.7004C427.7 50.4004 432.6 50.6004 435 53.0004Z" fill="white"/>
<path d="M236.4 41.4001C236.1 42.1001 236 52.1001 236.2 63.6001L236.5 84.5001L245.3 84.8001L254 85.1001V62.5001V40.0001H245.5C239.2 40.0001 236.8 40.4001 236.4 41.4001Z" fill="white"/>
<path d="M321.2 43.2C322.5 45 326.2 50 329.4 54.2L335.2 62L327.8 72.2C323.7 77.9 320 83.1 319.6 83.7C319 84.7 321.1 85 328.5 85H338L341.2 78.5C343 74.9 344.7 72 345 72C345.3 72 346.5 74.2 347.8 76.8C352 85.3 351.6 85.1 362.4 84.8L372 84.5L363.9 72.8L355.9 61L361.2 54.3C364.2 50.5 367.9 45.8 369.4 43.7L372.2 40H362.7H353.1L349.8 46C348 49.3 346.3 52 346 51.9C345.7 51.9 343.8 49.2 341.8 46L338.1 40H328.4H318.8L321.2 43.2Z" fill="white"/>
<path d="M378 62.5V85H386.5H395V62.5V40H386.5H378V62.5Z" fill="white"/>
<path d="M462.6 69.6001C460.7 71.6001 460 73.3001 460 76.2001C460 86.5001 474.2 89.9001 478.6 80.6001C480.6 76.5001 479.9 72.8001 476.5 69.4001C473 65.9001 466.2 66.0001 462.6 69.6001Z" fill="white"/>
</svg>
