<svg width="1645" height="354" viewBox="0 0 1645 354" fill="none" xmlns="http://www.w3.org/2000/svg">
<path d="M998 0.599973C950.2 4.99997 909.5 21.5 881.9 47.7C877 52.4 870.7 59.2 868 62.9C862.6 70.1 856.5 80.8 857.3 81.7C857.7 82.1 939.2 60 946.8 57.5C947.6 57.2 947.8 57.5 947.3 58.3C946.9 58.9 944.4 62.7 941.8 66.6C939.2 70.5 936 76.2 934.6 79.3C931.6 86.3 931.2 86.4 907.5 93C897.6 95.8 880.4 100.8 869.3 104.2L849 110.3V116.7C849 120.1 849.3 123 849.6 123C850 123 867.5 118.4 888.5 112.8L926.8 102.7L928 98.3C928.7 95.9 929.6 93.8 930 93.5C930.3 93.3 963 84.5 1002.6 74C1042.1 63.5 1075.2 54.7 1076.1 54.4C1077.2 54.1 1079.9 56.8 1084.9 63.5C1088.9 68.8 1092.3 73.6 1092.6 74.3C1092.9 75.1 1056.9 85.5 973.8 108.4C908.2 126.5 854 141.6 853.3 141.9C852.4 142.4 853 144.8 855.4 150.8C857.3 155.4 858.9 159.3 859.1 159.5C859.3 159.7 875.4 155.5 894.8 150.2C924.1 142.2 930 140.3 929.4 139C929.1 138.2 928.6 136.8 928.3 136C928 134.7 943.6 130 1012.4 110.5L1097 86.5L1096.4 83.3C1095.8 80.3 1096 80.1 1099.7 79.1C1147.5 66 1161.1 62.2 1161.7 61.7C1162.7 60.6 1151.4 48.5 1143.2 41.9C1117.4 21 1085.8 7.89997 1048.8 2.49997C1038.6 0.999973 1006.7 -0.200027 998 0.599973Z" fill="#F00000"/>
<path d="M301.4 9.4999C285.8 12.8999 276 22.3999 276 34.0999C276 40.7999 278.1 44.9999 284.2 50.4999C291.9 57.3999 298.2 59.3999 312 59.3999C325.8 59.3999 332.1 57.3999 339.8 50.4999C345.9 44.9999 348 40.7999 348 34.0999C348 22.1999 338.1 12.7999 322.1 9.3999C314.1 7.6999 309.4 7.6999 301.4 9.4999Z" fill="white"/>
<path d="M362 40.3C357.7 41.4 357 42.2 346.2 57.2L334.9 73H313.9H293V134.5V196H315H337L337.2 136.2L337.5 76.5L361.8 76.2L386 76V136V196H426.8H467.7L475.6 181.5L483.4 167H507H530.5L537.9 154.5C541.9 147.6 545.6 141.7 546.1 141.4C546.6 141.1 547 142.1 547 143.7C547 145.2 547.7 156.4 548.5 168.5C549.3 180.6 550 192 550 193.7V197H573.5H597V194.2C597 188.9 589 78.3 587.6 64.8C586.1 49.9 584.4 45 579.7 41.6C577 39.6 575.3 39.5 547.6 39.2L518.4 38.9L477 106.7C454.3 144 435 175.4 434.3 176.5C433.2 178.1 433 170.1 433 127.7V77H457H481V62.1C481 47.5 480.9 47.1 478.4 44.1C477 42.4 474.2 40.6 472.2 40C466.8 38.5 367.9 38.8 362 40.3ZM544.4 100C545.3 112.9 546 124.1 546 124.7C546 125.7 541.7 126 528 126C518.1 126 510 125.8 510 125.5C510 123.9 541.4 75 542 75.7C542.4 76.1 543.5 87.1 544.4 100Z" fill="white"/>
<path d="M658 39.7001C656.6 39.9001 652.6 41.0001 649 42.1001C629.3 48.3001 613.2 63.8001 604.8 84.8001C599.7 97.7001 597.7 109.5 598.3 124C599 139.1 601.2 147.7 607.8 160.4C614.6 173.7 624.3 183.1 638.6 190.2L649.3 195.5L688.5 195.8L727.6 196.1L738.8 179.3C745 170 750 162.1 750 161.8C750 161.4 732.1 161 710.3 160.8L670.5 160.5L664.2 157.1C652.8 150.9 646.1 141.1 644 127.4C642.7 118.8 643.9 107 647 98.7001C649.8 91.2001 657.3 83.0001 664.2 79.9001C669.3 77.6001 670.6 77.5001 700 77.0001L730.5 76.5001L740.3 58.6001C745.6 48.7001 750 40.3001 750 39.8001C750 39.0001 662.9 38.9001 658 39.7001Z" fill="white"/>
<path d="M101.3 41.2C100 42.9 11.9 193 11.3 194.7C10.9 195.7 14.9 196 31.6 196H52.5L84.5 142.4L116.5 88.7L117.3 137C118.2 191.5 118 190.8 125.2 194C128.9 195.7 131.8 196 147.1 196H164.6L194.1 144.6L223.5 93.2L223.8 144.6L224 196H248H272V123.6V51.3L269.7 47.9C268.5 46.1 265.7 43.5 263.5 42.3C259.7 40.1 258.5 40 234.9 40H210.2L187.1 78.7L164 117.5V84.5C164 48.2 163.8 47.1 157.7 42.6C155 40.6 153.3 40.5 128.6 40.2C108 40 102.1 40.2 101.3 41.2Z" fill="white"/>
<path d="M1021.5 127C937.9 150 868.7 169.1 867.6 169.4C865.9 169.8 865.9 170 868.1 173.2C869.3 175 874.9 181 880.4 186.5C923.9 229.7 1002.1 246.6 1073.5 228.4C1108.9 219.4 1140.9 200.4 1160.2 176.9C1166.8 168.9 1175.7 154.4 1174.7 153.3C1174.2 152.9 1085.5 176.7 1080 178.8C1078.5 179.4 1082.3 172.1 1086.5 166.5C1088.7 163.5 1090.6 162.9 1134.4 151.6L1179.9 139.7L1180.9 134.6C1182.6 125.9 1183.3 118 1182.3 118C1181.8 118 1130.2 131.7 1067.7 148.5C1005.1 165.3 953.4 179 952.7 179C951.5 179 944.4 167.2 945.1 166.6C945.3 166.4 978.8 157.9 1019.5 147.6C1060.2 137.4 1095.4 128.5 1097.8 127.9C1101.5 126.9 1102 126.4 1102 123.8C1102 122 1102.6 120.7 1103.8 120.3C1104.7 119.9 1122.4 115.3 1143 110C1179.9 100.5 1180.5 100.3 1180.2 97.9C1179.5 93 1176.3 85.5 1174.9 85.3C1174.1 85.2 1105.1 104 1021.5 127Z" fill="#F00000"/>
<path d="M256.9 277.3C240.1 283.6 230.1 301.5 231.3 323C231.8 333.5 234.6 340.5 240.2 345.6C246.2 351 250.2 352.4 260 352.4C269.8 352.4 274 350.7 280.2 344.3C283.5 340.9 290 328.8 290 326C290 325.4 287.1 325 283.1 325C276.6 325 276.2 325.1 275.6 327.5C274.6 331.3 268.4 337.7 264.4 339C257.8 341.2 251.2 338.3 247.7 331.6C246 328.3 245.6 325.8 245.7 319.5C245.8 303.3 253.4 291.2 264.6 289.4C272.1 288.2 279 293.5 279 300.5C279 302.9 279.2 303 286 303H293V298.7C293 294 290 286.7 286.7 283.2C282.6 278.8 277.1 276.7 268.5 276.3C263.4 276.1 259.2 276.5 256.9 277.3Z" fill="white"/>
<path d="M444 276.9C427.1 282.1 416.2 300.7 417.2 322.5C417.7 333.4 420.4 340.4 426.2 345.6C431.1 350 435.2 351.8 442.2 352.6C449.2 353.4 455.1 351.7 459.5 347.6L463 344.3V347.6C463 351 463.1 351 467.5 351C471.3 351 472 350.7 472.5 348.8C473.9 342.3 479 314.1 479 312.7C479 311.2 477.5 311 465.6 311C450.6 311 451.8 310.4 450.5 318.7L449.8 323H456.9C460.7 323 464.1 323.4 464.4 323.8C465.3 325.3 461.3 332.5 457.8 335.6C451.2 341.4 440.3 340.9 435.6 334.7C428.3 325.2 430.8 304.2 440.4 294.7C446.3 288.7 456.1 287.4 462 291.8C463.4 292.8 465.1 295.6 465.8 297.8L467.2 302H474.1C480.4 302 481 301.8 481 299.9C481 290.7 474.4 281.4 465.4 278.1C459.8 275.9 449.1 275.4 444 276.9Z" fill="white"/>
<path d="M845.3 277.8C831.8 283.2 823.4 295.5 820.9 313.5C819.1 326.9 823.1 341 830.5 346.6C841.1 354.7 857.7 354.8 867.3 347C871.4 343.5 875.2 337.6 878.1 330L880 325H873.1H866.2L864 329.5C860.8 336 856 339.4 849.9 339.4C843.8 339.4 840.4 337.1 837.3 331C832.8 322.3 835.3 304.9 842.1 296.6C850.9 286 864.5 286.9 867.9 298.3L869.4 303H876.2C882.6 303 883 302.9 883 300.7C883 299.4 882.3 295.9 881.4 292.9C879.4 286.3 872.6 279.1 866.4 277.2C860.6 275.5 850.3 275.8 845.3 277.8Z" fill="white"/>
<path d="M1048 278.2C1033.3 283.8 1022.8 304 1024.4 323.5C1025.9 342.8 1035.6 352.4 1053.5 352.5C1060.1 352.5 1062.5 352 1067 349.9C1081 343.3 1089.1 328.1 1089.1 308.2C1089.1 297 1087.1 290.5 1082 284.7C1074.6 276.3 1060.2 273.5 1048 278.2ZM1067 290.8C1079.1 297.3 1076.6 327.6 1063.2 336.6C1055 342.2 1045.1 339.9 1041 331.6C1039.1 327.5 1038.8 325.7 1039.2 317.7C1039.8 303.7 1044.5 295.1 1053.5 290.9C1058.6 288.5 1062.6 288.5 1067 290.8Z" fill="white"/>
<path d="M1173 276.9C1156 282.1 1145.2 300.5 1146.2 322.5C1146.7 333.4 1149.4 340.3 1155.2 345.6C1161.2 351 1165.2 352.4 1175 352.4C1182.3 352.5 1184.3 352.1 1189.1 349.7C1203.4 342.7 1211.7 325.9 1210.8 305.4C1210.5 298.1 1209.9 295.3 1207.6 290.7C1204.3 283.9 1199.3 279.5 1192.6 277.5C1187.4 275.9 1177.2 275.6 1173 276.9ZM1187.4 290.4C1194.8 293.5 1198.1 302.9 1196.1 315C1194 327.7 1186.7 337.9 1178.7 339.4C1166 341.8 1158 330.3 1160.8 313.8C1162.4 304.7 1164.8 299.2 1169.4 294.7C1174.7 289.4 1181.2 287.8 1187.4 290.4Z" fill="white"/>
<path d="M1243 276.9C1226.1 282.1 1215.1 300.9 1216.2 323C1216.8 333.4 1219.6 340.5 1225.2 345.6C1230.1 350 1234.2 351.8 1241.2 352.6C1248.2 353.4 1254.1 351.7 1258.5 347.6L1262 344.3V347.6C1262 351 1262.1 351 1266.5 351C1270.3 351 1271 350.7 1271.5 348.8C1272.9 342.3 1278 314.1 1278 312.7C1278 311.2 1276.5 311 1264.6 311C1249.6 311 1250.8 310.4 1249.5 318.7L1248.8 323H1255.7C1259.6 323 1262.9 323.3 1263.3 323.6C1264.4 324.7 1261.1 331.3 1257.7 334.8C1252.6 340.1 1243.3 341.3 1237.3 337.4C1225.9 330.1 1229.6 300 1242.8 291.8C1245.4 290.2 1248 289.6 1252.1 289.5C1259.2 289.5 1262.9 291.9 1264.8 297.8L1266.2 302H1273.1C1279.4 302 1280 301.8 1280 299.9C1280 290.7 1273.4 281.4 1264.4 278.1C1258.8 275.9 1248.1 275.4 1243 276.9Z" fill="white"/>
<path d="M1392 278.1C1377.3 284 1366.8 304 1368.4 323.5C1369.5 337.3 1374.6 345.8 1384.2 350C1395.9 355 1408.8 353.2 1416.6 345.5C1420.6 341.5 1425.3 333.2 1426.6 327.7L1427.2 325H1420.2C1413.2 325 1413.2 325 1412.5 328C1411.5 332.3 1406.2 337.6 1401.2 339.1C1397.4 340.2 1396.4 340.1 1392.3 338.4C1388.7 336.9 1387.1 335.5 1385.2 332C1383.1 327.9 1382.9 326.6 1383.2 318C1383.5 310.9 1384.2 307.2 1385.9 303.3C1393.2 286.8 1412.8 284.2 1415.9 299.3L1416.6 302.5L1423.9 302.8L1431.1 303.1L1430.4 298.3C1428.4 284 1420.4 276.9 1405.5 276.3C1399.1 276.1 1396.4 276.4 1392 278.1Z" fill="white"/>
<path d="M1461.4 277.4C1446.6 282.2 1437.1 297.5 1436.2 317.7C1435.7 330.7 1437.5 337.1 1443.7 344C1449.4 350.4 1454.9 352.5 1465.5 352.5C1472.2 352.5 1474.4 352 1479.2 349.7C1489.2 344.8 1496.6 334.2 1499.5 320.5C1501.5 311 1501.4 302.4 1499.1 295.2C1496.7 287.4 1493.2 283 1486.8 279.5C1482.5 277.1 1480.1 276.6 1473.5 276.3C1468.7 276.1 1463.9 276.6 1461.4 277.4ZM1477.4 290.4C1484.5 293.3 1487.8 303 1486 314.8C1483.2 332 1472.8 342.2 1461.3 339.1C1453.4 336.9 1449.3 328.8 1450.3 317C1451.9 297.5 1464.6 285 1477.4 290.4Z" fill="white"/>
<path d="M13.9998 277.6C13.9998 278.7 0.899786 347.4 0.399786 349.2C-0.100214 350.8 0.699786 351 6.79979 351H13.7998L14.7998 345.2C15.2998 342.1 17.4998 329.2 19.5998 316.5C22.3998 299.5 23.5998 294.3 24.0998 296.5C24.4998 298.2 26.0998 311.1 27.5998 325.2L30.2998 351H35.8998H41.4998L54.8998 322.5C62.2998 306.9 68.4998 294.2 68.6998 294.3C68.8998 294.5 66.4998 307 63.4998 322C60.4998 337.1 57.9998 349.8 57.9998 350.2C57.9998 350.6 60.8998 351 64.3998 351C69.6998 351 70.9998 350.7 71.3998 349.2C71.5998 348.3 74.5998 332.6 77.9998 314.5C81.3998 296.3 84.3998 280.5 84.6998 279.2C85.1998 276.9 85.1998 276.9 74.9998 277.2L64.7998 277.5L58.0998 291.5C54.4998 299.2 48.8998 311.1 45.6998 317.9C42.4998 324.7 39.6998 330.1 39.4998 329.8C39.1998 329.5 33.9998 280.2 33.9998 277.6C33.9998 277.3 29.4998 277 23.9998 277C18.4998 277 13.9998 277.3 13.9998 277.6Z" fill="white"/>
<path d="M96.0999 282.2C95.4999 285.1 92.5999 300.8 89.4999 317C86.4999 333.2 83.7999 347.5 83.4999 348.7C82.9999 350.9 83.1999 351 90.1999 351H97.4999L104.3 314.7C108 294.8 111 278.2 111 277.7C111 277.3 107.9 277 104.1 277H97.0999L96.0999 282.2Z" fill="white"/>
<path d="M117.7 277.7C117.4 278.2 116.9 280.5 116.5 283C116.2 285.5 115.6 288.3 115.4 289.2C114.9 290.7 116 291 125.3 291.2L135.6 291.5L130.4 319.5C127.5 334.9 125.1 348.3 125.1 349.2C125 350.8 126 351 131.9 351H138.9L139.9 345.7C141.1 340.2 150 291.9 150 291.3C150 291.2 154.5 291 159.9 291H169.8L170.9 286C173 276.1 175.7 277 145.1 277C130.2 277 117.9 277.3 117.7 277.7Z" fill="white"/>
<path d="M196.2 278.7C195.7 279.7 187.1 296.1 177.1 315.1C167.2 334.2 159 350 159 350.4C159 350.8 162.3 351 166.3 350.8L173.5 350.5L177.5 342.8L181.5 335H194.1H206.7L207.6 342.7L208.5 350.5L215.7 350.8C222.1 351.1 222.8 350.9 222.4 349.3C221.9 347.1 212 279.1 212 277.9C212 277.4 208.6 277 204.5 277C198.4 277 196.9 277.3 196.2 278.7ZM203.5 307.1C204.3 313.9 205 320.3 205 321.2C205 322.8 203.9 323 196 323H187L194.2 308.5C198.2 300.6 201.6 294.2 201.7 294.4C201.9 294.6 202.7 300.3 203.5 307.1Z" fill="white"/>
<path d="M333 277.5C333 278.6 320 347.3 319.4 349.3C318.8 351.1 319.8 351.1 338.2 350.8C356.5 350.5 357.8 350.4 363 347.9C374.3 342.6 381 332.5 383.7 317.1C385.3 308 385 301.2 382.9 293.9C381.2 288.3 373.7 280.6 368.4 279C364.1 277.7 333 276.3 333 277.5ZM363.7 293C367.5 295.3 368.7 297.4 370 303.9C372.8 318.7 364.5 334.2 352.3 337.1C348.5 338 336 338.4 336 337.6C336 336.7 344.1 294.4 344.6 292.7C345.4 290.1 359.2 290.2 363.7 293Z" fill="white"/>
<path d="M401 277.5C401 278.5 387.9 347.5 387.4 349.2C386.9 350.8 387.7 351 394.2 351H401.6L408.3 315.2C412 295.6 415 278.9 415 278.2C415 277.4 412.9 277 408 277C404.2 277 401 277.2 401 277.5Z" fill="white"/>
<path d="M495.5 279.2C495.2 280.5 492.3 295.9 489 313.5C485.7 331.1 482.7 346.8 482.4 348.3L481.8 351.1L489.1 350.8L496.4 350.5L503.2 315C506.9 295.5 509.9 278.9 509.9 278.2C510 277.4 508 277 503 277C496.6 277 496 277.2 495.5 279.2Z" fill="white"/>
<path d="M515.5 281.7C515.2 284.4 514.6 287.5 514.3 288.7C513.8 291 513.9 291 523.9 291C532.9 291 534 291.2 534 292.7C534 293.7 531.6 307.2 528.7 322.8L523.4 351H530.7C534.7 351 538 350.8 538 350.5C538 349.8 546.6 303.6 548.1 296.2L549.1 291H558.9H568.7L569.9 285.3C570.5 282.2 571 279.1 571 278.3C571 277.3 565.8 277 543.6 277H516.2L515.5 281.7Z" fill="white"/>
<path d="M591.2 286.2C588.5 291.3 581 305.6 574.5 318C568 330.4 561.5 342.9 559.9 345.7L557 351H564.4H571.9L576.1 343L580.3 334.9L592.9 335.2L605.5 335.5L606.4 343.3L607.2 351H614.1C620 351 621 350.7 621 349.2C621 348.3 618.7 332.3 616 313.6C613.2 295 611 279.1 611 278.4C611 277.3 609.2 277 603.6 277H596.1L591.2 286.2ZM602.4 308.4C603.3 316 603.9 322.5 603.6 322.7C603.4 322.9 599.5 323 594.8 322.8L586.4 322.5L593.2 308.1C597 300.2 600.3 293.9 600.5 294.1C600.7 294.3 601.6 300.8 602.4 308.4Z" fill="white"/>
<path d="M639.5 278.2C638.9 279.9 626 348.6 626 350C626 350.7 633.6 351 648.9 351H671.8L672.4 348.3C672.7 346.7 673.2 343.8 673.6 341.7L674.2 338H658.6C647.3 338 643 337.7 643 336.8C643 335.6 652.7 283.2 653.7 279.2C654.2 277.1 654 277 647.1 277C642.3 277 639.8 277.4 639.5 278.2Z" fill="white"/>
<path d="M708.1 283.3C707.5 286.8 707 290 707 290.3C707 290.7 711.5 291 717 291C723.4 291 727 291.4 727 292.1C727 293.4 717.1 347 716.4 349.2C715.9 350.8 716.7 351 723.3 351H730.6L735.9 322.2C738.8 306.4 741.3 292.9 741.5 292.2C741.8 291.4 744.8 291 751.8 291H761.7L762.3 287.2C762.7 285.2 763.2 282 763.6 280.2L764.3 277H736.7H709.2L708.1 283.3Z" fill="white"/>
<path d="M770 277.7C770 278.6 757.3 346.4 756.6 349.2C756.2 350.9 757.9 351 781.5 351H806.8L807.9 346C809.8 337.4 811.1 338 791.6 338C782 338 773.9 337.7 773.7 337.2C773.4 336.8 774 332.7 774.9 328L776.6 319.5L793.2 319.2L809.9 319L810.4 316C810.7 314.3 811.3 311.6 811.6 310L812.2 307H795.5H778.8L779.3 304.7C779.6 303.5 780.4 299.9 781 296.7L782.1 291H800C820.2 291 818.1 292 819.5 281.7L820.2 277H795.1C781.3 277 770 277.3 770 277.7Z" fill="white"/>
<path d="M898.5 279.2C898.2 280.5 895.3 295.9 892 313.5C888.7 331.1 885.7 346.8 885.4 348.3L884.8 351.1L892.2 350.8L899.5 350.5L902.4 334.7L905.4 319H918.7C929.3 319 932 319.3 932 320.4C932 321.6 927.8 343.1 926.5 348.7C926 350.9 926.2 351 933.5 351C937.6 351 941 350.6 941 350.1C941 349.6 943.9 333.8 947.5 315.2C951.1 296.5 954 280.2 954 279.1C954 277.2 953.4 277 947.2 277H940.3L937.6 291.5L934.8 306H921.4C914 306 908 305.6 908 305.1C908 304.7 909.1 298.8 910.5 292C911.9 285.2 913 279.1 913 278.4C913 277.3 911.2 277 906 277C899.6 277 899 277.2 898.5 279.2Z" fill="white"/>
<path d="M967 277.4C967 277.9 954.1 346.3 953.5 348.7C953 350.9 953.2 351 959.7 351H966.5L971 326C973.5 312.2 975.7 301 976.1 301C976.4 301 978.7 307 981.3 314.2C983.8 321.5 987.7 332.8 990 339.2L994.2 351H1001.6C1005.7 351 1009 350.7 1009 350.4C1009 350.1 1011.9 334.3 1015.5 315.3C1019.1 296.3 1022 279.9 1022 278.8C1022 277.1 1021.4 276.9 1015.8 277.2L1009.5 277.5L1005 302.7C1002.5 316.5 1000.3 328.1 1000 328.4C999.7 328.6 995.5 317.2 990.6 302.9L981.8 277H974.4C970.3 277 967 277.2 967 277.4Z" fill="white"/>
<path d="M1104.5 278.2C1104.1 279.7 1091 349.4 1091 350.4C1091 350.7 1101.3 351 1113.9 351H1136.8L1137.9 346C1139.8 337.4 1140.8 338 1123.5 338C1114.6 338 1108 337.6 1108 337.1C1108 336.6 1110.5 323.1 1113.5 307.2C1116.5 291.3 1119 277.9 1119 277.6C1119 276.4 1104.9 277 1104.5 278.2Z" fill="white"/>
<path d="M1295 299.9L1302.9 322.9L1300.4 336.1C1299.1 343.4 1298 349.7 1298 350.2C1298 350.6 1301.1 351 1304.9 351H1311.8L1312.8 346.2C1313.4 343.6 1314.6 337.5 1315.5 332.5L1317.1 323.5L1332.1 302C1340.4 290.2 1347.6 279.7 1348.1 278.7C1349 277.1 1348.4 277 1340.8 277H1332.5L1322.5 292.5C1317 301 1312.2 308 1311.9 308C1311.6 308 1310.6 305.6 1309.7 302.7C1308.9 299.9 1306.7 292.9 1305 287.2L1301.8 277H1294.5H1287.1L1295 299.9Z" fill="white"/>
<path d="M1516.5 278.2C1515.9 279.9 1503 348.4 1503 349.9C1503 350.6 1505.5 351 1509.9 351C1516.7 351 1516.9 350.9 1517.4 348.3C1517.7 346.7 1518.9 340.4 1520.1 334.2L1522.3 323H1532C1545.3 323 1545.5 323.3 1545.5 338.9V350.5L1552.3 350.8L1559 351.1V338C1559 324.7 1558.5 322.4 1554.8 318.4C1552.9 316.3 1552.9 316.2 1555.3 315.6C1562.4 313.9 1567 306.2 1567 296C1567 287.8 1564.3 282.6 1558.5 279.6C1554.9 277.7 1552.4 277.5 1535.8 277.2C1520.7 276.9 1516.9 277.1 1516.5 278.2ZM1551.1 292.9C1555.6 298.5 1551.8 307.8 1544.2 310C1538.9 311.4 1525 311.3 1525 309.8C1525 309.2 1525.8 304.4 1526.7 299.2L1528.4 289.8L1538.8 290.2C1548.3 290.5 1549.3 290.7 1551.1 292.9Z" fill="white"/>
<path d="M1581.6 279.1C1581.3 280.4 1578.3 296.3 1574.9 314.5C1571.6 332.6 1568.7 348.3 1568.4 349.2C1567.9 350.8 1568.7 351 1575.4 351C1581.8 351 1583 350.7 1583 349.3C1583 348.4 1583.9 342.6 1585.1 336.5L1587.2 325.2L1599.8 324.8C1611.6 324.5 1612.9 324.2 1617.9 321.5C1623.9 318.2 1627.3 314.3 1629.5 308.1C1632.3 300.1 1630.8 288.8 1626.3 283.8C1622 278.9 1616.6 277.6 1598.8 277.2L1582.1 276.8L1581.6 279.1ZM1614.1 292.9C1617.5 296.4 1617.9 300.7 1615.2 306C1612.8 310.9 1609.9 312 1599.2 312H1589.8L1590.4 309.2C1590.7 307.7 1591.4 303.6 1592 300C1593.8 289.3 1593 290 1602.6 290C1610.7 290 1611.3 290.2 1614.1 292.9Z" fill="white"/>
<path d="M1630.5 336.2C1629.8 338.4 1628 348 1628 349.5C1628 350.7 1629.5 351 1635 351C1638.9 351 1642 350.9 1642 350.7C1642 349.8 1644.2 338.3 1644.6 336.7C1645.1 335.2 1644.3 335 1638 335C1633.2 335 1630.8 335.4 1630.5 336.2Z" fill="white"/>
</svg>
