<svg width="3600" height="884" viewBox="0 0 3600 884" fill="none" xmlns="http://www.w3.org/2000/svg">
<path d="M2321 72.1C2303.2 74.4 2284 83.4 2269.6 96.1C2257.4 106.9 2245.2 127 2240.9 143.5C2237.7 155.7 2237.2 174.8 2239.8 187.2C2245.9 216.7 2265.5 242 2292.4 255C2305.8 261.5 2317.9 264.2 2334 264.3C2344.5 264.3 2349.4 263.8 2356 262.2C2377.2 257 2395.7 245.6 2408.6 229.9C2426.7 207.7 2434.3 179.3 2429.5 151.6C2420.5 100 2373.3 65.4 2321 72.1Z" fill="#EF0000"/>
<path d="M526.6 79.8999C526.3 80.7999 525.8 83.4999 525.5 85.9999C524 95.7999 511.7 160.2 506 188C467.6 373.6 414 589.3 369.5 738C363.8 756.9 359.2 772.5 359.3 772.6C359.4 772.7 363.6 772.1 368.5 771.2C380.7 769.2 423.9 769.2 436.4 771.2C442.5 772.2 445.3 772.3 445.6 771.6C445.8 771 447.3 763.1 449 754C462.3 683.6 499.1 527.1 543.1 354.5C570.3 247.8 594.2 157 608.2 107.5C612.1 93.6999 615.4 81.5999 615.7 80.3999C616.2 78.3999 616.1 78.3999 604.3 79.7999C588.1 81.7999 547.3 81.7999 535.8 79.8999C527.9 78.4999 527 78.5999 526.6 79.8999Z" fill="black"/>
<path d="M2570.5 81.3999C2549.4 205.5 2496.6 436.7 2449.5 611.5C2439.5 648.6 2416.5 729.5 2408.6 755C2405.6 764.6 2403.3 772.6 2403.4 772.6C2403.4 772.7 2407.6 772.1 2412.5 771.2C2425 769.1 2468 769.1 2480.5 771.2C2485.5 772.1 2489.5 772.7 2489.6 772.6C2489.6 772.6 2492.2 759.4 2495.3 743.5C2507.9 679.3 2534.8 563.9 2569.1 426.5C2599.9 303.5 2637.7 158.6 2654.6 99.3999C2657.6 88.8999 2660 79.8999 2660 79.3999C2660 78.7999 2655.5 78.9999 2648.8 79.7999C2632.8 81.7999 2592.2 81.8999 2580.3 79.8999L2571 78.2999L2570.5 81.3999Z" fill="black"/>
<path d="M2828.5 79.4C2828.3 80 2826.5 89.9 2824.5 101.5C2814.2 160.9 2791.1 269.7 2767.5 370.6C2732.3 521.2 2696.3 657 2661.5 771.1C2661 772.5 2661.9 772.5 2670.2 771.2C2682.9 769.2 2725.1 769.2 2737.8 771.2C2744.4 772.2 2747.3 772.3 2747.5 771.6C2747.7 771 2749.1 764 2750.5 756C2756.2 725.3 2769.1 665.8 2784.6 600.2C2819.9 450.1 2882.8 203 2911.6 101.8C2915.1 89.4 2918 79 2918 78.8C2918 78.6 2912.7 79.1 2906.3 79.8C2889.9 81.8 2848.2 81.8 2837.2 79.8C2831.3 78.8 2828.7 78.6 2828.5 79.4Z" fill="black"/>
<path d="M348 80.0999C323 82.4999 297 91.0999 274.6 104.5C242.8 123.4 213.4 153.5 193 187.9C172.1 223.3 151.9 278.8 137.6 340.4L136.9 343.3L117.7 342.6C107.1 342.2 90 341.3 79.5 340.6C69.1 339.8 60.4 339.4 60.2 339.5C59.6 340.1 53.8 376.1 54.3 376.6C54.5 376.9 58.5 376.6 63.1 376C71.3 374.9 129.1 372.9 129.9 373.7C131.4 374.9 106 485.8 86.5 563.5C69 633.1 43.8 725.4 31.6 764.5C30.2 768.8 29.2 772.5 29.3 772.6C29.4 772.7 33.8 772.1 39 771.2C51.8 769.2 90 769.2 102.8 771.2C109.4 772.2 112.3 772.3 112.5 771.6C112.7 771 113.4 766.7 114 762C118.3 729.4 127.4 688.2 158.4 561.5C165.2 533.4 177 485.3 184.5 454.5C192 423.7 199.6 392.9 201.3 386.1L204.5 373.7L217.5 373.9C224.7 374 243.8 374.7 260.1 375.6C276.3 376.5 290.9 377 292.5 376.8C295.4 376.5 295.4 376.5 299.6 358C301.9 347.8 303.7 339.4 303.6 339.4C303.6 339.3 293.9 339.8 282.2 340.6C270.6 341.3 249.7 342.2 235.8 342.6L210.7 343.3L211.3 337.9C213.2 321.2 215.2 292.2 216.5 260C218.5 212.2 220.2 201.5 229 183.5C237.4 166.4 246.8 156.7 262.6 149C275.5 142.6 283.9 140.9 303.7 140.3C327.6 139.5 342.6 142.2 367.8 151.6C376.6 154.9 377.6 155.1 381.1 154C383.1 153.3 385.3 152.5 385.8 152.1C386.4 151.7 388.7 144.5 390.9 136C395 119.7 398.3 110 404.5 95.5999C406.5 90.7999 408 86.6999 407.8 86.3999C406.5 85.1999 387.4 81.0999 378.2 80.0999C366.8 78.8999 360.6 78.8999 348 80.0999Z" fill="black"/>
<path d="M3483.6 156.6C3449.5 164 3424.8 189.2 3418.3 223.5C3416.1 235.2 3417 251 3420.5 262C3429.6 290.3 3447.4 308.2 3476 317.6C3483.8 320.2 3485.7 320.4 3500 320.4C3514.3 320.4 3516.1 320.2 3524 317.6C3549.2 309.2 3566.6 293.5 3576.4 270.1C3581.1 259.2 3582.4 252.3 3582.4 238.5C3582.4 222.5 3580.8 215.6 3573.5 200.4C3564.7 182.2 3550.7 169.2 3531.7 161.5C3516.1 155.2 3498.7 153.4 3483.6 156.6ZM3522.7 172.7C3533.5 176.6 3541 181.2 3548.5 188.6C3569.3 208.9 3574.8 241.6 3562.1 268.5C3550.9 292.2 3527.1 307 3500 307C3461.2 307 3431 276.8 3431 238.1C3431 226.7 3432.8 218.4 3437.4 208.7C3444.4 193.5 3454.5 183.3 3469.5 176C3481.3 170.2 3487.3 169 3502 169.4C3512.9 169.7 3515.6 170.1 3522.7 172.7Z" fill="black"/>
<path d="M3464 239.4V284H3471H3478V265V246H3484.7C3497.1 246 3501 249.5 3513.9 271.6L3520.8 283.5L3529.4 283.8C3534.1 283.9 3538 283.7 3538 283.3C3537.9 281.9 3521.6 257.2 3517.6 252.4C3515.5 249.9 3512.4 247 3510.8 246L3507.9 244.3L3512.3 243.2C3519.5 241.4 3526 236.3 3529.3 230C3531.8 225.2 3532.1 223.6 3531.8 217.9C3531.3 208.5 3527.6 202.6 3519.5 198.5L3513.6 195.5L3488.8 195.2L3464 194.8V239.4ZM3509.7 208.9C3515 211.4 3517.4 215.7 3516.7 221.7C3515.7 230.7 3510.7 233.1 3491.8 233.8L3478 234.3V220.6V207H3491.8C3503.1 207 3506.2 207.4 3509.7 208.9Z" fill="black"/>
<path d="M1954 231.7C1927.3 239.7 1905.3 246.3 1905.1 246.5C1905 246.7 1900.2 268.8 1894.6 295.7L1884.3 344.5L1872.4 344.2C1865.9 344.1 1849.9 343.3 1837 342.5C1824.1 341.7 1813 341 1812.4 341C1811.7 341 1811.1 344.7 1810.7 350.9C1810.3 357.6 1809.2 363.4 1807.5 368.5C1806.1 372.6 1805 376.3 1805 376.6C1805 377.2 1818.5 376.9 1861.8 375.4C1879 374.8 1879 374.8 1879 377C1879 380.1 1860.8 451.8 1848 499.5C1827.8 574 1809.1 645.7 1806.6 658.2C1801.1 685.1 1800.8 701.8 1805.4 716.5C1815.4 747.9 1848.1 771.1 1894.5 779.6C1909.4 782.3 1943.4 782.1 1962.7 779.1C1989.6 775 2014.4 767.6 2032.2 758.3C2040.6 753.9 2040.8 753.6 2041.4 749.6C2042.5 741.4 2043.2 730 2042.7 730C2042.4 730 2037.1 732 2031.1 734.5C2009.9 743.2 1990.3 747.3 1969.5 747.3C1942.3 747.4 1920.5 739.4 1904.5 723.5C1884.8 703.9 1882.5 683 1894 627.5C1897.2 612.3 1911.7 554.2 1941.2 439L1957.5 375.5L1975.5 375.8C1985.4 376 2011 376.8 2032.4 377.6C2053.8 378.3 2073 379 2075.2 379H2079V374.6C2079 368.8 2081.5 354.8 2083.9 347.2L2085.8 341H2083.1C2081.7 341 2064.3 341.7 2044.5 342.5C1980.9 345 1967 345.3 1967 344.3C1967 343.2 1983.7 282.3 1988 268C1991 258 2002.6 221.1 2003.7 218.3C2004 217.6 2003.8 217 2003.4 217.1C2002.9 217.1 1980.7 223.7 1954 231.7Z" fill="black"/>
<path d="M3188.2 325C3138 328.1 3093.1 340.3 3045.4 364.1L3027.4 373.1L3019.7 397.8C3015.4 411.4 3012 422.8 3012 423.2C3012 423.7 3014.8 424 3018.3 424C3024.4 424 3024.8 423.8 3030 419.4C3060.9 393 3091.2 376.2 3122.3 368.1C3152.2 360.3 3191.5 360.9 3218.8 369.5C3249.1 379.1 3269.5 396.5 3277.6 420C3281.3 430.6 3282.5 442.8 3281.1 456.8C3279.1 478 3274.1 491 3264.2 500.9C3252.1 513 3240.5 516.5 3187.1 524.1C3121.1 533.4 3084.3 540.5 3049.8 550.4C2978 571.1 2932 604.2 2917.5 645.9C2900.2 695.2 2919.4 739.1 2969.2 764.4C3014.2 787.2 3073.3 788.9 3129.4 768.9C3155.6 759.6 3188 740.8 3213.8 720.1C3220 715.1 3225.3 711 3225.6 711C3225.8 711 3226 712.5 3226 714.3C3226 719.3 3229.7 731.4 3233.5 738.9C3248.5 768.7 3288.1 780 3335.6 768C3354.2 763.3 3383.7 750.4 3382.6 747.4C3382.3 746.7 3381.1 742.4 3379.9 738C3378.1 731.6 3377.3 730 3376.1 730.4C3375.2 730.6 3371.8 732 3368.4 733.4C3361 736.5 3348.8 738 3340 736.9C3329.9 735.7 3322.7 732.6 3316.2 726.5C3303 714.3 3300.4 699.1 3306 666.8C3309.2 648 3313.7 630.7 3334.5 558.6C3345.3 521.3 3355.6 484.6 3357.5 477.1C3370.9 423.6 3366.1 394.9 3339.1 367.9C3316.8 345.5 3285.5 331.9 3244 326.6C3228.9 324.7 3204.8 324 3188.2 325ZM3262 539.8C3262 540.3 3261.1 543.3 3260 546.6C3253 566.8 3241.4 610.5 3233.4 646.9C3228.3 670.1 3229 668.7 3215.1 682.7C3177.6 720.7 3131.1 741 3081.9 741C3037.6 741 3004.3 720.2 2995.5 687C2993 677.9 2993.2 661 2995.9 650.7C3006.3 610.8 3046.2 583.1 3120 564.5C3141.6 559.1 3169.4 553.8 3209 547.6C3228.5 544.5 3247.9 541.4 3252 540.6C3261.4 538.9 3262 538.8 3262 539.8Z" fill="black"/>
<path d="M910 325.7C798 330.7 704.2 387.2 659.7 476.5C630.7 534.9 625 608.1 645.4 661C654.5 684.3 664.6 699.8 682.9 718C705.4 740.4 727.5 753.7 762 765.5C830.5 788.9 922.2 785.7 1006.3 757C1020.1 752.3 1045.5 741.9 1047.1 740.3C1047.8 739.6 1062 700.6 1062 699.5C1062 697.9 1057.1 699.6 1050.3 703.6C1029 716.3 998.4 729.5 975.4 736C942.5 745.2 901.8 749.5 870.5 747.1C784.4 740.3 733.5 699 724 628C721.6 610.6 722.8 579.8 726.6 558.9L728.2 550.3L740.3 549.6C766 548.3 952.6 547.7 1004.5 548.9C1055.7 550 1100.1 551.5 1113.1 552.5L1119.8 553L1123 541.3C1129 519.7 1131 506.4 1131.7 484.5C1132.1 468.7 1131.9 462.2 1130.6 453.2C1124.7 413 1106 383.1 1073 360.9C1063.8 354.7 1044.5 345.2 1032.9 341.1C999.5 329.5 953.5 323.7 910 325.7ZM945 353C1001.2 358.8 1037.3 387.3 1048.2 434.2C1050 442.1 1050.4 446.7 1050.4 464C1050.5 484.5 1049.3 495.6 1045.6 508.1C1044.3 512.4 1044.2 512.5 1038.9 513.2C1006 517.3 813.6 517.4 746.9 513.4L736.2 512.7L738.2 505.6C745.2 480.6 758.8 452.2 773.8 431.1C781.6 420.2 797.3 403.4 807.6 395C845.6 363.9 897.3 348.1 945 353Z" fill="black"/>
<path d="M1477 325.7C1408.8 329.3 1350 349.6 1301.4 386.1C1289.2 395.3 1266.4 417.3 1256.5 429.4C1240.3 449.5 1224.4 477.3 1215.4 501.5C1200.4 542.1 1196.2 591.6 1204.1 632.7C1218.9 709.6 1281.2 761.9 1375.5 776.9C1447.9 788.4 1536 775.6 1607.9 743.3L1614.2 740.4L1621.5 720C1630.1 695.9 1630.1 695.9 1616.4 704C1577.7 726.9 1534.7 741.1 1488.5 746.2C1472.2 748 1437.1 747.7 1422.2 745.7C1382.6 740.2 1351 726.8 1328.6 705.9C1299.2 678.5 1285.8 636.9 1289.9 586C1291.1 572 1294.1 551.6 1295.2 550.4C1296.3 549.4 1388.5 548.1 1460.5 548.1C1548 548 1657.5 550.3 1680.8 552.5C1687 553.1 1686.4 554.1 1691 536.2C1696.8 514.1 1698.4 501.7 1698.4 478.5C1698.5 460.6 1698.1 455.9 1696.2 446.2C1685.8 394.3 1652.5 359 1596 340C1563.6 329.1 1517 323.5 1477 325.7ZM1522.5 354.4C1586.5 365 1621.1 407.7 1617.6 471.7C1616.7 487.3 1612.8 510.5 1610.7 512.6C1609.7 513.7 1573.5 515.1 1524 516.1C1485 516.8 1450.4 516.8 1407.5 516.1C1354.5 515.1 1304.1 513.5 1303.3 512.6C1302.6 512 1309.2 491.8 1313.3 481.5C1327.4 446.5 1346 419.4 1370.5 398.3C1399.4 373.3 1436 357.5 1475.1 353.1C1486.1 351.8 1511.1 352.6 1522.5 354.4Z" fill="black"/>
<path d="M2259.5 335.2C2259.3 336.5 2257.9 343.8 2256.4 351.5C2252.8 370.7 2242.7 418.7 2233.5 459.5C2206.2 581.2 2176.8 693.1 2155 757.5C2152.3 765.7 2150 772.5 2150 772.6C2150 772.6 2154.2 772 2159.3 771.2C2175.7 768.5 2221.5 769.4 2238.3 772.6C2240.6 773.1 2241 772.8 2241 770.8C2241 767 2246.6 733.7 2251.1 711C2268.1 624.7 2308.5 465.3 2340.1 360.1C2344.5 345.6 2347.9 333.6 2347.7 333.4C2347.5 333.2 2341.5 333.7 2334.4 334.5C2318.2 336.4 2291.2 336.4 2275.5 334.5C2259.9 332.6 2260.1 332.6 2259.5 335.2Z" fill="black"/>
</svg>
