<svg width="247" height="84" viewBox="0 0 247 84" fill="none" xmlns="http://www.w3.org/2000/svg">
<g clip-path="url(#clip0_407_38)">
<path d="M74.9424 83.0177H72.9424V72.4177C74.5944 72.4177 76.2914 72.4017 77.9424 72.4017C78.449 72.3679 78.9571 72.4398 79.4344 72.6127C79.9118 72.7857 80.348 73.0559 80.7155 73.4063C81.0829 73.7567 81.3735 74.1796 81.5688 74.6483C81.7642 75.1169 81.8601 75.621 81.8504 76.1287C81.8587 76.6379 81.7623 77.1434 81.5671 77.6138C81.3719 78.0842 81.082 78.5094 80.7155 78.8631C80.349 79.2167 79.9137 79.4912 79.4367 79.6695C78.9596 79.8478 78.451 79.9262 77.9424 79.8997H74.9424V83.0177ZM77.9424 78.0647C78.1938 78.0774 78.4451 78.0378 78.6805 77.9484C78.9158 77.8589 79.13 77.7216 79.3094 77.545C79.4889 77.3685 79.6297 77.1565 79.723 76.9227C79.8163 76.6889 79.86 76.4383 79.8514 76.1867C79.86 75.935 79.8163 75.6843 79.723 75.4505C79.6297 75.2166 79.4889 75.0046 79.3094 74.828C79.13 74.6514 78.9159 74.5139 78.6805 74.4244C78.4452 74.3348 78.1939 74.2951 77.9424 74.3077H74.9424V78.0647H77.9424Z" fill="#054371"/>
<path d="M84.699 81.019L83.791 83.019H81.625L86.381 72.4189H88.562L93.319 83.019H91.136L90.243 81.019H84.699ZM85.499 79.1549H89.437L87.467 74.6419L85.499 79.1549Z" fill="#054371"/>
<path d="M101.878 83.0183L98.8034 79.4743H96.7744V83.0183H94.7744V72.4043C96.4744 72.4043 98.1204 72.4203 99.8174 72.4203C100.304 72.3781 100.794 72.4376 101.256 72.5952C101.718 72.7528 102.142 73.0049 102.501 73.3355C102.861 73.6661 103.147 74.0679 103.343 74.5154C103.538 74.9628 103.638 75.4461 103.636 75.9343C103.692 76.7254 103.447 77.5083 102.949 78.1262C102.452 78.744 101.74 79.1512 100.955 79.2663L104.166 82.8873V83.0233L101.878 83.0183ZM96.7784 77.6723H99.8224C100.057 77.696 100.294 77.6692 100.517 77.5938C100.741 77.5184 100.945 77.3961 101.118 77.2351C101.29 77.0741 101.426 76.8781 101.516 76.6603C101.606 76.4426 101.649 76.208 101.641 75.9723C101.648 75.737 101.605 75.5029 101.514 75.2857C101.423 75.0684 101.287 74.8729 101.115 74.7122C100.943 74.5514 100.739 74.4291 100.516 74.3532C100.293 74.2774 100.057 74.2498 99.8224 74.2723H96.7784V77.6723Z" fill="#054371"/>
<path d="M104.788 74.233V72.416H113.512V74.233H110.151V83.018H108.151V74.233H104.788Z" fill="#054371"/>
<path d="M122.435 72.416H124.435V83.016H122.814L117.18 75.957V83.016H115.18V72.416H116.801L122.435 79.55V72.416Z" fill="#054371"/>
<path d="M127.103 83.019V72.4189H135.041V74.3579H129.088V76.796H134.827V78.6589H129.088V81.0529H135.041V83.0219L127.103 83.019Z" fill="#054371"/>
<path d="M144.432 83.0183L141.358 79.4743H139.329V83.0183H137.329V72.4043C139.029 72.4043 140.675 72.4203 142.372 72.4203C142.859 72.3781 143.348 72.4376 143.811 72.5952C144.273 72.7528 144.697 73.0049 145.056 73.3355C145.415 73.6661 145.702 74.0679 145.897 74.5154C146.093 74.9628 146.193 75.4461 146.191 75.9343C146.247 76.7254 146.001 77.5083 145.504 78.1262C145.007 78.744 144.295 79.1512 143.51 79.2663L146.721 82.8873V83.0233L144.432 83.0183ZM139.332 77.6723H142.376C142.611 77.696 142.848 77.6692 143.071 77.5938C143.294 77.5184 143.499 77.3961 143.671 77.2351C143.844 77.0741 143.979 76.8781 144.07 76.6603C144.16 76.4426 144.203 76.208 144.195 75.9723C144.202 75.737 144.158 75.5029 144.067 75.2857C143.977 75.0684 143.841 74.8729 143.669 74.7122C143.497 74.5514 143.293 74.4291 143.07 74.3532C142.847 74.2774 142.61 74.2498 142.376 74.2723H139.332V77.6723Z" fill="#054371"/>
<path d="M152.311 73.9002C150.811 73.9002 150.111 74.5522 150.111 75.2002C150.111 76.1242 151.201 76.3662 152.474 76.5332C154.7 76.8212 156.745 77.3662 156.745 79.9112C156.745 82.2742 154.656 83.2892 152.292 83.2892C150.126 83.2892 148.444 82.6222 147.672 80.6832L149.339 79.8202C149.608 80.3697 150.037 80.8248 150.569 81.1251C151.102 81.4255 151.713 81.557 152.322 81.5022C153.579 81.5022 154.76 81.0632 154.76 79.9112C154.76 78.9112 153.716 78.5172 152.307 78.3512C150.142 78.1092 148.143 77.5032 148.143 75.1402C148.143 73.1562 150.293 72.1572 152.243 72.1572C153.91 72.1572 155.592 72.6272 156.409 74.2622L154.817 75.0802C154.523 74.6988 154.143 74.3929 153.707 74.1877C153.271 73.9825 152.793 73.884 152.311 73.9002V73.9002Z" fill="#054371"/>
<path d="M162.536 72.416H164.521V83.016H162.536V72.416Z" fill="#054371"/>
<path d="M174.444 72.416H176.444V83.016H174.823L169.188 75.957V83.016H167.188V72.416H168.809L174.444 79.55V72.416Z" fill="#054371"/>
<path d="M186.729 73.9002C185.229 73.9002 184.529 74.5522 184.529 75.2002C184.529 76.1242 185.619 76.3662 186.893 76.5332C189.118 76.8212 191.164 77.3662 191.164 79.9112C191.164 82.2742 189.075 83.2892 186.711 83.2892C184.544 83.2892 182.862 82.6222 182.091 80.6832L183.758 79.8202C184.027 80.3697 184.456 80.8248 184.988 81.1251C185.521 81.4255 186.132 81.557 186.741 81.5022C187.998 81.5022 189.179 81.0632 189.179 79.9112C189.179 78.9112 188.135 78.5172 186.726 78.3512C184.561 78.1092 182.562 77.5032 182.562 75.1402C182.562 73.1562 184.712 72.1572 186.662 72.1572C188.329 72.1572 190.011 72.6272 190.828 74.2622L189.236 75.0802C188.942 74.6987 188.561 74.3926 188.125 74.1874C187.689 73.9822 187.211 73.8838 186.729 73.9002V73.9002Z" fill="#054371"/>
<path d="M194.818 81.019L193.911 83.019H191.744L196.5 72.4189H198.682L203.438 83.019H201.256L200.363 81.019H194.818ZM195.618 79.1549H199.556L197.586 74.6419L195.618 79.1549Z" fill="#054371"/>
<path d="M204.894 72.3848H212.513V74.3078H206.893V77.2468H212.21V79.0958H206.893V83.0188H204.893L204.894 72.3848Z" fill="#054371"/>
<path d="M214.544 83.019V72.4189H222.482V74.3579H216.527V76.796H222.266V78.6589H216.527V81.0529H222.48V83.0219L214.544 83.019Z" fill="#054371"/>
<path d="M223.77 74.233V72.416H232.494V74.233H229.133V83.018H227.133V74.233H223.77Z" fill="#054371"/>
<path d="M241.873 72.416H244.282V72.507L240.055 78.641V83.018H238.055V78.641L233.98 72.507V72.416H236.359L239.059 76.793L241.873 72.416Z" fill="#054371"/>
<path d="M63.7812 23.879C61.9375 21.6725 59.6282 19.9015 57.0192 18.693C58.5962 14.454 59.2682 10.551 57.9502 8.08198C54.7442 2.06898 40.9322 -0.0740289 32.4202 0.00297107C23.2142 0.0899711 4.58319 4.77597 0.83119 15.667C-3.55681 25.709 10.7882 46.723 12.4482 49.101C16.8482 55.401 25.1482 65.769 32.0662 65.769C32.1832 65.769 32.2992 65.769 32.4152 65.76C32.4702 65.76 32.5262 65.76 32.5812 65.76C37.7232 65.76 44.1942 60.997 51.8252 51.593C57.7982 44.232 63.1952 35.384 64.9502 30.076C65.2743 29.0259 65.3372 27.9126 65.1335 26.8326C64.9298 25.7527 64.4656 24.7388 63.7812 23.879ZM32.6282 59.145H32.5112L32.2922 59.135L32.0752 59.155C30.7382 59.266 25.2992 55.947 17.8752 45.313C9.4182 33.203 5.37519 21.558 6.91319 18.278L7.0612 17.906C9.2412 11.245 23.8072 6.70598 32.4722 6.61898H32.7722C43.0722 6.61898 51.0212 9.49997 52.0782 11.141C52.2782 11.979 51.8352 13.75 50.9362 16.071C50.4502 15.894 49.9732 15.727 49.5112 15.571C43.9112 13.671 37.8912 12.403 34.4482 12.403H34.3212C26.7642 12.473 20.8492 14.087 15.1422 17.634C14.7204 17.8993 14.3647 18.2574 14.1022 18.681C13.7899 18.9881 13.5419 19.3544 13.3726 19.7583C13.2033 20.1623 13.1162 20.596 13.1162 21.034C13.1162 26.745 17.9432 35.199 20.8162 39.734C28.6482 52.065 31.5892 52.065 32.6972 52.065C34.0712 52.065 38.2522 52.065 48.2742 35.104C48.2992 35.062 48.3122 35.016 48.3342 34.974C48.409 34.8893 48.4794 34.8009 48.5452 34.709C50.6343 31.4913 52.5601 28.1704 54.3152 24.759C56.6882 25.976 58.3462 27.172 58.6342 28.098C55.1492 38.475 38.6822 59.145 32.6282 59.145ZM32.9552 44.969C29.5062 41.541 21.1622 29.006 19.8992 22.522C24.3346 20.0982 29.3314 18.8888 34.3842 19.016C37.8202 19.016 43.2842 20.352 48.1722 22.126C46.7052 24.997 44.9232 28.115 42.9892 31.121C42.9472 31.186 42.9222 31.256 42.8892 31.321C42.7788 31.4497 42.6785 31.5868 42.5892 31.731C39.1782 37.492 35.0482 43.124 32.9552 44.971V44.969Z" fill="url(#paint0_linear_407_38)"/>
<path d="M104.055 33.0629C104.055 42.1369 98.6472 49.8359 86.7782 49.8359H72.6172V16.7949H86.7782C98.4642 16.7949 104.055 24.0359 104.055 33.0629ZM86.7782 41.9539C92.6902 41.9539 94.7982 37.5079 94.7982 32.9709C94.7982 28.4339 92.5062 24.5849 86.7782 24.5849H81.8782V41.9539H86.7782Z" fill="#054371"/>
<path d="M144.982 31.0419C144.982 31.0419 144.672 25.9219 149.382 25.9219C154.092 25.9219 153.689 31.2469 153.689 31.2469V49.5289H144.981L144.982 31.0419Z" fill="#054371"/>
<path d="M138.184 45.17C139.382 44.3027 140.365 43.1719 141.056 41.8648C141.748 40.5577 142.131 39.1092 142.174 37.631C142.12 35.3236 141.428 33.0762 140.174 31.138C138.743 28.9781 136.643 27.3471 134.196 26.495C132.655 25.9263 131.027 25.6315 129.384 25.624C122.143 25.624 116.415 30.207 116.415 37.539C116.415 44.104 120.633 48.445 127.261 49.199L127.249 49.23C127.442 49.23 127.626 49.243 127.814 49.25C128.131 49.2767 128.453 49.295 128.78 49.305C133.514 49.661 136.388 51.273 136.388 54.171C136.388 57.345 131.208 58.627 126.454 58.703C122.024 58.77 114.554 57.73 114.554 52.21H105.954C105.93 54.0263 106.344 55.8217 107.161 57.4438C107.978 59.066 109.175 60.467 110.649 61.528C121.263 69.428 144.679 67.613 144.679 53.562C144.677 52.552 143.983 47.721 138.184 45.17ZM124.851 37.538C124.851 34.377 126.776 32.726 129.387 32.726C129.993 32.7503 130.588 32.8943 131.138 33.1498C131.688 33.4053 132.181 33.7672 132.59 34.2147C133 34.6621 133.316 35.1862 133.521 35.7566C133.727 36.327 133.817 36.9325 133.787 37.538C133.787 40.7 131.724 42.267 129.387 42.267C128.771 42.2823 128.158 42.1689 127.588 41.934C127.018 41.6992 126.503 41.3481 126.076 40.9031C125.649 40.4581 125.32 39.9291 125.109 39.3497C124.898 38.7703 124.81 38.1533 124.851 37.538V37.538Z" fill="#054371"/>
<path d="M149.307 23.8839C151.886 23.8839 153.977 21.7931 153.977 19.2139C153.977 16.6348 151.886 14.5439 149.307 14.5439C146.728 14.5439 144.637 16.6348 144.637 19.2139C144.637 21.7931 146.728 23.8839 149.307 23.8839Z" fill="#FFB300"/>
<path d="M105.954 31.0419C105.954 31.0419 105.644 25.9219 110.354 25.9219C115.064 25.9219 114.66 31.2469 114.66 31.2469V49.5289H105.953L105.954 31.0419Z" fill="#054371"/>
<path d="M110.279 23.8839C112.859 23.8839 114.949 21.7931 114.949 19.2139C114.949 16.6348 112.859 14.5439 110.279 14.5439C107.7 14.5439 105.609 16.6348 105.609 19.2139C105.609 21.7931 107.7 23.8839 110.279 23.8839Z" fill="#FFB300"/>
<path d="M202.259 38.1345C202.259 46.6125 195.751 50.2785 189.198 50.2785C182.508 50.2785 176.23 46.6125 176.23 38.1345C176.23 29.4265 182.462 25.8975 189.198 25.8975C196.163 25.8975 202.259 29.6125 202.259 38.1345ZM193.736 38.1345C193.736 35.4765 192.223 33.0015 189.198 33.0015C186.173 33.0015 184.708 35.4765 184.708 38.1345C184.708 40.7925 186.129 43.1755 189.198 43.1755C192.18 43.1745 193.735 40.9295 193.735 38.1345H193.736Z" fill="#054371"/>
<path d="M173.801 40.9612C173.258 41.5496 172.599 42.02 171.867 42.3431C171.134 42.6662 170.342 42.835 169.541 42.8392C168.888 42.8786 168.234 42.7828 167.62 42.558C167.006 42.3331 166.445 41.984 165.972 41.5323C165.498 41.0807 165.124 40.5363 164.87 39.9332C164.617 39.3301 164.491 38.6812 164.5 38.0272C164.5 35.0482 166.242 32.6652 169.587 32.6652C171.155 32.7732 172.662 33.3101 173.945 34.2172C174.4 31.9917 175.396 29.9124 176.845 28.1632C174.55 26.6197 171.854 25.7787 169.088 25.7432C162.488 25.7432 156.027 29.4552 156.027 37.9802C156.027 46.6872 162.443 50.0322 169.227 50.0322C171.933 49.9295 174.559 49.0945 176.827 47.6162C175.228 45.7167 174.182 43.4147 173.801 40.9612V40.9612Z" fill="#054371"/>
<path d="M218.928 33.2891C219.634 30.8597 221.008 28.677 222.892 26.9891C221.465 26.1718 219.853 25.7291 218.208 25.7021C217.072 25.6486 215.944 25.9117 214.948 26.4621C213.953 27.0124 213.13 27.8285 212.571 28.8191L212.071 26.2521H204.28V49.5791H212.941V37.4301C212.937 33.2811 217.255 33.1741 218.928 33.2891Z" fill="#054371"/>
<path d="M246.43 36.8343C246.421 38.022 246.283 39.2053 246.018 40.3633H229.702C230.344 42.4263 233.002 43.3423 234.927 43.3423C237.07 43.4182 239.173 42.7551 240.884 41.4643L245.146 46.2293C242.228 48.8309 238.421 50.2095 234.514 50.0793C227.182 50.0793 220.948 46.4583 220.948 37.9793C220.948 29.4553 227.594 25.6973 233.918 25.6973C241.068 25.6983 246.43 29.7313 246.43 36.8343ZM234.102 31.9773C232.085 31.9773 230.023 32.8943 229.747 34.8183H238.226C238.135 32.9393 236.118 31.9773 234.102 31.9773Z" fill="#054371"/>
</g>
<defs>
<linearGradient id="paint0_linear_407_38" x1="32.6255" y1="0.000976562" x2="32.6255" y2="65.769" gradientUnits="userSpaceOnUse">
<stop offset="0.007" stop-color="#FFD400"/>
<stop offset="0.027" stop-color="#FECF00"/>
<stop offset="0.194" stop-color="#FBAC05"/>
<stop offset="0.351" stop-color="#F89208"/>
<stop offset="0.493" stop-color="#F7830A"/>
<stop offset="0.607" stop-color="#F77E0B"/>
<stop offset="0.762" stop-color="#F15F13"/>
<stop offset="0.907" stop-color="#ED4918"/>
<stop offset="1" stop-color="#EC411B"/>
</linearGradient>
<clipPath id="clip0_407_38">
<rect width="246.43" height="83.292" fill="white"/>
</clipPath>
</defs>
</svg>
