<svg width="1800" height="519" viewBox="0 0 1800 519" fill="none" xmlns="http://www.w3.org/2000/svg">
<path d="M1744 9.50023C1744 10.6002 1745.2 11.0002 1749 11.0002H1753.9L1754.2 24.2002C1754.5 35.9002 1754.7 37.5002 1756.3 37.8002C1757.8 38.1002 1758 37.0002 1758 24.6002V11.0002H1763C1766.8 11.0002 1768 10.6002 1768 9.50023C1768 8.20023 1766 8.00023 1756 8.00023C1746 8.00023 1744 8.20023 1744 9.50023Z" fill="white"/>
<path d="M1770.4 9.3C1770.2 10 1770.1 16.6 1770.2 24C1770.5 35.9 1770.7 37.5 1772.3 37.8C1773.8 38.1 1774 37.1 1774.1 28.3L1774.2 18.5L1778.8 28.2C1781.3 33.6 1783.9 38 1784.5 38C1785.1 38 1787.7 33.6 1790.2 28.2L1794.8 18.5L1794.9 28.3C1795 37.1 1795.2 38.1 1796.8 37.8C1798.3 37.5 1798.5 36 1798.5 23C1798.5 10.6 1798.3 8.5 1796.9 8.2C1795.7 8 1793.9 11.1 1790 20C1787.1 26.6 1784.6 32 1784.5 32C1784.4 32 1781.9 26.6 1779 20C1774 8.9 1771.7 6 1770.4 9.3Z" fill="white"/>
<path d="M102.201 36.1002C63.4012 39.6002 30.7012 62.4002 19.2012 94.2002C16.8012 100.7 16.5012 103 16.5012 114.5C16.5012 127.4 16.5012 127.6 20.1012 135.1C26.9012 149.2 42.3012 162.6 65.0012 174C74.3012 178.6 94.1012 186.7 129.001 200C170.801 215.9 189.701 227.6 196.701 241.8C200.301 249.1 200.501 259.5 197.201 268C188.701 289.6 160.101 307.8 128.001 312C97.3012 315.9 62.8012 306.2 44.5012 288.3C33.7012 277.7 29.1012 268.4 28.2012 255.2C27.8012 247.9 27.4012 246.7 25.2012 245C21.6012 242.1 13.2012 242.3 9.50121 245.2C6.80121 247.3 6.80121 247.4 7.20121 256.9C8.10121 274.5 14.1012 286.9 28.5012 301.6C47.8012 321.2 75.1012 332.3 107.501 333.7C143.801 335.4 177.801 323.2 200.001 300.7C214.001 286.5 221.001 270.9 221.001 253.6C221.001 230.4 205.101 211.5 171.501 194.7C158.001 188 148.801 184.1 120.501 173.5C74.4012 156.1 59.8012 148.7 47.9012 137C39.5012 128.7 37.0012 123.6 37.0012 114.6C37.1012 89.1002 60.9012 65.6002 93.4012 58.9002C105.501 56.4002 122.501 56.4002 134.601 58.9002C168.001 65.8002 191.001 89.3002 191.001 116.5C191.001 124.2 193.001 126 201.301 126C205.501 126 208.301 125.5 209.901 124.3C212.201 122.7 212.301 122.4 211.701 112.1C211.401 105.2 210.401 99.2002 209.001 95.0002C198.201 62.5002 165.301 39.7002 124.001 36.0002C117.701 35.5002 112.301 35.1002 112.001 35.1002C111.701 35.2002 107.301 35.6002 102.201 36.1002Z" fill="white"/>
<path d="M279.5 35.8C275.5 37.2 273.9 38.7 272.5 42.6C271.3 45.9 271.1 68.7 271.1 184C271.1 264.6 271.4 323.2 272 325.5C272.5 327.7 274.1 330.5 275.5 331.8L278.1 334H379.8C435.7 334 482 333.6 482.6 333.2C486.5 330.6 487.4 318.4 484 315C482 313 480.7 313 387.5 313H293V254V195H361.8C441.3 195 434 196 434 184.7C434 173 441.1 174 361.5 174H293V115.5V57H387H481.1L483.5 54.5C485.6 52.5 486 51.1 486 46.2C486 41.8 485.5 39.6 484.1 37.9L482.2 35.5L381.8 35.3C326.7 35.3 280.6 35.5 279.5 35.8Z" fill="white"/>
<path d="M748.8 37.0004L746 39.1004L745.8 164.8L745.5 290.4L741.9 285.5C721.2 257 622.3 120.4 596.7 85.0004C578.6 60.0004 562.9 38.7004 561.8 37.7004C560.5 36.6004 558.1 36.0004 555.3 36.0004C551.7 36.0004 550.3 36.6004 547.9 38.9004L545 41.8004V186.3C545 324.9 545.1 330.8 546.8 332.3C549.2 334.5 560.7 334.7 563.6 332.6C565.5 331.2 565.5 328.4 566 205.4L566.5 79.6004L600.1 126.1C618.6 151.6 659.5 208 690.9 251.5C722.3 294.9 749.3 331.3 750.8 332.2C752.3 333.2 754.6 334 756 334C759.5 334 764.9 330.5 766 327.4C766.6 325.8 767 272.4 767 182.1C767 62.4004 766.8 39.1004 765.6 37.5004C764.6 36.1004 762.6 35.5004 757.9 35.2004C752.5 34.9004 751.1 35.1004 748.8 37.0004Z" fill="white"/>
<path d="M913.2 36.1002C872 39.7002 837.5 65.5002 828.9 98.8002C823.4 120.2 828.3 137.3 844.1 152.6C859.5 167.5 875.3 175.4 933.3 197.5C972.4 212.3 988.3 220.4 999.2 231.1C1011.9 243.6 1014 255.4 1006.3 271.8C1002.2 280.7 987.9 294.3 976.5 300.1C958.5 309.4 945 312.5 923.5 312.4C900.6 312.3 882.4 307.3 866.4 296.8C848.6 285.2 839 270 839 253.2C839 245.9 836.2 243 829.1 243C822.8 243 819.1 244.6 818.3 247.8C817.3 252.1 818.8 267.3 820.9 273.4C826.5 289.2 840.5 305.8 857 315.8C885.5 333.3 925.7 338.6 959.7 329.5C1001.7 318.3 1031.9 286.9 1032 254.3C1032.1 230.7 1016 211.5 982 194.5C970.2 188.6 956 182.8 926 171.4C887.8 157 871.2 148.7 859.9 138.2C848.5 127.6 845.7 118.3 849.5 103.5C855.2 81.8002 877.8 63.9002 906.5 58.5002C918.3 56.3002 939.3 56.9002 949.5 59.7002C965.6 64.3002 976.5 70.3002 986.5 80.5002C996.3 90.4002 1002 103.5 1002 116.2C1002 124.3 1003.8 126 1012.5 126C1017.8 126 1019.4 125.6 1021.1 123.9C1023.1 121.9 1023.2 121 1022.7 112.1C1021.1 81.9002 1000.6 56.5002 967 43.1002C952.3 37.3002 931.2 34.5002 913.2 36.1002Z" fill="white"/>
<path d="M1089.6 37.3004L1087 39.9004V185C1087 328.7 1087 330 1089 332C1090.6 333.6 1092.3 334 1097.8 334C1109.2 334 1108 351.5 1108 184.9C1108 62.8004 1107.8 39.1004 1106.6 37.5004C1105.6 36.1004 1103.6 35.5004 1098.7 35.2004C1092.7 34.8004 1091.9 35.0004 1089.6 37.3004Z" fill="white"/>
<path d="M1181.6 37.5004C1180.8 38.4004 1179.8 40.5004 1179.5 42.3004C1179.2 44.1004 1179.1 91.4004 1179.2 147.5C1179.6 249 1179.6 249.5 1181.8 257.8C1186.4 275.2 1195 289.8 1208.2 302.6C1218.1 312.2 1226.1 317.7 1238.4 323.6C1267.8 337.5 1305.2 337.5 1334.6 323.6C1346.9 317.7 1354.9 312.2 1364.8 302.6C1378 289.8 1386.6 275.2 1391.2 257.8C1393.4 249.5 1393.4 249 1393.7 144.6C1394.1 23.8004 1395.3 36.0004 1383.6 36.0004C1379.7 36.0004 1376 36.4004 1375.3 36.8004C1372.1 38.8004 1372 43.5004 1372 144.8C1372 253.9 1372.2 249.8 1367 263C1361.7 276.4 1347.6 292.1 1333.5 300.3C1317 310 1295.3 314.5 1276 312.2C1255.6 309.8 1238.4 302 1224.3 288.6C1212.4 277.3 1205.4 265.3 1201.9 250.1C1201.4 247.7 1200.9 238.7 1200.9 230.1C1200.9 221.5 1200.9 175.2 1201 127.1C1201 46.7004 1200.9 39.6004 1199.4 37.9004C1197.1 35.4004 1184 35.2004 1181.6 37.5004Z" fill="white"/>
<path d="M1463.9 38.9003L1461 41.8003V185.9C1461 328.7 1461 330 1463 332C1464.6 333.6 1466.3 334 1471.3 334C1482.7 334 1481.4 348.3 1482 213.6L1482.5 96.1003L1535.8 213.5C1587.7 327.6 1589.2 330.9 1592.7 332.5C1597 334.6 1601.9 333.9 1604.7 330.7C1605.8 329.5 1628.9 279.4 1656 219.5C1683.1 159.5 1706.7 107.3 1708.5 103.5L1711.8 96.5003L1711.9 136.5C1712.3 326.1 1712.4 329.7 1714.4 331.9C1717.1 334.9 1729 335 1732 332C1734 330 1734 328.5 1734 198.9C1734 126.8 1733.7 61.9003 1733.3 54.6003C1732.7 42.1003 1732.6 41.4003 1729.9 38.8003C1727.7 36.6003 1726.2 36.0003 1722.8 36.0003C1720.3 36.0003 1717.6 36.8003 1716.3 37.8003C1714.9 38.9003 1702.4 65.5003 1682.7 109C1665.4 147.2 1639.2 205.2 1624.5 237.8C1609.7 270.4 1597.3 296.7 1596.9 296.3C1596.5 295.9 1570.9 239.7 1540 171.5C1509.1 103.3 1482.7 45.4003 1481.4 42.8003C1478.6 37.3003 1476.6 36.0003 1471 36.0003C1467.7 36.0003 1466.2 36.6003 1463.9 38.9003Z" fill="white"/>
<path d="M881.999 373.1C873.899 374.4 864.699 379.4 857.199 386.5C849.499 393.8 844.899 400.8 841.199 411.2C838.899 417.7 838.599 420 838.599 432.5C838.499 445.3 838.699 447.2 841.299 454.7C848.199 474.8 863.999 489.7 881.899 493C885.399 493.7 1025.1 494 1287.9 493.9C1663.2 493.9 1688.9 493.8 1695.1 492.2C1712.2 487.7 1726.2 473.3 1732.7 453.5C1736.4 442.3 1736.6 425 1733.1 414C1729.6 402.6 1725.3 395.3 1717.5 387.5C1709.3 379.3 1700.8 374.7 1691 373.1C1682.8 371.7 890.199 371.8 881.999 373.1ZM1257.3 407.8C1259.9 409 1262 410.1 1262 410.3C1262 410.6 1261.1 412.8 1260 415.3L1258 419.9L1253.7 418C1250.9 416.7 1247.2 416 1242.7 416C1236.9 416 1235.6 416.3 1233.5 418.4C1230.5 421.5 1231.2 424.7 1235.4 426.6C1237.1 427.3 1242.1 428.9 1246.6 430C1255.8 432.4 1260.1 434.7 1262.6 438.6C1264.9 442 1264.9 449.5 1262.6 453.8C1259.1 460.6 1248.1 464.8 1236.5 463.7C1230.2 463.1 1219.5 459.7 1218.4 457.9C1217.9 457.1 1220.6 448 1221.3 448C1221.4 448 1224.2 449.1 1227.5 450.5C1238.4 455 1251 453.5 1251 447.6C1251 444.1 1248.2 442.3 1239 439.9C1224.6 436.2 1219.8 432.7 1218.5 425.1C1217.1 416.6 1223.3 408.6 1233.5 405.9C1238.8 404.5 1252.2 405.6 1257.3 407.8ZM1360.3 408.4C1370.7 413.4 1376.4 422.7 1376.4 434.5C1376.4 440.2 1375.9 442.6 1373.7 447.3C1365.4 464.1 1341.8 469.1 1325.8 457.5C1310.9 446.6 1310.7 422.7 1325.5 411.4C1334.7 404.4 1349.5 403.1 1360.3 408.4ZM1133 426C1137.7 436.9 1141.8 445.6 1142.1 445.2C1142.5 444.8 1146.5 435.8 1151 425.2L1159.2 406H1165.7C1171.5 406 1172.1 406.2 1171.5 407.7C1171.2 408.7 1165.7 421.6 1159.3 436.3L1147.7 463.1L1141.2 462.8L1134.6 462.5L1122.4 434.2L1110.3 406H1117.4H1124.6L1133 426ZM1199 434.5V463H1192.5H1186V434.5V406H1192.5H1199V434.5ZM1296 434.5V463.1L1289.3 462.8L1282.5 462.5L1282.2 434.2L1282 406H1289H1296V434.5ZM1420.5 423.2L1434.5 440.3L1434.8 423.2L1435 406H1441.5H1448V434.5V463H1442.5H1437L1425.7 449.3C1419.6 441.7 1413.2 434.1 1411.5 432.2L1408.5 428.9V445.7V462.5H1402H1395.5L1395.2 434.2L1395 406H1400.8H1406.6L1420.5 423.2Z" fill="white"/>
<path d="M1339.6 417C1333 419 1328 426.5 1328 434.5C1328 440.4 1329.9 444.9 1333.9 448.3C1344.6 457.3 1361.2 451.2 1362.7 437.7C1363.5 430.8 1362.3 426.3 1358.3 422C1353.5 416.6 1346.9 414.9 1339.6 417Z" fill="white"/>
<path d="M47.0004 380.6C26.2004 385.1 9.30037 401.7 5.10037 421.8C3.60037 429.1 3.80037 440.3 5.50037 447.8C9.10037 462.9 20.1004 476.7 34.0004 483.2C43.4004 487.7 49.6004 489 61.3004 489C76.3004 489 88.6004 484.8 97.5004 476.7L102.1 472.5L97.2004 467.7L92.3004 462.8L87.4004 466.6C78.4004 473.4 75.0004 474.5 61.5004 474.5C50.1004 474.5 49.2004 474.3 42.7004 471.3C11.3004 456.4 11.9004 411.8 43.8004 396.7C50.1004 393.7 51.2004 393.5 61.5004 393.5C73.8004 393.5 77.9004 394.8 87.2004 401.6L92.1004 405.3L97.1004 400.4L102.1 395.5L97.9004 391.7C86.1004 381.1 65.4004 376.6 47.0004 380.6Z" fill="white"/>
<path d="M156.001 380.6C136.001 384.9 119.501 400.3 114.501 419.5C112.601 427 112.601 440.9 114.501 448.4C119.501 467.6 134.601 482.4 154.501 487.5C161.401 489.3 176.601 489.5 184.201 487.9C203.701 483.9 220.401 467.9 225.501 448.4C227.501 440.8 227.401 427.4 225.401 419.6C218.001 390.8 187.701 373.7 156.001 380.6ZM181.501 394.6C208.201 401.5 220.201 433.4 205.001 456.8C200.701 463.6 195.601 468 188.001 471.8C182.901 474.3 181.601 474.5 170.001 474.5C158.201 474.5 157.201 474.3 151.501 471.6C131.001 461.5 122.601 436.6 132.601 415.3C140.701 398.2 161.601 389.4 181.501 394.6Z" fill="white"/>
<path d="M637 380.6C616.7 384.9 600.1 400.7 595.5 420.1C590.8 440.1 596.6 460.9 610.5 473.8C617.6 480.5 628.1 486.1 636.8 487.9C644.4 489.5 659.6 489.3 666.4 487.5C674.5 485.4 682.6 481.2 687.7 476.5L692.1 472.5L687.2 467.7L682.3 462.8L677.4 466.6C668.4 473.4 665 474.5 651.5 474.5C640.1 474.5 639.2 474.3 632.7 471.3C601.3 456.4 601.9 411.8 633.8 396.7C640.1 393.7 641.2 393.5 651.5 393.5C663.8 393.5 667.9 394.8 677.2 401.6L682.2 405.3L687.2 400.3L692.2 395.2L686.9 391C673.7 380.5 655.1 376.6 637 380.6Z" fill="white"/>
<path d="M250.9 380.4C250.7 380.6 250.6 404.9 250.8 434.4L251 488H258.5H266L266.2 448.3L266.5 408.5L298.4 448.3L330.2 488H336.6H343V434V380H335.5H328L327.8 420L327.5 460.1L300 425.8C284.9 407 270.3 388.9 267.7 385.8L262.9 380H257.1C253.9 380 251.1 380.2 250.9 380.4Z" fill="white"/>
<path d="M375.7 380.6C375.3 381 375 405.3 375 434.7V488H383H391L391.2 448.4L391.5 408.9L423.1 448.2L454.6 487.5L461.3 487.8L468 488.1V434V379.9L460.5 380.2L452.9 380.5L453 419.8C453 445.9 452.7 459.1 452 458.8C451.5 458.7 436.9 440.9 419.7 419.5L388.4 380.5L382.4 380.2C379.1 380 376.1 380.2 375.7 380.6Z" fill="white"/>
<path d="M500 434V488H538.9H577.8L578.2 481.5L578.5 475H547.3H516V457.5V440H543H570V433.5V427H543H516V410.5V394H546H576V387V380H538H500V434Z" fill="white"/>
<path d="M708 387V394H726.5H745V441V488H752.5H760V441V394H778.5H797V387V380H752.5H708V387Z" fill="white"/>
</svg>
