<?xml version="1.0" standalone="no"?>
<!DOCTYPE svg PUBLIC "-//W3C//DTD SVG 20010904//EN"
 "http://www.w3.org/TR/2001/REC-SVG-20010904/DTD/svg10.dtd">
<svg version="1.0" xmlns="http://www.w3.org/2000/svg"
 width="1800.000000pt" height="519.000000pt" viewBox="0 0 1800.000000 519.000000"
 preserveAspectRatio="xMidYMid meet">

<g transform="translate(0.000000,519.000000) scale(0.100000,-0.100000)"
fill="#000000" stroke="none">
<path d="M17440 5095 c0 -11 12 -15 50 -15 l49 0 3 -132 c3 -117 5 -133 21
-136 15 -3 17 8 17 132 l0 136 50 0 c38 0 50 4 50 15 0 13 -20 15 -120 15
-100 0 -120 -2 -120 -15z"/>
<path d="M17704 5097 c-2 -7 -3 -73 -2 -147 3 -119 5 -135 21 -138 15 -3 17 7
18 95 l1 98 46 -97 c25 -54 51 -98 57 -98 6 0 32 44 57 98 l46 97 1 -98 c1
-88 3 -98 19 -95 15 3 17 18 17 148 0 124 -2 145 -16 148 -12 2 -30 -29 -69
-118 -29 -66 -54 -120 -55 -120 -1 0 -26 54 -55 120 -50 111 -73 140 -86 107z"/>
<path d="M1022 4829 c-388 -35 -715 -263 -830 -581 -24 -65 -27 -88 -27 -203
0 -129 0 -131 36 -206 68 -141 222 -275 449 -389 93 -46 291 -127 640 -260
418 -159 607 -276 677 -418 36 -73 38 -177 5 -262 -85 -216 -371 -398 -692
-440 -307 -39 -652 58 -835 237 -108 106 -154 199 -163 331 -4 73 -8 85 -30
102 -36 29 -120 27 -157 -2 -27 -21 -27 -22 -23 -117 9 -176 69 -300 213 -447
193 -196 466 -307 790 -321 363 -17 703 105 925 330 140 142 210 298 210 471
0 232 -159 421 -495 589 -135 67 -227 106 -510 212 -461 174 -607 248 -726
365 -84 83 -109 134 -109 224 1 255 239 490 564 557 121 25 291 25 412 0 334
-69 564 -304 564 -576 0 -77 20 -95 103 -95 42 0 70 5 86 17 23 16 24 19 18
122 -3 69 -13 129 -27 171 -108 325 -437 553 -850 590 -63 5 -117 9 -120 9 -3
-1 -47 -5 -98 -10z"/>
<path d="M2795 4832 c-40 -14 -56 -29 -70 -68 -12 -33 -14 -261 -14 -1414 0
-806 3 -1392 9 -1415 5 -22 21 -50 35 -63 l26 -22 1017 0 c559 0 1022 4 1028
8 39 26 48 148 14 182 -20 20 -33 20 -965 20 l-945 0 0 590 0 590 688 0 c795
0 722 -10 722 103 0 117 71 107 -725 107 l-685 0 0 585 0 585 940 0 941 0 24
25 c21 20 25 34 25 83 0 44 -5 66 -19 83 l-19 24 -1004 2 c-551 0 -1012 -2
-1023 -5z"/>
<path d="M7488 4820 l-28 -21 -2 -1257 -3 -1256 -36 49 c-207 285 -1196 1651
-1452 2005 -181 250 -338 463 -349 473 -13 11 -37 17 -65 17 -36 0 -50 -6 -74
-29 l-29 -29 0 -1445 c0 -1386 1 -1445 18 -1460 24 -22 139 -24 168 -3 19 14
19 42 24 1272 l5 1258 336 -465 c185 -255 594 -819 908 -1254 314 -434 584
-798 599 -807 15 -10 38 -18 52 -18 35 0 89 35 100 66 6 16 10 550 10 1453 0
1197 -2 1430 -14 1446 -10 14 -30 20 -77 23 -54 3 -68 1 -91 -18z"/>
<path d="M9132 4829 c-412 -36 -757 -294 -843 -627 -55 -214 -6 -385 152 -538
154 -149 312 -228 892 -449 391 -148 550 -229 659 -336 127 -125 148 -243 71
-407 -41 -89 -184 -225 -298 -283 -180 -93 -315 -124 -530 -123 -229 1 -411
51 -571 156 -178 116 -274 268 -274 436 0 73 -28 102 -99 102 -63 0 -100 -16
-108 -48 -10 -43 5 -195 26 -256 56 -158 196 -324 361 -424 285 -175 687 -228
1027 -137 420 112 722 426 723 752 1 236 -160 428 -500 598 -118 59 -260 117
-560 231 -382 144 -548 227 -661 332 -114 106 -142 199 -104 347 57 217 283
396 570 450 118 22 328 16 430 -12 161 -46 270 -106 370 -208 98 -99 155 -230
155 -357 0 -81 18 -98 105 -98 53 0 69 4 86 21 20 20 21 29 16 118 -16 302
-221 556 -557 690 -147 58 -358 86 -538 70z"/>
<path d="M10896 4817 l-26 -26 0 -1451 c0 -1437 0 -1450 20 -1470 16 -16 33
-20 88 -20 114 0 102 -175 102 1491 0 1221 -2 1458 -14 1474 -10 14 -30 20
-79 23 -60 4 -68 2 -91 -21z"/>
<path d="M11816 4815 c-8 -9 -18 -30 -21 -48 -3 -18 -4 -491 -3 -1052 4 -1015
4 -1020 26 -1103 46 -174 132 -320 264 -448 99 -96 179 -151 302 -210 294
-139 668 -139 962 0 123 59 203 114 302 210 132 128 218 274 264 448 22 83 22
88 25 1132 4 1208 16 1086 -101 1086 -39 0 -76 -4 -83 -8 -32 -20 -33 -67 -33
-1080 0 -1091 2 -1050 -50 -1182 -53 -134 -194 -291 -335 -373 -165 -97 -382
-142 -575 -119 -204 24 -376 102 -517 236 -119 113 -189 233 -224 385 -5 24
-10 114 -10 200 0 86 0 549 1 1030 0 804 -1 875 -16 892 -23 25 -154 27 -178
4z"/>
<path d="M14639 4801 l-29 -29 0 -1441 c0 -1428 0 -1441 20 -1461 16 -16 33
-20 83 -20 114 0 101 -143 107 1204 l5 1175 533 -1174 c519 -1141 534 -1174
569 -1190 43 -21 92 -14 120 18 11 12 242 513 513 1112 271 600 507 1122 525
1160 l33 70 1 -400 c4 -1896 5 -1932 25 -1954 27 -30 146 -31 176 -1 20 20 20
35 20 1331 0 721 -3 1370 -7 1443 -6 125 -7 132 -34 158 -22 22 -37 28 -71 28
-25 0 -52 -8 -65 -18 -14 -11 -139 -277 -336 -712 -173 -382 -435 -962 -582
-1288 -148 -326 -272 -589 -276 -585 -4 4 -260 566 -569 1248 -309 682 -573
1261 -586 1287 -28 55 -48 68 -104 68 -33 0 -48 -6 -71 -29z"/>
<path d="M8820 1459 c-81 -13 -173 -63 -248 -134 -77 -73 -123 -143 -160 -247
-23 -65 -26 -88 -26 -213 -1 -128 1 -147 27 -222 69 -201 227 -350 406 -383
35 -7 1432 -10 4060 -9 3753 0 4010 1 4072 17 171 45 311 189 376 387 37 112
39 285 4 395 -35 114 -78 187 -156 265 -82 82 -167 128 -265 144 -82 14 -8008
13 -8090 0z m3753 -347 c26 -12 47 -23 47 -25 0 -3 -9 -25 -20 -50 l-20 -46
-43 19 c-28 13 -65 20 -110 20 -58 0 -71 -3 -92 -24 -30 -31 -23 -63 19 -82
17 -7 67 -23 112 -34 92 -24 135 -47 160 -86 23 -34 23 -109 0 -152 -35 -68
-145 -110 -261 -99 -63 6 -170 40 -181 58 -5 8 22 99 29 99 1 0 29 -11 62 -25
109 -45 235 -30 235 29 0 35 -28 53 -120 77 -144 37 -192 72 -205 148 -14 85
48 165 150 192 53 14 187 3 238 -19z m1030 -6 c104 -50 161 -143 161 -261 0
-57 -5 -81 -27 -128 -83 -168 -319 -218 -479 -102 -149 109 -151 348 -3 461
92 70 240 83 348 30z m-2273 -176 c47 -109 88 -196 91 -192 4 4 44 94 89 200
l82 192 65 0 c58 0 64 -2 58 -17 -3 -10 -58 -139 -122 -286 l-116 -268 -65 3
-66 3 -122 283 -121 282 71 0 72 0 84 -200z m660 -85 l0 -285 -65 0 -65 0 0
285 0 285 65 0 65 0 0 -285z m970 0 l0 -286 -67 3 -68 3 -3 283 -2 282 70 0
70 0 0 -285z m1245 113 l140 -171 3 171 2 172 65 0 65 0 0 -285 0 -285 -55 0
-55 0 -113 137 c-61 76 -125 152 -142 171 l-30 33 0 -168 0 -168 -65 0 -65 0
-3 283 -2 282 58 0 58 0 139 -172z"/>
<path d="M13396 1020 c-66 -20 -116 -95 -116 -175 0 -59 19 -104 59 -138 107
-90 273 -29 288 106 8 69 -4 114 -44 157 -48 54 -114 71 -187 50z"/>
<path d="M470 1384 c-208 -45 -377 -211 -419 -412 -15 -73 -13 -185 4 -260 36
-151 146 -289 285 -354 94 -45 156 -58 273 -58 150 0 273 42 362 123 l46 42
-49 48 -49 49 -49 -38 c-90 -68 -124 -79 -259 -79 -114 0 -123 2 -188 32 -314
149 -308 595 11 746 63 30 74 32 177 32 123 0 164 -13 257 -81 l49 -37 50 49
50 49 -42 38 c-118 106 -325 151 -509 111z"/>
<path d="M1560 1384 c-200 -43 -365 -197 -415 -389 -19 -75 -19 -214 0 -289
50 -192 201 -340 400 -391 69 -18 221 -20 297 -4 195 40 362 200 413 395 20
76 19 210 -1 288 -74 288 -377 459 -694 390z m255 -140 c267 -69 387 -388 235
-622 -43 -68 -94 -112 -170 -150 -51 -25 -64 -27 -180 -27 -118 0 -128 2 -185
29 -205 101 -289 350 -189 563 81 171 290 259 489 207z"/>
<path d="M6370 1384 c-203 -43 -369 -201 -415 -395 -47 -200 11 -408 150 -537
71 -67 176 -123 263 -141 76 -16 228 -14 296 4 81 21 162 63 213 110 l44 40
-49 48 -49 49 -49 -38 c-90 -68 -124 -79 -259 -79 -114 0 -123 2 -188 32 -314
149 -308 595 11 746 63 30 74 32 177 32 123 0 164 -13 257 -81 l50 -37 50 50
50 51 -53 42 c-132 105 -318 144 -499 104z"/>
<path d="M2509 1386 c-2 -2 -3 -245 -1 -540 l2 -536 75 0 75 0 2 397 3 398
319 -398 318 -397 64 0 64 0 0 540 0 540 -75 0 -75 0 -2 -400 -3 -401 -275
343 c-151 188 -297 369 -323 400 l-48 58 -58 0 c-32 0 -60 -2 -62 -4z"/>
<path d="M3757 1384 c-4 -4 -7 -247 -7 -541 l0 -533 80 0 80 0 2 396 3 395
316 -393 315 -393 67 -3 67 -3 0 541 0 541 -75 -3 -76 -3 1 -393 c0 -261 -3
-393 -10 -390 -5 1 -151 179 -323 393 l-313 390 -60 3 c-33 2 -63 0 -67 -4z"/>
<path d="M5000 850 l0 -540 389 0 389 0 4 65 3 65 -312 0 -313 0 0 175 0 175
270 0 270 0 0 65 0 65 -270 0 -270 0 0 165 0 165 300 0 300 0 0 70 0 70 -380
0 -380 0 0 -540z"/>
<path d="M7080 1320 l0 -70 185 0 185 0 0 -470 0 -470 75 0 75 0 0 470 0 470
185 0 185 0 0 70 0 70 -445 0 -445 0 0 -70z"/>
</g>
</svg>
