<svg width="331" height="36" viewBox="0 0 331 36" fill="none" xmlns="http://www.w3.org/2000/svg">
<path d="M185.421 20.4686L185.24 20.1702L185.06 19.8718L184.88 19.5735L184.699 19.2751L184.519 18.9768L184.338 18.6784L184.158 18.3801L183.977 18.0817L183.797 17.7834L183.616 17.485L183.436 17.1866L183.255 16.8883L183.075 16.5899L182.895 16.2916L182.714 15.9932L182.534 15.6949L182.353 15.3965L182.173 15.0982L181.992 14.7998L181.812 14.5014L181.631 14.2031L181.451 13.9047L181.27 13.6064L181.09 13.308L180.91 13.0097L180.729 12.7113L180.549 12.413L180.368 12.1146L180.188 11.8162L180.007 11.5179L179.827 11.2195L179.646 10.9212L179.466 10.6228L179.285 10.3245L179.105 10.0261L178.924 9.72775L178.744 9.42939L178.564 9.13104L178.383 8.83268L178.203 8.53433L178.022 8.23597L177.842 7.93761L177.661 7.63926L177.481 7.3409L177.3 7.04255L177.12 6.74419L176.939 6.44584L176.759 6.14748L176.579 5.84912L176.398 5.55077L176.218 5.25241L176.037 4.95406L175.857 4.6557L175.676 4.35735L175.496 4.05899L175.315 3.76063L175.135 3.46228L174.954 3.16392L173.937 1.4965L172.916 3.16392L172.734 3.46228L172.551 3.76063L172.368 4.05899L172.185 4.35735L172.002 4.6557L171.819 4.95406L171.636 5.25241L171.454 5.55077L171.271 5.84912L171.088 6.14748L170.905 6.44584L170.722 6.74419L170.539 7.04255L170.356 7.3409L170.173 7.63926L169.991 7.93761L169.808 8.23597L169.625 8.53433L169.442 8.83268L169.259 9.13104L169.076 9.42939L168.893 9.72775L168.711 10.0261L168.528 10.3245L168.345 10.6228L168.162 10.9212L167.979 11.2195L167.796 11.5179L167.613 11.8162L167.431 12.1146L167.248 12.413L167.065 12.7113L166.882 13.0097L166.699 13.308L166.516 13.6064L166.333 13.9047L166.15 14.2031L165.968 14.5014L165.785 14.7998L165.602 15.0982L165.419 15.3965L165.236 15.6949L165.053 15.9932L164.87 16.2916L164.688 16.5899L164.505 16.8883L164.322 17.1866L164.139 17.485L163.956 17.7834L163.773 18.0817L163.59 18.3801L163.408 18.6784L163.225 18.9768L163.042 19.2751L162.142 20.6947L165.956 20.702L166.119 20.4637L166.302 20.1654L166.485 19.867L166.668 19.5687L166.851 19.2703L167.034 18.972L167.216 18.6736L167.399 18.3753L167.582 18.0769L167.765 17.7785L167.986 17.4441L179.774 17.4513L179.988 17.7352L180.185 18.0745L180.366 18.3729L180.546 18.6712L180.727 18.9696L180.907 19.2679L181.088 19.5663L181.268 19.8646L181.448 20.163L181.629 20.4613L181.773 20.6923L185.58 20.6995L185.431 20.4613L185.421 20.4686ZM170.012 14.2055L170.294 13.7604L170.477 13.4692L170.66 13.1781L170.842 12.887L171.025 12.5958L171.208 12.3047L171.391 12.0135L171.574 11.7224L171.757 11.4313L171.94 11.1401L172.122 10.849L172.305 10.5579L172.488 10.2667L172.671 9.97558L172.854 9.68444L173.037 9.3933L173.22 9.10217L173.402 8.81103L173.585 8.51989L173.768 8.22875L173.889 8.03386L174.009 8.22875L174.189 8.51989L174.37 8.81103L174.55 9.10217L174.731 9.3933L174.911 9.68444L175.092 9.97558L175.272 10.2667L175.452 10.5579L175.633 10.849L175.813 11.1401L175.994 11.4313L176.174 11.7224L176.355 12.0135L176.535 12.3047L176.716 12.5958L176.896 12.887L177.077 13.1781L177.257 13.4692L177.438 13.7604L177.702 14.2151L170.005 14.2031L170.012 14.2055ZM157.575 6.80434C157.568 6.70569 157.561 6.60945 157.549 6.51321C157.537 6.41456 157.522 6.31831 157.508 6.22207C157.491 6.12342 157.472 6.02717 157.45 5.93093C157.428 5.83228 157.402 5.73604 157.375 5.63979C157.347 5.54114 157.318 5.4449 157.284 5.34866C157.25 5.25001 157.214 5.15376 157.173 5.05752C157.132 4.95887 157.089 4.86022 157.043 4.76638C156.995 4.66773 156.945 4.56908 156.892 4.47524C156.837 4.37659 156.779 4.27794 156.716 4.18411C156.654 4.08546 156.586 3.98681 156.516 3.89297C156.444 3.79432 156.367 3.69567 156.288 3.60183C155.263 2.37713 153.718 1.59755 151.995 1.59755H138.1V20.7116H141.344L141.334 20.5143V12.9279L141.341 12.8388L148.892 12.8316L153.653 20.7092L157.65 20.702L152.866 12.8076C152.866 12.8076 153.728 12.4707 154.05 12.3432C154.264 12.259 154.474 12.1603 154.673 12.052C154.837 11.963 154.996 11.8644 155.147 11.7609C155.282 11.6695 155.412 11.5708 155.537 11.4698C155.65 11.3759 155.759 11.2797 155.864 11.1786C155.963 11.0848 156.057 10.9885 156.148 10.8875C156.233 10.7937 156.314 10.695 156.394 10.5964C156.468 10.5025 156.541 10.4039 156.61 10.3052C156.675 10.209 156.738 10.1127 156.798 10.0141C156.856 9.91783 156.909 9.82159 156.959 9.72294C157.01 9.62669 157.055 9.53045 157.101 9.4318C157.144 9.33556 157.185 9.23931 157.221 9.14066C157.258 9.04442 157.294 8.94818 157.325 8.84953C157.356 8.75328 157.385 8.65704 157.409 8.55839C157.433 8.46214 157.457 8.3659 157.477 8.26725C157.496 8.17101 157.513 8.07236 157.527 7.97611C157.542 7.87987 157.554 7.78122 157.563 7.68497C157.573 7.58873 157.58 7.49008 157.582 7.39384C157.585 7.31444 157.587 7.23503 157.587 7.15563C157.587 7.13638 157.587 7.11954 157.587 7.10029C157.587 7.00164 157.582 6.9054 157.578 6.80916L157.575 6.80434ZM154.341 7.38903C154.332 7.48768 154.313 7.58632 154.291 7.68016C154.267 7.78122 154.238 7.87746 154.202 7.9713C154.163 8.07236 154.122 8.1686 154.072 8.26244C154.017 8.3659 153.952 8.46214 153.884 8.55358C153.807 8.65704 153.721 8.75569 153.629 8.84471C153.516 8.95299 153.396 9.06367 153.263 9.15029C153.059 9.28022 152.854 9.40774 152.623 9.50158C152.383 9.60263 152.212 9.63391 152.01 9.63391H141.324L141.336 9.42939V4.79044H151.998C152.383 4.79044 152.746 4.88428 153.069 5.0503C153.227 5.13211 153.374 5.22835 153.511 5.34144C153.617 5.43046 153.713 5.52671 153.802 5.63258C153.879 5.72401 153.947 5.82266 154.009 5.92371C154.067 6.01755 154.12 6.11379 154.163 6.21485C154.204 6.30869 154.238 6.40734 154.264 6.50599C154.291 6.59983 154.313 6.69848 154.327 6.79713C154.341 6.89337 154.351 6.98961 154.353 7.08826C154.353 7.10751 154.356 7.12435 154.356 7.1436C154.356 7.223 154.351 7.30241 154.344 7.38181L154.341 7.38903ZM58.8627 14.9923C58.8627 15.0428 58.8675 15.0933 58.8675 15.1439C58.8675 15.1896 58.8675 15.2377 58.8651 15.2834C58.8651 15.3821 58.8579 15.4783 58.8507 15.5746C58.8435 15.6732 58.8338 15.7695 58.8218 15.8657C58.8098 15.9644 58.7953 16.0606 58.7761 16.1568C58.7593 16.2555 58.7376 16.3517 58.7159 16.448C58.6919 16.5466 58.6678 16.6429 58.639 16.7391C58.6101 16.8378 58.5788 16.934 58.5451 17.0303C58.509 17.1289 58.4729 17.2251 58.432 17.3214C58.3911 17.42 58.3454 17.5163 58.2973 17.6125C58.2492 17.7112 58.1962 17.8098 58.1409 17.9037C58.0831 18.0023 58.023 18.101 57.9604 18.1948C57.8955 18.2935 57.8281 18.3921 57.7559 18.4859C57.6789 18.587 57.5995 18.6832 57.5153 18.7771C57.4287 18.8781 57.3372 18.9744 57.241 19.0682C57.1375 19.1693 57.0293 19.2655 56.9186 19.3594C56.7983 19.4628 56.6708 19.5591 56.5408 19.6505C56.3941 19.754 56.2401 19.8526 56.0813 19.9416C55.8912 20.0499 55.6939 20.1461 55.4894 20.2328C55.2079 20.3531 54.9143 20.4493 54.6087 20.5239C54.1564 20.6346 53.68 20.6923 53.1891 20.6923L39.4335 20.6442L41.3608 17.4561L53.2806 17.4898C53.5958 17.4898 53.8941 17.4273 54.1684 17.3142C54.3537 17.2396 54.5245 17.1385 54.6833 17.023C54.8012 16.9364 54.9095 16.8378 55.0081 16.7319C55.0924 16.6405 55.1718 16.5442 55.2415 16.4408C55.3041 16.3493 55.357 16.2507 55.4052 16.1496C55.4509 16.0558 55.4918 15.9595 55.5231 15.8585C55.5543 15.7646 55.5784 15.666 55.5952 15.5673C55.6121 15.4711 55.6241 15.3749 55.6289 15.2762C55.6313 15.2305 55.6361 15.1848 55.6361 15.1367C55.6361 15.0861 55.6313 15.0356 55.6289 14.9851C55.6217 14.8864 55.6121 14.7878 55.5928 14.6939C55.5736 14.5953 55.5471 14.4966 55.5158 14.4028C55.4821 14.3017 55.4412 14.2055 55.3955 14.1117C55.3474 14.0106 55.2921 13.912 55.2295 13.8205C55.1597 13.7171 55.0779 13.6208 54.9937 13.5294C54.8927 13.4211 54.782 13.3249 54.6617 13.2382C54.4981 13.1203 54.32 13.0217 54.1299 12.9471C53.8653 12.8436 53.5813 12.8461 53.2806 12.8461L44.9988 12.8653C44.5585 12.822 44.1518 12.8076 43.7572 12.7089C43.3458 12.6054 43.1269 12.5116 42.8285 12.3889C42.6216 12.3023 42.4387 12.1916 42.2462 12.0833C42.0874 11.9943 41.9527 11.8956 41.8035 11.7898C41.6712 11.6983 41.5509 11.5877 41.4257 11.4866C41.3151 11.3928 41.2068 11.2965 41.1033 11.1955C41.0071 11.1016 40.9132 11.0054 40.8242 10.9043C40.74 10.8105 40.6606 10.7118 40.5812 10.6132C40.5066 10.5169 40.4368 10.4207 40.3671 10.3221C40.3021 10.2282 40.2419 10.1296 40.1842 10.0309C40.1289 9.93467 40.0735 9.83843 40.023 9.73978C39.9749 9.64354 39.9267 9.54729 39.8834 9.44864C39.8401 9.3524 39.8016 9.25616 39.7631 9.15751C39.727 9.06126 39.6934 8.96502 39.6621 8.86637C39.6332 8.77012 39.6043 8.67388 39.5803 8.57523C39.5562 8.47899 39.5345 8.38274 39.5153 8.28409C39.4961 8.18785 39.4792 8.0892 39.4672 7.99296C39.4527 7.89671 39.4431 7.79806 39.4335 7.70182C39.4239 7.60557 39.4191 7.50692 39.4142 7.41068C39.4118 7.3409 39.4094 7.27353 39.4094 7.20376C39.4094 7.17488 39.4094 7.14842 39.4094 7.11954C39.4094 7.02089 39.4142 6.92465 39.4215 6.82841C39.4287 6.72976 39.4383 6.63351 39.4479 6.53727C39.46 6.43862 39.4744 6.34237 39.4912 6.24613C39.5081 6.14748 39.5273 6.05124 39.549 5.95499C39.5706 5.85634 39.5971 5.7601 39.6236 5.66386C39.6524 5.56521 39.6837 5.46896 39.715 5.37272C39.7487 5.27407 39.7848 5.17782 39.8257 5.08158C39.8666 4.98293 39.9099 4.88428 39.9556 4.79044C40.0037 4.69179 40.0543 4.59555 40.1072 4.49931C40.1625 4.40066 40.2203 4.30201 40.2828 4.20817C40.3454 4.10952 40.4128 4.01087 40.4826 3.91703C40.5547 3.81838 40.6317 3.71973 40.7111 3.62589C41.7385 2.40119 43.276 1.62161 44.994 1.62161L58.8747 1.59755L56.8416 4.86503L44.994 4.85541C44.6331 4.85541 44.2914 4.93962 43.9858 5.08639C43.8198 5.16579 43.661 5.26204 43.519 5.37753C43.4108 5.46655 43.3097 5.5628 43.2183 5.66867C43.1389 5.7601 43.0667 5.85875 43.0017 5.95981C42.944 6.05364 42.8911 6.14989 42.8453 6.25094C42.802 6.34478 42.7659 6.44343 42.7371 6.54208C42.7082 6.63592 42.6889 6.73457 42.6721 6.83322C42.6577 6.92946 42.648 7.02571 42.6432 7.12436C42.6432 7.15323 42.6384 7.1797 42.6384 7.20857C42.6384 7.27835 42.6432 7.34812 42.648 7.41549C42.6577 7.51414 42.6721 7.61279 42.6913 7.70663C42.713 7.80769 42.7419 7.90393 42.7756 7.99777C42.8117 8.09882 42.8526 8.19507 42.9007 8.28891C42.9536 8.38996 43.0138 8.48861 43.0811 8.58004C43.1557 8.68351 43.2375 8.78215 43.3266 8.87118C43.4348 8.97945 43.5551 9.0781 43.6827 9.16232C43.8679 9.28743 44.0388 9.40052 44.2505 9.49195C44.4695 9.58579 44.751 9.68203 44.9964 9.68203L53.2469 9.69166C53.7401 9.69166 54.4403 9.747 54.6665 9.7879C54.9456 9.83843 55.2536 9.92024 55.5206 10.0381C55.7155 10.1248 55.9056 10.2234 56.0885 10.3293C56.2425 10.4207 56.3917 10.5169 56.5336 10.6204C56.6611 10.7118 56.7839 10.8105 56.9017 10.9115C57.01 11.0054 57.1159 11.1016 57.2169 11.2027C57.3108 11.2965 57.3998 11.3952 57.4864 11.4938C57.5682 11.5877 57.6476 11.6863 57.7246 11.785C57.7968 11.8788 57.8642 11.9774 57.9291 12.0761C57.9917 12.1723 58.0519 12.2686 58.1096 12.3672C58.1649 12.4635 58.2179 12.5597 58.266 12.6584C58.3141 12.7546 58.3598 12.8509 58.4032 12.9495C58.4441 13.0458 58.4826 13.142 58.5186 13.2406C58.5523 13.3369 58.586 13.4331 58.6149 13.5318C58.6438 13.628 58.6702 13.7243 58.6943 13.8229C58.7183 13.9192 58.7376 14.0154 58.7568 14.1141C58.7737 14.2103 58.7905 14.309 58.8026 14.4052C58.8146 14.5014 58.8266 14.6001 58.8338 14.6963C58.8411 14.7926 58.8459 14.8912 58.8483 14.9875L58.8627 14.9923ZM128.048 4.853H113.9V1.59034H129.963L128.05 4.853H128.048ZM95.0841 17.4994L108.079 17.5043L106.063 20.6779L91.8503 20.6851V1.58793H95.0841V17.4994ZM84.786 7.15082C84.786 7.19413 84.7884 7.23744 84.7884 7.28075V8.61132C84.786 8.97224 84.7836 9.33074 84.7812 9.69166H81.557V8.92171V7.28316C81.557 7.23985 81.5522 7.19654 81.5498 7.15323C81.545 7.05458 81.5329 6.95593 81.5185 6.86209C81.5017 6.76344 81.48 6.66479 81.4511 6.57095C81.4199 6.4699 81.3814 6.37365 81.3405 6.27982C81.2947 6.17876 81.2418 6.08252 81.1841 5.98868C81.1191 5.88522 81.0493 5.78897 80.9699 5.69754C80.8809 5.59167 80.7822 5.49543 80.6764 5.4064C80.5416 5.29332 80.3925 5.19707 80.2337 5.11527C79.8968 4.94203 79.5166 4.84097 79.1124 4.84097H71.0159C70.6021 4.84097 70.2147 4.93962 69.8754 5.11527C69.7166 5.19707 69.5698 5.29332 69.4351 5.4064C69.3292 5.49543 69.2306 5.59167 69.1416 5.69754C69.0646 5.78897 68.9948 5.88762 68.9322 5.98868C68.8745 6.08252 68.824 6.17876 68.7782 6.27982C68.7373 6.37365 68.7012 6.4723 68.67 6.57095C68.6411 6.66479 68.6218 6.76344 68.605 6.86209C68.5882 6.95833 68.5785 7.05458 68.5737 7.15323C68.5737 7.19654 68.5665 7.23985 68.5665 7.28316V7.9328V9.69166H65.3423C65.3399 9.33074 65.3375 8.97224 65.3351 8.61132V7.28075C65.3351 7.23744 65.3351 7.19413 65.3375 7.15082C65.3375 7.05217 65.3447 6.95593 65.352 6.85968C65.3592 6.76103 65.3688 6.66479 65.3808 6.56855C65.3929 6.4699 65.4073 6.37365 65.4241 6.27741C65.441 6.17876 65.4626 6.08252 65.4843 5.98627C65.5084 5.88762 65.5324 5.79138 65.5613 5.69513C65.5902 5.59648 65.6214 5.50024 65.6551 5.404C65.6888 5.30535 65.7273 5.2091 65.7658 5.11286C65.8067 5.01421 65.85 4.91556 65.8957 4.82172C65.9439 4.72307 65.9944 4.62683 66.0497 4.53058C66.1051 4.43193 66.1628 4.33328 66.2254 4.23945C66.2879 4.1408 66.3553 4.04215 66.4251 3.94831C66.4973 3.84966 66.5742 3.75101 66.6512 3.65717C67.6931 2.406 69.2619 1.60958 71.0135 1.60958H79.11C80.8616 1.60958 82.4304 2.40841 83.4723 3.65717C83.5517 3.75101 83.6262 3.84966 83.6984 3.94831C83.7682 4.04215 83.8332 4.1408 83.8981 4.23945C83.9583 4.33569 84.0184 4.43193 84.0738 4.53058C84.1267 4.62683 84.1796 4.72307 84.2254 4.82172C84.2711 4.91797 84.3144 5.01421 84.3553 5.11286C84.3962 5.2091 84.4323 5.30535 84.466 5.404C84.4997 5.50024 84.5309 5.59648 84.5598 5.69513C84.5887 5.79138 84.6127 5.88762 84.6368 5.98627C84.6585 6.08252 84.6801 6.17876 84.697 6.27741C84.7138 6.37365 84.7282 6.4723 84.7427 6.56855C84.7547 6.66479 84.7643 6.76344 84.7715 6.85968C84.7788 6.95593 84.7836 7.05458 84.786 7.15082ZM84.7812 13.6713H84.7884V15.0188C84.7884 15.0188 84.7884 15.026 84.7884 15.0308C84.7884 15.1294 84.786 15.2257 84.7812 15.3219C84.7764 15.4206 84.7691 15.5168 84.7571 15.6131C84.7475 15.7117 84.733 15.808 84.7186 15.9042C84.7042 16.0028 84.6849 16.0991 84.6657 16.1953C84.644 16.294 84.6224 16.3902 84.5959 16.4865C84.5694 16.5851 84.5406 16.6814 84.5093 16.7776C84.478 16.8763 84.4419 16.9725 84.4034 17.0687C84.3649 17.1674 84.324 17.2636 84.2807 17.3599C84.235 17.4585 84.1893 17.5572 84.1387 17.651C84.0858 17.7497 84.0329 17.8483 83.9751 17.9422C83.915 18.0408 83.8524 18.1395 83.785 18.2333C83.7153 18.3319 83.6431 18.4306 83.5685 18.5244C83.4891 18.6231 83.4097 18.7217 83.3231 18.8156C83.2316 18.9166 83.1354 19.0129 83.0392 19.1067C82.9333 19.2078 82.825 19.3064 82.7119 19.3979C82.5868 19.5013 82.4569 19.5976 82.3245 19.689C82.173 19.7924 82.0166 19.8911 81.853 19.9801C81.6557 20.0884 81.4511 20.187 81.2418 20.2713C80.9362 20.394 80.621 20.4926 80.2914 20.5624C79.9112 20.6442 79.5166 20.6875 79.11 20.6875H71.0135C70.6069 20.6875 70.2123 20.6442 69.8297 20.5624C69.5001 20.4926 69.1825 20.394 68.8769 20.2713C68.6651 20.1846 68.4606 20.0884 68.2633 19.9801C68.1021 19.8911 67.9433 19.7924 67.7917 19.689C67.657 19.5976 67.5271 19.4989 67.4019 19.3979C67.2889 19.304 67.1806 19.2078 67.0747 19.1067C66.9761 19.0129 66.8822 18.9166 66.7908 18.8156C66.7066 18.7217 66.6248 18.6231 66.5454 18.5244C66.4708 18.4282 66.3986 18.3319 66.3288 18.2333C66.2639 18.1371 66.1989 18.0408 66.1412 17.9422C66.0834 17.8459 66.0305 17.7497 65.9775 17.651C65.927 17.5548 65.8789 17.4585 65.8356 17.3599C65.7923 17.2636 65.7514 17.1674 65.7129 17.0687C65.6768 16.9725 65.6407 16.8763 65.6094 16.7776C65.5781 16.6814 65.5493 16.5851 65.5228 16.4865C65.4963 16.3902 65.4747 16.294 65.453 16.1953C65.4338 16.0991 65.4145 16.0028 65.4001 15.9042C65.3856 15.808 65.3736 15.7093 65.364 15.6131C65.3544 15.5168 65.3471 15.4182 65.3423 15.3219C65.3375 15.2305 65.3351 15.1415 65.3351 15.0476V13.6689C65.3375 13.4115 65.3399 13.154 65.3423 12.8966H68.5665V13.6689V15.0476C68.5665 15.1391 68.5737 15.2305 68.5833 15.3219C68.5954 15.4206 68.6122 15.5192 68.6363 15.6131C68.6603 15.7141 68.6892 15.8104 68.7253 15.9042C68.7638 16.0053 68.8047 16.1015 68.8552 16.1953C68.9106 16.2964 68.9731 16.395 69.0405 16.4865C69.1151 16.5899 69.1969 16.6886 69.2883 16.7776C69.3966 16.8859 69.5145 16.9821 69.642 17.0687C69.8225 17.1915 70.0222 17.2901 70.2315 17.3599C70.4769 17.4441 70.7392 17.4898 71.0135 17.4898H79.11C79.3843 17.4898 79.6466 17.4417 79.892 17.3599C80.1037 17.2877 80.301 17.1915 80.4815 17.0687C80.609 16.9821 80.7269 16.8859 80.8352 16.7776C80.9266 16.6886 81.006 16.5899 81.083 16.4865C81.1504 16.3926 81.2129 16.2964 81.2683 16.1953C81.3188 16.1015 81.3597 16.0028 81.3982 15.9042C81.4343 15.8104 81.4632 15.7117 81.4872 15.6131C81.5089 15.5168 81.5281 15.4206 81.5402 15.3219C81.5498 15.2329 81.557 15.1415 81.557 15.0476V12.8894H84.7812V13.6689V13.6713ZM117.153 17.5283L130.928 17.5379L128.967 20.7068H113.921V9.57857L113.905 8.0507H128.933L128.943 11.3061L117.155 11.311V17.5259L117.153 17.5283ZM9.7904 17.4441C9.7904 15.8128 11.2942 14.4894 13.1493 14.4894H24.381L21.3661 17.485L9.79281 17.4441H9.7904ZM12.3866 22.2948C13.0507 20.3868 14.9394 19.0971 17.0664 19.0971H19.6819L16.4601 22.3044L12.3866 22.2948ZM0 12.8581L3.1592 9.67482L29.0921 9.69888L25.9642 12.8629H12.9821H0V12.8581ZM19.3883 4.83135C19.3883 6.59742 17.8845 8.02905 16.0294 8.02905H4.79775L8.02433 4.83856L19.3883 4.83135ZM16.898 0.0600586C16.2339 1.96809 14.3451 3.25776 12.2182 3.25776H9.60273L12.786 0.0648709L16.898 0.0600586Z" fill="white"/>
<path d="M206.501 0H205.779V33.8321H206.501V0Z" fill="white"/>
<path d="M241.04 7.70645C241.04 11.1207 238.737 13.7409 234.635 13.7409H229.395V20.3048H227.198V1.77783H234.635C238.737 1.77783 241.04 4.2922 241.04 7.70645ZM238.817 7.73292C238.817 5.61555 237.493 3.86873 234.556 3.86873H229.395V11.65H234.556C237.493 11.65 238.817 9.85028 238.817 7.73292Z" fill="white"/>
<path d="M252.501 5.50996V7.75966C252.262 7.7332 251.945 7.70673 251.574 7.70673C248.53 7.70673 246.413 9.69176 246.413 13.4236V20.305H244.216V5.74817H246.413V9.00362C247.286 6.83332 249.033 5.45703 251.601 5.45703C251.945 5.45703 252.289 5.4835 252.501 5.50996Z" fill="white"/>
<path d="M269.307 13.0266C269.307 17.3937 265.998 20.5962 261.79 20.5962C257.582 20.5962 254.3 17.3672 254.3 13.0266C254.3 8.68601 257.661 5.45703 261.79 5.45703C265.919 5.45703 269.307 8.65954 269.307 13.0266ZM256.523 13.0266C256.523 16.2291 258.852 18.5053 261.79 18.5053C264.728 18.5053 267.083 16.2291 267.083 13.0266C267.083 9.82409 264.728 7.54793 261.79 7.54793C258.852 7.54793 256.523 9.79763 256.523 13.0266Z" fill="white"/>
<path d="M282.885 19.6696C282.091 20.093 280.529 20.5959 278.941 20.5959C275.818 20.5959 273.727 18.5844 273.727 14.7467V7.81232H270.922V5.74789H273.727V2.25424L275.924 1.77783V5.74789H282.461V7.81232H275.924V14.6408C275.924 17.1287 277.036 18.5579 279.312 18.5579C280.344 18.5579 281.403 18.2403 282.488 17.8433L282.885 19.6696Z" fill="white"/>
<path d="M299.347 13.6883H286.881C287.093 16.7055 289.237 18.5318 292.174 18.5318C294.186 18.5318 295.853 17.6848 296.727 15.9909H299.003C297.785 19.0876 295.139 20.5962 292.095 20.5962C287.781 20.5962 284.631 17.526 284.631 13.0795C284.631 8.63308 287.728 5.45703 292.069 5.45703C296.409 5.45703 299.532 8.89775 299.347 13.6883ZM286.987 11.6239H296.965C296.489 9.18888 294.689 7.52146 292.069 7.52146C289.448 7.52146 287.49 9.24182 286.987 11.6239Z" fill="white"/>
<path d="M301.968 13.0266C301.968 8.68601 305.223 5.45703 309.484 5.45703C312.872 5.45703 315.783 7.49499 316.551 10.8298H314.275C313.587 8.76541 311.734 7.49499 309.484 7.49499C306.414 7.49499 304.191 9.82409 304.191 13.0266C304.191 16.2291 306.44 18.5582 309.484 18.5582C311.734 18.5582 313.587 17.2613 314.275 15.2234H316.551C315.757 18.6112 312.819 20.5962 309.484 20.5962C305.223 20.5962 301.968 17.3672 301.968 13.0266Z" fill="white"/>
<path d="M330.313 19.6696C329.519 20.093 327.958 20.5959 326.37 20.5959C323.247 20.5959 321.156 18.5844 321.156 14.7467V7.81232H318.35V5.74789H321.156V2.25424L323.353 1.77783V5.74789H329.89V7.81232H323.353V14.6408C323.353 17.1287 324.464 18.5579 326.74 18.5579C327.773 18.5579 328.831 18.2403 329.916 17.8433L330.313 19.6696Z" fill="white"/>
<path d="M40.4343 28.4543V30.4200H43.3529V31.1034H40.4343V33.8319H39.7148V27.7686H43.5598V28.4519H40.4343V28.4543Z" fill="white"/>
<path d="M46.3416 27.1646H47.061V33.8342H46.3416V27.1646Z" fill="white"/>
<path d="M54.674 31.6665H50.5956C50.6654 32.653 51.3656 33.2521 52.328 33.2521C52.9873 33.2521 53.5311 32.9754 53.8174 32.4196H54.5633C54.1639 33.4326 53.2977 33.9258 52.3016 33.9258C50.8892 33.9258 49.8594 32.9201 49.8594 31.4668C49.8594 30.0135 50.8723 28.9717 52.2919 28.9717C53.7115 28.9717 54.7341 30.0977 54.674 31.6641V31.6665ZM50.6293 30.9904H53.8944C53.738 30.194 53.1485 29.6478 52.2919 29.6478C51.4354 29.6478 50.7929 30.2108 50.6293 30.9904Z" fill="white"/>
<path d="M62.08 31.6665H58.0016C58.0714 32.653 58.7716 33.2521 59.734 33.2521C60.3933 33.2521 60.9371 32.9754 61.2234 32.4196H61.9693C61.5699 33.4326 60.7037 33.9258 59.7076 33.9258C58.2952 33.9258 57.2654 32.9201 57.2654 31.4668C57.2654 30.0135 58.2783 28.9717 59.6979 28.9717C61.1175 28.9717 62.1401 30.0977 62.08 31.6641V31.6665ZM58.0353 30.9904H61.3004C61.144 30.194 60.5545 29.6478 59.6979 29.6478C58.8414 29.6478 58.1989 30.2108 58.0353 30.9904Z" fill="white"/>
<path d="M68.3595 33.625C68.0997 33.7645 67.5896 33.9282 67.0699 33.9282C66.0473 33.9282 65.364 33.2689 65.364 32.0129V29.744H64.4448V29.0678H65.364V27.925L66.0834 27.7686V29.0678H68.2224V29.744H66.0834V31.9792C66.0834 32.7925 66.4467 33.2617 67.1926 33.2617C67.5294 33.2617 67.8759 33.1582 68.232 33.0283L68.3619 33.625H68.3595Z" fill="white"/>
<path d="M79.9231 32.1429C79.9231 33.382 78.85 33.9282 77.7071 33.9282C76.095 33.9282 75.3251 33.0789 75.135 32.013H75.8617C76.0614 32.819 76.6316 33.2521 77.6903 33.2521C78.6263 33.2521 79.1965 32.8623 79.1965 32.1694C79.1965 31.4764 78.6335 31.3633 77.4545 31.1035C76.172 30.8171 75.2986 30.5067 75.2986 29.4312C75.2986 28.2955 76.3044 27.6724 77.4737 27.6724C78.8933 27.6724 79.6224 28.3749 79.8389 29.2844H79.1123C78.8861 28.7046 78.3664 28.3485 77.4834 28.3485C76.6003 28.3485 76.0205 28.7551 76.0205 29.4312C76.0205 29.9341 76.4006 30.1242 77.6229 30.4009C79.069 30.7209 79.9255 30.9976 79.9255 32.1429H79.9231Z" fill="white"/>
<path d="M87.3967 31.45C87.3967 32.8792 86.3139 33.9259 84.9377 33.9259C83.5614 33.9259 82.4858 32.8696 82.4858 31.45C82.4858 30.0304 83.5854 28.9741 84.9377 28.9741C86.2899 28.9741 87.3967 30.0232 87.3967 31.45ZM83.2125 31.45C83.2125 32.4991 83.9752 33.2425 84.9352 33.2425C85.8953 33.2425 86.6676 32.4966 86.6676 31.45C86.6676 30.4033 85.8977 29.6575 84.9352 29.6575C83.9728 29.6575 83.2125 30.3937 83.2125 31.45Z" fill="white"/>
<path d="M90.2383 27.1646H90.9577V33.8342H90.2383V27.1646Z" fill="white"/>
<path d="M98.0078 29.0703V33.8344H97.2884V32.8912C96.9684 33.5144 96.4126 33.9306 95.5897 33.9306C94.5334 33.9306 93.9006 33.2545 93.9006 32.0948V29.0727H94.6201V31.9576C94.6201 32.807 95.0195 33.2473 95.799 33.2473C96.7422 33.2473 97.2884 32.5712 97.2884 31.5149V29.0727H98.0078V29.0703Z" fill="white"/>
<path d="M104.497 33.625C104.237 33.7645 103.727 33.9282 103.207 33.9282C102.185 33.9282 101.501 33.2689 101.501 32.0129V29.744H100.582V29.0678H101.501V27.925L102.221 27.7686V29.0678H104.36V29.744H102.221V31.9792C102.221 32.7925 102.584 33.2617 103.33 33.2617C103.667 33.2617 104.013 33.1582 104.369 33.0283L104.499 33.625H104.497Z" fill="white"/>
<path d="M108.065 27.4486C108.065 27.7253 107.849 27.9346 107.562 27.9346C107.276 27.9346 107.059 27.7277 107.059 27.4486C107.059 27.1695 107.276 26.9722 107.562 26.9722C107.849 26.9722 108.065 27.1791 108.065 27.4486ZM107.199 29.0679H107.918V33.8319H107.199V29.0679Z" fill="white"/>
<path d="M115.644 31.45C115.644 32.8792 114.562 33.9259 113.185 33.9259C111.809 33.9259 110.734 32.8696 110.734 31.45C110.734 30.0304 111.833 28.9741 113.185 28.9741C114.538 28.9741 115.644 30.0232 115.644 31.45ZM111.46 31.45C111.46 32.4991 112.223 33.2425 113.183 33.2425C114.143 33.2425 114.915 32.4966 114.915 31.45C114.915 30.4033 114.145 29.6575 113.183 29.6575C112.221 29.6575 111.46 30.3937 111.46 31.45Z" fill="white"/>
<path d="M122.608 30.8099V33.832H121.888V30.9471C121.888 30.0905 121.465 29.6574 120.685 29.6574C119.715 29.6574 119.179 30.3407 119.179 31.3898V33.832H118.459V29.0679H119.179V30.0111C119.499 29.3711 120.055 28.9717 120.885 28.9717C121.958 28.9717 122.608 29.6478 122.608 30.8075V30.8099Z" fill="white"/>
<path d="M125.285 32.3426H126.022C126.212 33.0091 126.705 33.2425 127.59 33.2425C128.3 33.2425 128.82 32.9923 128.82 32.5327C128.82 32.0731 128.291 31.9697 127.417 31.7531C126.101 31.4235 125.528 31.1901 125.528 30.4105C125.528 29.4914 126.334 28.9717 127.461 28.9717C128.587 28.9717 129.296 29.4818 129.486 30.3407H128.76C128.577 29.8547 128.12 29.6574 127.477 29.6574C126.707 29.6574 126.255 29.951 126.255 30.36C126.255 30.7402 126.635 30.846 127.598 31.0866C128.82 31.3898 129.556 31.5799 129.556 32.4725C129.556 33.4518 128.664 33.9282 127.59 33.9282C126.344 33.9282 125.478 33.3484 125.285 32.3426Z" fill="white"/>
<path d="M231.921 31.4503C231.921 32.8891 230.985 33.9261 229.686 33.9261C228.863 33.9261 228.223 33.5099 227.857 32.8699V33.8323H227.138V27.1626H227.857V30.0475C228.22 29.3979 228.87 28.9744 229.693 28.9744C230.983 28.9744 231.919 30.0042 231.919 31.4503H231.921ZM231.194 31.4503C231.194 30.4108 230.518 29.6577 229.558 29.6577C228.598 29.6577 227.852 30.4036 227.852 31.4503C227.852 32.4969 228.589 33.2428 229.558 33.2428C230.528 33.2428 231.194 32.4969 231.194 31.4503Z" fill="white"/>
<path d="M238.774 29.0703L235.561 35.9999H234.791L236.057 33.2545L234.125 29.0703H234.895L236.437 32.4822L238.006 29.0703H238.776H238.774Z" fill="white"/>
<path d="M250.234 32.1429C250.234 33.382 249.161 33.9282 248.018 33.9282C246.406 33.9282 245.636 33.0789 245.446 32.013H246.173C246.372 32.819 246.943 33.2521 248.001 33.2521C248.937 33.2521 249.508 32.8623 249.508 32.1694C249.508 31.4764 248.945 31.3633 247.766 31.1035C246.483 30.8171 245.61 30.5067 245.61 29.4312C245.61 28.2955 246.615 27.6724 247.785 27.6724C249.204 27.6724 249.933 28.3749 250.15 29.2844H249.423C249.197 28.7046 248.677 28.3485 247.794 28.3485C246.911 28.3485 246.332 28.7551 246.332 29.4312C246.332 29.9341 246.712 30.1242 247.934 30.4009C249.38 30.7209 250.237 30.9976 250.237 32.1429H250.234Z" fill="white"/>
<path d="M260.106 30.7402V33.832H259.387V30.8701C259.387 30.064 259.023 29.6574 258.314 29.6574C257.414 29.6574 256.971 30.4274 256.971 31.3898L256.981 33.832H256.254V30.8701C256.254 30.064 255.898 29.6574 255.181 29.6574C254.288 29.6574 253.848 30.4274 253.848 31.3898V33.832H253.128V29.0679H253.848V29.9678C254.161 29.3518 254.637 28.9717 255.397 28.9717C256.158 28.9717 256.697 29.3615 256.887 30.064C257.19 29.4048 257.71 28.9717 258.523 28.9717C259.529 28.9717 260.109 29.6117 260.109 30.7378L260.106 30.7402Z" fill="white"/>
<path d="M267.668 29.0704V33.8345H266.949V32.872C266.576 33.5121 265.936 33.9283 265.113 33.9283C263.814 33.9283 262.887 32.8889 262.887 31.4524C262.887 30.016 263.823 28.9766 265.113 28.9766C265.936 28.9766 266.586 29.4 266.949 30.0497V29.0704H267.668ZM266.959 31.4524C266.959 30.4034 266.222 29.6599 265.253 29.6599C264.283 29.6599 263.617 30.413 263.617 31.4524C263.617 32.4919 264.293 33.245 265.253 33.245C266.213 33.245 266.959 32.4991 266.959 31.4524Z" fill="white"/>
<path d="M273.395 28.991V29.7273C273.318 29.7176 273.212 29.7104 273.092 29.7104C272.096 29.7104 271.403 30.3601 271.403 31.5824V33.8345H270.683V29.0704H271.403V30.1363C271.689 29.4265 272.259 28.9766 273.101 28.9766C273.215 28.9766 273.328 28.9862 273.395 28.9934V28.991Z" fill="white"/>
<path d="M279.562 33.625C279.302 33.7645 278.792 33.9282 278.273 33.9282C277.25 33.9282 276.567 33.2689 276.567 32.0129V29.744H275.647V29.0678H276.567V27.925L277.286 27.7686V29.0678H279.425V29.744H277.286V31.9792C277.286 32.7925 277.649 33.2617 278.395 33.2617C278.732 33.2617 279.079 33.1582 279.435 33.0283L279.565 33.625H279.562Z" fill="white"/>
<path d="M287.548 30.8002C287.548 32.5591 286.196 33.8319 284.439 33.8319H282.387V27.7686H284.439C286.205 27.7686 287.548 29.0318 287.548 30.8002ZM286.828 30.8002C286.828 29.4239 285.799 28.4543 284.446 28.4543H283.104V33.1486H284.446C285.799 33.1486 286.819 32.1789 286.828 30.8026V30.8002Z" fill="white"/>
<path d="M293.127 28.991V29.7273C293.05 29.7176 292.945 29.7104 292.824 29.7104C291.828 29.7104 291.135 30.3601 291.135 31.5824V33.8345H290.416V29.0704H291.135V30.1363C291.422 29.4265 291.992 28.9766 292.834 28.9766C292.947 28.9766 293.06 28.9862 293.127 28.9934V28.991Z" fill="white"/>
<path d="M296.592 27.4486C296.592 27.7253 296.376 27.9346 296.09 27.9346C295.803 27.9346 295.587 27.7277 295.587 27.4486C295.587 27.1695 295.803 26.9722 296.09 26.9722C296.376 26.9722 296.592 27.1791 296.592 27.4486ZM295.726 29.0679H296.446V33.8319H295.726V29.0679Z" fill="white"/>
<path d="M303.512 29.0703L301.719 33.8344H300.827L299.034 29.0703H299.804L301.267 33.115L302.74 29.0703H303.51H303.512Z" fill="white"/>
<path d="M310.459 31.6665H306.38C306.45 32.653 307.15 33.2521 308.113 33.2521C308.772 33.2521 309.316 32.9754 309.602 32.4196H310.348C309.949 33.4326 309.082 33.9258 308.086 33.9258C306.674 33.9258 305.644 32.9201 305.644 31.4668C305.644 30.0135 306.657 28.9717 308.077 28.9717C309.496 28.9717 310.519 30.0977 310.459 31.6641V31.6665ZM306.414 30.9904H309.679C309.523 30.194 308.933 29.6478 308.077 29.6478C307.22 29.6478 306.578 30.2108 306.414 30.9904Z" fill="white"/>
</svg>
