<svg width="1376" height="160" viewBox="0 0 1376 160" fill="none" xmlns="http://www.w3.org/2000/svg">
<path d="M770.63 94.18L769.88 92.94L769.13 91.7L768.38 90.46L767.63 89.22L766.88 87.98L766.13 86.74L765.38 85.5L764.63 84.26L763.88 83.02L763.13 81.78L762.38 80.54L761.63 79.3L760.88 78.06L760.13 76.82L759.38 75.58L758.63 74.34L757.88 73.1L757.13 71.86L756.38 70.62L755.63 69.38L754.88 68.14L754.13 66.9L753.38 65.66L752.63 64.42L751.88 63.18L751.13 61.94L750.38 60.7L749.63 59.46L748.88 58.22L748.13 56.98L747.38 55.74L746.63 54.5L745.88 53.26L745.13 52.02L744.38 50.78L743.63 49.54L742.88 48.3L742.13 47.06L741.38 45.82L740.63 44.58L739.88 43.34L739.13 42.1L738.38 40.86L737.63 39.62L736.88 38.38L736.13 37.14L735.38 35.9L734.63 34.66L733.88 33.42L733.13 32.18L732.38 30.94L731.63 29.7L730.88 28.46L730.13 27.22L729.38 25.98L728.63 24.74L727.88 23.5L727.13 22.26L722.9 15.33L718.66 22.26L717.9 23.5L717.14 24.74L716.38 25.98L715.62 27.22L714.86 28.46L714.1 29.7L713.34 30.94L712.58 32.18L711.82 33.42L711.06 34.66L710.3 35.9L709.54 37.14L708.78 38.38L708.02 39.62L707.26 40.86L706.5 42.1L705.74 43.34L704.98 44.58L704.22 45.82L703.46 47.06L702.7 48.3L701.94 49.54L701.18 50.78L700.42 52.02L699.66 53.26L698.9 54.5L698.14 55.74L697.38 56.98L696.62 58.22L695.86 59.46L695.1 60.7L694.34 61.94L693.58 63.18L692.82 64.42L692.06 65.66L691.3 66.9L690.54 68.14L689.78 69.38L689.02 70.62L688.26 71.86L687.5 73.1L686.74 74.34L685.98 75.58L685.22 76.82L684.46 78.06L683.7 79.3L682.94 80.54L682.18 81.78L681.42 83.02L680.66 84.26L679.9 85.5L679.14 86.74L678.38 87.98L677.62 89.22L673.88 95.12L689.73 95.15L690.41 94.16L691.17 92.92L691.93 91.68L692.69 90.44L693.45 89.2L694.21 87.96L694.97 86.72L695.73 85.48L696.49 84.24L697.25 83L698.17 81.61L747.16 81.64L748.05 82.82L748.87 84.23L749.62 85.47L750.37 86.71L751.12 87.95L751.87 89.19L752.62 90.43L753.37 91.67L754.12 92.91L754.87 94.15L755.47 95.11L771.29 95.14L770.67 94.15L770.63 94.18ZM706.59 68.15L707.76 66.3L708.52 65.09L709.28 63.88L710.04 62.67L710.8 61.46L711.56 60.25L712.32 59.04L713.08 57.83L713.84 56.62L714.6 55.41L715.36 54.2L716.12 52.99L716.88 51.78L717.64 50.57L718.4 49.36L719.16 48.15L719.92 46.94L720.68 45.73L721.44 44.52L722.2 43.31L722.7 42.5L723.2 43.31L723.95 44.52L724.7 45.73L725.45 46.94L726.2 48.15L726.95 49.36L727.7 50.57L728.45 51.78L729.2 52.99L729.95 54.2L730.7 55.41L731.45 56.62L732.2 57.83L732.95 59.04L733.7 60.25L734.45 61.46L735.2 62.67L735.95 63.88L736.7 65.09L737.45 66.3L738.55 68.19L706.56 68.14L706.59 68.15ZM654.9 37.39C654.87 36.98 654.84 36.58 654.79 36.18C654.74 35.77 654.68 35.37 654.62 34.97C654.55 34.56 654.47 34.16 654.38 33.76C654.29 33.35 654.18 32.95 654.07 32.55C653.95 32.14 653.83 31.74 653.69 31.34C653.55 30.93 653.4 30.53 653.23 30.13C653.06 29.72 652.88 29.31 652.69 28.92C652.49 28.51 652.28 28.1 652.06 27.71C651.83 27.3 651.59 26.89 651.33 26.5C651.07 26.09 650.79 25.68 650.5 25.29C650.2 24.88 649.88 24.47 649.55 24.08C645.29 18.99 638.87 15.75 631.71 15.75H573.96V95.19H587.44L587.4 94.37V62.84L587.43 62.47L618.81 62.44L638.6 95.18L655.21 95.15L635.33 62.34C635.33 62.34 638.91 60.94 640.25 60.41C641.14 60.06 642.01 59.65 642.84 59.2C643.52 58.83 644.18 58.42 644.81 57.99C645.37 57.61 645.91 57.2 646.43 56.78C646.9 56.39 647.35 55.99 647.79 55.57C648.2 55.18 648.59 54.78 648.97 54.36C649.32 53.97 649.66 53.56 649.99 53.15C650.3 52.76 650.6 52.35 650.89 51.94C651.16 51.54 651.42 51.14 651.67 50.73C651.91 50.33 652.13 49.93 652.34 49.52C652.55 49.12 652.74 48.72 652.93 48.31C653.11 47.91 653.28 47.51 653.43 47.1C653.58 46.7 653.73 46.3 653.86 45.89C653.99 45.49 654.11 45.09 654.21 44.68C654.31 44.28 654.41 43.88 654.49 43.47C654.57 43.07 654.64 42.66 654.7 42.26C654.76 41.86 654.81 41.45 654.85 41.05C654.89 40.65 654.92 40.24 654.93 39.84C654.94 39.51 654.95 39.18 654.95 38.85C654.95 38.77 654.95 38.7 654.95 38.62C654.95 38.21 654.93 37.81 654.91 37.41L654.9 37.39ZM641.46 39.82C641.42 40.23 641.34 40.64 641.25 41.03C641.15 41.45 641.03 41.85 640.88 42.24C640.72 42.66 640.55 43.06 640.34 43.45C640.11 43.88 639.84 44.28 639.56 44.66C639.24 45.09 638.88 45.5 638.5 45.87C638.03 46.32 637.53 46.78 636.98 47.14C636.13 47.68 635.28 48.21 634.32 48.6C633.32 49.02 632.61 49.15 631.77 49.15H587.36L587.41 48.3V29.02H631.72C633.32 29.02 634.83 29.41 636.17 30.1C636.83 30.44 637.44 30.84 638.01 31.31C638.45 31.68 638.85 32.08 639.22 32.52C639.54 32.9 639.82 33.31 640.08 33.73C640.32 34.12 640.54 34.52 640.72 34.94C640.89 35.33 641.03 35.74 641.14 36.15C641.25 36.54 641.34 36.95 641.4 37.36C641.46 37.76 641.5 38.16 641.51 38.57C641.51 38.65 641.52 38.72 641.52 38.8C641.52 39.13 641.5 39.46 641.47 39.79L641.46 39.82ZM244.64 71.42C244.64 71.63 244.66 71.84 244.66 72.05C244.66 72.24 244.66 72.44 244.65 72.63C244.65 73.04 244.62 73.44 244.59 73.84C244.56 74.25 244.52 74.65 244.47 75.05C244.42 75.46 244.36 75.86 244.28 76.26C244.21 76.67 244.12 77.07 244.03 77.47C243.93 77.88 243.83 78.28 243.71 78.68C243.59 79.09 243.46 79.49 243.32 79.89C243.17 80.3 243.02 80.7 242.85 81.1C242.68 81.51 242.49 81.91 242.29 82.31C242.09 82.72 241.87 83.13 241.64 83.52C241.4 83.93 241.15 84.34 240.89 84.73C240.62 85.14 240.34 85.55 240.04 85.94C239.72 86.36 239.39 86.76 239.04 87.15C238.68 87.57 238.3 87.97 237.9 88.36C237.47 88.78 237.02 89.18 236.56 89.57C236.06 90 235.53 90.4 234.99 90.78C234.38 91.21 233.74 91.62 233.08 91.99C232.29 92.44 231.47 92.84 230.62 93.2C229.45 93.7 228.23 94.1 226.96 94.41C225.08 94.87 223.1 95.11 221.06 95.11L163.89 94.91L171.9 81.66L221.44 81.8C222.75 81.8 223.99 81.54 225.13 81.07C225.9 80.76 226.61 80.34 227.27 79.86C227.76 79.5 228.21 79.09 228.62 78.65C228.97 78.27 229.3 77.87 229.59 77.44C229.85 77.06 230.07 76.65 230.27 76.23C230.46 75.84 230.63 75.44 230.76 75.02C230.89 74.63 230.99 74.22 231.06 73.81C231.13 73.41 231.18 73.01 231.2 72.6C231.21 72.41 231.23 72.22 231.23 72.02C231.23 71.81 231.21 71.6 231.2 71.39C231.17 70.98 231.13 70.57 231.05 70.18C230.97 69.77 230.86 69.36 230.73 68.97C230.59 68.55 230.42 68.15 230.23 67.76C230.03 67.34 229.8 66.93 229.54 66.55C229.25 66.12 228.91 65.72 228.56 65.34C228.14 64.89 227.68 64.49 227.18 64.13C226.5 63.64 225.76 63.23 224.97 62.92C223.87 62.49 222.69 62.5 221.44 62.5L187.02 62.58C185.19 62.4 183.5 62.34 181.86 61.93C180.15 61.5 179.24 61.11 178 60.6C177.14 60.24 176.38 59.78 175.58 59.33C174.92 58.96 174.36 58.55 173.74 58.11C173.19 57.73 172.69 57.27 172.17 56.85C171.71 56.46 171.26 56.06 170.83 55.64C170.43 55.25 170.04 54.85 169.67 54.43C169.32 54.04 168.99 53.63 168.66 53.22C168.35 52.82 168.06 52.42 167.77 52.01C167.5 51.62 167.25 51.21 167.01 50.8C166.78 50.4 166.55 50 166.34 49.59C166.14 49.19 165.94 48.79 165.76 48.38C165.58 47.98 165.42 47.58 165.26 47.17C165.11 46.77 164.97 46.37 164.84 45.96C164.72 45.56 164.6 45.16 164.5 44.75C164.4 44.35 164.31 43.95 164.23 43.54C164.15 43.14 164.08 42.73 164.03 42.33C163.97 41.93 163.93 41.52 163.89 41.12C163.85 40.72 163.83 40.31 163.81 39.91C163.8 39.62 163.79 39.34 163.79 39.05C163.79 38.93 163.79 38.82 163.79 38.7C163.79 38.29 163.81 37.89 163.84 37.49C163.87 37.08 163.91 36.68 163.95 36.28C164 35.87 164.06 35.47 164.13 35.07C164.2 34.66 164.28 34.26 164.37 33.86C164.46 33.45 164.57 33.05 164.68 32.65C164.8 32.24 164.93 31.84 165.06 31.44C165.2 31.03 165.35 30.63 165.52 30.23C165.69 29.82 165.87 29.41 166.06 29.02C166.26 28.61 166.47 28.21 166.69 27.81C166.92 27.4 167.16 26.99 167.42 26.6C167.68 26.19 167.96 25.78 168.25 25.39C168.55 24.98 168.87 24.57 169.2 24.18C173.47 19.09 179.86 15.85 187 15.85L244.69 15.75L236.24 29.33L187 29.29C185.5 29.29 184.08 29.64 182.81 30.25C182.12 30.58 181.46 30.98 180.87 31.46C180.42 31.83 180 32.23 179.62 32.67C179.29 33.05 178.99 33.46 178.72 33.88C178.48 34.27 178.26 34.67 178.07 35.09C177.89 35.48 177.74 35.89 177.62 36.3C177.5 36.69 177.42 37.1 177.35 37.51C177.29 37.91 177.25 38.31 177.23 38.72C177.23 38.84 177.21 38.95 177.21 39.07C177.21 39.36 177.23 39.65 177.25 39.93C177.29 40.34 177.35 40.75 177.43 41.14C177.52 41.56 177.64 41.96 177.78 42.35C177.93 42.77 178.1 43.17 178.3 43.56C178.52 43.98 178.77 44.39 179.05 44.77C179.36 45.2 179.7 45.61 180.07 45.98C180.52 46.43 181.02 46.84 181.55 47.19C182.32 47.71 183.03 48.18 183.91 48.56C184.82 48.95 185.99 49.35 187.01 49.35L221.3 49.39C223.35 49.39 226.26 49.62 227.2 49.79C228.36 50 229.64 50.34 230.75 50.83C231.56 51.19 232.35 51.6 233.11 52.04C233.75 52.42 234.37 52.82 234.96 53.25C235.49 53.63 236 54.04 236.49 54.46C236.94 54.85 237.38 55.25 237.8 55.67C238.19 56.06 238.56 56.47 238.92 56.88C239.26 57.27 239.59 57.68 239.91 58.09C240.21 58.48 240.49 58.89 240.76 59.3C241.02 59.7 241.27 60.1 241.51 60.51C241.74 60.91 241.96 61.31 242.16 61.72C242.36 62.12 242.55 62.52 242.73 62.93C242.9 63.33 243.06 63.73 243.21 64.14C243.35 64.54 243.49 64.94 243.61 65.35C243.73 65.75 243.84 66.15 243.94 66.56C244.04 66.96 244.12 67.36 244.2 67.77C244.27 68.17 244.34 68.58 244.39 68.98C244.44 69.38 244.49 69.79 244.52 70.19C244.55 70.59 244.57 71 244.58 71.4L244.64 71.42ZM532.18 29.28H473.38V15.72H540.14L532.19 29.28H532.18ZM395.18 81.84L449.19 81.86L440.81 95.05L381.74 95.08V15.71H395.18V81.84ZM352.38 38.83C352.38 39.01 352.39 39.19 352.39 39.37V44.9C352.38 46.4 352.37 47.89 352.36 49.39H338.96V46.19V39.38C338.96 39.2 338.94 39.02 338.93 38.84C338.91 38.43 338.86 38.02 338.8 37.63C338.73 37.22 338.64 36.81 338.52 36.42C338.39 36 338.23 35.6 338.06 35.21C337.87 34.79 337.65 34.39 337.41 34C337.14 33.57 336.85 33.17 336.52 32.79C336.15 32.35 335.74 31.95 335.3 31.58C334.74 31.11 334.12 30.71 333.46 30.37C332.06 29.65 330.48 29.23 328.8 29.23H295.15C293.43 29.23 291.82 29.64 290.41 30.37C289.75 30.71 289.14 31.11 288.58 31.58C288.14 31.95 287.73 32.35 287.36 32.79C287.04 33.17 286.75 33.58 286.49 34C286.25 34.39 286.04 34.79 285.85 35.21C285.68 35.6 285.53 36.01 285.4 36.42C285.28 36.81 285.2 37.22 285.13 37.63C285.06 38.03 285.02 38.43 285 38.84C285 39.02 284.97 39.2 284.97 39.38V42.08V49.39H271.57C271.56 47.89 271.55 46.4 271.54 44.9V39.37C271.54 39.19 271.54 39.01 271.55 38.83C271.55 38.42 271.58 38.02 271.61 37.62C271.64 37.21 271.68 36.81 271.73 36.41C271.78 36 271.84 35.6 271.91 35.2C271.98 34.79 272.07 34.39 272.16 33.99C272.26 33.58 272.36 33.18 272.48 32.78C272.6 32.37 272.73 31.97 272.87 31.57C273.01 31.16 273.17 30.76 273.33 30.36C273.5 29.95 273.68 29.54 273.87 29.15C274.07 28.74 274.28 28.34 274.51 27.94C274.74 27.53 274.98 27.12 275.24 26.73C275.5 26.32 275.78 25.91 276.07 25.52C276.37 25.11 276.69 24.7 277.01 24.31C281.34 19.11 287.86 15.8 295.14 15.8H328.79C336.07 15.8 342.59 19.12 346.92 24.31C347.25 24.7 347.56 25.11 347.86 25.52C348.15 25.91 348.42 26.32 348.69 26.73C348.94 27.13 349.19 27.53 349.42 27.94C349.64 28.34 349.86 28.74 350.05 29.15C350.24 29.55 350.42 29.95 350.59 30.36C350.76 30.76 350.91 31.16 351.05 31.57C351.19 31.97 351.32 32.37 351.44 32.78C351.56 33.18 351.66 33.58 351.76 33.99C351.85 34.39 351.94 34.79 352.01 35.2C352.08 35.6 352.14 36.01 352.2 36.41C352.25 36.81 352.29 37.22 352.32 37.62C352.35 38.02 352.37 38.43 352.38 38.83ZM352.36 65.93H352.39V71.53C352.39 71.53 352.39 71.56 352.39 71.58C352.39 71.99 352.38 72.39 352.36 72.79C352.34 73.2 352.31 73.6 352.26 74C352.22 74.41 352.16 74.81 352.1 75.21C352.04 75.62 351.96 76.02 351.88 76.42C351.79 76.83 351.7 77.23 351.59 77.63C351.48 78.04 351.36 78.44 351.23 78.84C351.1 79.25 350.95 79.65 350.79 80.05C350.63 80.46 350.46 80.86 350.28 81.26C350.09 81.67 349.9 82.08 349.69 82.47C349.47 82.88 349.25 83.29 349.01 83.68C348.76 84.09 348.5 84.5 348.22 84.89C347.93 85.3 347.63 85.71 347.32 86.1C346.99 86.51 346.66 86.92 346.3 87.31C345.92 87.73 345.52 88.13 345.12 88.52C344.68 88.94 344.23 89.35 343.76 89.73C343.24 90.16 342.7 90.56 342.15 90.94C341.52 91.37 340.87 91.78 340.19 92.15C339.37 92.6 338.52 93.01 337.65 93.36C336.38 93.87 335.07 94.28 333.7 94.57C332.12 94.91 330.48 95.09 328.79 95.09H295.14C293.45 95.09 291.81 94.91 290.22 94.57C288.85 94.28 287.53 93.87 286.26 93.36C285.38 93 284.53 92.6 283.71 92.15C283.04 91.78 282.38 91.37 281.75 90.94C281.19 90.56 280.65 90.15 280.13 89.73C279.66 89.34 279.21 88.94 278.77 88.52C278.36 88.13 277.97 87.73 277.59 87.31C277.24 86.92 276.9 86.51 276.57 86.1C276.26 85.7 275.96 85.3 275.67 84.89C275.4 84.49 275.13 84.09 274.89 83.68C274.65 83.28 274.43 82.88 274.21 82.47C274 82.07 273.8 81.67 273.62 81.26C273.44 80.86 273.27 80.46 273.11 80.05C272.96 79.65 272.81 79.25 272.68 78.84C272.55 78.44 272.43 78.04 272.32 77.63C272.21 77.23 272.12 76.83 272.03 76.42C271.95 76.02 271.87 75.62 271.81 75.21C271.75 74.81 271.7 74.4 271.66 74C271.62 73.6 271.59 73.19 271.57 72.79C271.55 72.41 271.54 72.04 271.54 71.65V65.92C271.55 64.85 271.56 63.78 271.57 62.71H284.97V65.92V71.65C284.97 72.03 285 72.41 285.04 72.79C285.09 73.2 285.16 73.61 285.26 74C285.36 74.42 285.48 74.82 285.63 75.21C285.79 75.63 285.96 76.03 286.17 76.42C286.4 76.84 286.66 77.25 286.94 77.63C287.25 78.06 287.59 78.47 287.97 78.84C288.42 79.29 288.91 79.69 289.44 80.05C290.19 80.56 291.02 80.97 291.89 81.26C292.91 81.61 294 81.8 295.14 81.8H328.79C329.93 81.8 331.02 81.6 332.04 81.26C332.92 80.96 333.74 80.56 334.49 80.05C335.02 79.69 335.51 79.29 335.96 78.84C336.34 78.47 336.67 78.06 336.99 77.63C337.27 77.24 337.53 76.84 337.76 76.42C337.97 76.03 338.14 75.62 338.3 75.21C338.45 74.82 338.57 74.41 338.67 74C338.76 73.6 338.84 73.2 338.89 72.79C338.93 72.42 338.96 72.04 338.96 71.65V62.68H352.36V65.92V65.93ZM486.9 81.96L544.15 82L536 95.17H473.47V48.92L473.4 42.57H535.86L535.9 56.1L486.91 56.12V81.95L486.9 81.96ZM40.69 81.61C40.69 74.83 46.94 69.33 54.65 69.33H101.33L88.8 81.78L40.7 81.61H40.69ZM51.48 101.77C54.24 93.84 62.09 88.48 70.93 88.48H81.8L68.41 101.81L51.48 101.77ZM0 62.55L13.13 49.32L120.91 49.42L107.91 62.57H0V62.55ZM80.58 29.19C80.58 36.53 74.33 42.48 66.62 42.48H19.94L33.35 29.22L80.58 29.19ZM70.23 9.35999C67.47 17.29 59.62 22.65 50.78 22.65H39.91L53.14 9.37999L70.23 9.35999Z" fill="url(#paint0_linear_14_2)"/>
<path d="M858.24 9.10999H855.24V149.72H858.24V9.10999Z" fill="#929497"/>
<path d="M1001.79 41.14C1001.79 55.33 992.22 66.22 975.17 66.22H953.39V93.5H944.26V16.5H975.17C992.22 16.5 1001.79 26.95 1001.79 41.14ZM992.55 41.25C992.55 32.45 987.05 25.19 974.84 25.19H953.39V57.53H974.84C987.05 57.53 992.55 50.05 992.55 41.25Z" fill="#404041"/>
<path d="M1049.42 32.01V41.36C1048.43 41.25 1047.11 41.14 1045.57 41.14C1032.92 41.14 1024.12 49.39 1024.12 64.9V93.5H1014.99V33H1024.12V46.53C1027.75 37.51 1035.01 31.79 1045.68 31.79C1047.11 31.79 1048.54 31.9 1049.42 32.01Z" fill="#404041"/>
<path d="M1119.27 63.25C1119.27 81.4 1105.52 94.71 1088.03 94.71C1070.54 94.71 1056.9 81.29 1056.9 63.25C1056.9 45.21 1070.87 31.79 1088.03 31.79C1105.19 31.79 1119.27 45.1 1119.27 63.25ZM1066.14 63.25C1066.14 76.56 1075.82 86.02 1088.03 86.02C1100.24 86.02 1110.03 76.56 1110.03 63.25C1110.03 49.94 1100.24 40.48 1088.03 40.48C1075.82 40.48 1066.14 49.83 1066.14 63.25Z" fill="#404041"/>
<path d="M1175.7 90.86C1172.4 92.62 1165.91 94.71 1159.31 94.71C1146.33 94.71 1137.64 86.35 1137.64 70.4V41.58H1125.98V33H1137.64V18.48L1146.77 16.5V33H1173.94V41.58H1146.77V69.96C1146.77 80.3 1151.39 86.24 1160.85 86.24C1165.14 86.24 1169.54 84.92 1174.05 83.27L1175.7 90.86Z" fill="#404041"/>
<path d="M1244.12 66H1192.31C1193.19 78.54 1202.1 86.13 1214.31 86.13C1222.67 86.13 1229.6 82.61 1233.23 75.57H1242.69C1237.63 88.44 1226.63 94.71 1213.98 94.71C1196.05 94.71 1182.96 81.95 1182.96 63.47C1182.96 44.99 1195.83 31.79 1213.87 31.79C1231.91 31.79 1244.89 46.09 1244.12 66ZM1192.75 57.42H1234.22C1232.24 47.3 1224.76 40.37 1213.87 40.37C1202.98 40.37 1194.84 47.52 1192.75 57.42Z" fill="#404041"/>
<path d="M1255.01 63.25C1255.01 45.21 1268.54 31.79 1286.25 31.79C1300.33 31.79 1312.43 40.26 1315.62 54.12H1306.16C1303.3 45.54 1295.6 40.26 1286.25 40.26C1273.49 40.26 1264.25 49.94 1264.25 63.25C1264.25 76.56 1273.6 86.24 1286.25 86.24C1295.6 86.24 1303.3 80.85 1306.16 72.38H1315.62C1312.32 86.46 1300.11 94.71 1286.25 94.71C1268.54 94.71 1255.01 81.29 1255.01 63.25Z" fill="#404041"/>
<path d="M1372.82 90.86C1369.52 92.62 1363.03 94.71 1356.43 94.71C1343.45 94.71 1334.76 86.35 1334.76 70.4V41.58H1323.1V33H1334.76V18.48L1343.89 16.5V33H1371.06V41.58H1343.89V69.96C1343.89 80.3 1348.51 86.24 1357.97 86.24C1362.26 86.24 1366.66 84.92 1371.17 83.27L1372.82 90.86Z" fill="#404041"/>
<path d="M168.05 127.37V135.54H180.18V138.38H168.05V149.72H165.06V124.52H181.04V127.36H168.05V127.37Z" fill="#6D6E70"/>
<path d="M192.6 122.01H195.59V149.73H192.6V122.01Z" fill="#6D6E70"/>
<path d="M227.23 140.72H210.28C210.57 144.82 213.48 147.31 217.48 147.31C220.22 147.31 222.48 146.16 223.67 143.85H226.77C225.11 148.06 221.51 150.11 217.37 150.11C211.5 150.11 207.22 145.93 207.22 139.89C207.22 133.85 211.43 129.52 217.33 129.52C223.23 129.52 227.48 134.2 227.23 140.71V140.72ZM210.42 137.91H223.99C223.34 134.6 220.89 132.33 217.33 132.33C213.77 132.33 211.1 134.67 210.42 137.91Z" fill="#6D6E70"/>
<path d="M258.01 140.72H241.06C241.35 144.82 244.26 147.31 248.26 147.31C251 147.31 253.26 146.16 254.45 143.85H257.55C255.89 148.06 252.29 150.11 248.15 150.11C242.28 150.11 238 145.93 238 139.89C238 133.85 242.21 129.52 248.11 129.52C254.01 129.52 258.26 134.2 258.01 140.71V140.72ZM241.2 137.91H254.77C254.12 134.6 251.67 132.33 248.11 132.33C244.55 132.33 241.88 134.67 241.2 137.91Z" fill="#6D6E70"/>
<path d="M284.11 148.86C283.03 149.44 280.91 150.12 278.75 150.12C274.5 150.12 271.66 147.38 271.66 142.16V132.73H267.84V129.92H271.66V125.17L274.65 124.52V129.92H283.54V132.73H274.65V142.02C274.65 145.4 276.16 147.35 279.26 147.35C280.66 147.35 282.1 146.92 283.58 146.38L284.12 148.86H284.11Z" fill="#6D6E70"/>
<path d="M332.17 142.7C332.17 147.85 327.71 150.12 322.96 150.12C316.26 150.12 313.06 146.59 312.27 142.16H315.29C316.12 145.51 318.49 147.31 322.89 147.31C326.78 147.31 329.15 145.69 329.15 142.81C329.15 139.93 326.81 139.46 321.91 138.38C316.58 137.19 312.95 135.9 312.95 131.43C312.95 126.71 317.13 124.12 321.99 124.12C327.89 124.12 330.92 127.04 331.82 130.82H328.8C327.86 128.41 325.7 126.93 322.03 126.93C318.36 126.93 315.95 128.62 315.95 131.43C315.95 133.52 317.53 134.31 322.61 135.46C328.62 136.79 332.18 137.94 332.18 142.7H332.17Z" fill="#6D6E70"/>
<path d="M363.23 139.82C363.23 145.76 358.73 150.11 353.01 150.11C347.29 150.11 342.82 145.72 342.82 139.82C342.82 133.92 347.39 129.53 353.01 129.53C358.63 129.53 363.23 133.89 363.23 139.82ZM345.84 139.82C345.84 144.18 349.01 147.27 353 147.27C356.99 147.27 360.2 144.17 360.2 139.82C360.2 135.47 357 132.37 353 132.37C349 132.37 345.84 135.43 345.84 139.82Z" fill="#6D6E70"/>
<path d="M375.04 122.01H378.03V149.73H375.04V122.01Z" fill="#6D6E70"/>
<path d="M407.33 129.93V149.73H404.34V145.81C403.01 148.4 400.7 150.13 397.28 150.13C392.89 150.13 390.26 147.32 390.26 142.5V129.94H393.25V141.93C393.25 145.46 394.91 147.29 398.15 147.29C402.07 147.29 404.34 144.48 404.34 140.09V129.94H407.33V129.93Z" fill="#6D6E70"/>
<path d="M434.3 148.86C433.22 149.44 431.1 150.12 428.94 150.12C424.69 150.12 421.85 147.38 421.85 142.16V132.73H418.03V129.92H421.85V125.17L424.84 124.52V129.92H433.73V132.73H424.84V142.02C424.84 145.4 426.35 147.35 429.45 147.35C430.85 147.35 432.29 146.92 433.77 146.38L434.31 148.86H434.3Z" fill="#6D6E70"/>
<path d="M449.13 123.19C449.13 124.34 448.23 125.21 447.04 125.21C445.85 125.21 444.95 124.35 444.95 123.19C444.95 122.03 445.85 121.21 447.04 121.21C448.23 121.21 449.13 122.07 449.13 123.19ZM445.53 129.92H448.52V149.72H445.53V129.92Z" fill="#6D6E70"/>
<path d="M480.63 139.82C480.63 145.76 476.13 150.11 470.41 150.11C464.69 150.11 460.22 145.72 460.22 139.82C460.22 133.92 464.79 129.53 470.41 129.53C476.03 129.53 480.63 133.89 480.63 139.82ZM463.24 139.82C463.24 144.18 466.41 147.27 470.4 147.27C474.39 147.27 477.6 144.17 477.6 139.82C477.6 135.47 474.4 132.37 470.4 132.37C466.4 132.37 463.24 135.43 463.24 139.82Z" fill="#6D6E70"/>
<path d="M509.57 137.16V149.72H506.58V137.73C506.58 134.17 504.82 132.37 501.58 132.37C497.55 132.37 495.32 135.21 495.32 139.57V149.72H492.33V129.92H495.32V133.84C496.65 131.18 498.96 129.52 502.41 129.52C506.87 129.52 509.57 132.33 509.57 137.15V137.16Z" fill="#6D6E70"/>
<path d="M520.7 143.53H523.76C524.55 146.3 526.6 147.27 530.28 147.27C533.23 147.27 535.39 146.23 535.39 144.32C535.39 142.41 533.19 141.98 529.56 141.08C524.09 139.71 521.71 138.74 521.71 135.5C521.71 131.68 525.06 129.52 529.74 129.52C534.42 129.52 537.37 131.64 538.16 135.21H535.14C534.38 133.19 532.48 132.37 529.81 132.37C526.61 132.37 524.73 133.59 524.73 135.29C524.73 136.87 526.31 137.31 530.31 138.31C535.39 139.57 538.45 140.36 538.45 144.07C538.45 148.14 534.74 150.12 530.28 150.12C525.1 150.12 521.5 147.71 520.7 143.53Z" fill="#6D6E70"/>
<path d="M963.89 139.82C963.89 145.8 960 150.11 954.6 150.11C951.18 150.11 948.52 148.38 947 145.72V149.72H944.01V122H947V133.99C948.51 131.29 951.21 129.53 954.63 129.53C959.99 129.53 963.88 133.81 963.88 139.82H963.89ZM960.87 139.82C960.87 135.5 958.06 132.37 954.07 132.37C950.08 132.37 946.98 135.47 946.98 139.82C946.98 144.17 950.04 147.27 954.07 147.27C958.1 147.27 960.87 144.17 960.87 139.82Z" fill="#6D6E70"/>
<path d="M992.37 129.93L979.02 158.73H975.82L981.08 147.32L973.05 129.93H976.25L982.66 144.11L989.18 129.93H992.38H992.37Z" fill="#6D6E70"/>
<path d="M1040 142.7C1040 147.85 1035.54 150.12 1030.79 150.12C1024.09 150.12 1020.89 146.59 1020.1 142.16H1023.12C1023.95 145.51 1026.32 147.31 1030.72 147.31C1034.61 147.31 1036.98 145.69 1036.98 142.81C1036.98 139.93 1034.64 139.46 1029.74 138.38C1024.41 137.19 1020.78 135.9 1020.78 131.43C1020.78 126.71 1024.96 124.12 1029.82 124.12C1035.72 124.12 1038.75 127.04 1039.65 130.82H1036.63C1035.69 128.41 1033.53 126.93 1029.86 126.93C1026.19 126.93 1023.78 128.62 1023.78 131.43C1023.78 133.52 1025.36 134.31 1030.44 135.46C1036.45 136.79 1040.01 137.94 1040.01 142.7H1040Z" fill="#6D6E70"/>
<path d="M1081.03 136.87V149.72H1078.04V137.41C1078.04 134.06 1076.53 132.37 1073.58 132.37C1069.84 132.37 1068 135.57 1068 139.57L1068.04 149.72H1065.02V137.41C1065.02 134.06 1063.54 132.37 1060.56 132.37C1056.85 132.37 1055.02 135.57 1055.02 139.57V149.72H1052.03V129.92H1055.02V133.66C1056.32 131.1 1058.3 129.52 1061.46 129.52C1064.62 129.52 1066.86 131.14 1067.65 134.06C1068.91 131.32 1071.07 129.52 1074.45 129.52C1078.63 129.52 1081.04 132.18 1081.04 136.86L1081.03 136.87Z" fill="#6D6E70"/>
<path d="M1112.46 129.93V149.73H1109.47V145.73C1107.92 148.39 1105.26 150.12 1101.84 150.12C1096.44 150.12 1092.59 145.8 1092.59 139.83C1092.59 133.86 1096.48 129.54 1101.84 129.54C1105.26 129.54 1107.96 131.3 1109.47 134V129.93H1112.46ZM1109.51 139.83C1109.51 135.47 1106.45 132.38 1102.42 132.38C1098.39 132.38 1095.62 135.51 1095.62 139.83C1095.62 144.15 1098.43 147.28 1102.42 147.28C1106.41 147.28 1109.51 144.18 1109.51 139.83Z" fill="#6D6E70"/>
<path d="M1136.26 129.6V132.66C1135.94 132.62 1135.5 132.59 1135 132.59C1130.86 132.59 1127.98 135.29 1127.98 140.37V149.73H1124.99V129.93H1127.98V134.36C1129.17 131.41 1131.54 129.54 1135.04 129.54C1135.51 129.54 1135.98 129.58 1136.26 129.61V129.6Z" fill="#6D6E70"/>
<path d="M1161.89 148.86C1160.81 149.44 1158.69 150.12 1156.53 150.12C1152.28 150.12 1149.44 147.38 1149.44 142.16V132.73H1145.62V129.92H1149.44V125.17L1152.43 124.52V129.92H1161.32V132.73H1152.43V142.02C1152.43 145.4 1153.94 147.35 1157.04 147.35C1158.44 147.35 1159.88 146.92 1161.36 146.38L1161.9 148.86H1161.89Z" fill="#6D6E70"/>
<path d="M1195.08 137.12C1195.08 144.43 1189.46 149.72 1182.16 149.72H1173.63V124.52H1182.16C1189.5 124.52 1195.08 129.77 1195.08 137.12ZM1192.09 137.12C1192.09 131.4 1187.81 127.37 1182.19 127.37H1176.61V146.88H1182.19C1187.81 146.88 1192.05 142.85 1192.09 137.13V137.12Z" fill="#6D6E70"/>
<path d="M1218.27 129.6V132.66C1217.95 132.62 1217.51 132.59 1217.01 132.59C1212.87 132.59 1209.99 135.29 1209.99 140.37V149.73H1207V129.93H1209.99V134.36C1211.18 131.41 1213.55 129.54 1217.05 129.54C1217.52 129.54 1217.99 129.58 1218.27 129.61V129.6Z" fill="#6D6E70"/>
<path d="M1232.67 123.19C1232.67 124.34 1231.77 125.21 1230.58 125.21C1229.39 125.21 1228.49 124.35 1228.49 123.19C1228.49 122.03 1229.39 121.21 1230.58 121.21C1231.77 121.21 1232.67 122.07 1232.67 123.19ZM1229.07 129.92H1232.06V149.72H1229.07V129.92Z" fill="#6D6E70"/>
<path d="M1261.43 129.93L1253.98 149.73H1250.27L1242.82 129.93H1246.02L1252.1 146.74L1258.22 129.93H1261.42H1261.43Z" fill="#6D6E70"/>
<path d="M1290.3 140.72H1273.35C1273.64 144.82 1276.55 147.31 1280.55 147.31C1283.29 147.31 1285.55 146.16 1286.74 143.85H1289.84C1288.18 148.06 1284.58 150.11 1280.44 150.11C1274.57 150.11 1270.29 145.93 1270.29 139.89C1270.29 133.85 1274.5 129.52 1280.4 129.52C1286.3 129.52 1290.55 134.2 1290.3 140.71V140.72ZM1273.49 137.91H1287.06C1286.41 134.6 1283.96 132.33 1280.4 132.33C1276.84 132.33 1274.17 134.67 1273.49 137.91Z" fill="#6D6E70"/>
<defs>
<linearGradient id="paint0_linear_14_2" x1="385.63" y1="9.35999" x2="385.63" y2="101.8" gradientUnits="userSpaceOnUse">
<stop stop-color="#2E2E78"/>
<stop offset="0.11" stop-color="#2E2E78"/>
<stop offset="1" stop-color="#692C81"/>
</linearGradient>
</defs>
</svg>
