<svg width="1398" height="487" viewBox="0 0 1398 487" fill="none" xmlns="http://www.w3.org/2000/svg">
<g clip-path="url(#clip0_1324_286)">
<path d="M213 410.3C182.1 395.9 123.5 365.4 81.7 312.5C40.3 260.2 54.9 167.3 57.9 160.9C57.9 160.9 57.9 160.8 58 160.8L58.1 160.6C58.1 160.6 58.1 160.6 58.1 160.5L19.2 199.3C3.20004 215.2 -10.3 225.5 10.6 258.2C12.8 262.4 15.7 266.3 19.2 269.8L19.4 270L182.1 486.8L235 419.7C235.1 419.6 226.6 416.6 213 410.3Z" fill="url(#paint0_linear_1324_286)"/>
<path d="M355.7 269.7L325.6 299.8C293.2 291.3 231.2 271.4 187.4 234.5C140 194.4 128.9 123 126.3 92.2L152.2 66.3C171.7 46.8 203.2 46.8 222.7 66.3L355.7 199.2C375.2 218.7 375.2 250.2 355.7 269.7Z" fill="url(#paint1_linear_1324_286)"/>
<path d="M107.1 182.1L106.5 182.2C105.8 179.5 105.2 176.8 104.6 174.2C105.4 176.8 106.2 179.4 107.1 182.1Z" fill="url(#paint2_linear_1324_286)"/>
<path d="M107.4 183L106.8 183.2L84.5 188.6C84.5 175.1 86.5 161 90.8 149.5H99.6C100.6 157.6 102.4 165.9 104.8 174.3C105.4 176.8 106.5 180.3 107.4 183Z" fill="white"/>
<path d="M136.5 252.8L110.2 274.6C99.2001 255.6 91.0001 232.2 87.1001 213.2L114 206.7C119 219.9 128.4 240.4 136.5 252.8Z" fill="white"/>
<path d="M199.7 306.6L166.4 339.9C155.6 331.6 148.5 324.5 138.8 313.7C134.6 309 127.5 300.2 123.7 295.3L152.2 271.5C154.8 274.1 158.7 277.8 161.5 280.2C172.6 289.5 187.1 299.2 199.7 306.6Z" fill="white"/>
<path d="M294.6 345L259.5 386.5C235 378.1 210.2 367.7 186.8 354.2L222.5 318.5L223.9 319C250 331.2 275.5 339.6 294.6 345Z" fill="white"/>
<path d="M832.2 132.5H921.1C928.4 132.5 934.4 138.6 934.4 146.4C934.4 153.9 928.4 160.1 921.1 160.1H879.7V314.3C879.7 322.1 873.7 328.2 866.4 328.2C858.8 328.2 852.8 322.1 852.8 314.3V160.1H832.1C824.5 160.1 818.5 154 818.5 146.4C818.6 138.6 824.6 132.5 832.2 132.5Z" fill="white"/>
<path d="M991.5 201.9C991.5 209.4 985.5 215.8 977.9 215.8C955 215.8 936.5 234.8 936.5 258.2V314.2C936.5 321.7 930.5 328.1 923.2 328.1C915.6 328.1 909.6 321.7 909.6 314.2V258.2C909.6 219.4 940.3 188.2 977.9 188.2C985.5 188.3 991.5 194.4 991.5 201.9Z" fill="white"/>
<path d="M1127.3 259.1V313.8C1127.3 321.9 1121.6 327.7 1113.7 327.7C1108.3 327.7 1100.6 321.8 1100.6 313.8C1088.9 323.8 1075.8 327.7 1060.3 327.7C1021.9 327.7 991.5 298.4 991.5 259.1C991.5 219.8 1022 188.6 1060.3 188.6C1098.7 188.5 1127.3 219.8 1127.3 259.1ZM1100.6 259.1C1100.6 235.7 1083.2 215.9 1060.3 215.9C1037.4 215.9 1018.1 235.7 1018.1 259.1C1018.1 282.5 1037.4 300.4 1060.3 300.4C1083.2 300.3 1100.6 282.5 1100.6 259.1Z" fill="white"/>
<path d="M1141.6 258.2C1141.6 219.4 1172.1 188.2 1209.6 188.2C1234.1 188.2 1256.7 201.6 1268.9 223.1C1272.7 229.8 1270.3 238.2 1264 242.1C1257.5 245.7 1249.3 243.5 1245.5 237.1C1238.2 224 1224.6 215.9 1209.6 215.9C1187 215.9 1168.2 234.9 1168.2 258.3C1168.2 281.4 1187 300.7 1209.6 300.7C1223.7 300.7 1236.8 293.5 1244.4 281.2C1248.5 274.8 1256.9 273.1 1263.2 277C1269.5 281.2 1271.1 289.8 1267 296.2C1254.5 316.3 1233 328.3 1209.6 328.3C1172.1 328.2 1141.6 296.7 1141.6 258.2Z" fill="white"/>
<path d="M1392.6 324C1390.2 326.2 1387.2 327.3 1384.2 327.3C1380.1 327.3 1376.3 325.6 1373.9 322.3L1322.2 258.7L1313.8 264.6V313.4C1313.8 321.2 1307.5 327.3 1300.2 327.3C1292.9 327.3 1286.9 321.2 1286.9 313.4V257.4V132.8C1286.9 125.3 1292.9 119.1 1300.2 119.1C1307.5 119.1 1313.8 125.2 1313.8 132.8V232L1375.6 190.5C1381.3 185.8 1389.7 186.3 1394.6 192.2C1399.2 198.1 1398.4 207 1392.7 211.7L1345.1 243.8L1394.6 304.9C1399.1 310.7 1398.3 319.3 1392.6 324Z" fill="white"/>
<path d="M520.9 313.7C520.9 321.5 514.6 327.6 507.3 327.6H413.4C413.1 327.6 413.1 327.6 412.9 327.6C412.6 327.6 412.6 327.6 412.4 327.6C404.8 327.6 398.8 321.5 398.8 313.7V147C398.8 139.2 404.8 133.1 412.4 133.1C412.7 133.1 412.7 133.1 412.9 133.1C413.2 133.1 413.2 133.1 413.4 133.1H507.3C514.6 133.1 520.9 139.2 520.9 147C520.9 154.8 514.6 160.9 507.3 160.9H426V216.9H488C495.3 216.9 501.6 223 501.6 230.8C501.6 238.6 495.3 244.7 488 244.7H426V299.6H507.3C514.7 299.8 520.9 305.9 520.9 313.7Z" fill="white"/>
<path d="M657.5 259.1V313.8C657.5 321.9 651.8 327.7 643.9 327.7C638.5 327.7 630.8 321.8 630.8 313.8C619.1 323.8 606 327.7 590.5 327.7C552.1 327.7 521.7 298.4 521.7 259.1C521.7 219.8 552.2 188.6 590.5 188.6C628.9 188.5 657.5 219.8 657.5 259.1ZM630.8 259.1C630.8 235.7 613.4 215.9 590.5 215.9C567.6 215.9 548.3 235.7 548.3 259.1C548.3 282.5 567.6 300.4 590.5 300.4C613.4 300.3 630.8 282.5 630.8 259.1Z" fill="white"/>
<path d="M753.2 286.1C753.2 309.2 735 328.2 712.4 328.2C693.1 328.2 677.6 314 672.4 297.8C670 290.6 675.7 283 682.7 281.3C690 279.9 695.2 285.2 698.8 292.2C702.6 299.4 705.9 300.6 712.4 300.6C720 300.6 726.3 294.2 726.3 286.1C726.3 278.3 720 271.9 712.4 271.9C701.5 271.9 691.2 267.4 683.6 259.6C675.7 251.8 671.6 241.2 671.6 230C671.6 206.9 689.8 188.2 712.4 188.2C731.4 188.2 748.9 201.6 751.6 217.2C753 224.7 748.6 232.3 741.3 233.7C734 235.4 727.7 230.4 725.2 223.4C723.6 218.9 718.9 215.9 712.4 215.9C704.8 215.9 698.5 222.3 698.5 230.1C698.5 237.9 704.8 244.3 712.4 244.3C723.3 244.3 733.6 248.8 741.2 256.6C749.1 264.7 753.2 275 753.2 286.1Z" fill="white"/>
<path d="M771.9 156.3C769.5 153.8 767.8 150.2 767.8 146.5C767.8 142.9 769.4 139.3 771.9 136.7C774.3 134.2 777.9 132.5 781.4 132.5C784.9 132.5 788.5 134.2 790.9 136.7C793.3 139.2 794.7 142.8 794.7 146.5C794.7 150.1 793.3 153.7 790.9 156.3C788.5 158.8 784.9 160.2 781.4 160.2C777.9 160.2 774.3 158.8 771.9 156.3ZM767.8 314.2V201.8C767.8 194.3 773.8 188.1 781.4 188.1C788.7 188.1 794.7 194.2 794.7 201.8V314.2C794.7 322 788.7 328.1 781.4 328.1C773.8 328.1 767.8 322 767.8 314.2Z" fill="white"/>
<path d="M781.3 173.7C794.721 173.7 805.6 162.82 805.6 149.4C805.6 135.979 794.721 125.1 781.3 125.1C767.879 125.1 757 135.979 757 149.4C757 162.82 767.879 173.7 781.3 173.7Z" fill="#089FC5"/>
<path d="M827.3 90.7C816.3 85.6 805 82.7 793.6 82.2C782.2 81.6 770.9 83.3 760.5 87.1C750.1 90.9 740.5 97 733.1 105.4C725.7 113.7 720.7 124.3 719.4 136.4C718.7 133.5 718.3 130.4 718.3 127.3C718.3 124.2 718.6 121.1 719.3 118C719.9 114.9 721 111.9 722.3 109C723.6 106.1 725.1 103.3 727 100.6C734.1 89.8 745 82 757 77.6C769 73.2 782.1 72.1 794.5 74.3C806.8 76.5 818.7 82 827.3 90.7Z" fill="white"/>
<path d="M699.4 115.8C697.6 108.3 697.7 100.2 699.5 92.4C701.3 84.6 704.8 77.2 709.5 70.6C714.2 64 720.1 58.3 726.8 53.7C733.4 49 740.7 45.4 748.4 42.9C763.7 37.8 780.3 37 795.9 40.3C803.7 42 811.2 44.7 818.2 48.5C825.1 52.3 831.4 57.1 836.6 62.9C823.6 54.6 809.3 49.7 794.7 48.1C780.1 46.4 765.3 47.9 751.6 52.4C737.9 57 725.3 64.7 715.7 75.6C710.9 81 707 87.2 704.2 94C702.8 97.4 701.7 101 700.9 104.6C700.7 105.5 700.5 106.4 700.4 107.4L700 110.2C699.7 111.9 699.6 113.8 699.4 115.8Z" fill="white"/>
<path d="M681.3 98.7C678.2 89.5 677.4 79.3 678.9 69.4C680.4 59.5 684.2 49.8 689.8 41.4C692.6 37.2 695.8 33.2 699.3 29.5C702.8 25.8 706.6 22.5 710.7 19.5C714.8 16.5 719.1 13.9 723.6 11.5C728.1 9.2 732.8 7.3 737.6 5.6C756.8 -0.900003 777.7 -1.7 797.1 2.9L800.7 3.8C801.9 4.1 803.1 4.5 804.3 4.9C806.7 5.6 809 6.5 811.4 7.4C816 9.3 820.5 11.5 824.8 14C829 16.6 833.1 19.4 836.8 22.6C837.7 23.4 838.6 24.3 839.5 25.1C840.4 25.9 841.3 26.8 842.1 27.7C843.8 29.4 845.4 31.3 846.9 33.2C831.8 21 813.9 13.5 795.5 10.6C777.1 7.7 758.1 9.1 740.7 15C723.3 20.8 707.3 31.3 696.1 45.9C690.5 53.1 686.2 61.5 683.6 70.5C682.3 75 681.5 79.6 681 84.4C680.8 86.8 680.7 89.2 680.8 91.5C680.9 93.9 681 96.3 681.3 98.7Z" fill="white"/>
<path d="M318.9 181L210.4 72.5C197.6 59.7 176.8 59.7 164 72.5L151.7 84.8L318.9 181Z" fill="url(#paint3_linear_1324_286)"/>
</g>
<defs>
<linearGradient id="paint0_linear_1324_286" x1="4.19635e-05" y1="323.558" x2="235.085" y2="323.558" gradientUnits="userSpaceOnUse">
<stop offset="0.2609" stop-color="#68C6DD"/>
<stop offset="0.7859" stop-color="#02A0C6"/>
</linearGradient>
<linearGradient id="paint1_linear_1324_286" x1="256.016" y1="292.665" x2="242.334" y2="60.845" gradientUnits="userSpaceOnUse">
<stop offset="0.2609" stop-color="#68C6DD"/>
<stop offset="0.7859" stop-color="#02A0C6"/>
</linearGradient>
<linearGradient id="paint2_linear_1324_286" x1="106.117" y1="181.852" x2="105.682" y2="174.491" gradientUnits="userSpaceOnUse">
<stop offset="0.2609" stop-color="#68C6DD"/>
<stop offset="0.7859" stop-color="#02A0C6"/>
</linearGradient>
<linearGradient id="paint3_linear_1324_286" x1="186.493" y1="164.213" x2="275.566" y2="102.913" gradientUnits="userSpaceOnUse">
<stop offset="0.2331" stop-color="#02A0C6" stop-opacity="0"/>
<stop offset="0.9121" stop-color="#91D6E5"/>
</linearGradient>
<clipPath id="clip0_1324_286">
<rect width="1397.5" height="486.8" fill="white"/>
</clipPath>
</defs>
</svg>
