<svg width="492" height="476" viewBox="0 0 492 476" fill="none" xmlns="http://www.w3.org/2000/svg">
<path d="M434 0L450 19L492 60V0H434ZM252 18L253 19L252 18Z" fill="#D3DA37"/>
<path d="M111 168H110C94.6269 195.613 76.0813 221.616 71.9999 254L67.9999 252L68.9999 256L65.9999 257C64.9999 225 82.0029 195.211 82.0029 165C82.0029 156.73 63.4466 138.536 67.9999 132V131L64.9999 130L66.9999 123L64.9999 124L66.9999 122V115L71.9999 112C74.6695 97.5958 97.9699 82.4942 108.91 73.8848C151.348 40.4902 209.468 17.006 264 16.9998V17.9998C231.202 28.4505 236.552 83.1663 272 83.9998V84.9998C224.855 88.7206 180.921 101.865 144 132.754C133.735 141.341 119.592 152.54 114 165H115C124.083 153.381 134.624 142.977 146 133.615C155.118 126.112 164.782 119.531 175 113.614C226.436 83.8315 317.854 64.0293 345.536 135C349.993 146.426 350 157.955 350 170H351C351 143.603 345.529 127.372 331 108C326.545 102.061 318.13 96.0648 312 92.9998C308.648 91.3237 304.415 90.3388 305 87.9998L301 88.9998L306 83.9998L305 86.9998L307 83.9998L315 84.9998C331.211 80.6405 352.211 83.9998 369 83.9998C373.481 83.9998 384.88 86.2279 386 80.9998L388 84.9998L395 82.9998L397 86.9998V87.9998C402.482 90.865 405.663 98.4328 407.988 104C413.977 118.335 417.626 132.566 419.169 148C423.992 196.24 401.61 244.907 363 274.102C348.708 284.908 333.137 290.813 317 298C322.779 318.021 343.598 334.756 363 340.562C385.125 347.183 410.205 341.96 418.56 370C419.943 374.641 419.999 379.204 420 384C425.723 370.361 413.651 352.437 401.83 346.518C392.786 341.988 381.733 343.073 372 341.195C356.763 338.255 342.669 330.361 332.09 318.999C328.384 315.019 320.493 306.915 320.573 301.055C320.64 296.085 330.415 294.333 334 292.691C347.752 286.394 360.568 278.658 372 268.711C400.741 243.703 416.298 209.308 420.715 172C422.888 153.639 419.623 133.551 414.279 116C409.804 101.302 402.36 87.4263 393.421 74.9998C327.128 -17.1503 189.683 11.8869 111 69.756C54.959 110.972 13.5927 177.771 3.9999 247C0.164899 274.676 -7.8345 322.61 31.9999 326.826C36.8835 327.343 42.3015 326.606 46.9999 325.215C58.5218 321.804 66.9861 311.486 69.5747 300C71.5344 291.305 70.3349 282.766 71.1697 274C72.7626 257.272 76.5926 240.879 82.0029 225C86.1049 212.961 91.5879 200.979 98.0119 190C102.233 182.784 108.451 175.999 111 168Z" fill="#5CB1DE"/>
<path d="M243 17L244 18L243 17Z" fill="#D3DA37"/>
<path d="M72 112L67 115L65 124L67 123V124C65.512 126.356 64.7456 130.606 68 131V132C63.7316 135.789 67 155.821 67 162C67 182.98 67.4978 204.027 66.9853 225C66.7347 235.258 64.1718 246.956 66 257L69 256L68 252L72 254C88.52 186.64 131.679 128.387 197 101.228C221.531 91.0292 246.017 88.2836 272 84.9999V83.9999C234.531 82.0562 234.707 31.8574 264 17.9999C253.377 13.5422 234.001 19.6812 223 21.8031C181.254 29.8557 141.68 48.0362 107.961 73.8849C97.998 81.5219 88.779 89.8141 80.171 98.9609C76.5551 102.802 71.8024 106.445 72 112Z" fill="#5CB1DE"/>
<path d="M300 18L301 19L300 18ZM306 19L307 20L306 19ZM311 20L312 21L311 20ZM315 21L316 22L315 21ZM329 26L330 27L329 26ZM334 28L335 29L334 28ZM346 34L347 35L346 34ZM374 54L375 55L374 54ZM389 69L390 70L389 69Z" fill="#D3DA37"/>
<path d="M268.667 79.3335L269.333 79.6669L268.667 79.3335ZM276 81.0002V82.0002H280L276 81.0002ZM281 81.0002L282 82.0002L281 81.0002ZM386 81.0002C382.681 86.1198 372.51 84.0002 367 84.0002C351.074 84.0002 330.26 80.4896 315 85.0002C314.242 80.5498 307.1 85.3012 305 87.0002L306 84.0002L301 89.0002L305 88.0002C305.589 92.1556 314.561 95.3396 318 97.8752C327.752 105.065 335.54 113.478 341.588 124C367.566 169.191 336.204 227.886 285 234V235C301.142 240.506 309.998 253.215 310 270C297.438 263.296 273.178 268.141 259 267.996C254.269 267.948 245.274 266.044 243.433 272.11C239.315 285.673 246.369 305.242 250.667 318C264.116 357.916 297.741 390.137 337 404.413C349.625 409.003 366.609 414.188 380 411L379 413L386 411H387C391.981 416.234 406.062 406.674 409.96 402.907C421.608 391.648 422.72 373.576 414.647 360C403.597 341.416 382.796 345.848 365 340.845C343.894 334.912 325.431 318.144 317 298L326 295V294H323V293C338.563 294.635 357.703 279.803 368.91 270.094C404.481 239.28 423.871 194.031 419.169 147C417.626 131.566 413.977 117.335 407.988 103C405.792 97.7432 402.736 89.8049 397 88.0002V87.0002L399 86.0002L395 83.0002L388 85.0002L386 81.0002ZM388 81.0002L389 82.0002L388 81.0002ZM284 82.0002V83.0002L288 84.0002V83.0002L284 82.0002ZM390.667 82.3335L391.333 82.6669L390.667 82.3335ZM292 83.0002V84.0002H300L292 83.0002ZM289 85.0002V86.0002L297 87.0002L289 85.0002ZM299 85.0002L300 88.0002H301V85.0002H299Z" fill="#5CB1DE"/>
<path d="M268 86L269 87L268 86ZM270.667 86.3333L271.333 86.6667L270.667 86.3333ZM247 88L248 89L247 88Z" fill="#D3DA37"/>
<path d="M312.667 88.3335L313.333 88.6669L312.667 88.3335Z" fill="#5CB1DE"/>
<path d="M241 89L242 90L241 89Z" fill="#D3DA37"/>
<path d="M398.333 89.6665L398.667 90.3331L398.333 89.6665ZM315 89.9998L316 90.9998L315 89.9998Z" fill="#5CB1DE"/>
<path d="M226 92L227 93L226 92ZM320 101L321 102L320 101Z" fill="#D3DA37"/>
<path d="M73.667 109.333L74.3336 109.667L73.667 109.333Z" fill="#5CB1DE"/>
<path d="M65 116L66 117L65 116ZM64 118L62 119V120L64 118ZM64 121L65 122L64 121ZM59 124L60 125L59 124ZM62 124L63 125L62 124Z" fill="#5CB1DE"/>
<path d="M266.667 130.333L267.333 130.667L266.667 130.333Z" fill="#D3DA37"/>
<path d="M116 265H117C118.378 248.125 126.667 221.993 139 210L138 212H139C147.711 205.668 157.586 207 168 207C187.241 207 211.777 211.154 230 207V208L222 213L232 209V210L219 219L215 218V219L217 220L210 224C202.775 239.586 190.921 250.576 186.152 268C181.131 286.342 183 306.164 183 325C183 354.269 182.242 383.654 183.08 412.91C183.726 435.448 185.869 465.974 158 473C163.811 474.713 170.939 468.962 174.699 464.907C186.917 451.729 184.166 432.6 184.545 416C185.295 383.136 184 349.926 184 317C184 291.434 183.865 266.302 198.345 244C212.594 222.053 233.543 207.637 259 201.888C269.957 199.414 281.801 201.678 292 196.366C307.357 188.366 314.424 170.299 308.96 154C297.855 120.877 255.594 129.675 230 136.745C186.145 148.86 149.919 180.664 129.753 221C123.097 234.314 116.648 249.939 116 265Z" fill="#5CB1DE"/>
<path d="M279 130L280 131L279 130ZM256 131L257 132L256 131ZM285 131L286 132L285 131ZM243 133L244 134L243 133ZM290 133L291 134L290 133ZM239 134L240 135L239 134ZM292 134L293 135L292 134ZM235 135L236 136L235 135ZM224 138L225 139L224 138ZM298 138L299 139L298 138ZM45 139L46 140L45 139ZM220 139L221 140L220 139ZM302 142L303 143L302 142ZM211 143L212 144L211 143ZM304 145L305 146L304 145ZM305 146L306 147L305 146ZM306 148L307 149L306 148ZM197 150L198 151L197 150ZM193 152L194 153L193 152ZM183 158L184 159L183 158ZM167 171L168 172L167 171Z" fill="#D3DA37"/>
<path d="M349 171L348 179H349V171Z" fill="#5CB1DE"/>
<path d="M25 176L26 177L25 176Z" fill="#D3DA37"/>
<path d="M347 180V183H348L347 180ZM346 183V186H347L346 183Z" fill="#5CB1DE"/>
<path d="M304 185L305 186L304 185Z" fill="#D3DA37"/>
<path d="M345 186L344 191H345V186ZM343.333 191.667L343.667 192.333L343.333 191.667Z" fill="#5CB1DE"/>
<path d="M18 193L19 194L18 193Z" fill="#D3DA37"/>
<path d="M342.333 193.667L342.667 194.333L342.333 193.667ZM341 195L340 198L341 195ZM339.333 198.667L339.667 199.333L339.333 198.667ZM338 200L337 203L338 200Z" fill="#5CB1DE"/>
<path d="M15 201L16 202L15 201Z" fill="#D3DA37"/>
<path d="M252 201L253 202L252 201ZM142 203L143 204L142 203ZM238.667 203.333L239.333 203.667L238.667 203.333Z" fill="#5CB1DE"/>
<path d="M336 203L337 204L336 203Z" fill="#5CB1DE"/>
<path d="M14 204L15 205L14 204Z" fill="#D3DA37"/>
<path d="M235.667 204.333L236.333 204.667L235.667 204.333Z" fill="#5CB1DE"/>
<path d="M335 204L333 208L335 204Z" fill="#5CB1DE"/>
<path d="M220 205V206L224 207V206L220 205ZM138 212L139 210H138C117.717 233.557 115 269.606 115 299C115 335.034 115.171 370.953 114.999 407C114.928 421.951 111.413 442.273 118.276 456C121.426 462.299 126.305 469.343 134 469C134.671 474.558 142.712 473.794 147 473V474H145V475C161.683 474.862 178.292 466.546 182.319 449C184.285 440.437 182.842 430.742 183.014 422C183.636 390.386 183 358.644 183 327C183 310.454 181.76 293.388 184.296 277C186.21 264.635 191.378 252.487 198.054 242C201.803 236.111 208.119 230.719 210 224C212.499 223.719 216.626 221.828 215 219V218L219 219L232 210V209L222 213L230 208C222.775 205.854 212.741 207 205 207C185.765 207 154.207 200.977 138 212Z" fill="#5CB1DE"/>
<path d="M13 207L14 208L13 207Z" fill="#D3DA37"/>
<path d="M232 208L233 209L232 208Z" fill="#5CB1DE"/>
<path d="M331 208L328 213L333 208H331ZM220 210L221 211L220 210ZM327 213L328 214L327 213ZM326 214L327 215L326 214ZM325 215L326 216L325 215ZM324 216L325 217L324 216ZM321 219L324 217L321 219ZM317 222L321 219L317 222Z" fill="#5CB1DE"/>
<path d="M9 221L10 222L9 221Z" fill="#D3DA37"/>
<path d="M315.667 222.333L316.333 222.667L315.667 222.333ZM314 223L315 224L314 223ZM312.667 224.333L313.333 224.667L312.667 224.333Z" fill="#5CB1DE"/>
<path d="M8 225L9 226L8 225Z" fill="#D3DA37"/>
<path d="M310.667 225.333L311.333 225.667L310.667 225.333ZM308.667 226.333L309.333 226.667L308.667 226.333ZM306.667 227.333L307.333 227.667L306.667 227.333ZM304.667 228.333L305.333 228.667L304.667 228.333ZM301 229V230H304L301 229ZM298 230V231H301L298 230ZM295 231V232H298L295 231Z" fill="#5CB1DE"/>
<path d="M289 232L290 233L289 232Z" fill="#D3DA37"/>
<path d="M290 232V233H294L290 232ZM243 295H244C243.982 288.596 240.019 275.763 244.742 270.508C248.288 266.563 256.336 267.999 261 268C275.635 268.005 296.432 264.251 310 270C310 253.452 302.182 239.083 285 235V234H289C285.1 232.478 280.183 233.891 276 234.014C239.894 235.075 240.917 268.603 243 295ZM69 236L70 237L69 236Z" fill="#5CB1DE"/>
<path d="M5 238L6 239L5 238Z" fill="#D3DA37"/>
<path d="M68 239V244H69L68 239ZM73.3333 240.667L73.6667 241.333L73.3333 240.667ZM70 241V246H71L70 241Z" fill="#5CB1DE"/>
<path d="M253 242L254 243L253 242ZM250 244L251 245L250 244ZM393 244L394 245L393 244ZM3 250L4 251L3 250Z" fill="#D3DA37"/>
<path d="M70 255V267H71L70 256H71V258H72L70 255Z" fill="#5CB1DE"/>
<path d="M2 258L3 259L2 258Z" fill="#D3DA37"/>
<path d="M66.333 258.667L66.6664 259.333L66.333 258.667Z" fill="#5CB1DE"/>
<path d="M1 265V268H2L1 265Z" fill="#D3DA37"/>
<path d="M68.333 265.667L68.6664 266.333L68.333 265.667Z" fill="#5CB1DE"/>
<path d="M115 266V272H116L115 266Z" fill="#5CB1DE"/>
<path d="M243 267L244 268L243 267Z" fill="#5CB1DE"/>
<path d="M369 270L370 271L369 270Z" fill="#D3DA37"/>
<path d="M68 271L69 272L68 271Z" fill="#5CB1DE"/>
<path d="M368 271L369 272L368 271Z" fill="#D3DA37"/>
<path d="M114 272C109.44 308.08 113 346.615 113 383C113 404.738 109.536 429.879 115 451H116C110.747 409.434 115 364.901 115 323C115 308.7 119.506 285.121 114 272Z" fill="#5CB1DE"/>
<path d="M364 274L365 275L364 274ZM359 278L360 279L359 278Z" fill="#D3DA37"/>
<path d="M65 281L66 282L65 281Z" fill="#5CB1DE"/>
<path d="M354 281L355 282L354 281ZM0 283L1 284L0 283ZM344 287L345 288L344 287Z" fill="#D3DA37"/>
<path d="M335 289L336 290L335 289Z" fill="white"/>
<path d="M340 289L341 290L340 289Z" fill="#D3DA37"/>
<path d="M328 290L329 291L328 290Z" fill="white"/>
<path d="M338 290L339 291L338 290Z" fill="#D3DA37"/>
<path d="M330.667 291.333L331.333 291.667L330.667 291.333ZM321 292L322 293L321 292ZM323 293V294H327L323 293Z" fill="white"/>
<path d="M64 294L66 300V294H64Z" fill="#5CB1DE"/>
<path d="M329 294L330 295L329 294Z" fill="#D3DA37"/>
<path d="M244 295C244.305 309.688 251.509 322.812 257 336H258L251.003 318L244 295Z" fill="#5CB1DE"/>
<path d="M321 297L322 298L321 297Z" fill="#D3DA37"/>
<path d="M64.9997 301L63.9997 304H64.9997V301ZM62.333 304.667L62.6664 305.333L62.333 304.667Z" fill="#5CB1DE"/>
<path d="M3 305L4 306L3 305ZM6 311L7 312L6 311ZM60 316L61 317L60 316ZM25 325L26 326L25 325ZM29 326L30 327L29 326Z" fill="#D3DA37"/>
<path d="M258.333 336.667L258.667 337.333L258.333 336.667ZM259 338L261 343H262L259 338ZM262 343L266 349L262 343Z" fill="#5CB1DE"/>
<path d="M112 345V348H113L112 345ZM262 345L263 346L262 345Z" fill="#D3DA37"/>
<path d="M266 349L268 352L266 349ZM268 352L270 355V352H268ZM270 355L271 356L270 355ZM271 356L274 360L271 356ZM274 360V362H276L274 360ZM276 362L279 366L276 362ZM279 366L281 368V366H279ZM281 368L282 369L281 368ZM282 369L283 370L282 369ZM283 370L284 371L283 370ZM284 371L285 372L284 371ZM285 372L286 373L285 372Z" fill="#5CB1DE"/>
<path d="M420 372L421 373L420 372Z" fill="#D3DA37"/>
<path d="M286 373L287 374L286 373ZM287 374L289 376V374H287ZM289 376L295 381L289 376Z" fill="#5CB1DE"/>
<path d="M293 380L294 381L293 380Z" fill="#D3DA37"/>
<path d="M295 381L296 382L295 381ZM296 382L300 385L296 382Z" fill="#5CB1DE"/>
<path d="M420 384L421 385L420 384Z" fill="#D3DA37"/>
<path d="M300 385L303 387L300 385ZM419 385L416 396H417L419 385ZM303 387L306 389L303 387ZM306 389L309 391L306 389ZM309 391L312 393L309 391ZM312.667 393.333L313.333 393.667L312.667 393.333ZM314.667 394.333L315.333 394.667L314.667 394.333ZM316 395V396L326 400V399L316 395ZM415 396L414 399H415V396Z" fill="#5CB1DE"/>
<path d="M415 397L416 398L415 397ZM320 398L321 399L320 398Z" fill="#D3DA37"/>
<path d="M413 399L414 400L413 399ZM326.667 400.333L327.333 400.667L326.667 400.333ZM412 400L408 405L412 400ZM328.667 401.333L329.333 401.667L328.667 401.333Z" fill="#5CB1DE"/>
<path d="M412 401L413 402L412 401Z" fill="#D3DA37"/>
<path d="M330.667 402.333L331.333 402.667L330.667 402.333Z" fill="#5CB1DE"/>
<path d="M411 402L412 403L411 402Z" fill="#D3DA37"/>
<path d="M332 403V404H335L332 403Z" fill="#5CB1DE"/>
<path d="M410 403L411 404L410 403Z" fill="#D3DA37"/>
<path d="M335 404V405L340 406V405L335 404Z" fill="#5CB1DE"/>
<path d="M409 404L410 405L409 404ZM337 405L338 406L337 405Z" fill="#D3DA37"/>
<path d="M407 405L408 406L407 405ZM341 406V407H344L341 406ZM404 408L407 406L404 408ZM344 407V408H347L344 407Z" fill="#5CB1DE"/>
<path d="M347 408L348 409L347 408Z" fill="#D3DA37"/>
<path d="M348 408V409H351L348 408ZM400 409V410L404 409H400ZM351 409V410H356L351 409Z" fill="#5CB1DE"/>
<path d="M402 409L403 410L402 409ZM184 410L185 411L184 410Z" fill="#D3DA37"/>
<path d="M356 410V411H361L356 410ZM394 411V412L400 411H394Z" fill="#5CB1DE"/>
<path d="M361 411L362 412L361 411Z" fill="#D3DA37"/>
<path d="M362 411V412H368L362 411Z" fill="#5CB1DE"/>
<path d="M378.667 411.333L379.333 411.667L378.667 411.333ZM386 411L387 412L386 411Z" fill="white"/>
<path d="M397 411L398 412L397 411ZM368 412L369 413L368 412Z" fill="#D3DA37"/>
<path d="M369 412V413H379L369 412ZM380 412L381 413L380 412ZM382 413V414H389L382 413ZM390 412V413H394L390 412Z" fill="#5CB1DE"/>
<path d="M184 413L185 414L184 413ZM380.667 413.333L381.333 413.667L380.667 413.333ZM383 413L384 414L383 413ZM386 413L387 414L386 413ZM389 413L390 414L389 413ZM184.333 417.667L184.667 418.333L184.333 417.667ZM113 444L114 445L113 444ZM183 448L184 449L183 448ZM115 451L116 452L115 451Z" fill="#D3DA37"/>
<path d="M116.333 452.667L116.667 453.333L116.333 452.667ZM117 454L118 458H119L117 454ZM119.333 458.667L119.667 459.333L119.333 458.667ZM120 460L122 464H123L120 460Z" fill="#5CB1DE"/>
<path d="M175 460L176 461L175 460Z" fill="white"/>
<path d="M120 461L121 462L120 461Z" fill="#D3DA37"/>
<path d="M123 464L124 465L123 464ZM124 465L125 466L124 465ZM125 466L126 467L125 466Z" fill="#5CB1DE"/>
<path d="M168 466L169 467L168 466Z" fill="white"/>
<path d="M126.667 467.333L127.333 467.667L126.667 467.333Z" fill="#5CB1DE"/>
<path d="M130 467L132 469L130 467Z" fill="white"/>
<path d="M128 468L129 469L128 468ZM129 469V470L134 472V471L129 469Z" fill="#5CB1DE"/>
<path d="M132.667 469.333L133.333 469.667L132.667 469.333Z" fill="white"/>
<path d="M130 470L131 471L130 470ZM134 472L135 473L134 472Z" fill="#D3DA37"/>
<path d="M135.667 472.333L136.333 472.667L135.667 472.333Z" fill="#5CB1DE"/>
<path d="M140 472L141 473L140 472ZM142 472L143 473L142 472Z" fill="white"/>
<path d="M137 473V474H140L137 473Z" fill="#5CB1DE"/>
<path d="M144 473V474H147L144 473Z" fill="white"/>
<path d="M140 474V475H145L140 474ZM152 474V475H157L152 474Z" fill="#5CB1DE"/>
<path d="M157 474L158 475L157 474ZM146.667 475.333L147.333 475.667L146.667 475.333Z" fill="#D3DA37"/>
<path d="M148 475L149 476L148 475Z" fill="#5CB1DE"/>
<path d="M149.667 475.333L150.333 475.667L149.667 475.333Z" fill="#D3DA37"/>
</svg>
