<svg width="335" height="138" viewBox="0 0 335 138" fill="none" xmlns="http://www.w3.org/2000/svg">
<path d="M54.9 1.1C46.3 2.4 38.6 8 34.4 16C33 18.6 32.5 21.7 32.5 28C32.5 36 32.7 36.9 36 42.4C39.6 48.3 57.4 69 59 69C59.4 69 63.6 64.6 68.2 59.3C84.8 39.8 88.3 32.3 85.5 21.6C84.7 18.5 82.8 14.2 81.4 12C76.2 4.2 65.1 -0.400001 54.9 1.1ZM67 16.8C71 19.7 73.2 24.8 72.7 30C72.3 33.6 71.4 35.1 68.1 38.2C64.7 41.4 63.4 42 59.8 42C48.9 42 42.1 31.5 47 22.1C50.8 14.6 60.5 12 67 16.8Z" fill="#B00108"/>
<path d="M141.4 28.4C137.2 30.3 135 33.7 135 38.3C135 43.6 137 46.9 142.8 51.3C150.1 56.8 155 62.6 155 65.6C155 69.5 150 74 145.6 74C142.9 74 141.2 73.2 138.5 70.4C136.4 68.3 134.3 67.1 133.4 67.4C131.3 68.2 131.7 69.5 135.1 73.5C140.9 80.1 151.1 80.3 156.4 73.9C162.2 67 160.8 60.6 151.8 52.8C137.8 40.6 137.2 39.6 141.1 34.6C143.9 31 148 31.2 152.3 35C155.4 37.7 155.9 37.8 157.1 36.4C161 31.7 148.4 25.3 141.4 28.4Z" fill="black"/>
<path d="M275 28.2C275 28.4 274.9 39.4 274.7 52.8L274.5 77H276.7C278.9 77 278.9 76.6 279.2 65.8C279.4 59 279.9 54.5 280.6 54.3C281.2 54.1 285.7 59.1 290.5 65.5C298.2 75.4 299.8 77 302.3 77H305.2L301.9 72.7C300 70.4 296.2 65.5 293.2 61.7C287.6 54.6 287.6 54.6 294.5 53.6C297 53.3 299.5 52 301.5 50C304.1 47.4 304.5 46.3 304.5 41.5C304.5 36.7 304.1 35.7 301.4 32.9C298.6 30.1 297.3 29.7 290.4 28.9C282.5 28.1 275 27.8 275 28.2ZM298.1 35.9C300 38.2 300.6 42.4 299.4 45.5C298.3 48.3 293.4 50 286 50H279V41.4V32.8L287.6 33.1C295.2 33.5 296.4 33.8 298.1 35.9Z" fill="black"/>
<path d="M308 30.5C308 32.9 308.3 33 313.5 33H319V55V77H321.5H324V55.1V33.1L329.3 32.8C333.7 32.5 334.5 32.2 334.5 30.5C334.5 28.6 333.7 28.5 321.3 28.2L308 27.9V30.5Z" fill="black"/>
<path d="M171.5 32.1C170.9 35.7 165 76 165 76.7C165 77 166 77 167.2 76.8C169.3 76.5 169.6 75.5 171.7 60.1C172.9 51.1 174.1 43.5 174.4 43.3C174.7 43 178.7 50.5 183.4 59.9C188.2 69.3 192.4 77 192.8 77C193.3 77 197.4 69.3 201.9 59.9C206.4 50.5 210.4 43.1 210.7 43.3C210.9 43.6 212.2 51.2 213.4 60.2C215.4 75.5 215.7 76.5 217.8 76.8C219.1 77 220 76.6 219.9 75.8C219.8 72.3 213.4 30 212.9 29.6C212.6 29.3 208.2 37.6 203 48.1C197.8 58.6 193.2 67.4 192.8 67.6C192.4 67.9 187.7 59.4 182.4 48.8C177.2 38.2 172.7 29.4 172.5 29.2C172.3 29 171.9 30.3 171.5 32.1Z" fill="black"/>
<path d="M234.5 52.1C228.4 64.9 223.4 75.7 223.2 76.2C223 76.6 224 77 225.5 77C227.8 77 228.5 76 231.7 69L235.3 61H246H256.8L260.6 69C263.7 75.7 264.7 77 266.7 77C267.9 77 269 76.8 269 76.6C269 75.3 247.1 29.5 246.4 29.3C245.9 29.1 240.5 39.4 234.5 52.1ZM253.9 55.7C254 56.7 251.8 57 246 57C241.6 57 238 56.7 238 56.4C238 56.1 239.9 51.9 242.1 47.1L246.2 38.5L250.1 46.5C252.2 50.9 253.9 55.1 253.9 55.7Z" fill="black"/>
<path d="M17.9002 39.1C-7.8998 65 -3.5998 108.2 26.8002 128.4C36.3002 134.7 44.4002 137.2 56.6002 137.8C73.1002 138.5 86.3002 133.8 98.1002 123.1C110.8 111.7 117 97.5 117 80C117 63 111 48.8 98.9002 37.5C94.0002 32.9 93.6002 32.8 92.4002 34.5C90.3002 37.3 90.7002 38.5 94.5002 41.4C96.4002 42.9 98.0002 44.5 98.0002 45.1C98.0002 45.6 95.2002 46 91.8002 46C85.9002 46 85.4002 46.2 83.4002 49.1C81.3002 52 81.3002 52.1 83.1002 58.6C84.1002 62.2 85.2002 67.8 85.6002 71.1L86.3002 77H59.1002H32.0002V72.7C32.1002 68.9 33.7002 60 35.5002 54.4C36.0002 53 35.3002 51.4 33.5002 49.2C31.1002 46.3 30.3002 46 25.2002 46H19.6002L23.4002 42.1C27.0002 38.4 27.1002 38.1 25.7002 35.5L24.3002 32.7L17.9002 39.1ZM29.5002 53.7C27.5002 61.5 26.0002 69.9 26.0002 73.2V77H16.5002H7.00021V74.2C7.00021 70.4 9.70021 61.5 12.6002 55.7L15.0002 51H22.6002H30.2002L29.5002 53.7ZM104.8 54.2C107.2 58 110.5 67.9 111.3 73.3L111.9 77.1L101.7 76.8L91.5002 76.5L90.8002 69.5C90.2002 62.9 88.8002 56.3 87.4002 52.6C86.9002 51.2 87.8002 51 94.8002 51C102.8 51 102.8 51 104.8 54.2ZM26.6002 91.5C27.2002 95.9 28.2002 101.3 28.9002 103.5C30.7002 110 30.7002 110 23.0002 110C16.1002 110 15.9002 109.9 14.0002 106.7C11.0002 101.9 7.90021 93.1 7.30021 87.7L6.70021 82.9L16.1002 83.2L25.4002 83.5L26.6002 91.5ZM56.0002 96.5V110.1L46.8002 109.8L37.5002 109.5L35.7002 105.6C33.9002 101.9 30.9002 85.2 31.7002 83.7C31.9002 83.3 37.5002 83 44.1002 83H56.0002V96.5ZM86.0002 85.5C86.0002 89.2 83.1002 102.9 81.5002 106.7L80.1002 110H71.1002H62.0002V96.5V83H74.0002H86.0002V85.5ZM111.2 87C110.7 92.1 107.2 101.9 104.4 106.2L102 110H94.5002C90.4002 110 87.0002 109.8 87.0002 109.7C87.0002 109.5 87.9002 105.8 89.0002 101.5C90.1002 97.2 91.0002 91.6 91.0002 89C91.0002 86.4 91.3002 84 91.7002 83.6C92.1002 83.2 96.7002 83.1 102 83.2L111.5 83.5L111.2 87ZM32.5002 115.6C33.3002 116 34.8002 117.6 35.6002 119.2C36.4002 120.8 38.8002 124 40.8002 126.2C44.2002 130 44.3002 130.2 42.0002 129.5C35.5002 127.5 21.0002 118.1 21.0002 115.9C21.0002 114.9 30.0002 114.7 32.5002 115.6ZM56.0002 123.1V131.1L52.9002 129.3C49.3002 127.2 41.0002 118.1 41.0002 116.3C41.0002 115.4 43.1002 115 48.5002 115H56.0002V123.1ZM77.0002 116.1C77.0002 117.5 64.7002 130 63.2002 130C62.4002 130 62.0002 127.7 62.0002 122.5V115H69.5002C74.1002 115 77.0002 115.4 77.0002 116.1ZM97.0002 116.5C97.0002 118.4 91.3002 124.8 88.1002 126.4C84.6002 128.2 75.0002 130.4 74.3002 129.6C73.9002 129.3 74.8002 127.7 76.2002 126.2C77.6002 124.7 80.0002 121.6 81.5002 119.2L84.3002 115H90.6002C95.6002 115 97.0002 115.3 97.0002 116.5Z" fill="#B00108"/>
<path d="M268.9 94.2C266.9 94.7 263.8 96.7 261.9 98.6C259 101.6 258.5 102.8 258.2 108.3C257.9 113.5 258.2 115 260.2 118C263.1 122.3 268.2 125 273.6 125C278.2 125 284 122.9 285.9 120.6C288 118.1 285.3 117.7 282 120.1C278 123.1 270.2 123.2 266.2 120.4C254.2 111.5 262.5 93.6 277.3 96.4C279.2 96.7 281.6 97.9 282.8 99.1C284 100.2 285.5 100.8 286.1 100.4C287.9 99.3 283.1 95.3 278.5 94.1C273.6 92.9 273.8 92.9 268.9 94.2Z" fill="#B00108"/>
<path d="M138 95.6C138 96.8 138.7 97.1 140.5 96.8C144.6 96 145.2 97.9 144.8 111.5C144.6 121 144.8 124 145.8 124C146.7 124 147 120.6 147 110.6V97.1L150.2 96.8C151.9 96.6 153.5 95.9 153.8 95.2C154.1 94.3 152.1 94 146.1 94C139.3 94 138 94.3 138 95.6Z" fill="#B00108"/>
<path d="M173 109C173 121.7 173.2 124 174.5 124C175.7 124 176 122.6 176 117C176 113.1 176.4 110 177 110C177.5 110 180.3 113.1 183.2 117C186.3 121.1 189.2 124 190.2 124C191.6 124 190.9 122.6 187 117.6C184.3 114.1 182 111 182 110.7C182 110.4 183.6 109.9 185.5 109.6C190.7 108.6 193.3 103.6 191.4 98.5C190.3 95.8 185.4 94 179 94H173V109ZM187.8 98.2C189.5 99.9 189.3 104.5 187.5 106C186.6 106.7 183.7 107.5 181 107.8L176 108.3V102.6V97H181.3C184.2 97 187.1 97.5 187.8 98.2Z" fill="#B00108"/>
<path d="M218 108.5C214.2 116.6 211 123.4 211 123.6C211 123.8 211.6 124 212.3 124C213.1 124 214.7 121.7 216 119L218.3 114H225H231.7L234 119C235.3 121.7 236.9 124 237.7 124C238.4 124 239 123.8 239 123.6C239 123.2 225.9 94.7 225.4 94.1C225.2 93.9 221.9 100.4 218 108.5ZM227.8 105.5C229 108 230 110.5 230 111C230 111.6 227.8 112 225 112C222.3 112 220 111.7 220 111.3C220 110 224.4 101 225 101C225.3 101 226.6 103 227.8 105.5Z" fill="#B00108"/>
<path d="M308 108.9C308 121.7 308.2 124 309.5 124C310.7 124 311 122.6 311 117.3V110.6L317.9 117.4C321.7 121.2 325.3 124.1 325.9 123.9C326.5 123.7 323.8 120.1 320 115.8C316.1 111.6 313 107.9 313 107.6C313 107.2 316 104.2 319.6 100.8C327.9 93 326.2 91.9 317.5 99.4L311.1 105.1L310.8 99.9C310.6 96.8 310 94.5 309.3 94.2C308.3 93.9 308 97.3 308 108.9Z" fill="#B00108"/>
</svg>
